<svg width="70" height="70" viewBox="0 0 70 70" fill="none" xmlns="http://www.w3.org/2000/svg">
<path d="M43.8382 49.3404C46.9947 47.7865 49.2665 44.9856 50.369 41.2681C51.0062 39.18 51.1209 35.6558 50.6366 33.334C49.3175 26.9357 43.6268 22.1911 36.4886 21.5443L35.1525 21.4275L35.0686 20.3749C34.9687 19.0217 34.4674 18.5034 33.2981 18.5034H32.5631V20.0074C32.5631 21.2267 32.5132 21.5103 32.3124 21.5103C32.1117 21.5103 32.0618 21.2267 32.0618 20.0074C32.0618 18.5204 32.0618 18.5034 31.6444 18.5034C31.227 18.5034 31.227 18.5034 31.227 20.0913V21.6611L30.525 21.8449C27.8857 22.513 25.3133 23.9161 23.6925 25.5539C21.1042 28.1922 20.3353 32.4195 21.9061 35.5432C23.7934 39.2682 28.9711 39.0175 30.9593 35.0918C31.5966 33.8226 31.7782 32.9368 31.878 30.6988C31.962 28.8932 32.0119 28.6107 32.2785 28.5608C32.545 28.5108 32.5631 28.7732 32.5631 32.2687V36.0435H33.2981C33.8493 36.0435 34.1668 35.9437 34.5173 35.6431L34.9847 35.2427L35.1525 28.6107L36.0712 28.6776C37.4742 28.7604 40.5638 29.5964 42.2514 30.3313C44.2694 31.2331 46.3777 32.6532 47.513 33.9224C51.5893 38.4333 49.8347 45.3935 44.4893 45.8502C43.4537 45.933 43.1202 45.8661 41.166 45.232C39.9796 44.8475 37.6739 44.0127 36.0542 43.3776C34.4334 42.7594 32.5291 42.0743 31.7941 41.8736C26.984 40.5215 22.5901 42.7764 21.0373 47.3871C20.4362 49.1927 20.9205 49.5252 21.6884 47.8205C22.3256 46.4174 22.9077 46.0148 24.2438 46.121C25.0796 46.171 25.6978 46.4216 28.8543 48.0254C33.365 50.3143 34.5173 50.6479 37.9086 50.6479C40.5808 50.6426 41.6333 50.4089 43.8382 49.3404ZM29.3386 36.1603C28.404 37.129 27.5182 37.4466 26.0982 37.3457C24.7451 37.2458 23.8264 36.8284 22.9916 35.8927C21.271 33.9883 22.0729 31.4317 24.846 30.0509C26.1991 29.3659 29.9068 28.4811 30.8924 28.5809C31.0932 28.6149 31.1601 28.9654 31.193 30.3685C31.261 33.1025 30.7416 34.7233 29.3386 36.1603Z" fill="#FFEA94"/>
<path d="M67.3297 37.812L67.3138 37.7599C67.2761 37.5992 67.2133 37.4455 67.1279 37.3042C67.0544 37.168 66.9477 37.0525 66.8178 36.9684C66.6879 36.8843 66.5388 36.8344 66.3844 36.8231C66.3914 36.6671 66.3577 36.5119 66.2867 36.3728C66.1731 36.1444 65.9405 35.9171 65.4625 35.9033C65.4111 35.73 65.3194 35.5713 65.1949 35.4402C65.0005 35.248 64.6851 35.146 64.1987 35.4519C63.8368 35.7918 63.4747 36.1196 63.1121 36.4354C62.9125 36.6011 62.7139 36.7636 62.5142 36.9219C62.5577 36.2846 62.5822 35.6473 62.5822 34.9973C62.5822 34.4312 62.563 33.8693 62.5291 33.3106L62.563 33.3382L62.8466 33.5698L63.1185 33.8056C63.4796 34.1242 63.8422 34.4553 64.2061 34.7987C64.6915 35.1088 65.008 35.0111 65.2023 34.8189C65.3269 34.6888 65.4183 34.5307 65.4689 34.3579C66.4248 34.343 66.4014 33.4455 66.4014 33.4455C66.5555 33.436 66.7045 33.3874 66.8346 33.3043C66.9647 33.2213 67.0714 33.1065 67.1449 32.9707C67.2304 32.8306 67.2935 32.6779 67.3318 32.5183L67.3467 32.4662L67.6271 32.4004L67.6186 32.2888C67.6186 32.2888 67.5952 32.1975 67.6101 32.1826L67.3233 32.1635L67.3 32.1147C67.238 31.9629 67.1524 31.822 67.0461 31.6972C66.9474 31.5762 66.8204 31.4813 66.6762 31.4211C66.5321 31.3609 66.3753 31.3372 66.2198 31.352C66.2198 31.352 66.1062 30.462 65.1577 30.6032C65.0814 30.4382 64.9627 30.2963 64.8136 30.1922C64.5842 30.0382 64.2518 29.9925 63.8354 30.3759C63.6942 30.5724 63.537 30.77 63.383 30.9622C63.229 31.1545 63.075 31.3457 62.9199 31.5326C62.7648 31.7195 62.6108 31.9033 62.4558 32.0839L62.425 32.1189C62.2998 30.9209 62.0966 29.7323 61.8164 28.5608C62.0373 28.6847 62.2586 28.8125 62.4802 28.9442C62.6926 29.0685 62.905 29.1948 63.109 29.3276C63.3129 29.4604 63.5157 29.5942 63.7197 29.7334C64.2454 29.9553 64.5417 29.8024 64.7042 29.5815C64.8074 29.4312 64.8736 29.2587 64.8975 29.078C65.3659 28.9877 65.5666 28.7222 65.6293 28.4811C65.6692 28.331 65.675 28.1738 65.6463 28.0212C65.7975 27.9843 65.937 27.9102 66.0522 27.8055C66.1674 27.7009 66.2546 27.5691 66.3058 27.4221C66.3684 27.2682 66.4071 27.1056 66.4205 26.9399L66.4269 26.8858L66.6914 26.7732L66.6606 26.667C66.6606 26.667 66.6192 26.582 66.6308 26.5608L66.3441 26.5926L66.3112 26.5491C66.2196 26.4114 66.1075 26.2885 65.9787 26.1848C65.8629 26.0817 65.723 26.0095 65.5719 25.9748C65.4208 25.9401 65.2634 25.944 65.1142 25.9861C65.0998 25.9413 65.082 25.8976 65.0611 25.8555C65.0149 25.7573 64.9512 25.6684 64.8731 25.5931C64.6872 25.4179 64.3898 25.2841 63.9363 25.4349C63.8285 25.2889 63.6877 25.1706 63.5253 25.0897C63.2768 24.9761 62.9443 24.9888 62.5939 25.4413C62.3676 25.8852 62.1467 26.3143 61.9056 26.7371C61.7746 26.9601 61.6429 27.1796 61.5105 27.3956C61.1793 26.2398 60.772 25.1072 60.2912 24.0053L60.3337 24.0191L60.6789 24.138L61.0156 24.2665C61.4652 24.4422 61.9191 24.6287 62.3772 24.8263C62.5866 24.8858 62.8094 24.8784 63.0144 24.805C63.1506 24.746 63.26 24.6385 63.3214 24.5034C63.3938 24.3384 63.4258 24.1585 63.4148 23.9787C64.307 23.6367 63.9777 22.8019 63.9777 22.8019C64.1197 22.7401 64.2436 22.6433 64.3378 22.5205C64.432 22.3977 64.4934 22.2529 64.5162 22.0998C64.5481 21.9382 64.5546 21.7727 64.5353 21.6091V21.5549L64.7775 21.3967L64.7308 21.2904C64.7308 21.2904 64.6766 21.2129 64.6851 21.1895L64.409 21.2703L64.3707 21.232C64.3376 21.1944 64.3021 21.1589 64.2645 21.1258C64.1804 21.0465 64.0857 20.9793 63.9831 20.9261C63.849 20.8459 63.6972 20.8001 63.5411 20.7928C63.3851 20.7856 63.2297 20.8172 63.0888 20.8847C63.0888 20.8847 62.6799 20.086 61.8408 20.5438L61.8058 20.5108C61.7752 20.4832 61.7425 20.458 61.7081 20.4354C61.6057 20.3643 61.4918 20.3115 61.3714 20.2793C61.1037 20.2124 60.7766 20.2793 60.5153 20.7881C60.3858 21.2565 60.218 21.7302 60.0565 22.1869C59.9684 22.4312 59.8823 22.6702 59.791 22.9081C59.2623 21.8249 58.6627 20.7779 57.9961 19.7737L58.0396 19.7811C58.2754 19.8208 58.513 19.8633 58.7523 19.9086C58.9916 19.9539 59.2327 20.0017 59.4756 20.052C59.7177 20.1019 59.9493 20.1582 60.1904 20.2219C60.7586 20.2506 60.9848 20.0095 61.0623 19.7408C61.1076 19.5642 61.1112 19.3795 61.0729 19.2012C61.8939 18.7084 61.4096 17.9522 61.4096 17.9522C61.5389 17.8651 61.6446 17.7474 61.7173 17.6095C61.7899 17.4715 61.8273 17.3178 61.826 17.1619C61.8348 16.9968 61.8129 16.8315 61.7612 16.6744L61.7484 16.6224L61.9608 16.4248L61.8961 16.3335C61.8961 16.3335 61.8281 16.2676 61.8313 16.2432L61.5732 16.3717L61.5286 16.3409C61.3965 16.2424 61.25 16.165 61.0942 16.1115C60.9509 16.0538 60.7953 16.0333 60.6419 16.0519C60.4885 16.0704 60.3423 16.1275 60.2169 16.2177C60.1888 16.1787 60.1564 16.1431 60.1202 16.1115C60.0392 16.0388 59.9475 15.9789 59.8484 15.9341C59.6158 15.8279 59.2918 15.8056 58.9169 16.103C58.7673 16.0022 58.5958 15.9389 58.4167 15.9182C58.1458 15.8948 57.8389 16.0191 57.6615 16.5671C57.5999 17.0628 57.5312 17.5485 57.4555 18.0244C57.4204 18.2591 57.3694 18.5023 57.3217 18.7392C57.3217 18.753 57.3217 18.7668 57.3132 18.7806C56.6056 17.8074 55.8354 16.8814 55.0074 16.0084C55.2608 16.0042 55.5168 16.0042 55.7753 16.0084C56.2606 16.0169 56.7439 16.0424 57.2409 16.0732C57.8102 15.9999 57.9844 15.7195 58.0173 15.4476C58.0303 15.266 57.9997 15.084 57.9281 14.9166C58.2881 14.5979 58.3232 14.2793 58.2658 14.0297C58.2418 13.9236 58.1979 13.823 58.1363 13.7334C58.111 13.694 58.0826 13.6567 58.0513 13.6218C58.164 13.5143 58.2476 13.38 58.2944 13.2314C58.3412 13.0828 58.3497 12.9248 58.319 12.7721C58.2955 12.6087 58.2467 12.45 58.1745 12.3016L58.1533 12.2506L58.3264 12.0201L58.2489 11.9383C58.2489 11.9383 58.1724 11.8842 58.1724 11.8587L57.9408 12.0286L57.8899 12.0084C57.7412 11.9353 57.5821 11.8855 57.4183 11.8608C57.2659 11.8306 57.1084 11.8388 56.9601 11.8848C56.8117 11.9308 56.6772 12.0131 56.5686 12.1242C56.4518 12.0218 56.3135 11.9466 56.164 11.9044C56.0279 11.8662 55.8836 11.8684 55.7487 11.9107C55.5645 11.9706 55.4007 12.081 55.2761 12.2294C55.1086 12.1581 54.9267 12.1271 54.745 12.1391C54.4721 12.1656 54.1896 12.343 54.1131 12.9091C54.1662 13.6526 54.1704 14.411 54.1556 15.1449C53.2889 14.3071 52.3686 13.5266 51.4005 12.8082L51.4462 12.7987C51.6852 12.7509 51.9178 12.7169 52.1578 12.6776C52.6357 12.6043 53.1264 12.5342 53.6203 12.48C54.1619 12.3165 54.2915 12.0074 54.2756 11.7302C54.2672 11.607 54.2343 11.4868 54.1789 11.3765C54.1547 11.3253 54.1266 11.2759 54.095 11.2288C54.6983 10.4853 53.9888 9.93197 53.9888 9.93197C54.0816 9.80688 54.1412 9.66038 54.1622 9.50607C54.1832 9.35176 54.1648 9.19465 54.1088 9.04934C54.0558 8.89417 53.9788 8.74829 53.8805 8.61705L53.8508 8.57138L53.9814 8.3154L53.889 8.24955C53.889 8.24955 53.804 8.21025 53.7987 8.18582L53.6001 8.39294L53.5481 8.38019C53.3915 8.33054 53.228 8.3058 53.0637 8.3069C52.9077 8.30381 52.7533 8.33969 52.6146 8.41127C52.4759 8.48286 52.3572 8.5879 52.2693 8.71689C52.2693 8.71689 51.5142 8.23256 51.015 9.04828C50.8411 9.00152 50.6579 9.00152 50.4839 9.04828C50.2184 9.12475 49.9699 9.34992 49.9954 9.91604C50.0559 10.1508 50.1016 10.3983 50.1558 10.6394C50.2099 10.8805 50.2513 11.1216 50.2949 11.3595C50.3384 11.5974 50.3799 11.8343 50.4192 12.069L50.4255 12.1168C49.4271 11.4417 48.385 10.8336 47.3062 10.2963C47.5441 10.2071 47.7841 10.121 48.0284 10.0339C48.2727 9.94684 48.4925 9.87037 48.7262 9.79814C48.9598 9.72592 49.1924 9.65794 49.4304 9.59103C49.938 9.33186 50.0113 9.00579 49.9455 8.74132C49.8966 8.566 49.8075 8.40451 49.6852 8.26973C50.1568 7.42002 49.356 7.01748 49.356 7.01748C49.4246 6.87751 49.4573 6.72269 49.4512 6.56695C49.445 6.41121 49.4003 6.25943 49.321 6.12528C49.2666 6.02271 49.2014 5.92622 49.1266 5.83744C49.0945 5.79884 49.059 5.76329 49.0204 5.73123L48.9821 5.69299L49.0661 5.4179L48.9598 5.37117C48.9598 5.37117 48.8685 5.3478 48.8536 5.32549L48.6933 5.56553H48.6391C48.4752 5.5464 48.3093 5.55285 48.1473 5.58465C47.9941 5.60642 47.8489 5.66651 47.725 5.75934C47.6012 5.85217 47.5028 5.97475 47.4389 6.11572C47.396 6.09747 47.3516 6.0829 47.3062 6.07217C47.2004 6.04541 47.0905 6.03856 46.9822 6.05199C46.7295 6.07961 46.4353 6.22087 46.259 6.66485C46.0771 6.65261 45.895 6.6843 45.7279 6.75725C45.4805 6.87409 45.2765 7.13537 45.3976 7.69724C45.5923 8.15467 45.7757 8.60749 45.9478 9.05571C46.0349 9.3 46.1188 9.54323 46.1995 9.7854C45.1068 9.29868 43.9831 8.88461 42.8359 8.54589L42.872 8.52358C43.0791 8.40037 43.2915 8.26867 43.5018 8.15714C43.9266 7.92631 44.3607 7.69936 44.8039 7.47632C45.2606 7.12687 45.2755 6.79549 45.1639 6.54695C45.0842 6.38502 44.967 6.24447 44.822 6.13696C44.977 5.68556 44.8443 5.38816 44.6701 5.20335C44.5947 5.12415 44.5073 5.05746 44.4109 5.00579C44.3705 4.98186 44.3274 4.96295 44.2824 4.9495C44.3258 4.80103 44.331 4.644 44.2974 4.49301C44.2638 4.34203 44.1925 4.202 44.0902 4.08598C43.9871 3.95725 43.8646 3.84543 43.7269 3.7546L43.6855 3.71742L43.7195 3.43171L43.6133 3.40091C43.6133 3.40091 43.5198 3.39241 43.5071 3.3701L43.3924 3.63351L43.3382 3.63882C43.2895 3.63992 43.2409 3.64418 43.1927 3.65157C43.0777 3.66675 42.9652 3.6971 42.8582 3.74185C42.7105 3.7926 42.5778 3.87925 42.4719 3.99402C42.3661 4.10878 42.2904 4.24805 42.2517 4.39931C42.2517 4.39931 41.3765 4.19751 41.1896 5.13537L41.1418 5.14068C41.1121 5.14599 41.0696 5.15449 41.0207 5.1683C40.9005 5.20109 40.7869 5.25465 40.6851 5.32655C40.461 5.488 40.306 5.78433 40.5248 6.30903C40.7998 6.70945 41.0558 7.13962 41.3022 7.55916C41.424 7.77159 41.5437 7.98083 41.6612 8.18688L41.6824 8.22512C40.5133 7.93576 39.3266 7.72288 38.1297 7.58784L38.1616 7.56022C38.3443 7.40515 38.5291 7.25008 38.7181 7.09607C38.9072 6.94206 39.0973 6.78699 39.2927 6.63298C39.4882 6.47897 39.6825 6.34089 39.8822 6.19538C40.2688 5.77902 40.2263 5.45189 40.0734 5.21822C39.9672 5.06963 39.828 4.94781 39.6666 4.8624C39.8174 3.91604 38.9231 3.80027 38.9231 3.80027C38.9395 3.64524 38.9171 3.48858 38.858 3.34434C38.7989 3.20011 38.7048 3.07282 38.5843 2.97393C38.4983 2.89552 38.4039 2.82678 38.3029 2.76894C38.26 2.74528 38.2156 2.72435 38.1701 2.70627L38.1223 2.68396L38.1064 2.39612L37.9938 2.38763C37.9938 2.38763 37.9003 2.39719 37.8876 2.37913L37.8196 2.65953L37.7676 2.67547C37.6072 2.71395 37.4535 2.77663 37.3119 2.86134C37.1759 2.935 37.0605 3.04169 36.9764 3.17161C36.8923 3.30153 36.8423 3.45051 36.8308 3.60483C36.6748 3.5979 36.5196 3.63157 36.3805 3.70255C36.1521 3.8162 35.9249 4.04881 35.9121 4.52677C35.7384 4.57806 35.5794 4.66978 35.448 4.79443C35.2557 4.9888 35.1538 5.30425 35.4597 5.79071C35.7995 6.15254 36.1274 6.51473 36.4432 6.87727C36.6088 7.07695 36.771 7.27628 36.9296 7.47525C36.2923 7.43171 35.6551 7.40728 35.0062 7.40728C34.439 7.40728 33.8772 7.4264 33.3196 7.46038L33.3461 7.4264L33.5776 7.14281L33.8145 6.87196C34.1331 6.50942 34.4638 6.14688 34.8065 5.78434C35.1166 5.29788 35.0189 4.98242 34.8267 4.78805C34.6969 4.66295 34.5387 4.57112 34.3657 4.52039C34.3508 3.56447 33.4544 3.58784 33.4544 3.58784C33.4445 3.43391 33.3958 3.28499 33.3128 3.15498C33.2298 3.02497 33.1152 2.9181 32.9797 2.84435C32.839 2.75947 32.686 2.69678 32.5262 2.65847L32.4741 2.64254L32.4094 2.36214L32.2968 2.37063C32.2968 2.37063 32.2065 2.394 32.1906 2.37913L32.1714 2.66591L32.1237 2.68928C31.9718 2.75093 31.8309 2.83664 31.7062 2.94313C31.585 3.04166 31.49 3.16869 31.4297 3.31288C31.3695 3.45707 31.3459 3.61394 31.3611 3.76947C31.3611 3.76947 30.47 3.88311 30.6112 4.8316C30.4464 4.90775 30.3048 5.02656 30.2013 5.17573C30.0462 5.40622 30.0005 5.7376 30.384 6.15502C30.5815 6.29522 30.778 6.45242 30.9713 6.60643C31.1646 6.76044 31.3536 6.91445 31.5406 7.06952C31.7275 7.22459 31.9112 7.3786 32.0918 7.53367L32.1268 7.56447C30.9288 7.68962 29.7403 7.89292 28.5688 8.17308C28.6942 7.95215 28.8206 7.73123 28.9523 7.50924C29.084 7.28726 29.2029 7.08439 29.3357 6.88152C29.4684 6.67865 29.6033 6.47366 29.7414 6.26973C29.9634 5.73866 29.8115 5.44764 29.5895 5.28513C29.4397 5.1819 29.2675 5.11566 29.0871 5.09182C28.9958 4.62342 28.7303 4.42268 28.4892 4.36001C28.3391 4.32007 28.1819 4.31426 28.0293 4.34302C27.9921 4.19198 27.9178 4.0526 27.8132 3.93745C27.7087 3.82229 27.577 3.73499 27.4303 3.68343C27.2764 3.6209 27.1137 3.58256 26.9481 3.56978L26.895 3.56235L26.7707 3.29257L26.6645 3.32337C26.6645 3.32337 26.5796 3.36479 26.5583 3.35417L26.5902 3.64095L26.5466 3.67281C26.4087 3.76448 26.2855 3.87658 26.1813 4.00526C26.0782 4.12109 26.006 4.26102 25.9713 4.41212C25.9366 4.56323 25.9405 4.72064 25.9827 4.86984C25.9382 4.88415 25.8948 4.90191 25.8531 4.92294C25.7546 4.96857 25.6656 5.03234 25.5908 5.11094C25.4145 5.29682 25.2806 5.59421 25.4314 6.04775C25.2856 6.15539 25.1677 6.29632 25.0873 6.45879C24.9726 6.70733 24.9811 7.03978 25.4378 7.39135C25.8828 7.61758 26.3109 7.83744 26.7336 8.07961C26.9566 8.20919 27.1765 8.34054 27.3931 8.47366C26.2372 8.80518 25.1043 9.21251 24.0019 9.69299C24.0019 9.67919 24.0104 9.66538 24.0157 9.65157L24.1346 9.30531L24.2631 8.96862C24.438 8.51898 24.6246 8.06509 24.8229 7.60696C24.883 7.39758 24.8756 7.17458 24.8016 6.96968C24.7427 6.83383 24.6356 6.72452 24.5011 6.66272C24.3341 6.58953 24.152 6.55748 23.97 6.56925C23.6291 5.67706 22.7932 6.00632 22.7932 6.00632C22.7315 5.86446 22.6347 5.74067 22.5118 5.64663C22.389 5.5526 22.2442 5.49142 22.0912 5.46888C21.9297 5.43635 21.7641 5.42954 21.6005 5.4487H21.5463L21.3891 5.2076L21.2829 5.25327C21.2829 5.25327 21.2054 5.30744 21.182 5.3L21.2628 5.5751L21.2256 5.61439C21.1882 5.64779 21.1528 5.68325 21.1194 5.72061C21.0407 5.80526 20.9736 5.89989 20.9197 6.00207C20.8397 6.13623 20.7941 6.28811 20.7871 6.44416C20.7801 6.60021 20.8117 6.75557 20.8793 6.89639C20.8793 6.89639 20.0796 7.30531 20.5373 8.14546L20.5055 8.17945C20.4771 8.20969 20.4516 8.24239 20.429 8.27717C20.3579 8.37953 20.3051 8.49345 20.2729 8.61386C20.206 8.88152 20.2729 9.20866 20.7816 9.46994C21.25 9.59952 21.7248 9.76734 22.1815 9.92879C22.4247 10.0169 22.6647 10.103 22.9016 10.1943C21.8188 10.7237 20.7718 11.3233 19.7673 11.9893L19.7748 11.9458C19.8151 11.71 19.8576 11.4731 19.9022 11.2331C19.9468 10.993 19.9957 10.753 20.0456 10.5108C20.0955 10.2687 20.1571 10.0361 20.2155 9.79496C20.2453 9.22778 20.0031 9.00048 19.7344 8.92294C19.5578 8.8777 19.3731 8.87406 19.1949 8.91232C18.7021 8.09129 17.9469 8.57669 17.9469 8.57669C17.86 8.44704 17.7421 8.34109 17.604 8.2684C17.4658 8.19571 17.3118 8.15857 17.1557 8.16033C16.9906 8.15093 16.8253 8.17255 16.6682 8.22406L16.6161 8.2368L16.4196 8.02438L16.3272 8.08917C16.3272 8.08917 16.2614 8.15714 16.237 8.15396L16.3655 8.41206L16.3357 8.45667C16.2367 8.58857 16.159 8.73514 16.1053 8.89108C16.0474 9.03438 16.0268 9.19 16.0454 9.34342C16.0639 9.49684 16.1211 9.64305 16.2115 9.7684C16.1725 9.79647 16.1369 9.8289 16.1053 9.86506C16.0319 9.94575 15.9717 10.0375 15.9268 10.137C15.8206 10.3696 15.7994 10.6935 16.0957 11.0685C15.995 11.218 15.9316 11.3896 15.9109 11.5687C15.8875 11.8396 16.0171 12.1465 16.5598 12.3239C17.0555 12.3855 17.5412 12.4542 18.017 12.53C18.2517 12.565 18.496 12.616 18.7329 12.6638L18.7732 12.6723C17.8003 13.3806 16.8744 14.1512 16.0012 14.9792C15.9969 14.7257 15.9969 14.4694 16.0012 14.2103C16.0086 13.7249 16.0352 13.2416 16.0649 12.7445C15.9916 12.1752 15.7123 12.001 15.4404 11.9691C15.2589 11.9557 15.0768 11.986 14.9094 12.0573C14.5907 11.6972 14.2721 11.6622 14.0225 11.7195C13.9165 11.7438 13.816 11.7877 13.7262 11.8491C13.6887 11.8747 13.6532 11.9031 13.62 11.9341C13.5123 11.8216 13.378 11.7382 13.2294 11.6914C13.0809 11.6446 12.923 11.636 12.7703 11.6664C12.6069 11.6899 12.4482 11.7387 12.2998 11.8109L12.2499 11.8321L12.0353 11.6675L11.9546 11.745C11.9546 11.745 11.8994 11.8215 11.8739 11.8226L12.0449 12.0541L12.0237 12.104C11.9508 12.2527 11.9014 12.4118 11.8771 12.5756C11.8468 12.7279 11.8549 12.8853 11.9007 13.0337C11.9465 13.182 12.0286 13.3166 12.1394 13.4253C12.0371 13.5421 11.9623 13.6804 11.9206 13.83C11.8821 13.9664 11.8839 14.111 11.926 14.2464C11.9862 14.4302 12.0965 14.5935 12.2446 14.718C12.1733 14.8854 12.1423 15.0674 12.1543 15.249C12.1809 15.522 12.3582 15.8045 12.9243 15.881C13.6678 15.8279 14.4261 15.8236 15.1547 15.8385C14.3172 16.7055 13.5367 17.6258 12.8181 18.5937L12.8085 18.548C12.7608 18.309 12.7268 18.0764 12.6885 17.8364C12.6142 17.3595 12.5451 16.8688 12.4899 16.3738C12.3264 15.8321 12.0173 15.7026 11.7401 15.7185C11.6173 15.7269 11.4974 15.7597 11.3875 15.8151C11.3359 15.8393 11.2861 15.8673 11.2388 15.899C10.4953 15.2958 9.94198 16.0053 9.94198 16.0053C9.81705 15.9126 9.67074 15.853 9.51662 15.832C9.36251 15.811 9.20559 15.8293 9.06044 15.8852C8.90488 15.9381 8.75863 16.0151 8.62711 16.1136L8.5825 16.1433L8.32548 16.0138L8.25963 16.1051C8.25963 16.1051 8.22033 16.1901 8.19591 16.1954L8.40832 16.394L8.39452 16.4471C8.34538 16.6035 8.32066 16.7665 8.32123 16.9304C8.31852 17.0864 8.35456 17.2406 8.4261 17.3793C8.49765 17.5179 8.60248 17.6367 8.7312 17.7249C8.7312 17.7249 8.24795 18.4811 9.06151 18.9771C9.0151 19.1511 9.0151 19.3342 9.06151 19.5082C9.13904 19.7737 9.36314 20.0223 9.92923 19.9968C10.164 19.9362 10.4114 19.8905 10.6525 19.8374C10.8936 19.7843 11.1347 19.7419 11.3726 19.6972C11.6105 19.6526 11.8474 19.6123 12.0821 19.573L12.1299 19.5666C11.4553 20.5653 10.8471 21.6074 10.3095 22.6861C10.2202 22.4482 10.1342 22.2081 10.0471 21.9649C9.96003 21.7217 9.88356 21.4997 9.81134 21.266C9.73912 21.0323 9.6722 20.7997 9.60423 20.5629C9.34508 20.0552 9.01902 19.9808 8.75456 20.0467C8.57925 20.0955 8.41778 20.1846 8.283 20.3069C7.43333 19.8353 7.0308 20.6362 7.0308 20.6362C6.89103 20.5676 6.73639 20.5349 6.58082 20.541C6.42525 20.5471 6.27365 20.5919 6.13971 20.6712C6.03689 20.7258 5.94007 20.7909 5.85082 20.8656C5.81272 20.8982 5.77721 20.9337 5.74461 20.9718L5.70638 21.009L5.42917 20.924L5.38244 21.0302C5.38244 21.0302 5.36013 21.1216 5.33677 21.1311L5.5768 21.2915V21.3457C5.55766 21.5096 5.56411 21.6755 5.59592 21.8374C5.61787 21.9906 5.67803 22.1358 5.77083 22.2596C5.86364 22.3834 5.98611 22.4818 6.12696 22.5459C6.1093 22.589 6.09474 22.6334 6.08341 22.6787C6.0572 22.7845 6.05036 22.8943 6.06323 23.0026C6.09191 23.2554 6.23211 23.5496 6.67712 23.7259C6.66484 23.9077 6.69616 24.0898 6.76846 24.257C6.88529 24.5045 7.14763 24.7084 7.70841 24.5873C8.16652 24.3933 8.61932 24.2099 9.06681 24.0371C9.31216 23.95 9.55432 23.8672 9.79647 23.7865C9.30681 24.8847 8.89027 26.0141 8.54958 27.1672L8.52728 27.1311C8.40407 26.924 8.27237 26.7116 8.16086 26.5013C7.93074 26.0764 7.70416 25.6424 7.48112 25.1991C7.13063 24.7424 6.79926 24.7275 6.5518 24.839C6.39064 24.9166 6.24988 25.0308 6.14077 25.1725C5.68832 25.0185 5.39094 25.1502 5.20613 25.3255C5.12699 25.4005 5.0603 25.4876 5.00858 25.5836C4.98465 25.624 4.96575 25.6671 4.95229 25.7121C4.80401 25.6687 4.64714 25.6635 4.49633 25.6972C4.34552 25.7308 4.20568 25.8021 4.08988 25.9044C3.961 26.0076 3.84886 26.1301 3.75745 26.2676L3.72558 26.3112L3.43882 26.2761L3.40802 26.3823C3.40802 26.3823 3.39952 26.4758 3.37828 26.4885L3.64168 26.6043V26.6574C3.64344 26.7061 3.6477 26.7547 3.65442 26.8029C3.66972 26.9183 3.70007 27.0311 3.7447 27.1386C3.79585 27.2859 3.88264 27.4182 3.99735 27.5239C4.11206 27.6295 4.25112 27.7051 4.40213 27.744C4.40213 27.744 4.2014 28.6192 5.13816 28.8061C5.13816 28.8061 5.13816 28.8242 5.13816 28.8539C5.16807 29.0173 5.23135 29.1728 5.32402 29.3106C5.48652 29.5347 5.78178 29.6898 6.30645 29.4721C6.70792 29.1959 7.137 28.941 7.55653 28.6946C7.76895 28.5714 7.97818 28.4514 8.18422 28.3345L8.22352 28.3133C7.93325 29.4823 7.72037 30.6691 7.58627 31.8661L7.55759 31.8343C7.40253 31.6516 7.24852 31.4668 7.09346 31.2788C6.9384 31.0908 6.78439 30.8985 6.63145 30.7041C6.47851 30.5098 6.33938 30.3133 6.19281 30.1136C5.77647 29.727 5.44935 29.7695 5.21569 29.9224C5.06712 30.0285 4.9453 30.1678 4.85989 30.3292C3.91357 30.1794 3.79781 31.0727 3.79781 31.0727C3.64279 31.0563 3.48613 31.0787 3.3419 31.1378C3.19767 31.197 3.0704 31.291 2.9715 31.4115C2.8931 31.4976 2.82436 31.592 2.76652 31.693C2.74343 31.736 2.72287 31.7803 2.70492 31.8258L2.68155 31.8736L2.39479 31.8905L2.38629 32.0021C2.38629 32.0021 2.39585 32.0955 2.3778 32.1083L2.65819 32.1763L2.67306 32.2283C2.71133 32.3888 2.77402 32.5425 2.85892 32.684C2.93265 32.82 3.03936 32.9353 3.16926 33.0194C3.29916 33.1035 3.44809 33.1536 3.60238 33.1651C3.59545 33.3212 3.62912 33.4763 3.70009 33.6155C3.81374 33.8438 4.0474 34.0711 4.52427 34.0849C4.57571 34.2582 4.66743 34.4169 4.79192 34.548C4.98628 34.7403 5.30278 34.8422 5.78815 34.5363C6.15139 34.1964 6.51356 33.8686 6.87467 33.5528C7.07434 33.3871 7.27401 33.2249 7.47369 33.0663C7.42908 33.7036 7.40642 34.3448 7.40571 34.9899C7.40571 35.557 7.42483 36.1189 7.45775 36.6776L7.42377 36.65L7.14975 36.4312L6.87892 36.1954C6.51639 35.8767 6.15387 35.5457 5.79134 35.2023C5.30491 34.8921 4.98946 34.9899 4.7951 35.1821C4.67044 35.3122 4.57868 35.4703 4.52746 35.6431C3.57158 35.6579 3.59495 36.5554 3.59495 36.5554C3.44107 36.5651 3.29215 36.6136 3.16213 36.6964C3.0321 36.7793 2.92522 36.8938 2.85149 37.0292C2.76662 37.1699 2.70393 37.3229 2.66562 37.4827L2.64969 37.5347L2.37036 37.5995L2.37886 37.7121C2.37886 37.7121 2.40329 37.8035 2.38736 37.8183L2.67412 37.8374L2.69748 37.8863C2.75929 38.0378 2.84499 38.1783 2.95132 38.3027C3.04996 38.4242 3.17713 38.5194 3.32149 38.5798C3.46585 38.6402 3.62292 38.6639 3.77869 38.6489C3.77869 38.6489 3.89127 39.539 4.84078 39.3924C4.91686 39.5573 5.03522 39.6991 5.18383 39.8035C5.4143 39.9575 5.74567 40.0031 6.16307 39.6197C6.30327 39.4232 6.46152 39.2257 6.61446 39.0334C6.7674 38.8412 6.92246 38.65 7.07753 38.463C7.23259 38.2761 7.3866 38.0924 7.54272 37.9118L7.57352 37.8767C7.69779 39.0748 7.90073 40.2634 8.18104 41.4349C7.96118 41.3106 7.73921 41.1832 7.51723 41.0515C7.29526 40.9198 7.0924 40.8008 6.88954 40.668C6.68668 40.5353 6.48276 40.4004 6.27778 40.2623C5.74673 40.0403 5.45572 40.1933 5.29322 40.4142C5.19059 40.5647 5.12441 40.7371 5.09992 40.9176C4.63261 41.0079 4.43081 41.2734 4.36815 41.5146C4.3282 41.6647 4.3224 41.8218 4.35115 41.9745C4.20012 42.0117 4.06075 42.086 3.9456 42.1905C3.83045 42.2951 3.74316 42.4267 3.6916 42.5735C3.62966 42.7276 3.59134 42.8902 3.57795 43.0557L3.57052 43.1099L3.30075 43.2288L3.33049 43.3351C3.33049 43.3351 3.37191 43.42 3.36129 43.4413L3.64805 43.4094L3.68098 43.4529C3.77188 43.5908 3.88368 43.7137 4.01235 43.8173C4.12834 43.9204 4.26844 43.9927 4.41972 44.0274C4.57101 44.0621 4.72859 44.0581 4.87795 44.0159C4.89163 44.0608 4.90904 44.1045 4.92999 44.1465C4.97621 44.2449 5.04031 44.3339 5.11904 44.4089C5.30384 44.5841 5.60123 44.7179 6.05474 44.5671C6.16252 44.7131 6.30339 44.8314 6.46577 44.9123C6.71429 45.026 7.04673 45.0132 7.39828 44.5608C7.6245 44.1168 7.84436 43.6877 8.08651 43.265C8.2175 43.0419 8.34885 42.8224 8.48054 42.6064C8.81184 43.7624 9.21879 44.8953 9.69876 45.9978L9.65733 45.984L9.3111 45.8651L8.97441 45.7365C8.52621 45.5609 8.07235 45.3744 7.61282 45.1768C7.40338 45.1173 7.18057 45.1247 6.97557 45.198C6.83965 45.2574 6.73038 45.3648 6.66863 45.4997C6.59633 45.6647 6.56465 45.8446 6.57622 46.0244C5.68301 46.3664 6.01332 47.2012 6.01332 47.2012C5.87126 47.2628 5.74726 47.3596 5.65304 47.4824C5.55881 47.6053 5.49748 47.7501 5.47484 47.9033C5.44295 48.0649 5.43614 48.2304 5.45466 48.394V48.4482L5.21357 48.6054L5.2603 48.7116C5.2603 48.7116 5.3134 48.7891 5.30597 48.8125L5.58211 48.7318L5.62035 48.77C5.65358 48.8075 5.68905 48.843 5.72655 48.8762C5.81113 48.9549 5.90577 49.0221 6.00801 49.0759C6.14207 49.1561 6.2939 49.2018 6.44994 49.209C6.60598 49.2163 6.76139 49.1848 6.90229 49.1173C6.90229 49.1173 7.31225 49.916 8.1513 49.4583L8.18528 49.4912C8.21586 49.5188 8.24853 49.544 8.283 49.5666C8.38536 49.6377 8.49927 49.6905 8.61968 49.7227C8.88839 49.7896 9.21445 49.7227 9.47572 49.214C9.60636 48.7456 9.7731 48.2708 9.93454 47.8151C10.0227 47.5708 10.1087 47.3319 10.2001 47.0939C10.7292 48.1769 11.3288 49.2239 11.995 50.2283L11.9514 50.2209C11.7157 50.1812 11.4785 50.1387 11.2398 50.0934C11.0012 50.0481 10.7601 50.0003 10.5166 49.95C10.2733 49.9001 10.0418 49.8438 9.80178 49.7801C9.23356 49.7503 9.00734 49.9925 8.92981 50.2612C8.88386 50.4377 8.87986 50.6225 8.91812 50.8008C8.09713 51.2936 8.5825 52.0499 8.5825 52.0499C8.45322 52.1369 8.34752 52.2547 8.27487 52.3926C8.20221 52.5305 8.16487 52.6842 8.16617 52.8401C8.15727 53.0051 8.17887 53.1704 8.22989 53.3276L8.24264 53.3797L8.03022 53.5762L8.09501 53.6686C8.09501 53.6686 8.16298 53.7344 8.1598 53.7588L8.41788 53.6303L8.46355 53.6611C8.59517 53.7597 8.74138 53.8371 8.89688 53.8905C9.04021 53.9482 9.19579 53.9687 9.34917 53.9502C9.50254 53.9316 9.64874 53.8745 9.77417 53.7843C9.80264 53.823 9.83503 53.8586 9.87082 53.8905C9.95207 53.9634 10.0442 54.0233 10.1438 54.0679C10.3753 54.1741 10.7003 54.1964 11.0742 53.899C11.2239 53.9995 11.3953 54.0629 11.5744 54.0839C11.8452 54.1072 12.1532 53.9776 12.3306 53.4349C12.3908 52.9392 12.4595 52.4535 12.5367 51.9776C12.5717 51.7429 12.6216 51.4997 12.6694 51.2628C12.6694 51.248 12.6758 51.2352 12.6779 51.2214C13.3862 52.1943 14.1567 53.1203 14.9848 53.9936C14.7313 53.9978 14.475 53.9978 14.2158 53.9936C13.7304 53.9851 13.2472 53.9585 12.7501 53.9288C12.1809 54.0021 12.0067 54.2814 11.9748 54.5533C11.962 54.7348 11.9922 54.9168 12.063 55.0844C11.7029 55.403 11.6679 55.7217 11.7252 55.9713C11.7625 56.1222 11.8353 56.2621 11.9376 56.3791C11.8249 56.4867 11.7413 56.621 11.6945 56.7696C11.6477 56.9181 11.6393 57.0761 11.67 57.2288C11.6941 57.3922 11.7432 57.5509 11.8155 57.6994L11.8357 57.7503L11.6626 57.9808L11.7412 58.0626C11.7412 58.0626 11.8166 58.1168 11.8176 58.1423L12.0492 57.9723L12.0991 57.9925C12.2482 58.0655 12.4075 58.1153 12.5717 58.1402C12.7241 58.1704 12.8816 58.1622 13.0299 58.1162C13.1783 58.0702 13.3128 57.9879 13.4214 57.8767C13.5377 57.9793 13.6757 58.0545 13.825 58.0966C13.9614 58.1348 14.1061 58.1326 14.2413 58.0902C14.4251 58.03 14.5884 57.9196 14.7129 57.7716C14.8804 57.8429 15.0623 57.8738 15.2439 57.8619C15.5169 57.8353 15.7994 57.6579 15.8812 57.0918C15.8281 56.3483 15.8238 55.59 15.8397 54.8613C16.7061 55.6991 17.626 56.4797 18.5937 57.198L18.5491 57.2076C18.3091 57.2554 18.0765 57.2894 17.8365 57.3287C17.3596 57.402 16.8689 57.4721 16.374 57.5262C15.8334 57.6898 15.7027 57.9989 15.7187 58.2761C15.7276 58.3992 15.7604 58.5193 15.8153 58.6298C15.8397 58.6812 15.8681 58.7306 15.9003 58.7774C15.297 59.5209 16.0065 60.0743 16.0065 60.0743C15.9137 60.1994 15.8541 60.3459 15.8331 60.5002C15.8121 60.6545 15.8305 60.8116 15.8865 60.9569C15.9399 61.1119 16.0169 61.2577 16.1148 61.3892L16.1456 61.4349L16.015 61.6909L16.1063 61.7567C16.1063 61.7567 16.1913 61.796 16.1966 61.8204L16.3963 61.608L16.4483 61.6218C16.6047 61.671 16.7677 61.6957 16.9316 61.6951C17.0876 61.6978 17.2418 61.6618 17.3804 61.5902C17.5191 61.5187 17.6378 61.4139 17.726 61.2851C17.726 61.2851 18.4822 61.7695 18.9814 60.9537C19.1554 61.0002 19.3385 61.0002 19.5124 60.9537C19.779 60.8773 20.0265 60.6521 20.001 60.086C19.9405 59.8513 19.8948 59.6038 19.8417 59.3627C19.7886 59.1216 19.7461 58.8805 19.7015 58.6425C19.6569 58.4046 19.6165 58.1678 19.5783 57.933C19.5783 57.9171 19.5783 57.9012 19.5709 57.8852C20.5705 58.5554 21.6133 59.1589 22.6923 59.6919C22.4555 59.7811 22.2154 59.8672 21.9712 59.9543C21.7269 60.0414 21.506 60.1178 21.2734 60.1901C21.0408 60.2623 20.8061 60.3303 20.5692 60.4025C20.0615 60.6617 19.9883 60.9877 20.053 61.2522C20.1019 61.4275 20.191 61.589 20.3133 61.7238C19.8427 62.5735 20.6436 62.976 20.6436 62.976C20.5748 63.1157 20.5419 63.2703 20.5479 63.4259C20.5538 63.5815 20.5984 63.7331 20.6775 63.8672C20.7323 63.9689 20.7974 64.0646 20.8719 64.1529C20.9041 64.1913 20.9397 64.2269 20.9781 64.2591L21.0153 64.2973L20.9324 64.5724L21.0387 64.6192C21.0387 64.6192 21.13 64.6425 21.1449 64.6648L21.3042 64.4248H21.3583C21.5226 64.444 21.6889 64.4376 21.8512 64.4057C22.0042 64.3837 22.1492 64.3236 22.2729 64.2308C22.3965 64.1379 22.4947 64.0155 22.5585 63.8746C22.6014 63.8929 22.6459 63.9074 22.6913 63.9182C22.7971 63.9449 22.9069 63.9518 23.0152 63.9383C23.269 63.9107 23.5632 63.7695 23.7385 63.3255C23.9203 63.3376 24.1024 63.3059 24.2695 63.2331C24.5159 63.1163 24.7198 62.855 24.5998 62.2931C24.3938 61.8335 24.2062 61.38 24.0369 60.9325C23.9498 60.6882 23.867 60.445 23.7863 60.2028C24.8844 60.6925 26.0138 61.1091 27.1669 61.4498L27.1308 61.4721C26.9247 61.5953 26.7113 61.727 26.502 61.8385C26.0772 62.0686 25.6428 62.2952 25.1988 62.5183C24.7421 62.8688 24.7273 63.2002 24.8399 63.4476C24.9194 63.61 25.0367 63.7509 25.1819 63.8587C25.0268 64.3101 25.1585 64.6022 25.3337 64.7923C25.4089 64.8712 25.496 64.9379 25.5918 64.9899C25.6322 65.0138 25.6754 65.0327 25.7203 65.0461C25.6772 65.1947 25.6722 65.3518 25.706 65.5027C25.7398 65.6537 25.8112 65.7937 25.9136 65.9097C26.0168 66.0379 26.1389 66.1496 26.2758 66.2411L26.3193 66.274L26.2854 66.5597L26.3916 66.5905C26.3916 66.5905 26.485 66.599 26.4978 66.6202L26.6135 66.3579H26.6667C26.7157 66.3561 26.7646 66.3519 26.8132 66.3451C26.9282 66.3297 27.0406 66.2993 27.1478 66.2549C27.2951 66.2037 27.4274 66.1169 27.5331 66.0022C27.6387 65.8875 27.7143 65.7484 27.7532 65.5974C27.7532 65.5974 28.6283 65.7992 28.8153 64.8613H28.862C28.8917 64.856 28.9342 64.8475 28.9831 64.8337C29.1036 64.8008 29.2175 64.7472 29.3197 64.6755C29.5428 64.513 29.6978 64.2177 29.4801 63.693C29.205 63.2926 28.9491 62.8624 28.7027 62.4429C28.5795 62.2304 28.4598 62.0212 28.3437 61.8151L28.3214 61.7758C29.4904 62.0656 30.6772 62.2785 31.8741 62.4131L31.8422 62.4407C31.6606 62.5958 31.4747 62.7509 31.2867 62.9049C31.0987 63.0589 30.9065 63.214 30.7121 63.368C30.5178 63.522 30.3224 63.6601 30.1227 63.8056C29.735 64.2219 29.7775 64.5491 29.9304 64.7827C30.0366 64.9313 30.1758 65.0532 30.3372 65.1386C30.1875 66.0849 31.0807 66.2007 31.0807 66.2007C31.0643 66.3557 31.0867 66.5124 31.1458 66.6566C31.205 66.8008 31.299 66.9281 31.4195 67.027C31.5059 67.1055 31.6006 67.1742 31.702 67.232C31.7445 67.2555 31.7885 67.2761 31.8337 67.2936L31.8826 67.317L31.8985 67.6038L32.0047 67.6133C32.0047 67.6133 32.0992 67.6027 32.1162 67.6218L32.1831 67.3414L32.2352 67.3255C32.3971 67.2834 32.5516 67.2164 32.6929 67.1269C32.8292 67.0534 32.9448 66.9468 33.0289 66.8168C33.113 66.6869 33.1629 66.5378 33.1741 66.3834C33.3301 66.3903 33.4853 66.3566 33.6244 66.2857C33.8527 66.172 34.08 65.9394 34.0938 65.4614C34.2671 65.41 34.4258 65.3183 34.5569 65.1938C34.7491 64.9994 34.8511 64.684 34.5463 64.1975C34.205 63.8357 33.8768 63.4735 33.5617 63.1109C33.396 62.9113 33.2346 62.7116 33.0753 62.513C33.7125 62.5565 34.3498 62.5809 34.9998 62.5809C35.5659 62.5809 36.1277 62.5618 36.6864 62.5278L36.4283 62.8454L36.1914 63.1163C35.8728 63.4788 35.5418 63.8413 35.1984 64.2039C34.8883 64.6903 34.986 65.0058 35.1782 65.2002C35.3085 65.3246 35.4665 65.4164 35.6392 65.4678C35.6551 66.4237 36.5515 66.4004 36.5515 66.4004C36.5612 66.5544 36.6099 66.7034 36.6929 66.8334C36.7759 66.9634 36.8906 67.0703 37.0262 67.1439C37.167 67.2287 37.3199 67.2914 37.4798 67.3297L37.5307 67.3457L37.5966 67.6261L37.7081 67.6176C37.7081 67.6176 37.7994 67.5942 37.8143 67.6091L37.8324 67.3223L37.8812 67.2989C38.0329 67.237 38.1739 67.1513 38.2986 67.0451C38.4194 66.9459 38.514 66.8186 38.5742 66.6744C38.6344 66.5301 38.6583 66.3733 38.6438 66.2177C38.6438 66.2177 39.5338 66.1051 39.3873 65.1556C39.5523 65.0793 39.6942 64.9605 39.7983 64.8114C39.9523 64.5809 39.998 64.2495 39.6156 63.8321C39.4181 63.6919 39.2216 63.5347 39.0283 63.3807C38.835 63.2267 38.6449 63.0727 38.4579 62.9176C38.271 62.7626 38.0873 62.6086 37.9067 62.4535L37.8717 62.4227C39.0697 62.2976 40.2582 62.0943 41.4297 61.8141C41.3054 62.0339 41.1779 62.2559 41.0462 62.4779C40.9145 62.6999 40.7966 62.9028 40.6639 63.1056C40.5311 63.3085 40.3962 63.5135 40.2571 63.7174C40.0351 64.2485 40.1881 64.5395 40.41 64.702C40.5602 64.8047 40.7322 64.8709 40.9124 64.8953C41.0038 65.3637 41.2682 65.5645 41.5093 65.6271C41.6594 65.6671 41.8166 65.6729 41.9692 65.6441C42.0064 65.7953 42.0808 65.9348 42.1856 66.05C42.2904 66.1652 42.4223 66.2524 42.5693 66.3037C42.7228 66.3663 42.8851 66.4046 43.0504 66.4174L43.1046 66.4248L43.2171 66.6893L43.3234 66.6585C43.3234 66.6585 43.4083 66.617 43.4296 66.6277L43.3977 66.3409L43.4412 66.309C43.579 66.2175 43.7018 66.1054 43.8055 65.9766C43.9086 65.8607 43.9808 65.7208 44.0155 65.5697C44.0502 65.4186 44.0463 65.2612 44.0042 65.112C44.049 65.0976 44.0926 65.0799 44.1348 65.0589C44.233 65.0127 44.3219 64.949 44.3971 64.8709C44.5724 64.685 44.7073 64.3876 44.5564 63.9341C44.7019 63.8261 44.8199 63.6853 44.9005 63.5231C45.0142 63.2745 45.0015 62.9421 44.549 62.5905C44.105 62.3643 43.676 62.1444 43.2533 61.9022C43.0302 61.7716 42.8114 61.6409 42.5948 61.5082C43.7507 61.1765 44.8835 60.7692 45.986 60.2888C45.986 60.3027 45.9764 60.3165 45.9722 60.3303L45.8522 60.6765L45.7237 61.0132C45.5481 61.4629 45.3619 61.9167 45.165 62.3749C45.1044 62.5842 45.1118 62.8074 45.1863 63.0122C45.2449 63.1482 45.352 63.2577 45.4868 63.3191C45.6518 63.3914 45.8317 63.4231 46.0115 63.4115C46.3535 64.3048 47.1883 63.9755 47.1883 63.9755C47.2502 64.1172 47.3472 64.2408 47.4699 64.3348C47.5927 64.4288 47.7374 64.4901 47.8903 64.513C48.0519 64.5449 48.2174 64.5517 48.381 64.5331H48.4352L48.5934 64.7742L48.6996 64.7286C48.6996 64.7286 48.7772 64.6744 48.8058 64.6818L48.7241 64.4067L48.7623 64.3674C48.7998 64.3342 48.8353 64.2987 48.8685 64.2612C48.9475 64.1769 49.0147 64.0822 49.0682 63.9798C49.1484 63.8457 49.1941 63.6939 49.2013 63.5378C49.2086 63.3818 49.177 63.2264 49.1096 63.0855C49.1096 63.0855 49.9083 62.6765 49.4505 61.8364L49.4835 61.8024C49.5111 61.7718 49.5363 61.7391 49.5589 61.7047C49.6304 61.6026 49.6833 61.4886 49.715 61.368C49.7819 61.1003 49.715 60.7732 49.2073 60.5119C48.7389 60.3823 48.2642 60.2145 47.8075 60.0531C47.5632 59.9649 47.3242 59.8789 47.0863 59.7875C48.1693 59.2586 49.2163 58.659 50.2205 57.9925L50.2142 58.0361C50.1738 58.2719 50.1313 58.5087 50.0857 58.7488C50.04 58.9888 49.9933 59.2288 49.9423 59.471C49.8913 59.7132 49.8361 59.9458 49.7723 60.1869C49.7437 60.7541 49.9848 60.9814 50.2535 61.0578C50.4299 61.1038 50.6147 61.1078 50.793 61.0695C51.2858 61.8905 52.042 61.4052 52.042 61.4052C52.1287 61.5348 52.2464 61.6407 52.3844 61.7134C52.5223 61.7861 52.6763 61.8233 52.8322 61.8215C52.9973 61.831 53.1627 61.8094 53.3197 61.7578L53.3718 61.745L53.5693 61.9575L53.6606 61.8927C53.6606 61.8927 53.7265 61.8247 53.7509 61.8279L53.6235 61.5698L53.6532 61.5252C53.7517 61.393 53.8295 61.2465 53.8837 61.0908C53.9415 60.9475 53.9622 60.7918 53.9436 60.6384C53.925 60.485 53.8679 60.3388 53.7775 60.2134C53.8164 60.1854 53.8521 60.1529 53.8837 60.1168C53.9564 60.0358 54.0162 59.9441 54.061 59.8449C54.1673 59.6123 54.1896 59.2883 53.8922 58.9134C53.993 58.7637 54.0567 58.5923 54.078 58.4131C54.1003 58.1423 53.9718 57.8353 53.428 57.6579C52.9324 57.5963 52.447 57.5276 51.9719 57.4519C51.7361 57.4168 51.4929 57.3659 51.2561 57.3181L51.2147 57.3096C52.188 56.6033 53.1143 55.8345 53.9878 55.0079C53.992 55.2614 53.992 55.5177 53.9878 55.7769C53.9803 56.2623 53.9538 56.7456 53.923 57.2426C53.9963 57.812 54.2767 57.9861 54.5485 58.018C54.7301 58.0316 54.9122 58.0014 55.0796 57.9298C55.3982 58.2899 55.7168 58.325 55.9664 58.2676C56.1174 58.2304 56.2572 58.1575 56.3743 58.0552C56.4818 58.1679 56.6161 58.2515 56.7647 58.2983C56.9132 58.3451 57.0712 58.3535 57.2239 58.3228C57.3877 58.2991 57.5468 58.25 57.6955 58.1773L57.7454 58.1571L57.9759 58.3303L58.0577 58.2527C58.0577 58.2527 58.1118 58.1763 58.1373 58.1752L57.9674 57.9437L57.9886 57.8937C58.0609 57.7448 58.1104 57.5858 58.1352 57.4221C58.1655 57.2698 58.1572 57.1123 58.1112 56.9639C58.0652 56.8155 57.9829 56.681 57.8718 56.5724C57.9743 56.4556 58.0494 56.3173 58.0917 56.1678C58.1296 56.0313 58.1277 55.8869 58.0864 55.7514C58.0256 55.5679 57.9153 55.4047 57.7677 55.2798C57.839 55.1123 57.87 54.9304 57.858 54.7488C57.8315 54.4758 57.6541 54.1933 57.088 54.1115C56.3445 54.1646 55.5873 54.1688 54.8523 54.1529C55.685 53.2891 56.4605 52.3719 57.174 51.4073L57.1836 51.4529C57.2324 51.6919 57.2654 51.9245 57.3047 52.1646C57.3779 52.6415 57.448 53.1322 57.5033 53.6271C57.6658 54.1688 57.9748 54.2984 58.2467 54.2825C58.3699 54.2741 58.4901 54.2412 58.6004 54.1858C58.652 54.1617 58.7017 54.1336 58.7491 54.1019C59.4926 54.7041 60.0448 53.9957 60.0448 53.9957C60.1699 54.0885 60.3164 54.1481 60.4707 54.1691C60.625 54.1901 60.7821 54.1717 60.9274 54.1157C61.0824 54.0623 61.2282 53.9853 61.3597 53.8874L61.4054 53.8576L61.6624 53.9872L61.7272 53.8959C61.7272 53.8959 61.7665 53.8109 61.792 53.8056L61.5796 53.607L61.5923 53.5539C61.642 53.3976 61.6667 53.2345 61.6656 53.0706C61.6688 52.9145 61.6329 52.7601 61.5614 52.6213C61.4898 52.4826 61.3847 52.3639 61.2556 52.2761C61.2556 52.2761 61.7399 51.5199 60.9253 51.0207C60.972 50.8467 60.972 50.6635 60.9253 50.4896C60.8488 50.2241 60.6237 49.9755 60.0576 50.001C59.8229 50.0616 59.5754 50.1072 59.3343 50.1603C59.0932 50.2134 58.8532 50.2559 58.6142 50.3005C58.3752 50.3451 58.1395 50.3855 57.9047 50.4248L57.858 50.4312C58.5322 49.4322 59.1403 48.3901 59.6784 47.3117C59.7669 47.5489 59.854 47.7893 59.9397 48.0329C60.0193 48.2634 60.1033 48.4981 60.1755 48.7307C60.2477 48.9633 60.3157 49.198 60.3826 49.4349C60.6428 49.9426 60.9678 50.0169 61.2323 49.9511C61.4072 49.9021 61.5683 49.813 61.7028 49.6909C62.5524 50.1614 62.956 49.3616 62.956 49.3616C63.0958 49.4302 63.2504 49.4629 63.406 49.4568C63.5616 49.4507 63.7132 49.4059 63.8471 49.3266C63.9498 49.2718 64.0466 49.2066 64.136 49.1322C64.1743 49.0998 64.2099 49.0643 64.2422 49.026L64.2815 48.9888L64.5555 49.0716L64.6023 48.9654C64.6023 48.9654 64.6256 48.8741 64.6479 48.8645L64.4079 48.7041V48.65C64.4272 48.4861 64.4211 48.3202 64.3898 48.1582C64.3678 48.0051 64.3076 47.8599 64.2148 47.7362C64.122 47.6124 63.9996 47.5139 63.8588 47.4498C63.877 47.4068 63.8916 47.3624 63.9023 47.317C63.9289 47.213 63.9361 47.105 63.9236 46.9984C63.8949 46.7456 63.7536 46.4514 63.3097 46.275C63.3217 46.0932 63.29 45.9111 63.2173 45.744C63.1005 45.4976 62.8392 45.2936 62.2773 45.4137C61.8196 45.6091 61.3682 45.7928 60.9189 45.9649C60.6747 46.052 60.4314 46.1348 60.1904 46.2156C60.6796 45.1172 61.0961 43.9878 61.4372 42.8348L61.4585 42.8709C61.5817 43.077 61.7144 43.2958 61.8249 43.5007C62.0557 43.9256 62.2827 44.3597 62.5057 44.8029C62.8551 45.2596 63.1865 45.2745 63.435 45.163C63.5967 45.0829 63.7372 44.9657 63.845 44.821C64.2974 44.975 64.5884 44.8433 64.7796 44.668C64.8584 44.5927 64.9251 44.5057 64.9772 44.4099C65.0005 44.3694 65.0191 44.3263 65.0324 44.2814C65.1809 44.3248 65.3379 44.33 65.4889 44.2964C65.6398 44.2627 65.7799 44.1915 65.8959 44.0892C66.0246 43.9861 66.1364 43.8635 66.2272 43.7259L66.2602 43.6824L66.5459 43.7174L66.5767 43.6112C66.5767 43.6112 66.5862 43.5167 66.6075 43.505L66.3441 43.3892L66.3388 43.3361C66.3378 43.2874 66.3339 43.2388 66.3271 43.1906C66.3109 43.0753 66.2802 42.9626 66.2357 42.855C66.1848 42.7076 66.098 42.5751 65.9833 42.4694C65.8685 42.3638 65.7294 42.2882 65.5783 42.2496C65.5783 42.2496 65.7801 41.3744 64.8423 41.1874C64.8423 41.1874 64.8423 41.1694 64.837 41.1396C64.8317 41.1099 64.8232 41.0674 64.8094 41.0185C64.777 40.8983 64.7238 40.7847 64.6522 40.6829C64.4897 40.4588 64.1934 40.3037 63.6687 40.5215C63.2683 40.7976 62.8381 41.0525 62.4186 41.2989C62.2062 41.4221 61.997 41.5422 61.7909 41.659L61.7527 41.6802C62.0424 40.5112 62.2553 39.3243 62.3899 38.1274L62.4175 38.1593C62.5726 38.342 62.7273 38.5271 62.8817 38.7148C63.036 38.9024 63.1904 39.0939 63.3447 39.2894C63.4977 39.4848 63.6368 39.6792 63.7823 39.8799C64.1987 40.2665 64.5258 40.2241 64.7594 40.0711C64.908 39.965 65.0298 39.8257 65.1152 39.6643C66.0616 39.8141 66.1773 38.9208 66.1773 38.9208C66.3325 38.9371 66.4893 38.9147 66.6337 38.8555C66.778 38.7964 66.9055 38.7024 67.0047 38.582C67.0822 38.4952 67.1509 38.4009 67.2097 38.3005C67.2325 38.2574 67.2531 38.2131 67.2713 38.1678L67.2946 38.1189L67.5814 38.103L67.5899 37.9915C67.5899 37.9915 67.5803 37.8969 67.5984 37.8852L67.3297 37.812ZM59.2408 45.2384C56.7012 51.2737 52.0096 56.15 46.077 58.9205C40.1443 61.691 33.3938 62.158 27.1361 60.2309C20.8785 58.3038 15.5602 54.12 12.2137 48.4919C8.86724 42.8638 7.73143 36.1929 9.02679 29.7743C10.3222 23.3558 13.9563 17.6476 19.2235 13.7581C24.4908 9.86849 31.0155 8.07505 37.5307 8.72593C44.0459 9.37682 50.0868 12.4256 54.4806 17.2803C58.8744 22.135 61.3076 28.4493 61.3077 34.9973C61.3118 38.515 60.609 41.9977 59.2408 45.2384Z" fill="#FFEA94"/>
<path d="M35 0C15.67 0 0 15.6707 0 35.0016C0 54.3324 15.67 70 35 70C54.33 70 70 54.3293 70 34.9973C70 15.6654 54.33 0 35 0ZM58.1715 58.171C52.4246 63.9025 44.7498 67.2889 36.6425 67.6704C28.5352 68.0519 20.5762 65.4012 14.3166 60.2346C8.05692 55.0681 3.94497 47.756 2.782 39.7231C1.61902 31.6902 3.48833 23.512 8.02568 16.7822C12.563 10.0524 19.4433 5.25304 27.3259 3.31936C35.2085 1.38568 43.5286 2.4562 50.6651 6.32233C57.8015 10.1885 63.2429 16.5732 65.929 24.2325C68.6151 31.8917 68.3535 40.2767 65.1951 47.7536C63.55 51.6478 61.1647 55.1858 58.1715 58.171Z" fill="#FFEA94"/>
<path d="M35.0001 10.8741C21.6773 10.8741 10.878 21.675 10.878 34.9973C10.878 48.3197 21.6773 59.1216 35.0001 59.1216C48.3229 59.1216 59.1222 48.3207 59.1222 34.9973C59.1222 21.6739 48.3219 10.8741 35.0001 10.8741ZM34.2492 11.7376C34.4988 11.7291 34.7494 11.7238 35.0001 11.7238C35.2274 11.7238 35.4536 11.7238 35.6798 11.7345L35.6936 12.1476C35.4632 12.1412 35.2316 12.137 35.0001 12.137C34.7452 12.137 34.4914 12.1423 34.2386 12.1508L34.2492 11.7376ZM33.8318 13.3829C33.9265 13.3516 34.0113 13.2958 34.0775 13.2212C34.1437 13.1466 34.189 13.0558 34.2088 12.958C34.4722 12.9495 34.7399 12.9432 35.0001 12.9432C35.2433 12.9432 35.4855 12.9432 35.7276 12.9559C35.7446 13.0501 35.7852 13.1384 35.8456 13.2127C35.9059 13.287 35.9841 13.3448 36.0728 13.3808V14.3123L34.9576 15.4264L33.8318 14.3006V13.3829ZM18.5377 18.5374C22.4297 14.6348 27.5844 12.246 33.0777 11.7992V12.2145C21.6741 13.1609 12.6463 22.4779 12.1546 34.0064H11.7489C11.9886 28.1786 14.4156 22.6553 18.5462 18.5374H18.5377ZM33.0777 58.1901C27.4263 57.7274 22.1389 55.2148 18.2107 51.1255C14.2825 47.0361 11.9844 41.6518 11.7489 35.9862H12.162C12.6517 47.5146 21.6794 56.8316 33.0852 57.778L33.0777 58.1901ZM35.6703 58.2581C35.4462 58.2645 35.2199 58.2687 34.9948 58.2687C34.7282 58.2687 34.4637 58.2623 34.1972 58.2538L34.2035 57.8407C34.4669 57.8502 34.7346 57.8555 34.9948 57.8555C35.2263 57.8555 35.4568 57.8555 35.6862 57.8449L35.6703 58.2581ZM36.0675 56.6649C35.988 56.6972 35.9168 56.747 35.8593 56.8106C35.8017 56.8743 35.7593 56.9501 35.7351 57.0324C35.4887 57.0409 35.2423 57.0462 34.9916 57.0462C34.7218 57.0462 34.4542 57.0398 34.1865 57.0303C34.1604 56.9432 34.1138 56.8638 34.0506 56.7985C33.9874 56.7333 33.9094 56.6842 33.8233 56.6553V55.7451L34.9491 54.6192L36.0643 55.7334L36.0675 56.6649ZM36.4923 56.6649V55.5656L35.1647 54.2379V53.9193H35.2253C35.3064 53.9193 35.3842 53.887 35.4415 53.8297C35.4989 53.7723 35.5311 53.6945 35.5311 53.6134V52.6043C35.5311 52.5232 35.4989 52.4454 35.4415 52.388C35.3842 52.3307 35.3064 52.2984 35.2253 52.2984H34.7006C34.6195 52.2984 34.5417 52.3307 34.4843 52.388C34.4269 52.4454 34.3947 52.5232 34.3947 52.6043V53.6134C34.3947 53.6945 34.4269 53.7723 34.4843 53.8297C34.5417 53.887 34.6195 53.9193 34.7006 53.9193H34.7399V54.2379L33.4017 55.5773V56.6882C33.2782 56.7476 33.1802 56.8494 33.1255 56.975C27.7886 56.5245 22.7984 54.1453 19.0883 50.2823C15.3782 46.4194 13.2022 41.3372 12.9671 35.9862H13.5109C13.7553 40.8327 15.6557 45.4486 18.8946 49.0621C22.2439 52.8135 26.7928 55.2841 31.7629 56.051L31.8691 56.0669L33.0724 54.8635C33.1408 54.8866 33.2126 54.8985 33.2848 54.8985C33.4302 54.8983 33.5714 54.8496 33.6861 54.7602C33.8007 54.6707 33.8823 54.5456 33.918 54.4047C33.9536 54.2637 33.9413 54.1148 33.8829 53.9816C33.8246 53.8485 33.7235 53.7385 33.5957 53.6692C33.4678 53.5998 33.3206 53.575 33.1771 53.5987C33.0336 53.6224 32.9021 53.6933 32.8034 53.8C32.7047 53.9068 32.6443 54.0434 32.6319 54.1883C32.6194 54.3332 32.6556 54.4781 32.7347 54.6001L31.7204 55.6144C26.8877 54.844 22.4689 52.4295 19.21 48.7785C16.0409 45.2429 14.1791 40.728 13.9347 35.9862H14.1333C14.2387 35.9859 14.3397 35.9438 14.4142 35.8691C14.4887 35.7945 14.5305 35.6933 14.5305 35.5879V34.4132C14.5305 34.3077 14.4887 34.2066 14.4142 34.1319C14.3397 34.0572 14.2387 34.0151 14.1333 34.0149H13.9378C14.1762 29.493 15.8863 25.173 18.8075 21.7132C22.0878 17.7937 26.6735 15.1911 31.7204 14.3845L32.8887 15.5528C32.7917 15.6732 32.7404 15.824 32.7439 15.9786C32.7473 16.1331 32.8053 16.2815 32.9076 16.3974C33.0098 16.5134 33.1498 16.5894 33.3027 16.6121C33.4556 16.6349 33.6116 16.6028 33.7432 16.5216C33.8747 16.4404 33.9733 16.3153 34.0216 16.1685C34.0698 16.0216 34.0646 15.8624 34.0068 15.719C33.9491 15.5756 33.8425 15.4573 33.7059 15.3849C33.5693 15.3125 33.4115 15.2907 33.2604 15.3234L31.8722 13.9363L31.766 13.9522C26.5784 14.7549 21.8597 17.4171 18.4899 21.4424C15.5038 24.9758 13.7562 29.3896 13.5141 34.0095H12.9671C13.2009 28.6608 15.3746 23.5803 19.0819 19.7179C22.7892 15.8554 27.7762 13.4754 33.1106 13.0228C33.1346 13.0962 33.1733 13.164 33.2242 13.222C33.2751 13.2801 33.3373 13.3272 33.407 13.3606V14.4726L34.7452 15.8109V16.1296H34.7059C34.6248 16.1296 34.547 16.1618 34.4896 16.2192C34.4322 16.2765 34.4 16.3543 34.4 16.4355V17.4445C34.4 17.5256 34.4322 17.6034 34.4896 17.6608C34.547 17.7182 34.6248 17.7504 34.7059 17.7504H35.2306C35.3117 17.7504 35.3895 17.7182 35.4469 17.6608C35.5042 17.6034 35.5365 17.5256 35.5365 17.4445V16.4355C35.5365 16.3543 35.5042 16.2765 35.4469 16.2192C35.3895 16.1618 35.3117 16.1296 35.2306 16.1296H35.17V15.8109L36.4976 14.4843V13.3765C36.5758 13.3448 36.6459 13.2961 36.703 13.234C36.7601 13.172 36.8028 13.098 36.8279 13.0175C42.1739 13.4567 47.176 15.8315 50.8957 19.6963C54.6155 23.5611 56.7974 28.6505 57.032 34.0095H56.4861C56.2467 29.3879 54.5014 24.9715 51.5166 21.4349C48.1471 17.4094 43.4283 14.7472 38.2405 13.9448L38.1343 13.9288L36.743 15.316C36.5916 15.2831 36.4335 15.3049 36.2967 15.3773C36.1598 15.4498 36.053 15.5683 35.995 15.7119C35.9371 15.8556 35.9318 16.0151 35.9802 16.1622C36.0285 16.3094 36.1273 16.4347 36.2591 16.516C36.3909 16.5974 36.5472 16.6295 36.7003 16.6067C36.8535 16.5839 36.9937 16.5077 37.0961 16.3915C37.1986 16.2753 37.2566 16.1267 37.26 15.9718C37.2634 15.817 37.2119 15.6659 37.1147 15.5454L38.283 14.377C43.3301 15.184 47.9159 17.7865 51.1969 21.7058C54.116 25.1671 55.8238 29.4877 56.0602 34.0095H55.423C55.3175 34.0098 55.2165 34.0519 55.142 34.1266C55.0676 34.2012 55.0258 34.3024 55.0258 34.4078V35.5879C55.0258 35.6933 55.0676 35.7945 55.142 35.8691C55.2165 35.9438 55.3175 35.9859 55.423 35.9862H56.0602C55.8168 40.7282 53.9548 45.2435 50.7848 48.7785C47.5262 52.4297 43.1073 54.8443 38.2745 55.6144L37.2602 54.6001C37.3396 54.4778 37.3759 54.3326 37.3635 54.1874C37.3511 54.0422 37.2907 53.9052 37.1917 53.7982C37.0927 53.6912 36.9609 53.6203 36.8171 53.5966C36.6733 53.5729 36.5257 53.5978 36.3977 53.6674C36.2696 53.737 36.1684 53.8473 36.1101 53.9809C36.0517 54.1145 36.0396 54.2637 36.0756 54.4049C36.1115 54.5462 36.1935 54.6714 36.3086 54.7608C36.4237 54.8502 36.5654 54.8987 36.7111 54.8985C36.7834 54.8984 36.8551 54.8866 36.9235 54.8635L38.1269 56.0669L38.2331 56.051C43.2035 55.2844 47.7529 52.8138 51.1024 49.0621C54.3414 45.4487 56.2415 40.8327 56.4851 35.9862H57.0288C56.794 41.3482 54.6099 46.4402 50.8866 50.3058C47.1633 54.1714 42.157 56.5448 36.8078 56.9803C36.7492 56.8407 36.6377 56.7299 36.4976 56.6723L36.4923 56.6649ZM51.4508 51.4477C47.5437 55.366 42.3643 57.7578 36.8481 58.1912V57.7801C48.2815 56.8624 57.3464 47.5316 57.8328 35.9819H58.2449C58.0053 41.8097 55.5782 47.333 51.4476 51.4509L51.4508 51.4477ZM58.2481 34.0021H57.836C57.3464 22.4599 48.2868 13.129 36.8534 12.2145V11.8003C42.5178 12.2474 47.8224 14.7537 51.7647 18.8458C55.7071 22.9378 58.0142 28.3322 58.2502 34.0095L58.2481 34.0021Z" fill="#FFEA94"/>
<path d="M60.1695 35.2565C59.7118 35.2565 59.3315 35.4297 59.3198 35.8322C59.3152 35.9213 59.3331 36.0102 59.3719 36.0906C59.4107 36.171 59.4691 36.2403 59.5418 36.2921C59.7191 36.3992 59.9196 36.462 60.1263 36.4751C60.333 36.4882 60.5398 36.4513 60.7292 36.3675C60.8126 36.3218 60.8819 36.2541 60.9293 36.1716C60.9767 36.0892 61.0004 35.9952 60.9979 35.9002C61.0043 35.4679 60.6379 35.2629 60.1695 35.2565ZM60.1536 36.0977C59.785 36.0807 59.6034 35.9915 59.6066 35.8524C59.6098 35.7132 59.7893 35.6251 60.1599 35.64C60.5306 35.6548 60.7101 35.7462 60.7069 35.8906C60.7037 36.0351 60.5115 36.1126 60.1536 36.0977Z" fill="#FFEA94"/>
<path d="M60.4307 36.8507L60.5539 37.1747L60.5528 37.18L59.2762 37.0717L59.2496 37.4253L60.8598 37.5847L60.8842 37.2618L60.7196 36.8072L60.4307 36.8507Z" fill="#FFEA94"/>
<path d="M60.0219 37.762C59.5662 37.7153 59.1722 37.8523 59.1191 38.2517C59.1055 38.3398 59.1145 38.4299 59.1453 38.5135C59.1762 38.5971 59.2278 38.6715 59.2954 38.7297C59.4609 38.8533 59.6537 38.9354 59.8576 38.9691C60.0614 39.0027 60.2704 38.9869 60.4669 38.923C60.5524 38.8842 60.626 38.8231 60.6798 38.7461C60.7336 38.6691 60.7657 38.579 60.7728 38.4854C60.8312 38.0552 60.4881 37.8119 60.0219 37.762ZM59.921 38.5969C59.5567 38.5448 59.3835 38.4407 59.4016 38.2984C59.4197 38.1561 59.6066 38.086 59.9741 38.1391C60.3416 38.1922 60.5051 38.3005 60.4924 38.4429C60.4796 38.5852 60.2757 38.6479 59.921 38.5969Z" fill="#FFEA94"/>
<path d="M60.124 39.3744L60.2133 39.7089L60.2122 39.7142L58.9515 39.4795L58.8899 39.8279L60.4766 40.1476L60.5329 39.829L60.4151 39.3595L60.124 39.3744Z" fill="#FFEA94"/>
<path d="M59.6254 40.24C59.1772 40.1486 58.7683 40.24 58.678 40.6372C58.6554 40.7236 58.6552 40.8143 58.6775 40.9007C58.6998 40.9872 58.7438 41.0665 58.8054 41.1311C58.9555 41.2819 59.1464 41.3856 59.3545 41.4296C59.5496 41.4897 59.7576 41.4934 59.9546 41.4402C60.0439 41.4106 60.1234 41.3574 60.1848 41.2861C60.2461 41.2148 60.287 41.1282 60.303 41.0355C60.4007 40.6128 60.0842 40.3356 59.6254 40.24ZM60.0258 40.9644C59.9907 41.1163 59.7889 41.1471 59.4416 41.061C59.0943 40.975 58.9223 40.8486 58.9541 40.7126C58.986 40.5767 59.1793 40.5268 59.5404 40.6117C59.9015 40.6967 60.0576 40.8252 60.0258 40.9644Z" fill="#FFEA94"/>
<path d="M59.565 41.8545L59.6213 42.1965L59.6192 42.2018L58.3882 41.8417L58.2926 42.1827L59.839 42.6596L59.9272 42.3484L59.856 41.8693L59.565 41.8545Z" fill="#FFEA94"/>
<path d="M58.9798 42.6659C58.5422 42.5311 58.1302 42.5852 57.9974 42.9665C57.9669 43.0501 57.958 43.14 57.9714 43.228C57.9847 43.316 58.02 43.3992 58.0739 43.47C58.2113 43.6251 58.3842 43.7447 58.5778 43.8187C58.7714 43.8926 58.98 43.9188 59.1859 43.8948C59.2779 43.8746 59.3627 43.8297 59.4312 43.765C59.4997 43.7002 59.5492 43.6181 59.5746 43.5273C59.7169 43.1152 59.4291 42.804 58.9798 42.6659ZM59.3059 43.4275C59.256 43.5751 59.052 43.5857 58.7143 43.4647C58.3766 43.3436 58.2194 43.2055 58.265 43.0696C58.3107 42.9336 58.5072 42.907 58.8577 43.0271C59.2082 43.1471 59.3547 43.2926 59.3091 43.4275H59.3059Z" fill="#FFEA94"/>
<path d="M58.7607 44.2666L58.7819 44.6128L58.7798 44.6171L57.5913 44.1359L57.4617 44.4663L58.9529 45.0951L59.0719 44.7934L59.0485 44.3112L58.7607 44.2666Z" fill="#FFEA94"/>
<path d="M58.0995 45.0154C57.6746 44.8369 57.2594 44.8497 57.0937 45.2161C56.928 45.5826 57.1468 45.9033 57.596 46.1264C57.9911 46.3229 58.4255 46.3388 58.6061 45.9309C58.7856 45.5358 58.5296 45.2002 58.0995 45.0154ZM58.3491 45.8056C58.2843 45.9479 58.0814 45.9384 57.7575 45.7844C57.4336 45.6304 57.2902 45.4763 57.3497 45.3457C57.4091 45.215 57.6056 45.2076 57.9423 45.3627C58.279 45.5178 58.4075 45.6718 58.3491 45.8056Z" fill="#FFEA94"/>
<path d="M57.7052 46.9325L56.5709 46.3345C56.5167 46.4407 56.4647 46.547 56.4073 46.6532L57.8284 47.4286C57.8815 47.334 57.9282 47.2363 57.9781 47.1418L58.0015 46.6574L57.72 46.5852L57.7052 46.9325Z" fill="#FFEA94"/>
<path d="M56.9852 47.265C56.5837 47.0451 56.1663 47.0164 55.9656 47.3712C55.9197 47.4468 55.893 47.5325 55.8879 47.6208C55.8827 47.7091 55.8991 47.7973 55.9358 47.8778C56.0348 48.0664 56.1865 48.2222 56.3724 48.326C56.5407 48.4409 56.738 48.5061 56.9417 48.514C57.0318 48.5138 57.1203 48.4904 57.1987 48.4461C57.2826 48.3935 57.3517 48.3204 57.3994 48.2336C57.6161 47.8502 57.3941 47.4912 56.9852 47.265ZM57.1552 48.0775C57.0776 48.2124 56.8769 48.1837 56.5699 47.9979C56.263 47.812 56.1355 47.6442 56.2067 47.5199C56.2778 47.3956 56.4754 47.4137 56.7951 47.5953C57.1148 47.7769 57.2263 47.9543 57.1552 48.0775Z" fill="#FFEA94"/>
<path d="M56.4031 49.1343L55.3315 48.4333C55.2677 48.5332 55.2061 48.6341 55.135 48.7286L56.4721 49.641C56.5359 49.5549 56.5943 49.4636 56.6516 49.3723L56.7228 48.8932L56.4498 48.7934L56.4031 49.1343Z" fill="#FFEA94"/>
<path d="M55.6522 49.3893C55.2741 49.1312 54.862 49.0611 54.6294 49.3893C54.5759 49.4594 54.5405 49.5416 54.5262 49.6286C54.512 49.7157 54.5193 49.8049 54.5476 49.8884C54.6273 50.086 54.7627 50.2561 54.9374 50.3781C55.0929 50.5097 55.2826 50.5944 55.4844 50.6224C55.5788 50.6322 55.6742 50.6157 55.7599 50.5747C55.8456 50.5336 55.9182 50.4696 55.9697 50.3898C56.2182 50.0371 56.0366 49.658 55.6522 49.3893ZM55.7424 50.2156C55.6522 50.343 55.4557 50.2942 55.1679 50.0775C54.88 49.8608 54.7706 49.6835 54.8492 49.5666C54.9278 49.4498 55.1264 49.4817 55.4259 49.7005C55.7254 49.9192 55.8253 50.0998 55.7424 50.2156Z" fill="#FFEA94"/>
<path d="M54.8898 51.1949L53.8957 50.3855C53.8246 50.479 53.747 50.5682 53.6695 50.6574L54.9079 51.6983C54.978 51.6155 55.0513 51.5369 55.1203 51.4498L55.2308 50.9825L54.9684 50.8561L54.8898 51.1949Z" fill="#FFEA94"/>
<path d="M54.1144 51.3744C53.764 51.0791 53.3614 50.9697 53.098 51.2681C52.8346 51.5666 52.9408 51.9352 53.3104 52.2825C53.6291 52.5862 54.0359 52.7296 54.3375 52.3972C54.6179 52.0743 54.4703 51.6781 54.1144 51.3744ZM54.124 52.2071C54.0242 52.326 53.8266 52.2517 53.5632 52.0106C53.2998 51.7695 53.2127 51.5857 53.3051 51.4721C53.3975 51.3584 53.5887 51.4147 53.8649 51.6622C54.141 51.9097 54.2175 52.0987 54.124 52.2071Z" fill="#FFEA94"/>
<path d="M53.1784 53.095L52.2693 52.1901C52.1875 52.2751 52.0993 52.3537 52.0144 52.4365L53.1381 53.5985L53.3728 53.3754L53.5342 52.9166L53.2867 52.7658L53.1784 53.095Z" fill="#FFEA94"/>
<path d="M51.3891 53.0005C51.0896 53.2628 51.166 53.6484 51.4953 54.0276C51.7842 54.3632 52.1697 54.5416 52.5085 54.2453C52.8271 53.9468 52.7145 53.5369 52.3906 53.1991C52.0667 52.8613 51.6801 52.719 51.3891 53.0005ZM52.3173 54.0308C52.2005 54.137 52.0146 54.0435 51.7757 53.7758C51.5367 53.5082 51.4677 53.3138 51.5739 53.2182C51.6801 53.1226 51.8617 53.1885 52.1123 53.4615C52.363 53.7344 52.4203 53.9288 52.3173 54.0276V54.0308Z" fill="#FFEA94"/>
<path d="M51.2869 54.8167L50.4723 53.8258L50.194 54.0446L51.204 55.3095L51.4579 55.1099C51.5333 54.9686 51.5981 54.8167 51.6703 54.6712L51.4398 54.497C51.3835 54.6043 51.3326 54.7126 51.2869 54.8167Z" fill="#FFEA94"/>
<path d="M49.5152 54.5406C49.1902 54.77 49.2295 55.1641 49.5152 55.5741C49.7701 55.9362 50.1344 56.1508 50.5008 55.8927C50.846 55.6314 50.7759 55.2076 50.4881 54.8412C50.2003 54.4747 49.8349 54.2963 49.5152 54.5406ZM50.3362 55.6558C50.2098 55.7461 50.0335 55.6388 49.8232 55.3489C49.6129 55.0589 49.5609 54.8571 49.6777 54.7743C49.7945 54.6914 49.9666 54.7743 50.1907 55.0727C50.4148 55.3712 50.452 55.5741 50.3362 55.6558Z" fill="#FFEA94"/>
<path d="M49.233 56.3399L48.5204 55.2777L48.223 55.4689L49.1024 56.8242L49.3753 56.6489C49.4635 56.5162 49.5463 56.377 49.627 56.2368L49.4146 56.0393C49.353 56.1423 49.2946 56.2443 49.233 56.3399Z" fill="#FFEA94"/>
<path d="M48.0042 55.8683C47.927 55.8304 47.8417 55.8118 47.7557 55.8141C47.6647 55.8205 47.5764 55.8478 47.4976 55.8938C47.1524 56.0913 47.1524 56.4875 47.3978 56.924C47.6102 57.3096 47.9564 57.5613 48.3462 57.3351C48.4297 57.2904 48.4997 57.2242 48.549 57.1433C48.5983 57.0625 48.6251 56.9699 48.6266 56.8752C48.6238 56.6651 48.5583 56.4605 48.4386 56.2878C48.3345 56.1112 48.1844 55.9661 48.0042 55.8683ZM48.2039 57.0865C48.069 57.1641 47.9044 57.0398 47.7238 56.7307C47.5433 56.4217 47.5114 56.2156 47.6357 56.1434C47.7599 56.0711 47.9267 56.1763 48.1189 56.4939C48.3112 56.8115 48.3281 57.0122 48.2039 57.0823V57.0865Z" fill="#FFEA94"/>
<path d="M47.0378 57.6516L46.4356 56.5204L46.1169 56.6819L46.8604 58.1211L47.1482 57.9734C47.2481 57.847 47.349 57.7238 47.4414 57.59L47.2502 57.3776C47.179 57.4721 47.1079 57.5603 47.0378 57.6516Z" fill="#FFEA94"/>
<path d="M45.8631 57.0579C45.7876 57.0112 45.7015 56.9842 45.6128 56.9794C45.5241 56.9745 45.4356 56.992 45.3555 57.0303C44.9933 57.1938 44.954 57.5889 45.1547 58.0467C45.3332 58.4535 45.6475 58.735 46.0575 58.5491C46.1444 58.5134 46.2203 58.4552 46.2774 58.3806C46.3345 58.3059 46.3708 58.2175 46.3825 58.1242C46.4013 57.9148 46.3565 57.7046 46.254 57.521C46.169 57.3334 46.0337 57.1732 45.8631 57.0579ZM45.9396 58.2878C45.7983 58.3515 45.6475 58.2124 45.4978 57.8863C45.348 57.5603 45.3385 57.3553 45.4691 57.2937C45.5997 57.2321 45.7559 57.3574 45.9152 57.692C46.0745 58.0265 46.0702 58.2294 45.9396 58.2878Z" fill="#FFEA94"/>
<path d="M44.7224 58.736L44.2359 57.5496L43.9067 57.6792L44.4983 59.1853L44.7999 59.0663C44.9061 58.9495 45.024 58.8401 45.1302 58.7169L44.9603 58.4864C44.8806 58.5724 44.801 58.6542 44.7224 58.736Z" fill="#FFEA94"/>
<path d="M43.6145 58.0319C43.5471 57.9776 43.4671 57.9411 43.3819 57.9256C43.2914 57.9091 43.198 57.9164 43.1111 57.9469C42.7352 58.0743 42.6566 58.4641 42.8106 58.94C42.9465 59.3648 43.2354 59.6729 43.6602 59.5284C43.7533 59.4994 43.8373 59.4472 43.9045 59.3765C43.965 59.3085 44.0074 59.2263 44.0277 59.1375C44.0666 58.931 44.0429 58.7176 43.9597 58.5247C43.8917 58.332 43.7724 58.1616 43.6145 58.0319ZM43.5667 59.2671C43.4191 59.317 43.2832 59.1609 43.1674 58.8242C43.0516 58.4875 43.0612 58.2761 43.1972 58.2305C43.3331 58.1848 43.4765 58.3218 43.6018 58.6713C43.7271 59.0207 43.7016 59.2161 43.5667 59.2671Z" fill="#FFEA94"/>
<path d="M42.3101 59.5857L41.9447 58.3569L41.6038 58.4535L42.0371 60.0106L42.3494 59.9224C42.4715 59.8162 42.5948 59.7164 42.7137 59.6038L42.5693 59.3521L42.3101 59.5857Z" fill="#FFEA94"/>
<path d="M41.2791 58.7743C41.2145 58.7129 41.1356 58.6688 41.0494 58.6459C40.9633 58.6231 40.8728 58.6223 40.7863 58.6436C40.3987 58.7328 40.2818 59.1131 40.387 59.5996C40.4805 60.0329 40.7322 60.3707 41.1708 60.2698C41.6094 60.1689 41.6923 59.7493 41.5701 59.3022C41.5226 59.1031 41.4221 58.9207 41.2791 58.7743ZM41.1081 59.9926C40.9563 60.0276 40.8362 59.8608 40.7545 59.5114C40.6727 59.162 40.7056 58.9559 40.8447 58.924C40.9839 58.8922 41.1134 59.043 41.2027 59.4031C41.2919 59.7631 41.243 59.9607 41.1081 59.9926Z" fill="#FFEA94"/>
<path d="M39.8249 60.1911L39.5849 58.9315L39.2366 58.9941L39.5159 60.5873L39.8345 60.531C39.9672 60.4386 40.0989 60.3505 40.2285 60.2559L40.1096 59.9904L39.8249 60.1911Z" fill="#FFEA94"/>
<path d="M38.8809 59.2788C38.8228 59.2113 38.7487 59.1595 38.6654 59.1281C38.582 59.0967 38.4922 59.0868 38.404 59.0993C38.0089 59.1492 37.8549 59.5157 37.9101 60.0127C37.9601 60.4535 38.1767 60.8147 38.6228 60.7563C39.0689 60.6978 39.1942 60.291 39.1166 59.8332C39.0899 59.6304 39.0084 59.4387 38.8809 59.2788ZM38.5877 60.4737C38.4337 60.4928 38.3307 60.3155 38.2851 59.9596C38.2394 59.6038 38.2914 59.402 38.4337 59.3839C38.5761 59.3659 38.6886 59.5295 38.7417 59.897C38.7948 60.2645 38.7301 60.4557 38.5877 60.4737Z" fill="#FFEA94"/>
<path d="M37.2929 60.5417L37.1803 59.2671L36.8266 59.2937L36.9456 60.9081L37.2642 60.8826C37.4054 60.8051 37.5456 60.7307 37.689 60.6489L37.5977 60.3738L37.2929 60.5417Z" fill="#FFEA94"/>
<path d="M36.4433 59.5411C36.3915 59.469 36.3228 59.4107 36.2431 59.3714C36.1635 59.3321 36.0754 59.3131 35.9866 59.316C35.5883 59.3266 35.3982 59.675 35.4046 60.1752C35.411 60.6181 35.5905 60.9994 36.0418 60.9888C36.1393 60.988 36.2349 60.9628 36.3201 60.9155C36.3976 60.8679 36.4622 60.8019 36.5081 60.7233C36.6066 60.5377 36.6473 60.3268 36.6249 60.1179C36.618 59.9127 36.5552 59.7132 36.4433 59.5411ZM36.0387 60.702C35.8836 60.702 35.7986 60.5193 35.788 60.1603C35.7774 59.8013 35.8496 59.6059 35.993 59.6027C36.1364 59.5995 36.233 59.7737 36.2489 60.1444C36.2649 60.5151 36.1767 60.6989 36.0387 60.702Z" fill="#FFEA94"/>
<path d="M34.7378 60.6479L34.7506 59.3659L34.3958 59.3563L34.3523 60.9665L34.6709 60.975C34.8185 60.9102 34.9651 60.8539 35.1117 60.7806L35.0469 60.4981C34.9481 60.5544 34.844 60.5969 34.7378 60.6479Z" fill="#FFEA94"/>
<path d="M33.5586 59.2958C33.1614 59.265 32.9383 59.5932 32.8958 60.0913C32.8576 60.5332 33.0021 60.9304 33.4481 60.9644C33.5421 60.9751 33.6372 60.9602 33.7234 60.9214C33.8095 60.8825 33.8836 60.821 33.9377 60.7435C34.0541 60.5686 34.1155 60.363 34.1141 60.1529C34.1278 59.9482 34.0852 59.7435 33.9909 59.5613C33.9467 59.4845 33.884 59.42 33.8085 59.3736C33.733 59.3272 33.6471 59.3005 33.5586 59.2958ZM33.7328 60.1455C33.7168 60.5226 33.6117 60.6925 33.4694 60.6766C33.3271 60.6606 33.2485 60.4705 33.2739 60.1126C33.2994 59.7546 33.3887 59.5677 33.532 59.5815C33.6754 59.5953 33.7529 59.7748 33.7328 60.1434V60.1455Z" fill="#FFEA94"/>
<path d="M32.1852 60.4939L32.3244 59.2193L31.9728 59.1747L31.7732 60.7807L32.0918 60.821C32.2447 60.7743 32.3977 60.7265 32.5495 60.6691L32.5134 60.3813C32.403 60.4248 32.2946 60.4588 32.1852 60.4939Z" fill="#FFEA94"/>
<path d="M31.1457 59.0345C30.7538 58.9644 30.4989 59.2681 30.4075 59.7599C30.3258 60.1954 30.4277 60.6096 30.8695 60.685C30.9622 60.7042 31.0584 60.6983 31.148 60.6679C31.2376 60.6374 31.3175 60.5836 31.3793 60.5119C31.5129 60.3501 31.5943 60.1516 31.613 59.9426C31.6478 59.7398 31.6257 59.5314 31.5493 59.3404C31.5134 59.2594 31.4575 59.1889 31.3869 59.1354C31.3163 59.0819 31.2333 59.0472 31.1457 59.0345ZM31.236 59.8937C31.1829 60.2676 31.0607 60.4301 30.9173 60.4025C30.774 60.3749 30.7177 60.1752 30.7771 59.8215C30.8366 59.4678 30.946 59.2904 31.0873 59.3159C31.2285 59.3414 31.2923 59.5284 31.236 59.8937Z" fill="#FFEA94"/>
<path d="M29.6661 60.0902H29.6608L29.9263 58.8359L29.5812 58.7562L29.2179 60.3292L29.5366 60.4014L29.7713 60.3537L30.0071 60.2963L29.9996 60.0063C29.8839 60.0425 29.7723 60.0669 29.6661 60.0902Z" fill="#FFEA94"/>
<path d="M28.7712 58.5342C28.3888 58.428 28.1052 58.702 27.964 59.1821C27.8397 59.607 27.8992 60.0255 28.3325 60.1487C28.4228 60.1771 28.5191 60.1808 28.6113 60.1596C28.7036 60.1383 28.7885 60.0927 28.8572 60.0276C29.0064 59.8781 29.1071 59.6871 29.1461 59.4795C29.2017 59.2819 29.2017 59.0728 29.1461 58.8752C29.1176 58.7912 29.0683 58.7158 29.0027 58.6562C28.9371 58.5965 28.8574 58.5546 28.7712 58.5342ZM28.7712 59.3988C28.6809 59.7642 28.5428 59.9139 28.4058 59.8725C28.2688 59.8311 28.2306 59.6261 28.3262 59.2809C28.4217 58.9357 28.5471 58.7689 28.6851 58.8082C28.8232 58.8475 28.8678 59.0398 28.7754 59.3988H28.7712Z" fill="#FFEA94"/>
<path d="M27.2385 58.0988L26.7234 59.6335L27.0303 59.7398C27.1896 59.7249 27.349 59.7079 27.5093 59.6824L27.5306 59.3935C27.4159 59.4137 27.3022 59.4254 27.1886 59.4392H27.1833L27.5741 58.2177L27.2385 58.0988Z" fill="#FFEA94"/>
<path d="M26.7982 58.1784C26.7787 58.092 26.7379 58.0118 26.6794 57.9452C26.621 57.8786 26.5468 57.8277 26.4637 57.7971C26.0941 57.6516 25.7839 57.9033 25.5949 58.3622C25.4281 58.7722 25.4462 59.1949 25.8647 59.3595C25.9511 59.3966 26.0458 59.41 26.1391 59.3984C26.2324 59.3868 26.3209 59.3507 26.3957 59.2937C26.5588 59.1608 26.6783 58.9821 26.7388 58.7807C26.8133 58.5891 26.8339 58.3808 26.7982 58.1784ZM26.3734 58.6585C26.247 59.0143 26.0962 59.146 25.9634 59.0929C25.8307 59.0398 25.8137 58.8306 25.9433 58.496C26.0728 58.1614 26.2141 58.0095 26.3479 58.0616C26.4817 58.1136 26.504 58.3112 26.3734 58.6585Z" fill="#FFEA94"/>
<path d="M24.9781 57.2108L24.3112 58.6861L24.6064 58.8189C24.7679 58.8189 24.925 58.8189 25.0886 58.8114L25.1396 58.5257C25.0228 58.5353 24.9102 58.5321 24.7944 58.5353L25.301 57.3552L24.9781 57.2108Z" fill="#FFEA94"/>
<path d="M24.5278 57.249C24.5182 57.1639 24.4875 57.0825 24.4386 57.0122C24.3868 56.9363 24.3161 56.8752 24.2336 56.8348C23.8799 56.6532 23.5465 56.8677 23.3128 57.3106C23.1057 57.7026 23.0813 58.1231 23.4817 58.3281C23.5636 58.3753 23.6568 58.3993 23.7513 58.3974C23.8458 58.3956 23.9381 58.3679 24.018 58.3175C24.1937 58.2021 24.3303 58.0362 24.4099 57.8417C24.5029 57.6587 24.5437 57.4537 24.5278 57.249ZM24.0637 57.6845C23.9033 58.0244 23.7398 58.1391 23.6123 58.0743C23.4849 58.0095 23.4891 57.7981 23.6516 57.4784C23.8141 57.1587 23.9702 57.0207 24.0987 57.0865C24.2273 57.1524 24.2273 57.3489 24.0637 57.6824V57.6845Z" fill="#FFEA94"/>
<path d="M22.8167 56.102L22.0063 57.5029L22.2878 57.6633C22.4481 57.6782 22.6064 57.6973 22.7668 57.7058L22.8454 57.4275L22.5023 57.3999L23.1289 56.2804L22.8167 56.102Z" fill="#FFEA94"/>
<path d="M22.1156 55.6495C21.78 55.437 21.4263 55.6155 21.1502 56.0329C20.9049 56.4015 20.839 56.8178 21.2171 57.061C21.5952 57.3043 21.9542 57.0717 22.1889 56.6712C22.4236 56.2708 22.4512 55.8683 22.1156 55.6495ZM21.8618 56.4769C21.6674 56.7955 21.4933 56.9017 21.3732 56.821C21.2532 56.7403 21.2777 56.5353 21.4709 56.2326C21.6642 55.9299 21.8342 55.8077 21.9553 55.8863C22.0763 55.9649 22.0572 56.1625 21.8618 56.4769Z" fill="#FFEA94"/>
<path d="M20.3327 56.0382L21.0666 54.9867L20.7777 54.7817L19.8325 56.0945L20.0959 56.2825L20.5685 56.3739L20.6758 56.1019L20.337 56.0414L20.3327 56.0382Z" fill="#FFEA94"/>
<path d="M20.0956 55.2873C20.2229 55.1263 20.3033 54.9334 20.3282 54.7297C20.3372 54.6406 20.3232 54.5508 20.2875 54.4688C20.2518 54.3867 20.1956 54.3153 20.1243 54.2613C19.812 54.0148 19.4414 54.1614 19.1249 54.5491C18.8445 54.8911 18.7372 55.299 19.0909 55.5762C19.1618 55.6379 19.2479 55.6796 19.3402 55.6972C19.4326 55.7147 19.528 55.7074 19.6166 55.676C19.8112 55.5967 19.9779 55.4614 20.0956 55.2873ZM19.2704 55.3531C19.1482 55.2575 19.2034 55.06 19.4254 54.7785C19.6474 54.497 19.829 54.393 19.9416 54.4811C20.0542 54.5693 20.017 54.7647 19.7908 55.0589C19.5646 55.3531 19.3829 55.4434 19.2704 55.3531Z" fill="#FFEA94"/>
<path d="M18.3127 54.4716L19.1475 53.4987L18.8788 53.2661L17.8082 54.479L18.0525 54.6914L18.5145 54.8274L18.6483 54.5682L18.3159 54.4748L18.3127 54.4716Z" fill="#FFEA94"/>
<path d="M18.149 53.7026C18.2916 53.5552 18.3911 53.3715 18.4368 53.1715C18.4555 53.084 18.4511 52.993 18.4239 52.9077C18.3967 52.8224 18.3477 52.7456 18.2817 52.6851C17.9939 52.41 17.6094 52.5194 17.2568 52.8731C16.9382 53.1917 16.7969 53.5815 17.123 53.8917C17.188 53.9589 17.2693 54.0082 17.359 54.0346C17.4488 54.0611 17.5438 54.0638 17.6349 54.0425C17.8369 53.9843 18.0163 53.8657 18.149 53.7026ZM17.3227 53.6845C17.2101 53.5783 17.2844 53.3871 17.5351 53.129C17.7857 52.8709 17.9748 52.7849 18.0789 52.8837C18.1829 52.9825 18.1256 53.1726 17.8718 53.4434C17.6179 53.7143 17.4267 53.7833 17.3227 53.6845Z" fill="#FFEA94"/>
<path d="M16.4571 52.7126L17.3832 51.8268L17.1389 51.5709L15.9537 52.6712L16.1767 52.906L16.6228 53.0855L16.7821 52.8412L16.4603 52.7158L16.4571 52.7126Z" fill="#FFEA94"/>
<path d="M16.6023 50.9294C16.341 50.6288 15.9481 50.7 15.5615 51.0176C15.2184 51.298 15.0304 51.6761 15.3289 52.0159C15.6273 52.3558 16.0224 52.2496 16.3676 51.9331C16.7128 51.6166 16.8668 51.2332 16.6023 50.9294ZM16.118 51.6453C15.8387 51.8959 15.6422 51.9395 15.5487 51.8322C15.4553 51.7249 15.5392 51.5316 15.8132 51.3011C16.0872 51.0707 16.2847 51.0027 16.3793 51.111C16.4738 51.2194 16.3973 51.401 16.118 51.6453Z" fill="#FFEA94"/>
<path d="M14.7841 50.7785L15.7941 49.9893L15.5753 49.7111L14.286 50.6882L14.4856 50.9431L14.9137 51.1662L15.0963 50.9378L14.7873 50.7828L14.7841 50.7785Z" fill="#FFEA94"/>
<path d="M15.1062 49.0186C15.0568 48.9445 14.9894 48.8842 14.9102 48.8435C14.831 48.8028 14.7427 48.783 14.6537 48.786C14.4411 48.7995 14.2367 48.8732 14.0643 48.9984C13.8907 49.1046 13.7508 49.2578 13.6607 49.4402C13.6245 49.5272 13.6122 49.6222 13.6249 49.7156C13.6376 49.8089 13.6749 49.8971 13.7329 49.9713C13.9846 50.325 14.401 50.2708 14.7759 49.9904C15.1508 49.71 15.3398 49.3468 15.1062 49.0186ZM14.555 49.6824C14.2523 49.9044 14.0526 49.9288 13.9697 49.8131C13.8869 49.6973 13.9889 49.5135 14.2884 49.3107C14.5879 49.1078 14.7886 49.0589 14.8715 49.1758C14.9543 49.2926 14.8577 49.4679 14.555 49.6824Z" fill="#FFEA94"/>
<path d="M13.3111 48.6882L14.3945 48.0032L14.2033 47.7047L12.8236 48.5502L12.9978 48.8231L13.4035 49.0865L13.6064 48.8773L13.3143 48.6925L13.3111 48.6882Z" fill="#FFEA94"/>
<path d="M13.3823 47.9023C13.7743 47.6633 14.0079 47.3149 13.8072 46.9665C13.765 46.8888 13.704 46.8227 13.6298 46.7745C13.5556 46.7263 13.4706 46.6974 13.3823 46.6904C13.1698 46.6821 12.9594 46.7359 12.777 46.8455C12.5931 46.9335 12.438 47.072 12.3298 47.2448C12.2848 47.3268 12.2628 47.4194 12.266 47.5128C12.2691 47.6063 12.2974 47.6971 12.3479 47.7759C12.5667 48.1593 12.9819 48.1465 13.3823 47.9023ZM12.5964 47.6431C12.5189 47.5082 12.6453 47.3478 12.9586 47.1747C13.2719 47.0016 13.4811 46.975 13.5533 47.0993C13.6256 47.2236 13.5151 47.3882 13.1933 47.5719C12.8715 47.7557 12.6729 47.7706 12.5964 47.6463V47.6431Z" fill="#FFEA94"/>
<path d="M12.0557 46.4663L12.0536 46.462L13.1996 45.8885L13.0381 45.573L11.5809 46.2761L11.7286 46.565L12.1067 46.8667L12.3297 46.6787L12.0557 46.4663Z" fill="#FFEA94"/>
<path d="M12.2045 45.6888C12.6176 45.4902 12.8842 45.1683 12.7185 44.8019C12.5528 44.4355 12.1684 44.3866 11.7032 44.5767C11.2953 44.7435 10.9926 45.0568 11.1817 45.4647C11.3707 45.8725 11.7818 45.8895 12.2045 45.6888ZM11.4462 45.3531C11.3824 45.2119 11.5237 45.0653 11.8529 44.9283C12.1822 44.7913 12.3935 44.7817 12.4519 44.9124C12.5104 45.043 12.3861 45.1949 12.0473 45.3457C11.7085 45.4965 11.5046 45.4838 11.4462 45.3531Z" fill="#FFEA94"/>
<path d="M11.0255 44.1264V44.1211L12.2246 43.6654C12.1821 43.5592 12.1354 43.4466 12.0961 43.3351L10.5752 43.8885C10.6113 43.9947 10.6538 44.0903 10.692 44.1912L11.0393 44.5279L11.2794 44.3643L11.0255 44.1264Z" fill="#FFEA94"/>
<path d="M11.2527 43.3659C11.6839 43.2108 11.9813 42.9166 11.8528 42.5353C11.7242 42.154 11.3493 42.0669 10.8661 42.2092C10.6685 42.2593 10.4892 42.3642 10.3488 42.5119C10.2854 42.583 10.2432 42.6705 10.2271 42.7644C10.2109 42.8583 10.2215 42.9548 10.2575 43.043C10.3966 43.4519 10.8119 43.5231 11.2527 43.3659ZM10.5315 42.957C10.4816 42.8093 10.6377 42.6787 10.9787 42.5704C11.3196 42.462 11.5309 42.479 11.5766 42.615C11.6223 42.7509 11.4831 42.889 11.1316 43.0058C10.78 43.1227 10.5772 43.0929 10.5315 42.957Z" fill="#FFEA94"/>
<path d="M10.2366 41.693L11.4749 41.3595C11.4441 41.2448 11.4059 41.1333 11.3815 41.0175L9.81384 41.4158C9.83508 41.522 9.87013 41.6282 9.89775 41.7281L10.21 42.0987L10.466 41.9607L10.2366 41.693Z" fill="#FFEA94"/>
<path d="M10.54 40.9601C10.984 40.8539 11.309 40.5852 11.2187 40.1933C11.2012 40.1072 11.1631 40.0267 11.1076 39.9586C11.0521 39.8905 10.9809 39.8369 10.9001 39.8024C10.6991 39.7312 10.4817 39.7201 10.2745 39.7706C10.0731 39.8002 9.88411 39.8864 9.72968 40.0191C9.66349 40.0807 9.61414 40.1582 9.5863 40.2443C9.56119 40.34 9.56119 40.4406 9.5863 40.5364C9.6787 40.9591 10.0855 41.0717 10.54 40.9601ZM9.86138 40.4811C9.82633 40.3292 9.99414 40.2135 10.3457 40.1412C10.6972 40.069 10.9043 40.1051 10.9362 40.2475C10.9681 40.3898 10.8162 40.5109 10.454 40.5916C10.0918 40.6723 9.8943 40.6203 9.86138 40.4811Z" fill="#FFEA94"/>
<path d="M9.89428 39.4774L9.69886 39.1928L10.9638 38.9804C10.9457 38.8635 10.9181 38.7478 10.9054 38.6309L9.30058 38.8742C9.3112 38.9804 9.33563 39.0866 9.35262 39.1928L9.62664 39.5922L9.89428 39.4774Z" fill="#FFEA94"/>
<path d="M10.0707 38.4949C10.5232 38.428 10.8736 38.1986 10.8227 37.7992C10.7717 37.3999 10.4233 37.2406 9.92095 37.2841C9.71751 37.294 9.52097 37.361 9.3538 37.4774C9.278 37.5344 9.21964 37.6114 9.18529 37.6998C9.15095 37.7882 9.14199 37.8844 9.15944 37.9777C9.21361 38.4078 9.60658 38.5608 10.0707 38.4949ZM9.95919 37.6601C10.3256 37.6229 10.5189 37.6803 10.537 37.8226C10.555 37.9649 10.3904 38.0733 10.0219 38.1168C9.65331 38.1603 9.46213 38.0913 9.44408 37.95C9.42602 37.8088 9.60233 37.6973 9.95919 37.6601Z" fill="#FFEA94"/>
<path d="M9.57698 36.9559L9.40705 36.6532V36.6436L10.6869 36.5629C10.6784 36.445 10.6667 36.3271 10.6614 36.2092L9.04594 36.2889C9.04594 36.3951 9.06081 36.5013 9.06824 36.6075L9.29978 37.0324L9.57698 36.9559Z" fill="#FFEA94"/>
<path d="M9.84854 35.9947C10.3052 35.9734 10.677 35.7822 10.6663 35.3776C10.6557 34.9729 10.319 34.7806 9.81667 34.7753C9.37484 34.77 8.9755 34.941 8.99143 35.3903C9.00417 35.8237 9.38015 36.0148 9.84854 35.9947ZM9.82198 35.1534C10.1905 35.1534 10.3764 35.2289 10.3806 35.3722C10.3849 35.5156 10.2096 35.607 9.83898 35.6144C9.46831 35.6218 9.2835 35.5337 9.28032 35.3914C9.27713 35.249 9.463 35.1566 9.82198 35.1566V35.1534Z" fill="#FFEA94"/>
<path d="M9.50994 34.4142L9.37081 34.0966V34.0913L10.6528 34.1359L10.6612 33.7822L9.04475 33.7026L9.03625 34.0255L9.22424 34.4715L9.50994 34.4142Z" fill="#FFEA94"/>
<path d="M9.87222 33.4848C10.33 33.5082 10.7219 33.3521 10.7495 32.9538C10.7583 32.8651 10.7446 32.7755 10.7097 32.6935C10.6748 32.6115 10.6198 32.5395 10.5498 32.4843C10.379 32.3577 10.1748 32.2838 9.9625 32.2719C9.7608 32.241 9.55449 32.2683 9.36773 32.3505C9.28388 32.3932 9.21314 32.4578 9.16303 32.5375C9.11292 32.6171 9.0853 32.7089 9.08309 32.8029C9.05017 33.232 9.4049 33.4572 9.87222 33.4848ZM9.9317 32.6458C10.2981 32.6797 10.4755 32.7743 10.4627 32.9177C10.45 33.061 10.2694 33.1301 9.89877 33.1057C9.52811 33.0812 9.35498 32.9708 9.36773 32.8284C9.38047 32.6861 9.57484 32.6075 9.9317 32.6458Z" fill="#FFEA94"/>
<path d="M9.69162 31.8789L9.58541 31.5486L9.58648 31.5443L10.8567 31.7153L10.9013 31.3637L9.30078 31.1248L9.26042 31.4455L9.40167 31.9076L9.69162 31.8789Z" fill="#FFEA94"/>
<path d="M10.1439 30.9899C10.5974 31.0579 11 30.9421 11.0711 30.5459C11.0888 30.4584 11.0842 30.3679 11.0576 30.2827C11.0311 30.1975 10.9835 30.1203 10.9193 30.0584C10.7614 29.9157 10.5655 29.8219 10.3553 29.7886C10.1576 29.738 9.94954 29.7442 9.75521 29.8067C9.66752 29.8415 9.59086 29.8994 9.53329 29.9741C9.47572 30.0489 9.43938 30.1378 9.42809 30.2315C9.35163 30.6564 9.68193 30.9177 10.1439 30.9899ZM9.70848 30.2867C9.7361 30.1327 9.93577 30.0913 10.2873 30.1603C10.6389 30.2294 10.8184 30.343 10.7907 30.4843C10.7631 30.6256 10.5783 30.6808 10.2108 30.6149C9.84337 30.5491 9.68299 30.4269 9.70848 30.2867Z" fill="#FFEA94"/>
<path d="M10.125 29.3733L10.0527 29.0345L10.0538 29.0302L11.3007 29.3266L11.3803 28.9814L9.81165 28.5841L9.73836 28.8996L9.83395 29.3733H10.125Z" fill="#FFEA94"/>
<path d="M10.6642 28.5343C11.1081 28.6479 11.5202 28.5725 11.6307 28.1859C11.6565 28.1003 11.6603 28.0096 11.6418 27.9221C11.6232 27.8347 11.5829 27.7533 11.5245 27.6856C11.3825 27.5283 11.1981 27.4154 10.9934 27.3606C10.8018 27.29 10.5939 27.2756 10.3944 27.3192C10.3036 27.3441 10.2212 27.3933 10.1561 27.4614C10.091 27.5294 10.0457 27.6139 10.0248 27.7058C9.91116 28.1232 10.2117 28.4164 10.6642 28.5343ZM10.3009 27.7908C10.3434 27.641 10.5463 27.6198 10.8893 27.7238C11.2324 27.8279 11.397 27.9586 11.3577 28.0956C11.3184 28.2326 11.1251 28.2698 10.7683 28.1678C10.4114 28.0659 10.2616 27.9278 10.3009 27.7908Z" fill="#FFEA94"/>
<path d="M10.8068 26.924L10.7685 26.5799L10.7707 26.5746L11.9814 26.9963L12.094 26.6606L10.5742 26.1062L10.4701 26.4132L10.5179 26.8943L10.8068 26.924Z" fill="#FFEA94"/>
<path d="M11.4291 26.1434C11.8539 26.3005 12.2788 26.2676 12.4243 25.8927C12.459 25.8108 12.4727 25.7215 12.464 25.633C12.4552 25.5445 12.4244 25.4596 12.3743 25.386C12.2485 25.2146 12.0754 25.0835 11.8762 25.009C11.4705 24.8316 11.0382 24.8348 10.8768 25.2543C10.7154 25.6739 10.9904 25.9798 11.4291 26.1434ZM11.1413 25.3669C11.1975 25.2225 11.4015 25.2214 11.7328 25.3584C12.0642 25.4954 12.215 25.6431 12.1577 25.7769C12.1003 25.9107 11.9081 25.9267 11.564 25.7897C11.2198 25.6526 11.0881 25.4997 11.1413 25.3669Z" fill="#FFEA94"/>
<path d="M11.7277 24.2092L11.7298 24.2039L12.8917 24.7445L13.0383 24.4216L11.5811 23.7185L11.4473 24.0138L11.4462 24.4971L11.7319 24.5555L11.7277 24.2092Z" fill="#FFEA94"/>
<path d="M12.4284 23.8417C12.8416 24.0414 13.26 24.0541 13.4427 23.6909C13.6254 23.3276 13.4268 23.0037 12.9881 22.7573C12.6047 22.5448 12.1682 22.4992 11.9675 22.9017C11.7699 23.2883 12.0089 23.6357 12.4284 23.8417ZM12.216 23.0398C12.2871 22.9007 12.4889 22.9208 12.8044 23.0908C13.1198 23.2607 13.2558 23.4222 13.191 23.5496C13.1262 23.6771 12.9286 23.6739 12.5994 23.5029C12.2701 23.3319 12.1533 23.1662 12.2192 23.0398H12.216Z" fill="#FFEA94"/>
<path d="M12.917 21.9458L14.0195 22.599C14.08 22.4928 14.1342 22.3866 14.2 22.2942L12.8193 21.4498C12.7598 21.539 12.7131 21.6346 12.6547 21.7281L12.6069 22.2092L12.8852 22.2963L12.917 21.9458Z" fill="#FFEA94"/>
<path d="M13.6542 21.6516C14.045 21.8916 14.4603 21.9405 14.677 21.6017C14.7276 21.5258 14.7586 21.4386 14.7673 21.3478C14.7767 21.263 14.7647 21.1771 14.7322 21.0982C14.6434 20.9047 14.4998 20.7414 14.319 20.6288C14.1564 20.5063 13.9623 20.4326 13.7593 20.4163C13.6645 20.4105 13.57 20.4316 13.4866 20.477C13.4032 20.5225 13.3343 20.5905 13.2878 20.6734C13.053 21.0302 13.257 21.4041 13.6542 21.6516ZM13.5225 20.8316C13.6064 20.6999 13.8061 20.7392 14.1034 20.9378C14.4008 21.1365 14.5198 21.3128 14.4423 21.4338C14.3647 21.5549 14.1693 21.5316 13.8592 21.3276C13.549 21.1237 13.4471 20.9516 13.5225 20.8316Z" fill="#FFEA94"/>
<path d="M14.3276 19.813L15.3599 20.5725L15.4661 20.428L15.5724 20.2889L14.283 19.3107C14.2161 19.3946 14.1502 19.4806 14.0886 19.5698L13.9952 20.0457L14.2628 20.1582L14.3276 19.813Z" fill="#FFEA94"/>
<path d="M15.0924 19.5942C15.4567 19.8714 15.8635 19.9617 16.112 19.6452C16.169 19.5778 16.2085 19.4973 16.227 19.411C16.2456 19.3247 16.2425 19.2351 16.2182 19.1502C16.1475 18.949 16.0203 18.7723 15.8518 18.6415C15.7037 18.5034 15.5196 18.4099 15.3207 18.3717C15.2269 18.3574 15.1309 18.3691 15.0432 18.4056C14.9556 18.4422 14.8796 18.5021 14.8237 18.5788C14.555 18.9198 14.7207 19.3085 15.0924 19.5942ZM15.0414 18.7636C15.137 18.6404 15.3346 18.702 15.6107 18.9314C15.8868 19.1609 15.9835 19.3425 15.8964 19.4561C15.8093 19.5698 15.616 19.5273 15.3271 19.2947C15.0382 19.0621 14.9533 18.8762 15.0414 18.7636Z" fill="#FFEA94"/>
<path d="M15.9418 17.83L16.8977 18.6882C16.9721 18.5969 17.0581 18.5151 17.1388 18.4291L15.9525 17.3234C15.8792 17.403 15.8016 17.4784 15.7315 17.5602L15.5913 18.0244L15.8462 18.1646L15.9418 17.83Z" fill="#FFEA94"/>
<path d="M16.726 17.6888C17.0616 18.001 17.4577 18.1306 17.735 17.8396C18.0122 17.5486 17.9251 17.1811 17.5788 16.8168C17.274 16.4981 16.8779 16.3356 16.5571 16.6511C16.2576 16.9644 16.3904 17.368 16.726 17.6888ZM16.7568 16.8561C16.863 16.7445 17.0573 16.8274 17.308 17.0823C17.5586 17.3372 17.6372 17.5273 17.5385 17.6304C17.4397 17.7334 17.2528 17.6739 16.9883 17.4179C16.7239 17.162 16.658 16.9591 16.7568 16.8561Z" fill="#FFEA94"/>
<path d="M17.7442 16.0159L18.6066 16.9644L18.8742 16.7318L17.8026 15.5189L17.5583 15.7313C17.4935 15.8789 17.4341 16.0308 17.3735 16.1795L17.6125 16.3431L17.7442 16.0159Z" fill="#FFEA94"/>
<path d="M19.5276 16.2028C19.8409 15.9575 19.7825 15.5655 19.4745 15.1715C19.2026 14.822 18.8277 14.6266 18.474 14.9038C18.1437 15.1864 18.2329 15.6027 18.5399 15.9553C18.8468 16.308 19.2228 16.463 19.5276 16.2028ZM18.6525 15.1279C18.7746 15.0323 18.9551 15.1279 19.1835 15.4094C19.4118 15.6909 19.4692 15.8874 19.3566 15.9766C19.244 16.0658 19.0688 15.9915 18.8309 15.7057C18.593 15.42 18.5431 15.2203 18.6525 15.1279Z" fill="#FFEA94"/>
<path d="M19.7208 14.3919L20.4845 15.4221L20.7733 15.2161L19.8281 13.9033L19.5636 14.0913C19.4819 14.2272 19.4086 14.3738 19.3332 14.5161L19.5551 14.702C19.6125 14.5979 19.6624 14.4907 19.7208 14.3919Z" fill="#FFEA94"/>
<path d="M21.4765 14.7562C21.8111 14.5438 21.7951 14.1455 21.5253 13.7227C21.2885 13.3478 20.9348 13.1163 20.5567 13.3584C20.1967 13.6006 20.2477 14.0297 20.5164 14.4089C20.7851 14.7881 21.143 14.9814 21.4765 14.7562ZM20.7118 13.5953C20.8424 13.5114 21.0124 13.6271 21.2088 13.9267C21.4053 14.2262 21.4468 14.4312 21.3257 14.5087C21.2046 14.5862 21.0357 14.4928 20.8276 14.1837C20.6194 13.8746 20.5896 13.6749 20.7118 13.5953Z" fill="#FFEA94"/>
<path d="M21.848 12.9729L22.5054 14.0733L22.8123 13.8969L22.002 12.496L21.7216 12.6574L21.5867 12.8518L21.4529 13.0547L21.6557 13.2671C21.7163 13.1609 21.7811 13.0642 21.848 12.9729Z" fill="#FFEA94"/>
<path d="M23.0501 13.5082C23.128 13.5506 23.2153 13.5728 23.3039 13.5728C23.3926 13.5728 23.4799 13.5506 23.5578 13.5082C23.9125 13.3277 23.9316 12.9315 23.7086 12.4833C23.511 12.0871 23.1775 11.8216 22.7825 12.0266C22.6969 12.0668 22.6236 12.1292 22.5702 12.2072C22.5168 12.2853 22.4852 12.3762 22.4787 12.4705C22.471 12.6805 22.5261 12.8879 22.6369 13.0664C22.7318 13.2486 22.8747 13.4014 23.0501 13.5082ZM22.912 12.2825C23.0512 12.2114 23.2083 12.3431 23.374 12.6617C23.5397 12.9803 23.5599 13.1928 23.4324 13.2523C23.305 13.3117 23.1425 13.2023 22.9673 12.8773C22.792 12.5523 22.7846 12.3473 22.912 12.2825Z" fill="#FFEA94"/>
<path d="M24.1051 11.7717H24.1104L24.6552 12.9326L24.9738 12.786L24.3069 11.3117L24.0127 11.4456C23.9064 11.5677 23.8002 11.6824 23.6993 11.812L23.8799 12.0382C23.9553 11.9437 24.0371 11.8609 24.1051 11.7717Z" fill="#FFEA94"/>
<path d="M25.2479 12.4269C25.3186 12.476 25.4003 12.5066 25.4858 12.5162C25.5769 12.5275 25.6694 12.5155 25.7545 12.4811C26.1241 12.3356 26.1794 11.9426 26.0052 11.4742C25.848 11.06 25.5485 10.7636 25.13 10.9283C25.0386 10.9626 24.9572 11.0192 24.8932 11.0929C24.8384 11.1649 24.802 11.2491 24.787 11.3382C24.7573 11.5463 24.7914 11.7585 24.8847 11.9469C24.9593 12.1372 25.085 12.3034 25.2479 12.4269ZM25.2341 11.1959C25.3785 11.1386 25.523 11.2851 25.6589 11.6208C25.7949 11.9564 25.7906 12.1635 25.6589 12.2156C25.5272 12.2676 25.3754 12.137 25.2341 11.7907C25.0928 11.4445 25.0992 11.2437 25.2341 11.1917V11.1959Z" fill="#FFEA94"/>
<path d="M26.4723 10.8019L26.8971 12.0106L27.2327 11.898L26.7176 10.3633L26.4107 10.4695C26.2938 10.5757 26.1759 10.6819 26.0623 10.8019L26.2248 11.0462L26.4723 10.8019Z" fill="#FFEA94"/>
<path d="M27.542 11.5634C27.6079 11.6184 27.6858 11.6574 27.7693 11.6771C27.8588 11.698 27.9522 11.6951 28.0401 11.6686C28.4236 11.5624 28.5213 11.1758 28.3917 10.6914C28.277 10.2666 28.0083 9.93944 27.5749 10.0616C27.4833 10.0837 27.3992 10.1297 27.3313 10.1951C27.2633 10.2604 27.214 10.3426 27.1883 10.4333C27.1395 10.6366 27.1516 10.8498 27.2234 11.0462C27.2799 11.2447 27.3902 11.4237 27.542 11.5634ZM27.6482 10.3377C27.798 10.2953 27.9254 10.4556 28.0242 10.7998C28.123 11.1439 28.1017 11.3531 27.9637 11.3914C27.8256 11.4296 27.6896 11.2852 27.5824 10.9304C27.4751 10.5757 27.5155 10.377 27.6535 10.3377H27.6482Z" fill="#FFEA94"/>
<path d="M28.9228 10.0754H28.9281L29.2308 11.3224L29.575 11.2427L29.2181 9.66542L28.8995 9.73765C28.771 9.83643 28.6435 9.93202 28.5192 10.0319L28.6509 10.291L28.9228 10.0754Z" fill="#FFEA94"/>
<path d="M30.399 11.094C30.7898 11.025 30.93 10.6511 30.845 10.1572C30.7739 9.7196 30.5392 9.37016 30.1016 9.44876C29.664 9.52736 29.5535 9.94159 29.6534 10.3951C29.7532 10.8487 30.0017 11.1599 30.399 11.094ZM30.1451 9.73129C30.2991 9.70367 30.4096 9.87574 30.4733 10.2284C30.537 10.581 30.4956 10.786 30.3544 10.8115C30.2131 10.837 30.092 10.6787 30.0209 10.3144C29.9497 9.95009 30.0049 9.75572 30.1451 9.73129Z" fill="#FFEA94"/>
<path d="M31.4357 9.59639L31.612 10.8656L31.9636 10.821L31.7639 9.21509L31.4453 9.25651C31.3083 9.34148 31.1723 9.42326 31.0374 9.51036L31.1436 9.7812L31.4357 9.59639Z" fill="#FFEA94"/>
<path d="M32.3343 10.5555C32.388 10.6222 32.4563 10.6756 32.534 10.7116C32.6175 10.7505 32.7099 10.7666 32.8016 10.7584C33.1988 10.7276 33.3709 10.3696 33.3401 9.87042C33.3125 9.42857 33.1139 9.05682 32.6657 9.09081C32.5714 9.09322 32.4795 9.12116 32.3998 9.17166C32.3201 9.22217 32.2557 9.29333 32.2132 9.37759C32.1236 9.56782 32.0933 9.78061 32.1261 9.98832C32.1421 10.1929 32.2142 10.3891 32.3343 10.5555ZM32.6859 9.37653C32.8409 9.36378 32.9344 9.54647 32.9631 9.90759C32.9917 10.2687 32.9291 10.4642 32.7857 10.4748C32.6423 10.4854 32.5382 10.3165 32.5042 9.94371C32.4702 9.5709 32.5435 9.38715 32.6859 9.37653Z" fill="#FFEA94"/>
<path d="M33.9826 9.37017H33.9879L34.0378 10.6511L34.3915 10.6426L34.3522 9.02816L34.0335 9.03559C33.888 9.10782 33.7447 9.17261 33.6023 9.24802L33.6809 9.5263L33.9826 9.37017Z" fill="#FFEA94"/>
<path d="M35.2271 10.6596C35.6254 10.6702 35.8314 10.3314 35.8495 9.83219C35.8654 9.38928 35.7051 8.99842 35.2558 8.98779C35.1581 8.98311 35.0608 9.00359 34.9733 9.04727C34.8939 9.09167 34.8264 9.15474 34.7768 9.23102C34.6695 9.41131 34.6185 9.61953 34.6302 9.829C34.6261 10.0343 34.6786 10.2368 34.7821 10.4142C34.8299 10.4891 34.8956 10.5507 34.9734 10.5936C35.0511 10.6365 35.1384 10.6592 35.2271 10.6596ZM35.2473 9.27351C35.4034 9.27351 35.4788 9.46894 35.4714 9.82688C35.464 10.1848 35.3833 10.3781 35.2399 10.3739C35.0965 10.3696 35.0083 10.1912 35.0105 9.82051C35.0126 9.44982 35.105 9.27032 35.2473 9.27351Z" fill="#FFEA94"/>
<path d="M36.5388 9.39455L36.4634 10.6744L36.817 10.702L36.936 9.08759L36.6174 9.06316C36.4665 9.11945 36.3168 9.16937 36.1681 9.23735L36.218 9.522C36.3253 9.47314 36.4315 9.43703 36.5388 9.39455Z" fill="#FFEA94"/>
<path d="M37.6509 10.8008C38.0449 10.8508 38.2882 10.5353 38.3519 10.0393C38.4114 9.59956 38.2892 9.19489 37.8442 9.1386C37.7506 9.12381 37.6548 9.13433 37.5666 9.16907C37.4785 9.20381 37.4012 9.26149 37.3429 9.33615C37.2181 9.505 37.1467 9.70735 37.1379 9.91714C37.1146 10.1209 37.1469 10.3272 37.2314 10.5141C37.2718 10.5931 37.3313 10.6608 37.4046 10.7109C37.4779 10.761 37.5626 10.7919 37.6509 10.8008ZM37.5181 9.94582C37.5521 9.56982 37.6658 9.40307 37.8081 9.42325C37.9504 9.44343 38.0205 9.63567 37.9759 9.99574C37.9313 10.3558 37.8336 10.5353 37.6913 10.5172C37.5489 10.4992 37.4799 10.3133 37.5181 9.94582Z" fill="#FFEA94"/>
<path d="M39.0818 9.6718L38.8831 10.94L39.2326 11.0016L39.5119 9.40839L39.1933 9.3521L38.9596 9.41157L38.727 9.48168L38.7493 9.77058C38.8598 9.73128 38.9702 9.70048 39.0818 9.6718Z" fill="#FFEA94"/>
<path d="M39.8039 11.0632C39.8749 11.1205 39.9581 11.1608 40.0471 11.1811C40.4348 11.2714 40.7045 10.9803 40.8214 10.4939C40.9276 10.0627 40.8437 9.64418 40.405 9.54753C40.3136 9.52372 40.2174 9.52476 40.1265 9.55052C40.0356 9.57629 39.9532 9.62585 39.8878 9.6941C39.7462 9.84931 39.6548 10.0437 39.6255 10.2517C39.5812 10.4525 39.593 10.6615 39.6595 10.8561C39.6898 10.936 39.7394 11.0071 39.8039 11.0632ZM40.0004 10.3197C40.0715 9.95008 40.2022 9.79394 40.3413 9.82687C40.4804 9.85979 40.5282 10.0648 40.4475 10.4142C40.3668 10.7637 40.2521 10.9368 40.113 10.9049C39.9738 10.8731 39.925 10.6829 40.0004 10.3197Z" fill="#FFEA94"/>
<path d="M41.5884 10.2029L41.2602 11.4424L41.6001 11.539L42.0376 9.98405L41.7265 9.8959L41.4885 9.93201C41.41 9.94582 41.3303 9.96281 41.2506 9.97768L41.2432 10.2676C41.3579 10.2422 41.4705 10.223 41.5831 10.205L41.5884 10.2029Z" fill="#FFEA94"/>
<path d="M42.0396 11.4371C42.0634 11.5225 42.1083 11.6006 42.17 11.6642C42.2318 11.7279 42.3086 11.775 42.3932 11.8014C42.7692 11.9288 43.0666 11.6665 43.2323 11.1939C43.3778 10.7754 43.3385 10.3548 42.9137 10.2114C42.825 10.178 42.7289 10.1689 42.6355 10.1852C42.5422 10.2014 42.4548 10.2424 42.3826 10.3038C42.2252 10.4445 42.1141 10.6297 42.064 10.8348C42.0011 11.0296 41.9927 11.2379 42.0396 11.4371ZM42.4336 10.9368C42.5398 10.5757 42.6864 10.4344 42.8213 10.4822C42.9561 10.53 42.9838 10.7371 42.8722 11.077C42.7607 11.4169 42.6248 11.5773 42.4888 11.5316C42.3529 11.4859 42.3221 11.2894 42.4336 10.94V10.9368Z" fill="#FFEA94"/>
<path d="M43.8978 12.3123L44.4894 10.8062L44.1878 10.6872C44.0274 10.6957 43.8691 10.7021 43.7066 10.7201L43.6705 11.008C43.7863 10.9931 43.8999 10.9878 44.0147 10.9803H44.02L43.5686 12.1795L43.8978 12.3123Z" fill="#FFEA94"/>
<path d="M44.3493 12.2538C44.3645 12.3418 44.4017 12.4245 44.4574 12.4943C44.5131 12.5641 44.5855 12.6188 44.6679 12.6532C45.03 12.8168 45.3519 12.5852 45.5632 12.1317C45.7512 11.7302 45.7544 11.3085 45.3444 11.1226C45.2596 11.0809 45.1652 11.0625 45.0709 11.0694C44.9766 11.0763 44.8859 11.1082 44.8081 11.1619C44.6389 11.286 44.5108 11.4581 44.4406 11.6558C44.356 11.8431 44.3244 12.0499 44.3493 12.2538ZM44.7911 11.796C44.9355 11.4477 45.0927 11.3255 45.2223 11.3839C45.3518 11.4423 45.3593 11.6527 45.2138 11.9809C45.0683 12.3091 44.9175 12.4535 44.789 12.394C44.6604 12.3345 44.6413 12.1359 44.7911 11.796Z" fill="#FFEA94"/>
<path d="M46.1157 13.3117L46.8591 11.8725L46.5713 11.7249C46.4088 11.7196 46.2527 11.7057 46.0891 11.7079L46.0243 11.9904C46.1401 11.9904 46.2537 11.9968 46.3695 11.9989L45.8002 13.1471L46.1157 13.3117Z" fill="#FFEA94"/>
<path d="M46.5671 13.299C46.5732 13.3844 46.5998 13.4671 46.6447 13.5401C46.6916 13.6189 46.7587 13.6838 46.839 13.7281C47.1842 13.9267 47.5283 13.7281 47.7843 13.2979C48.0105 12.9177 48.0551 12.4981 47.6653 12.274C47.5822 12.2235 47.4875 12.195 47.3903 12.1912C47.2993 12.1908 47.2098 12.2135 47.13 12.257C46.9488 12.3638 46.8037 12.5225 46.7137 12.7127C46.6121 12.891 46.5614 13.0938 46.5671 13.299ZM47.0514 12.8879C47.2288 12.5576 47.3977 12.4503 47.522 12.5215C47.6462 12.5927 47.6282 12.803 47.4529 13.1142C47.2777 13.4254 47.112 13.555 46.9877 13.4838C46.8635 13.4126 46.872 13.2129 47.0514 12.8879Z" fill="#FFEA94"/>
<path d="M48.6013 13.2512L47.9205 14.3388L48.2189 14.53L49.1026 13.1704L48.8307 12.9963C48.6703 12.9729 48.5121 12.9485 48.3538 12.9293L48.2614 13.2044L48.6023 13.249L48.6013 13.2512Z" fill="#FFEA94"/>
<path d="M48.8739 13.9904C48.6232 14.376 48.5712 14.7785 48.8962 15.0154C49.2212 15.2522 49.5834 15.0823 49.8807 14.6797C50.1431 14.3229 50.2301 13.9108 49.8637 13.6505C49.4973 13.3903 49.1298 13.6006 48.8739 13.9904ZM49.6959 13.8842C49.8223 13.9745 49.7767 14.1742 49.5685 14.4663C49.3603 14.7583 49.1851 14.872 49.0682 14.7849C48.9514 14.6978 48.9801 14.5045 49.1904 14.1997C49.4007 13.8948 49.5791 13.7992 49.6959 13.8821V13.8842Z" fill="#FFEA94"/>
<path d="M50.6977 14.7148L49.9117 15.7281L50.19 15.9469L51.2 14.6829L50.9462 14.4822L50.4789 14.3685L50.3578 14.6351L50.6934 14.7116L50.6977 14.7148Z" fill="#FFEA94"/>
<path d="M50.8962 15.4764C50.7616 15.6309 50.672 15.8193 50.6371 16.0213C50.6227 16.1099 50.6316 16.2007 50.6628 16.2849C50.6941 16.369 50.7467 16.4436 50.8155 16.5013C51.1161 16.7616 51.4942 16.6341 51.8298 16.2624C52.1271 15.9342 52.2546 15.5327 51.9137 15.2385C51.8454 15.1743 51.7617 15.1289 51.6707 15.1067C51.5796 15.0846 51.4844 15.0864 51.3943 15.1121C51.1959 15.1815 51.0225 15.3083 50.8962 15.4764ZM51.7236 15.453C51.8404 15.5539 51.7756 15.7483 51.5398 16.0181C51.304 16.2879 51.115 16.3834 51.0088 16.29C50.9026 16.1965 50.9472 16.0032 51.1872 15.7207C51.4272 15.4381 51.6152 15.3595 51.7236 15.453Z" fill="#FFEA94"/>
<path d="M52.6384 16.3802L51.7557 17.3106L52.0128 17.5549L53.1429 16.3961L52.9082 16.1731L52.4536 16.0148L52.307 16.2676L52.6341 16.376L52.6384 16.3802Z" fill="#FFEA94"/>
<path d="M52.5784 18.1689C52.8535 18.4567 53.2422 18.3664 53.6129 18.0308C53.9411 17.7323 54.1057 17.3468 53.7956 17.0207C53.4854 16.6946 53.0935 16.821 52.7622 17.1567C52.4308 17.4923 52.3012 17.8779 52.5784 18.1689ZM53.5853 17.213C53.6915 17.3255 53.6097 17.5125 53.3474 17.7578C53.085 18.0032 52.8907 18.0765 52.7919 17.9756C52.6931 17.8747 52.759 17.6856 53.0266 17.4275C53.2943 17.1694 53.4865 17.1121 53.5853 17.2151V17.213Z" fill="#FFEA94"/>
<path d="M54.4045 18.2283L53.4348 19.0674L53.6663 19.3351L54.9058 18.2942L54.6934 18.0499L54.2558 17.8481L54.0848 18.0849L54.4013 18.2252L54.4045 18.2283Z" fill="#FFEA94"/>
<path d="M54.1688 20.0031C54.4141 20.3154 54.806 20.2634 55.2107 19.967C55.5696 19.7015 55.7714 19.335 55.4932 18.9814C55.2149 18.6277 54.8113 18.7148 54.4513 19.0132C54.0912 19.3117 53.9202 19.6866 54.1688 20.0031ZM54.6871 19.3127C54.9791 19.0759 55.1767 19.0419 55.2648 19.1534C55.353 19.265 55.2648 19.4529 54.9749 19.6717C54.6849 19.8905 54.4884 19.9468 54.4003 19.8343C54.3121 19.7217 54.395 19.5432 54.6871 19.3127Z" fill="#FFEA94"/>
<path d="M55.9785 20.2432L54.9302 20.9814L55.1362 21.2703L56.4723 20.3569L56.2854 20.0935L55.868 19.8502L55.6747 20.069L55.9753 20.239L55.9785 20.2432Z" fill="#FFEA94"/>
<path d="M55.5684 21.9862C55.6148 22.0623 55.6795 22.1256 55.7567 22.1701C55.834 22.2147 55.9211 22.2391 56.0103 22.2411C56.223 22.2381 56.4303 22.1735 56.6072 22.0552C56.7864 21.9569 56.9337 21.8095 57.032 21.6303C57.0719 21.5457 57.0886 21.4519 57.0806 21.3587C57.0726 21.2654 57.0401 21.1759 56.9863 21.0993C56.7516 20.7339 56.3321 20.7668 55.9444 21.0281C55.5568 21.2894 55.3507 21.6463 55.5684 21.9862ZM56.7431 21.2501C56.827 21.3807 56.7091 21.5475 56.4043 21.7366C56.0995 21.9256 55.8924 21.9617 55.8148 21.8428C55.7373 21.7238 55.8393 21.5528 56.1515 21.3531C56.4638 21.1535 56.6666 21.1301 56.7431 21.2501Z" fill="#FFEA94"/>
<path d="M57.3431 22.3993L57.3453 22.4036L56.229 23.0345L56.4064 23.3415L57.8264 22.5661L57.6649 22.2857L57.273 22.0021L57.0596 22.2007L57.3431 22.3993Z" fill="#FFEA94"/>
<path d="M57.234 23.1843C56.8314 23.4031 56.5808 23.7387 56.7645 24.0967C56.8029 24.1767 56.8607 24.2459 56.9327 24.2979C57.0047 24.3498 57.0885 24.3829 57.1766 24.3941C57.3886 24.4133 57.6017 24.3701 57.7894 24.2698C58.1898 24.0829 58.4745 23.7557 58.2652 23.3574C58.056 22.9591 57.646 22.9623 57.234 23.1843ZM58.0071 23.4817C58.0772 23.6198 57.9434 23.7738 57.6216 23.931C57.2998 24.0882 57.0906 24.1041 57.0247 23.9766C56.9589 23.8492 57.0768 23.6909 57.4071 23.5231C57.7374 23.3553 57.9413 23.3542 58.0071 23.4817Z" fill="#FFEA94"/>
<path d="M58.489 24.6861L58.4911 24.6904L57.3165 25.2055L57.462 25.5295L58.9532 24.8996L58.8204 24.6043L58.4572 24.2846L58.2256 24.4599L58.489 24.6861Z" fill="#FFEA94"/>
<path d="M58.3001 25.4562C57.8753 25.6335 57.5949 25.9426 57.7425 26.3165C57.8901 26.6904 58.2735 26.7583 58.744 26.5926C59.1593 26.4471 59.48 26.1476 59.3101 25.7312C59.1402 25.3149 58.7323 25.2788 58.3001 25.4562ZM58.6134 26.2368C58.2672 26.3653 58.0664 26.3568 58.0133 26.223C57.9602 26.0892 58.093 25.9437 58.4382 25.8109C58.7833 25.6781 58.9872 25.6962 59.0393 25.829C59.0913 25.9617 58.949 26.1126 58.6134 26.2347V26.2368Z" fill="#FFEA94"/>
<path d="M59.4048 27.0759L58.1855 27.4721C58.2216 27.5836 58.2641 27.6941 58.2917 27.8077L59.8381 27.3319C59.8105 27.2257 59.7712 27.1269 59.7383 27.0239L59.4048 26.6734L59.1562 26.8253L59.4048 27.0759Z" fill="#FFEA94"/>
<path d="M59.1324 27.8279C58.6948 27.9617 58.3826 28.24 58.4952 28.6277C58.5176 28.7132 58.5604 28.792 58.62 28.8573C58.6795 28.9227 58.7541 28.9725 58.8372 29.0027C59.0413 29.0631 59.2586 29.0631 59.4627 29.0027C59.6622 28.9625 59.8463 28.8667 59.9938 28.7265C60.0566 28.6618 60.1019 28.5821 60.1254 28.4949C60.1458 28.3981 60.1415 28.2976 60.1127 28.2029C59.9927 27.7812 59.5806 27.6888 59.1324 27.8279ZM59.8334 28.273C59.8759 28.4227 59.7144 28.5459 59.3671 28.6362C59.0198 28.7265 58.8117 28.6999 58.7724 28.5619C58.7331 28.4238 58.8786 28.2921 59.2365 28.1944C59.5944 28.0966 59.7941 28.1306 59.8291 28.2687L59.8334 28.273Z" fill="#FFEA94"/>
<path d="M59.8518 29.2714L60.0643 29.5454L58.811 29.8173C58.8365 29.932 58.8683 30.0457 58.8875 30.1625L60.4732 29.8438C60.4572 29.7376 60.4275 29.6314 60.4052 29.5252L60.1121 29.1397L59.8518 29.2714Z" fill="#FFEA94"/>
<path d="M59.7234 30.2623C59.2741 30.3515 58.9364 30.5979 59.0065 30.9941C59.0201 31.0816 59.0548 31.1644 59.1078 31.2353C59.1607 31.3062 59.2302 31.3631 59.3103 31.4009C59.5072 31.4821 59.7235 31.5038 59.9326 31.4636C60.1353 31.4441 60.3283 31.3675 60.4892 31.2427C60.5574 31.1858 60.6104 31.1128 60.6431 31.0302C60.6735 30.9362 60.679 30.836 60.6591 30.7392C60.5858 30.3059 60.1843 30.1731 59.7234 30.2623ZM60.3766 30.7753C60.4031 30.9283 60.23 31.0345 59.8763 31.094C59.5227 31.1534 59.3166 31.1025 59.2911 30.9612C59.2656 30.8199 59.4239 30.7031 59.7903 30.6425C60.1567 30.582 60.3532 30.6341 60.3787 30.7753H60.3766Z" fill="#FFEA94"/>
<path d="M60.2944 31.7748L60.4803 32.069L59.2058 32.2135C59.2196 32.3314 59.2387 32.4482 59.2472 32.5661L60.8573 32.4068C60.8509 32.3006 60.8329 32.1944 60.8201 32.0882L60.5727 31.676L60.2944 31.7748Z" fill="#FFEA94"/>
<path d="M60.0705 32.7477C59.6148 32.7923 59.2537 33.0037 59.2845 33.4052C59.3153 33.8067 59.6573 33.984 60.1597 33.9649C60.5994 33.9479 60.9945 33.7578 60.9552 33.3096C60.9159 32.8614 60.5367 32.7052 60.0705 32.7477ZM60.1395 33.5868C59.772 33.607 59.5819 33.539 59.5713 33.3967C59.5606 33.2543 59.7295 33.1534 60.1023 33.128C60.4751 33.1025 60.6599 33.1811 60.6705 33.3234C60.6811 33.4657 60.4974 33.5634 60.1395 33.5868Z" fill="#FFEA94"/>
<path d="M60.4879 34.3091L60.6429 34.6203V34.6245L59.361 34.6436L59.3706 34.9973H60.9881L60.9807 34.6744L60.7704 34.2379L60.4879 34.3091Z" fill="#FFEA94"/>
</svg>
