<svg width="70" height="70" viewBox="0 0 70 70" fill="none" xmlns="http://www.w3.org/2000/svg">
<path fill-rule="evenodd" clip-rule="evenodd" d="M21.6404 0C15.8991 0 11.4826 5.25 12.5868 10.9375L15.0158 24.2812C6.40379 28 0 34.5625 0 42.6562V47.6875C0 54.4688 4.4164 60.1562 10.5994 63.875C17.0032 67.8125 25.3943 70 34.8896 70C44.3849 70 52.776 67.8125 59.1798 63.875C65.5836 60.1562 70 54.4688 70 47.6875V42.6562C70 34.5625 63.3754 28 54.7634 24.2812L57.1924 10.9375C58.0757 5.25 53.6593 0 47.918 0C42.8391 0 38.6435 4.15625 38.6435 9.1875V20.5625C37.3186 20.3438 36.2145 20.3438 34.8896 20.3438C34.2271 20.3438 33.5647 20.3984 32.9022 20.4531C32.2397 20.5078 31.5773 20.5625 30.9148 20.5625V9.1875C30.9148 4.15625 26.7192 0 21.6404 0ZM26.0567 41.3438C26.0567 44.1875 24.511 46.5938 22.5236 46.5938C20.5362 46.5938 18.9905 44.1875 18.9905 41.3438C18.9905 38.5 20.5362 36.0938 22.5236 36.0938C24.511 36.0938 26.0567 38.5 26.0567 41.3438ZM47.0346 46.5938C49.022 46.5938 50.5677 44.1875 50.5677 41.3438C50.5677 38.5 49.022 36.0938 47.0346 36.0938C45.0472 36.0938 43.5015 38.5 43.5015 41.3438C43.5015 44.1875 45.0472 46.5938 47.0346 46.5938Z" fill="#DBF4FF"/>
</svg>
