<svg width="70" height="70" viewBox="0 0 70 70" fill="none" xmlns="http://www.w3.org/2000/svg">
<path fill-rule="evenodd" clip-rule="evenodd" d="M12.5868 10.9375C11.4826 5.25 15.8991 0 21.6404 0C26.7192 0 30.9148 4.15625 30.9148 9.1875V20.5625C32.2397 20.5625 33.5647 20.3438 34.8896 20.3438C36.2145 20.3438 37.3186 20.3437 38.6435 20.5625V9.1875C38.6435 4.15625 42.8391 0 47.918 0C53.6593 0 58.0757 5.25 57.1924 10.9375L54.7634 24.2813C63.3754 28 70 34.5625 70 42.6562V47.6875C70 54.4687 65.5836 60.1563 59.1798 63.875C52.776 67.8125 44.3849 70 34.8896 70C25.3943 70 17.0032 67.8125 10.5994 63.875C4.4164 60.1563 0 54.4687 0 47.6875V42.6562C0 34.5625 6.40379 28 15.0158 24.2813L12.5868 10.9375ZM51.4511 26.0312L54.3218 10.2812C54.9842 6.34375 52.1136 2.625 47.918 2.625C44.3849 2.625 41.5142 5.46875 41.5142 8.96875V23.4062C40.6309 23.1875 39.5268 23.1875 38.6435 23.1875C37.3186 23.1875 36.2145 22.9688 34.8896 22.9688C33.5647 22.9688 32.2397 22.9688 30.9148 23.1875C30.0315 23.1875 28.9274 23.4062 28.0442 23.4062V9.1875C28.0442 5.6875 25.1735 2.84375 21.6404 2.84375C17.6656 2.84375 14.5741 6.5625 15.4574 10.5L18.3281 26.25C9.05363 29.75 2.87066 35.875 2.87066 42.875V47.9062C2.87066 58.625 17.224 67.375 34.8896 67.375C52.5552 67.375 66.9085 58.625 66.9085 47.9062V42.875C67.1293 35.6563 60.9464 29.5312 51.4511 26.0312Z" fill="#633001"/>
<path d="M67.1294 47.6875C67.1294 58.4062 52.7761 67.1562 35.1105 67.1562C17.4449 67.1562 3.09155 58.4062 3.09155 47.6875V42.6562H67.3502V47.6875H67.1294Z" fill="#FEDC90"/>
<path fill-rule="evenodd" clip-rule="evenodd" d="M15.4575 10.5C14.5742 6.5625 17.6657 2.84375 21.6404 2.84375C25.1736 2.84375 28.0442 5.6875 28.0442 9.1875V23.625C30.2524 23.4063 32.4606 23.1875 34.8897 23.1875C37.0979 23.1875 39.3061 23.4063 41.5143 23.625V9.1875C41.5143 5.6875 44.3849 2.84375 47.9181 2.84375C51.8928 2.84375 54.9843 6.5625 54.3218 10.5L51.4512 26.25C60.7256 29.75 67.1294 35.875 67.1294 42.875C67.1294 53.5938 52.7761 62.3438 35.1105 62.3438C17.4449 62.3438 3.09155 53.5938 3.09155 42.875C3.09155 35.875 9.27452 29.75 18.549 26.25L15.4575 10.5Z" fill="#D1884F"/>
<path d="M26.0567 41.3437C26.0567 44.1875 24.511 46.5937 22.5236 46.5937C20.5362 46.5937 18.9905 44.1875 18.9905 41.3437C18.9905 38.5 20.5362 36.0938 22.5236 36.0938C24.511 36.0938 26.0567 38.5 26.0567 41.3437Z" fill="#633001"/>
<path d="M50.5677 41.3437C50.5677 44.1875 49.022 46.5937 47.0346 46.5937C45.0472 46.5937 43.5015 44.1875 43.5015 41.3437C43.5015 38.5 45.0472 36.0938 47.0346 36.0938C49.022 36.0938 50.5677 38.5 50.5677 41.3437Z" fill="#633001"/>
</svg>
