<svg width="70" height="70" viewBox="0 0 70 70" fill="none" xmlns="http://www.w3.org/2000/svg">
<path d="M27.4451 15.9205C26.5719 15.8122 26.5303 15.7761 26.9461 15.74C27.7362 15.6317 29.5657 15.7761 30.8547 16.0288C33.8485 16.6425 36.5512 18.231 39.4203 21.0108L40.1687 21.7689L41.2498 21.6245C45.8652 20.9747 50.6054 21.4801 54.5555 23.0685C55.6366 23.5017 57.3414 24.3682 57.5493 24.5848C57.6325 24.657 57.7572 25.1263 57.8404 25.5956C58.1315 27.2923 58.0067 28.5559 57.383 29.5306C57.0504 30.0721 57.0504 30.2165 57.2583 30.6859C57.4246 31.0469 57.9235 31.2996 58.3809 31.2996C59.3789 31.2996 60.4184 29.9277 60.9173 28.0144L61.1252 27.2562L61.4995 27.6173C63.6201 29.675 65.2833 32.527 65.5328 34.5487L65.6159 35.0902L65.2417 34.6209C64.618 33.7905 64.0359 33.249 63.2458 32.7797C61.8321 31.9494 60.3352 31.6967 56.3851 31.5162C52.8092 31.3357 50.7717 31.083 48.7759 30.5053C45.3663 29.5306 43.6199 28.2671 39.5866 23.61C37.7986 21.5523 36.676 20.4331 35.5533 19.4945C33.1 17.4367 30.6468 16.3537 27.4451 15.9205Z" fill="#DBF4FF"/>
<path d="M58.4225 20.5054C58.5057 19.1336 58.7136 18.231 59.171 17.4007C59.3373 17.0758 59.5036 16.787 59.5452 16.787C59.5868 16.787 59.5036 17.0397 59.3789 17.3285C59.0462 18.1227 59.0047 19.2419 59.2126 20.5054C59.5036 22.13 59.6284 22.3466 61.6242 24.1155C62.539 24.9458 63.6201 25.9928 64.0359 26.426L64.7428 27.2202L64.0359 26.6426C63.1627 25.9206 61.1668 24.5487 60.7095 24.3682C60.4184 24.2238 60.3768 24.2238 60.1689 24.4043C60.0026 24.5487 59.961 24.7653 59.961 25.8123C59.9194 27.4368 59.6699 28.4476 59.0462 29.4946C58.7136 30.0361 58.672 29.9278 58.9631 29.3141C59.171 28.8448 59.2126 28.6282 59.2126 27.0758C59.2126 23.935 58.7968 23.1769 56.2604 21.9133C55.6367 21.5884 54.5556 21.1191 53.9319 20.8664C53.2666 20.6137 52.7676 20.3971 52.8092 20.3971C52.8923 20.3249 55.3456 20.9386 56.3019 21.2996C57.7572 21.805 58.0067 21.8411 58.1731 21.805C58.2978 21.6967 58.381 21.4079 58.4225 20.5054Z" fill="#DBF4FF"/>
<path d="M29.1494 25.8845C27.403 23.7906 26.2804 20.5415 26.5298 18.1227L26.613 17.3646L27.0288 17.4368C27.7773 17.5451 29.0662 17.9783 29.69 18.3033C31.3532 19.1697 32.1016 20.361 32.8085 23.3213C33.0164 24.1877 33.3074 25.1986 33.4322 25.5235C33.6401 26.065 34.4301 27.3285 35.0954 28.1228C35.5528 28.7004 35.2617 28.9892 34.2222 28.917C32.6422 28.7726 30.5216 27.509 29.1494 25.8845Z" fill="#DBF4FF"/>
<path d="M56.3016 41.5885C48.0687 38.7004 45.1581 36.2094 45.1581 31.9856C45.1581 31.3719 45.1997 30.8665 45.1997 30.8665C45.2412 30.8665 45.5323 31.0831 45.9065 31.3358C47.5697 32.491 49.4409 32.9964 54.6384 33.6462C57.6738 34.0434 59.4202 34.3322 61.0002 34.8015C66.0314 36.2455 69.15 39.2058 69.8984 43.213C70.1063 44.3683 69.9816 46.5704 69.6489 47.7257C69.3579 48.6282 68.5263 50.2888 68.3184 50.3249C68.2768 50.3249 68.1936 50.1444 68.1936 49.8556C68.1105 48.3394 67.2373 46.8953 65.782 45.7762C64.0356 44.4766 61.7902 43.5018 56.3016 41.5885Z" fill="#DBF4FF"/>
<path d="M50.4804 42.7798C50.3973 42.2383 50.1894 41.5524 50.0646 41.2636L49.8567 40.722L50.2309 41.1192C50.7715 41.6607 51.1873 42.3105 51.5615 43.213C51.8526 43.8989 51.8526 44.1156 51.8526 45.2347C51.8526 46.3177 51.811 46.5704 51.5615 47.1841C51.1457 48.1589 50.6467 48.8448 49.8151 49.6029C48.3182 50.9387 46.364 51.6607 43.5781 51.9856C43.0791 52.0217 41.6654 52.13 40.418 52.2022C37.2994 52.3466 35.2204 52.6354 33.3493 53.213C33.0998 53.2852 32.8503 53.3574 32.8088 53.3213C32.7256 53.2491 34.0146 52.5993 35.0541 52.1661C36.5094 51.5524 38.0063 51.2275 41.2912 50.7221C42.9128 50.5054 44.576 50.2166 44.9918 50.0722C49.1083 48.9531 51.1457 46.1733 50.4804 42.7798Z" fill="#DBF4FF"/>
<path d="M54.2643 48.5921C53.1832 46.5343 52.9337 44.5849 53.5158 42.7437C53.599 42.5632 53.6821 42.3827 53.7653 42.3827C53.8485 42.3827 54.0979 42.491 54.3474 42.6354C54.8464 42.9242 55.8859 43.4296 58.5471 44.6932C61.9151 46.2816 63.8278 47.509 65.1583 48.917C66.3226 50.1444 67.0295 51.5524 67.3621 53.2852C67.57 54.26 67.4453 56.6065 67.1542 57.5813C66.2394 60.6498 64.1604 63.1047 61.125 64.5127C60.6677 64.7293 60.2934 64.8737 60.2518 64.8737C60.2103 64.8737 60.3766 64.5127 60.6261 64.0795C61.624 62.2383 61.7487 60.4693 61.0003 58.4838C60.5429 57.2563 59.5866 55.7762 57.6739 53.2852C55.3869 50.3971 54.8464 49.639 54.2643 48.5921Z" fill="#DBF4FF"/>
<path d="M23.2868 59.6389C26.3637 57.4007 30.1475 55.8122 33.6403 55.3068C35.1372 55.0902 37.632 55.1624 39.0042 55.4873C41.2079 55.9927 43.2038 57.0758 44.2433 58.4115C45.2412 59.7111 45.6986 60.8303 46.156 63.3212C46.3223 64.296 46.5302 65.3068 46.5718 65.5234C46.9044 66.8231 47.5697 67.8339 48.4013 68.3754C49.6903 69.2057 51.9357 69.2418 54.1394 68.5198C54.5136 68.4115 54.8463 68.3032 54.8463 68.3393C54.9294 68.4115 53.8068 69.0613 53.0583 69.3862C52.0188 69.8555 51.1872 69.9999 50.0645 69.9999C48.0687 69.9999 46.3639 69.0974 44.9917 67.2924C44.7007 66.9314 44.1185 65.8844 43.6196 64.9097C42.1643 61.9855 41.4158 61.1191 39.711 60.1444C38.2141 59.314 36.3014 59.1335 34.8461 59.7472C32.9334 60.5415 32.4344 62.6714 33.765 63.9711C34.3056 64.5126 35.3035 64.9458 36.1351 65.0541C37.6736 65.2346 39.0042 64.1877 39.0042 62.8519C39.0042 61.9855 38.6299 61.4801 37.632 61.083C36.3014 60.5776 34.8461 61.1552 34.8877 62.2743C34.8877 62.7436 35.1372 63.0324 35.6777 63.249C36.0104 63.3934 36.0104 63.3934 35.7609 63.3573C34.5551 63.1407 34.264 61.8411 35.2203 61.0108C36.3846 59.9999 38.8378 60.4332 39.6694 61.8411C40.0021 62.4187 40.0437 63.574 39.7526 64.296C39.0457 65.8844 37.0499 66.7147 35.0124 66.2454C33.6403 65.9205 33.0582 65.5956 31.3949 64.1155C28.4843 61.5162 27.3616 61.0108 23.2036 60.4693L22.4136 60.361L23.2868 59.6389Z" fill="#DBF4FF"/>
<path fill-rule="evenodd" clip-rule="evenodd" d="M1.41558 1.55235C11.1038 11.769 26.0312 27.6534 26.7796 28.5199C27.4033 29.2419 27.1539 29.9278 26.1143 30.4332C25.5322 30.722 24.3264 31.0109 23.7443 31.0109C23.079 31.0109 22.2889 30.722 21.7484 30.2527C21.3742 29.9278 19.7525 27.8701 16.0935 22.9242C13.3076 19.1336 10.9375 15.9928 10.8959 15.9567C10.7296 15.8845 10.7296 15.8845 15.8024 23.7545C19.0041 28.7004 20.0436 30.4693 20.0436 30.6859C20.0436 31.1553 19.8773 31.408 19.212 32.0578C18.0893 33.1408 17.5904 34.3683 17.2161 36.9314C16.8003 39.7834 15.6777 41.8051 12.476 45.2347C10.6049 47.2563 10.3138 47.6174 9.85641 48.4477C9.27428 49.4585 9.10796 50.0361 9.0248 51.3358C8.94164 52.7076 9.10796 53.574 9.56534 54.8737C9.98115 56.0289 10.4385 56.787 11.5612 58.2672C12.5176 59.5668 13.0997 60.5416 13.0997 60.9026C13.0997 61.1914 13.1828 61.1914 14.6797 60.9026C18.2556 60.1805 21.2079 58.9531 22.8295 57.4369C23.8274 56.4982 24.0769 55.9928 24.0769 54.6932C24.0769 53.8628 24.0353 53.6823 23.7858 53.1769C23.37 52.3827 22.58 51.7329 20.8752 50.7221C18.6299 49.3863 17.6735 48.3033 17.424 46.8592C17.2161 45.6318 17.4656 44.8015 18.713 42.5271C20.002 40.1805 20.3347 39.2058 20.5426 36.8231C20.6673 35.3069 20.8752 34.6932 21.3742 34.2238C21.9147 33.7184 22.3721 33.5379 23.6611 33.3935C25.7817 33.1408 27.1539 32.6715 28.2349 31.769C29.1913 31.0108 29.6071 30.2527 29.6487 29.1336L29.6903 28.3033L29.1497 27.7979C27.1954 25.8484 0.126591 0 0.00184952 0C-0.0397309 0 0.625556 0.685921 1.41558 1.55235ZM14.1808 52.8881C14.6382 52.2022 14.3887 51.3358 13.6402 50.9026C12.9334 50.5054 11.8523 50.686 11.8523 51.2275C11.8523 51.3719 11.9354 51.5163 12.1849 51.5885C12.5591 51.769 12.6007 51.9495 12.3096 52.3466C12.0186 52.7437 12.0186 53.1047 12.3928 53.3574C12.9749 53.7545 13.765 53.5379 14.1808 52.8881Z" fill="#DBF4FF"/>
<path fill-rule="evenodd" clip-rule="evenodd" d="M31.0207 33.8989C30.0227 34.1516 29.0664 35.0903 28.7753 36.0289C28.609 36.6065 28.6922 37.6534 28.9832 37.9783C29.4406 38.4838 29.8564 38.6282 31.0207 38.6282C33.3076 38.6282 35.2619 37.7617 35.4698 36.7148C35.6777 35.8484 34.8045 34.657 33.5987 34.1155C32.9749 33.8267 31.6859 33.7184 31.0207 33.8989ZM33.6818 35.704C34.0145 35.2708 33.8897 34.8014 33.266 34.4765C32.1433 33.8628 30.4385 34.3682 30.4385 35.3069C30.4385 35.7762 31.3117 36.2816 32.1433 36.2816C32.6839 36.2816 33.4323 35.9928 33.6818 35.704Z" fill="#DBF4FF"/>
</svg>
