<svg width="70" height="70" viewBox="0 0 70 70" fill="none" xmlns="http://www.w3.org/2000/svg">
<g clip-path="url(#clip0_847:10)">
<path d="M27.4511 15.9288C26.5776 15.8204 26.536 15.7843 26.952 15.7482C27.7422 15.6398 29.5723 15.7843 30.8616 16.0372C33.8563 16.6512 36.5598 18.2405 39.4297 21.0217L40.1783 21.7802L41.2597 21.6357C45.8765 20.9856 50.618 21.4912 54.5693 23.0805C55.6507 23.5139 57.356 24.3808 57.564 24.5975C57.6471 24.6698 57.7719 25.1393 57.8551 25.6089C58.1463 27.3065 58.0215 28.5707 57.3976 29.5459C57.0648 30.0877 57.0648 30.2322 57.2728 30.7018C57.4392 31.063 57.9383 31.3158 58.3958 31.3158C59.394 31.3158 60.4338 29.9432 60.9329 28.0289L61.1409 27.2704L61.5152 27.6316C63.6364 29.6904 65.3001 32.5439 65.5497 34.5666L65.6329 35.1084L65.2585 34.6388C64.6347 33.8081 64.0524 33.2663 63.2621 32.7967C61.848 31.9659 60.3506 31.7131 56.3994 31.5325C52.8224 31.3519 50.7844 31.0991 48.788 30.5212C45.3774 29.5459 43.6305 28.2817 39.596 23.6223C37.8076 21.5635 36.6846 20.4438 35.5616 19.5046C33.1076 17.4458 30.6537 16.3622 27.4511 15.9288Z" fill="#FF007A"/>
<path d="M58.4372 20.516C58.5204 19.1434 58.7284 18.2404 59.1859 17.4097C59.3523 17.0846 59.5186 16.7957 59.5602 16.7957C59.6018 16.7957 59.5186 17.0485 59.3939 17.3374C59.0611 18.1321 59.0195 19.2518 59.2275 20.516C59.5186 22.1414 59.6434 22.3581 61.6398 24.128C62.5549 24.9587 63.6363 26.0062 64.0522 26.4396L64.7593 27.2343L64.0522 26.6563C63.1788 25.9339 61.1823 24.5614 60.7248 24.3808C60.4337 24.2363 60.3921 24.2363 60.1841 24.4169C60.0177 24.5614 59.9761 24.7781 59.9761 25.8256C59.9346 27.451 59.685 28.4623 59.0611 29.5098C58.7284 30.0516 58.6868 29.9432 58.9779 29.3292C59.1859 28.8596 59.2275 28.6429 59.2275 27.0898C59.2275 23.9474 58.8116 23.1888 56.2744 21.9247C55.6505 21.5996 54.5691 21.13 53.9452 20.8772C53.2798 20.6243 52.7807 20.4076 52.8222 20.4076C52.9054 20.3354 55.3594 20.9494 56.316 21.3106C57.7717 21.8163 58.0213 21.8524 58.1877 21.8163C58.3124 21.7079 58.3956 21.419 58.4372 20.516Z" fill="#FF007A"/>
<path d="M29.1562 25.8978C27.4093 23.8028 26.2863 20.5521 26.5358 18.132L26.619 17.3735L27.0349 17.4458C27.7836 17.5541 29.073 17.9876 29.6969 18.3126C31.3606 19.1795 32.1092 20.3715 32.8163 23.3333C33.0242 24.2002 33.3154 25.2115 33.4402 25.5366C33.6481 26.0784 34.4384 27.3426 35.1039 28.1372C35.5614 28.7151 35.2702 29.0041 34.2304 28.9318C32.6499 28.7874 30.5287 27.5232 29.1562 25.8978Z" fill="#FF007A"/>
<path d="M56.316 41.6099C48.0807 38.7203 45.1692 36.228 45.1692 32.002C45.1692 31.388 45.2108 30.8823 45.2108 30.8823C45.2524 30.8823 45.5435 31.099 45.9179 31.3519C47.5815 32.5077 49.4532 33.0134 54.6523 33.6635C57.6885 34.0609 59.4354 34.3498 61.0159 34.8194C66.0486 36.2642 69.168 39.226 69.9167 43.2353C70.1246 44.3911 69.9999 46.5944 69.6671 47.7502C69.376 48.6532 68.5441 50.3147 68.3362 50.3508C68.2946 50.3508 68.2114 50.1702 68.2114 49.8813C68.1282 48.3643 67.2548 46.9195 65.799 45.7998C64.0521 44.4995 61.8061 43.5242 56.316 41.6099Z" fill="#FF007A"/>
<path d="M50.4931 42.8019C50.4099 42.2601 50.2019 41.5738 50.0772 41.2848L49.8692 40.743L50.2435 41.1404C50.7842 41.6822 51.2002 42.3323 51.5745 43.2353C51.8656 43.9216 51.8656 44.1383 51.8656 45.258C51.8656 46.3416 51.824 46.5944 51.5745 47.2085C51.1586 48.1837 50.6595 48.87 49.8276 49.6285C48.3303 50.9649 46.3754 51.6873 43.5888 52.0124C43.0896 52.0485 41.6755 52.1569 40.4277 52.2291C37.3083 52.3736 35.2287 52.6625 33.357 53.2405C33.1075 53.3127 32.8579 53.3849 32.8163 53.3488C32.7331 53.2766 34.0225 52.6264 35.0623 52.193C36.5181 51.579 38.0154 51.2539 41.3012 50.7482C42.9233 50.5315 44.587 50.2425 45.0029 50.098C49.1205 48.9783 51.1586 46.1971 50.4931 42.8019Z" fill="#FF007A"/>
<path d="M54.278 48.6171C53.1966 46.5583 52.947 44.6078 53.5293 42.7657C53.6125 42.5851 53.6957 42.4045 53.7789 42.4045C53.8621 42.4045 54.1116 42.5129 54.3612 42.6574C54.8603 42.9463 55.9001 43.452 58.562 44.7162C61.931 46.3055 63.8443 47.5335 65.1752 48.9422C66.3398 50.1703 67.0469 51.579 67.3796 53.3127C67.5876 54.2879 67.4628 56.6357 67.1716 57.6109C66.2566 60.6811 64.177 63.1373 61.1407 64.5459C60.6832 64.7627 60.3089 64.9071 60.2673 64.9071C60.2257 64.9071 60.3921 64.5459 60.6416 64.1125C61.6399 62.2704 61.7646 60.5005 61.016 58.5139C60.5585 57.2859 59.6018 55.805 57.6886 53.3127C55.401 50.4231 54.8603 49.6646 54.278 48.6171Z" fill="#FF007A"/>
<path d="M23.2919 59.6698C26.3697 57.4304 30.1546 55.8411 33.6484 55.3354C35.1457 55.1187 37.6413 55.1909 39.0138 55.516C41.2182 56.0217 43.2147 57.1053 44.2545 58.4417C45.2527 59.742 45.7102 60.8617 46.1677 63.354C46.3341 64.3292 46.542 65.3406 46.5836 65.5573C46.9164 66.8576 47.5819 67.869 48.4137 68.4108C49.7031 69.2415 51.9491 69.2776 54.1535 68.5553C54.5278 68.4469 54.8605 68.3385 54.8605 68.3747C54.9437 68.4469 53.8207 69.097 53.0721 69.4221C52.0322 69.8917 51.2004 70.0362 50.0774 70.0362C48.081 70.0362 46.3757 69.1332 45.0031 67.3272C44.712 66.966 44.1297 65.9185 43.6306 64.9433C42.1748 62.0176 41.4262 61.1507 39.7209 60.1755C38.2236 59.3447 36.3103 59.1641 34.8546 59.7782C32.9413 60.5728 32.4422 62.7039 33.7732 64.0042C34.3139 64.546 35.3121 64.9794 36.1439 65.0878C37.6829 65.2684 39.0138 64.2209 39.0138 62.8845C39.0138 62.0176 38.6395 61.5119 37.6413 61.1146C36.3103 60.6089 34.8546 61.1868 34.8962 62.3065C34.8962 62.7761 35.1457 63.0651 35.6864 63.2818C36.0192 63.4262 36.0192 63.4262 35.7696 63.3901C34.5634 63.1734 34.2723 61.8731 35.2289 61.0423C36.3935 60.031 38.8475 60.4644 39.6793 61.8731C40.012 62.451 40.0536 63.6069 39.7625 64.3292C39.0554 65.9185 37.059 66.7493 35.021 66.2797C33.6484 65.9546 33.0661 65.6296 31.4024 64.1486C28.4909 61.548 27.368 61.0423 23.2087 60.5006L22.4185 60.3922L23.2919 59.6698Z" fill="#FF007A"/>
<path fill-rule="evenodd" clip-rule="evenodd" d="M1.41416 1.55315C11.1052 11.775 26.0369 27.6677 26.7855 28.5346C27.4094 29.257 27.1599 29.9432 26.12 30.4489C25.5377 30.7379 24.3316 31.0268 23.7493 31.0268C23.0838 31.0268 22.2935 30.7379 21.7528 30.2683C21.3785 29.9432 19.7564 27.8844 16.0963 22.936C13.3096 19.1434 10.9388 16.001 10.8972 15.9649C10.7309 15.8927 10.7309 15.8927 15.8051 23.7668C19.0077 28.7152 20.0476 30.485 20.0476 30.7018C20.0476 31.1713 19.8812 31.4241 19.2157 32.0743C18.0927 33.1579 17.5936 34.386 17.2193 36.9505C16.8033 39.8039 15.6804 41.8266 12.4777 45.258C10.6061 47.2807 10.3149 47.6419 9.85742 48.4726C9.27512 49.484 9.10875 50.0619 9.02557 51.3622C8.94238 52.7348 9.10875 53.6016 9.56627 54.902C9.98219 56.0578 10.4397 56.8163 11.5627 58.2972C12.5193 59.5975 13.1016 60.5727 13.1016 60.9339C13.1016 61.2229 13.1848 61.2229 14.6821 60.9339C18.2591 60.2116 21.2121 58.9835 22.8342 57.4665C23.8325 56.5273 24.082 56.0217 24.082 54.7214C24.082 53.8906 24.0404 53.71 23.7909 53.2043C23.3749 52.4097 22.5847 51.7595 20.8794 50.7482C18.6334 49.4118 17.6768 48.3282 17.4272 46.8834C17.2193 45.6553 17.4688 44.8246 18.7166 42.549C20.006 40.2012 20.3387 39.226 20.5467 36.8421C20.6714 35.3251 20.8794 34.711 21.3785 34.2415C21.9192 33.7358 22.3767 33.5552 23.6661 33.4107C25.7873 33.1579 27.1599 32.6883 28.2413 31.7853C29.1979 31.0268 29.6138 30.2683 29.6554 29.1486L29.697 28.3179L29.1563 27.8122C27.2014 25.8617 0.124796 0 1.89946e-05 0C-0.0415734 0 0.623905 0.686274 1.41416 1.55315ZM14.183 52.9154C14.6405 52.2291 14.391 51.3622 13.6423 50.9288C12.9353 50.5315 11.8539 50.7121 11.8539 51.2539C11.8539 51.3983 11.937 51.5428 12.1866 51.6151C12.5609 51.7957 12.6025 51.9763 12.3114 52.3736C12.0202 52.7709 12.0202 53.1321 12.3946 53.3849C12.9768 53.7822 13.7671 53.5655 14.183 52.9154Z" fill="#FF007A"/>
<path fill-rule="evenodd" clip-rule="evenodd" d="M31.028 33.9164C30.0298 34.1693 29.0732 35.1084 28.7821 36.0475C28.6157 36.6254 28.6989 37.6729 28.99 37.9979C29.4475 38.5036 29.8635 38.6481 31.028 38.6481C33.3156 38.6481 35.2705 37.7812 35.4784 36.7338C35.6864 35.8669 34.813 34.6749 33.6068 34.1331C32.9829 33.8442 31.6935 33.7358 31.028 33.9164ZM33.69 35.7224C34.0227 35.289 33.8979 34.8194 33.274 34.4943C32.151 33.8803 30.4458 34.386 30.4458 35.3251C30.4458 35.7946 31.3192 36.3003 32.151 36.3003C32.6917 36.3003 33.4404 36.0114 33.69 35.7224Z" fill="#FF007A"/>
</g>
<defs>
<clipPath id="clip0_847:10">
<rect width="70" height="70" fill="white"/>
</clipPath>
</defs>
</svg>
