<svg width="40" height="39" viewBox="0 0 40 39" fill="none" xmlns="http://www.w3.org/2000/svg">
<path d="M40 20.0309C40 8.96806 31.0458 0 20 0C8.95421 0 0 8.96806 0 20.0309C0 28.8124 5.64143 36.2726 13.4917 38.9772C13.9702 38.6311 14.5222 38.2045 14.5222 37.4878C14.5222 36.3856 14.4977 33.5514 14.4977 33.5514C13.7997 33.6538 13.0949 33.7027 12.3895 33.6977C9.26737 33.6977 8.278 31.7141 7.81 30.6032C7.19766 29.1567 6.41036 28.4777 5.56357 27.9345C5.04658 27.6016 4.92761 27.2082 5.52596 27.096C8.28938 26.5774 8.99532 30.2168 10.8411 30.7977C12.1585 31.2112 13.8521 31.0325 14.6945 30.4893C14.8056 29.3784 15.6104 28.4164 16.2805 27.91C11.5864 27.4614 8.80374 25.837 7.35774 23.2271L7.2029 22.9344L6.84075 22.1056L6.73315 21.8086C6.28176 20.4839 6.08144 18.9664 6.08144 17.2711C6.08144 14.2625 7.0227 13.127 8.28675 11.5228C7.32012 8.0928 8.63666 5.74828 8.63666 5.74828C8.63666 5.74828 10.6688 5.32862 14.509 8.06827C16.5901 7.17988 22.1406 7.10453 24.7667 7.87027C26.3771 6.80927 29.3251 5.30408 30.5148 5.7255C30.8367 6.24154 31.5304 7.74761 30.9364 11.0541C31.3397 11.7796 33.4383 13.325 33.4462 17.6925C33.4129 19.3037 33.2441 20.6644 32.9318 21.8147L32.7569 22.4026C32.7569 22.4026 32.658 22.6803 32.5495 22.9449L32.4218 23.2367C31.0292 26.283 28.173 27.4202 23.5577 27.8933C25.0536 28.8308 25.4822 30.0074 25.4822 33.1913C25.4822 36.3751 25.4402 36.8027 25.4499 37.5351C25.4586 38.1826 25.9747 38.6478 26.4401 39C34.328 36.3138 40 28.836 40 20.0309Z" fill="white"/>
</svg>
