<svg width="60" height="60" viewBox="0 0 60 60" fill="none" xmlns="http://www.w3.org/2000/svg">
<path d="M37.5756 42.2898C40.2812 40.958 42.2285 38.5573 43.1734 35.3711C43.7196 33.5813 43.8179 30.5607 43.4028 28.5707C42.2721 23.0867 37.3944 19.0201 31.2759 18.4657L30.1307 18.3656L30.0588 17.4634C29.9732 16.3036 29.5435 15.8593 28.5412 15.8593H27.9112V17.1484C27.9112 18.1935 27.8684 18.4366 27.6964 18.4366C27.5243 18.4366 27.4815 18.1935 27.4815 17.1484C27.4815 15.8739 27.4815 15.8593 27.1238 15.8593C26.766 15.8593 26.766 15.8593 26.766 17.2203V18.5658L26.1642 18.7233C23.902 19.296 21.6971 20.4985 20.3079 21.9023C18.0893 24.1636 17.4303 27.7869 18.7767 30.4643C20.3944 33.6569 24.8324 33.442 26.5366 30.0773C27.0828 28.9895 27.2385 28.2302 27.324 26.3121C27.396 24.7645 27.4387 24.5223 27.6672 24.4795C27.8958 24.4368 27.9112 24.6616 27.9112 27.6576V30.893H28.5412C29.0137 30.893 29.2859 30.8075 29.5863 30.5498L29.9868 30.2066L30.1307 24.5223L30.9181 24.5797C32.1207 24.6507 34.769 25.3671 36.2155 25.9971C37.9452 26.77 39.7523 27.9872 40.7255 29.075C44.2194 32.9413 42.7155 38.9069 38.1337 39.2984C37.2461 39.3694 36.9602 39.312 35.2851 38.7686C34.2683 38.439 32.2919 37.7235 30.9036 37.1791C29.5144 36.6492 27.8821 36.0621 27.2521 35.89C23.1291 34.7311 19.3629 36.6638 18.032 40.6157C17.5167 42.1633 17.9319 42.4482 18.59 40.9871C19.1363 39.7845 19.6351 39.4395 20.7804 39.5305C21.4968 39.5733 22.0267 39.7882 24.7322 41.1628C28.5985 43.1246 29.5863 43.4105 32.4931 43.4105C34.7835 43.4059 35.6857 43.2056 37.5756 42.2898ZM25.1474 30.9932C24.3463 31.8234 23.587 32.0956 22.3699 32.0091C21.2101 31.9236 20.4226 31.5658 19.7071 30.7638C18.2323 29.1315 18.9196 26.9402 21.2966 25.7568C22.4563 25.1696 25.6344 24.4113 26.4792 24.4968C26.6513 24.526 26.7086 24.8264 26.7369 26.029C26.7951 28.3722 26.35 29.7615 25.1474 30.9932Z" fill="#FFEA94"/>
<path d="M57.7112 32.4088L57.6975 32.3642C57.6652 32.2264 57.6114 32.0946 57.5382 31.9736C57.4752 31.8569 57.3838 31.7579 57.2724 31.6858C57.161 31.6137 57.0333 31.5709 56.9009 31.5612C56.9069 31.4275 56.878 31.2945 56.8172 31.1752C56.7198 30.9795 56.5204 30.7847 56.1108 30.7729C56.0667 30.6243 55.988 30.4883 55.8813 30.3759C55.7147 30.2112 55.4444 30.1238 55.0274 30.386C54.7173 30.6773 54.4069 30.9583 54.0961 31.2289C53.925 31.371 53.7547 31.5102 53.5836 31.6459C53.6209 31.0997 53.6419 30.5535 53.6419 29.9963C53.6419 29.5111 53.6255 29.0295 53.5963 28.5507L53.6255 28.5743L53.8685 28.7728L54.1016 28.9749C54.4111 29.248 54.7219 29.5317 55.0338 29.8261C55.4498 30.0919 55.7211 30.0082 55.8877 29.8434C55.9945 29.7319 56.0729 29.5964 56.1162 29.4483C56.9355 29.4355 56.9155 28.6663 56.9155 28.6663C57.0475 28.6581 57.1753 28.6165 57.2868 28.5453C57.3983 28.4741 57.4898 28.3757 57.5528 28.2593C57.6261 28.1392 57.6801 28.0084 57.713 27.8715L57.7257 27.8269L57.9661 27.7705L57.9588 27.6749C57.9588 27.6749 57.9388 27.5966 57.9515 27.5839L57.7057 27.5675L57.6857 27.5256C57.6326 27.3955 57.5592 27.2748 57.4681 27.1678C57.3835 27.0641 57.2746 26.9828 57.151 26.9312C57.0275 26.8795 56.8931 26.8592 56.7598 26.872C56.7598 26.872 56.6624 26.1091 55.8495 26.2302C55.7841 26.0887 55.6823 25.9671 55.5545 25.8778C55.3579 25.7458 55.0729 25.7067 54.7161 26.0353C54.595 26.2038 54.4603 26.3731 54.3283 26.5379C54.1963 26.7026 54.0643 26.8665 53.9314 27.0267C53.7984 27.1869 53.6664 27.3444 53.5335 27.4992L53.5071 27.5292C53.3999 26.5024 53.2256 25.4837 52.9855 24.4795C53.1748 24.5857 53.3645 24.6953 53.5545 24.8082C53.7365 24.9147 53.9186 25.023 54.0934 25.1368C54.2682 25.2506 54.4421 25.3653 54.6169 25.4846C55.0675 25.6748 55.3215 25.5437 55.4608 25.3544C55.5492 25.2256 55.606 25.0778 55.6264 24.9229C56.0279 24.8455 56.2 24.6179 56.2537 24.4113C56.2879 24.2826 56.2929 24.1479 56.2682 24.0171C56.3978 23.9855 56.5175 23.9219 56.6162 23.8322C56.7149 23.7426 56.7897 23.6296 56.8336 23.5036C56.8872 23.3717 56.9204 23.2323 56.9319 23.0903L56.9374 23.0439L57.164 22.9474L57.1376 22.8564C57.1376 22.8564 57.1021 22.7835 57.1121 22.7653L56.8664 22.7926L56.8381 22.7553C56.7597 22.6373 56.6636 22.532 56.5532 22.4431C56.4539 22.3547 56.334 22.2928 56.2045 22.2631C56.075 22.2333 55.94 22.2367 55.8122 22.2728C55.7998 22.2344 55.7846 22.197 55.7666 22.1608C55.7271 22.0767 55.6725 22.0005 55.6055 21.936C55.4462 21.7858 55.1913 21.6711 54.8026 21.8003C54.7102 21.6752 54.5894 21.5738 54.4503 21.5045C54.2372 21.4071 53.9523 21.418 53.6519 21.8058C53.458 22.1863 53.2686 22.5541 53.062 22.9164C52.9497 23.1076 52.8368 23.2958 52.7233 23.4809C52.4394 22.4903 52.0903 21.5195 51.6782 20.575L51.7146 20.5868L52.0105 20.6888L52.2991 20.7989C52.6845 20.9495 53.0735 21.1094 53.4662 21.2787C53.6457 21.3297 53.8367 21.3234 54.0124 21.2605C54.1291 21.2099 54.2228 21.1178 54.2755 21.002C54.3375 20.8605 54.365 20.7064 54.3556 20.5522C55.1203 20.2591 54.8381 19.5436 54.8381 19.5436C54.9597 19.4906 55.0659 19.4077 55.1467 19.3024C55.2274 19.1971 55.2801 19.073 55.2996 18.9418C55.327 18.8033 55.3325 18.6614 55.316 18.5212V18.4748L55.5236 18.3392L55.4835 18.2481C55.4835 18.2481 55.4371 18.1817 55.4444 18.1616L55.2077 18.2308L55.1749 18.198C55.1465 18.1658 55.1161 18.1354 55.0839 18.107C55.0118 18.039 54.9306 17.9814 54.8426 17.9359C54.7277 17.8671 54.5976 17.8278 54.4638 17.8216C54.3301 17.8154 54.1968 17.8425 54.0761 17.9004C54.0761 17.9004 53.7256 17.2158 53.0064 17.6081L52.9764 17.5799C52.9502 17.5562 52.9222 17.5346 52.8926 17.5153C52.8049 17.4543 52.7073 17.409 52.604 17.3815C52.3746 17.3241 52.0942 17.3815 51.8703 17.8175C51.7592 18.219 51.6154 18.625 51.477 19.0165C51.4015 19.2258 51.3277 19.4307 51.2494 19.6346C50.7962 18.7062 50.2823 17.8088 49.7109 16.9481L49.7483 16.9545C49.9504 16.9885 50.154 17.0249 50.3591 17.0637C50.5642 17.1026 50.7709 17.1435 50.9791 17.1866C51.1866 17.2294 51.3851 17.2777 51.5917 17.3323C52.0788 17.3569 52.2727 17.1502 52.3391 16.9199C52.3779 16.7685 52.381 16.6102 52.3482 16.4574C53.0519 16.035 52.6368 15.3869 52.6368 15.3869C52.7476 15.3122 52.8382 15.2113 52.9005 15.0931C52.9628 14.9749 52.9948 14.8431 52.9937 14.7095C53.0013 14.568 52.9825 14.4263 52.9382 14.2917L52.9272 14.2471L53.1093 14.0778L53.0538 13.9995C53.0538 13.9995 52.9955 13.943 52.9982 13.9221L52.777 14.0322L52.7388 14.0058C52.6256 13.9214 52.5 13.8551 52.3664 13.8092C52.2436 13.7598 52.1102 13.7422 51.9788 13.7581C51.8473 13.774 51.722 13.8229 51.6145 13.9002C51.5904 13.8668 51.5626 13.8363 51.5316 13.8092C51.4622 13.7469 51.3836 13.6956 51.2986 13.6572C51.0992 13.5661 50.8216 13.547 50.5002 13.8019C50.372 13.7156 50.225 13.6613 50.0714 13.6435C49.8393 13.6235 49.5762 13.73 49.4242 14.1997C49.3714 14.6246 49.3125 15.0409 49.2476 15.4488C49.2175 15.65 49.1738 15.8584 49.1328 16.0614C49.1328 16.0733 49.1328 16.0851 49.1256 16.0969C48.5191 15.2628 47.8589 14.4691 47.1492 13.7209C47.3664 13.7173 47.5858 13.7173 47.8074 13.7209C48.2234 13.7282 48.6376 13.75 49.0637 13.7764C49.5516 13.7136 49.7009 13.4733 49.7291 13.2402C49.7402 13.0846 49.714 12.9285 49.6527 12.7851C49.9613 12.5119 49.9913 12.2388 49.9422 12.0249C49.9216 11.934 49.8839 11.8478 49.8311 11.7709C49.8094 11.7371 49.7851 11.7052 49.7583 11.6753C49.8549 11.5831 49.9265 11.468 49.9667 11.3407C50.0068 11.2133 50.014 11.0779 49.9877 10.947C49.9675 10.807 49.9258 10.6709 49.8639 10.5437L49.8457 10.5L49.994 10.3025L49.9276 10.2324C49.9276 10.2324 49.862 10.186 49.862 10.1641L49.6636 10.3098L49.6199 10.2925C49.4925 10.2298 49.3561 10.1871 49.2157 10.1659C49.0851 10.14 48.9501 10.1471 48.8229 10.1865C48.6958 10.2259 48.5804 10.2965 48.4874 10.3917C48.3872 10.3039 48.2687 10.2395 48.1406 10.2033C48.0239 10.1706 47.9002 10.1725 47.7846 10.2087C47.6267 10.2601 47.4863 10.3547 47.3795 10.4818C47.2359 10.4207 47.08 10.3942 46.9243 10.4045C46.6903 10.4272 46.4482 10.5792 46.3826 11.0645C46.4282 11.7017 46.4318 12.3517 46.4191 12.9808C45.6762 12.2627 44.8873 11.5937 44.0576 10.978L44.0967 10.9698C44.3016 10.9288 44.5009 10.8997 44.7067 10.866C45.1163 10.8032 45.5369 10.7431 45.9602 10.6967C46.4245 10.5565 46.5356 10.2916 46.5219 10.054C46.5147 9.94842 46.4866 9.84537 46.4391 9.75082C46.4183 9.70692 46.3942 9.66463 46.3672 9.62428C46.8843 8.98703 46.2761 8.51273 46.2761 8.51273C46.3556 8.40552 46.4068 8.27995 46.4247 8.14769C46.4427 8.01543 46.427 7.88077 46.379 7.75622C46.3336 7.62322 46.2675 7.49819 46.1833 7.38571L46.1578 7.34656L46.2698 7.12716L46.1906 7.07072C46.1906 7.07072 46.1177 7.03704 46.1132 7.0161L45.9429 7.19362L45.8983 7.18269C45.7641 7.14013 45.624 7.11894 45.4832 7.11988C45.3494 7.11723 45.2171 7.14798 45.0982 7.20933C44.9793 7.27069 44.8776 7.36072 44.8023 7.47128C44.8023 7.47128 44.155 7.05616 43.7271 7.75531C43.578 7.71524 43.421 7.71524 43.2719 7.75531C43.0444 7.82086 42.8313 8.01385 42.8532 8.49907C42.9051 8.70026 42.9442 8.91238 42.9906 9.11903C43.0371 9.32568 43.0726 9.53234 43.1099 9.73626C43.1472 9.94018 43.1827 10.1432 43.2164 10.3444L43.2219 10.3853C42.3661 9.80676 41.4729 9.28551 40.5482 8.82498C40.7521 8.74851 40.9578 8.67478 41.1672 8.60013C41.3766 8.52548 41.565 8.45993 41.7653 8.39803C41.9656 8.33612 42.165 8.27786 42.3689 8.2205C42.804 7.99838 42.8668 7.7189 42.8104 7.49222C42.7685 7.34195 42.6922 7.20354 42.5874 7.08802C42.9916 6.35973 42.3051 6.0147 42.3051 6.0147C42.3639 5.89474 42.392 5.76205 42.3867 5.62856C42.3815 5.49507 42.3431 5.36498 42.2751 5.25C42.2285 5.16209 42.1726 5.07939 42.1085 5.00329C42.081 4.97021 42.0506 4.93974 42.0175 4.91226L41.9847 4.87949L42.0566 4.6437L41.9656 4.60365C41.9656 4.60365 41.8873 4.58362 41.8745 4.5645L41.7371 4.77024H41.6907C41.5502 4.75384 41.408 4.75937 41.2692 4.78663C41.1378 4.80529 41.0133 4.85679 40.9072 4.93635C40.801 5.01592 40.7167 5.12098 40.6619 5.24181C40.6251 5.22616 40.5871 5.21368 40.5482 5.20448C40.4575 5.18154 40.3633 5.17567 40.2705 5.18719C40.0538 5.21086 39.8017 5.33193 39.6505 5.71246C39.4947 5.70198 39.3385 5.72914 39.1954 5.79167C38.9832 5.8918 38.8085 6.11575 38.9122 6.59733C39.0791 6.9894 39.2363 7.37751 39.3838 7.76169C39.4585 7.97107 39.5304 8.17954 39.5996 8.3871C38.6629 7.96994 37.6998 7.61503 36.7164 7.32471L36.7474 7.30559C36.9249 7.19999 37.107 7.08711 37.2872 6.99152C37.6514 6.79367 38.0234 6.59915 38.4033 6.40798C38.7948 6.10847 38.8075 5.82444 38.712 5.61141C38.6436 5.47263 38.5431 5.35216 38.4188 5.26002C38.5517 4.87311 38.4379 4.61821 38.2886 4.45981C38.2241 4.39193 38.1491 4.33477 38.0665 4.29048C38.0319 4.26997 37.9949 4.25377 37.9564 4.24223C37.9936 4.11499 37.998 3.98039 37.9692 3.85098C37.9404 3.72157 37.8793 3.60155 37.7916 3.50211C37.7033 3.39177 37.5982 3.29593 37.4802 3.21808L37.4447 3.18622L37.4739 2.94133L37.3828 2.91493C37.3828 2.91493 37.3027 2.90765 37.2918 2.88853L37.1935 3.1143L37.147 3.11885C37.1053 3.11979 37.0636 3.12344 37.0223 3.12977C36.9237 3.14278 36.8273 3.1688 36.7356 3.20715C36.609 3.25065 36.4953 3.32492 36.4045 3.42329C36.3138 3.52165 36.2489 3.64102 36.2158 3.77067C36.2158 3.77067 35.4656 3.5977 35.3054 4.40155L35.2644 4.4061C35.2389 4.41065 35.2025 4.41793 35.1606 4.42977C35.0576 4.45788 34.9602 4.50378 34.873 4.56541C34.6809 4.70379 34.548 4.95778 34.7355 5.40749C34.9713 5.7507 35.1907 6.1194 35.4019 6.47899C35.5063 6.66106 35.6088 6.8404 35.7096 7.01701L35.7278 7.04978C34.7257 6.80177 33.7085 6.61931 32.6826 6.50357L32.71 6.4799C32.8665 6.34698 33.0249 6.21407 33.187 6.08207C33.349 5.95007 33.512 5.81716 33.6795 5.68515C33.847 5.55315 34.0136 5.4348 34.1847 5.31009C34.5161 4.95322 34.4797 4.67283 34.3486 4.47255C34.2576 4.3452 34.1383 4.24079 33.9999 4.16758C34.1292 3.35645 33.3627 3.25722 33.3627 3.25722C33.3767 3.12435 33.3575 2.99007 33.3069 2.86645C33.2562 2.74282 33.1756 2.63373 33.0723 2.54896C32.9985 2.48176 32.9176 2.42284 32.831 2.37327C32.7943 2.35299 32.7563 2.33505 32.7172 2.31955L32.6763 2.30044L32.6626 2.05373L32.5661 2.04644C32.5661 2.04644 32.486 2.05464 32.4751 2.03916L32.4168 2.2795L32.3722 2.29315C32.2347 2.32614 32.103 2.37986 31.9817 2.45247C31.865 2.5156 31.7661 2.60705 31.694 2.7184C31.622 2.82976 31.5791 2.95744 31.5693 3.08972C31.4355 3.08378 31.3025 3.11263 31.1833 3.17347C30.9876 3.27088 30.7927 3.47025 30.7818 3.87991C30.6329 3.92387 30.4966 4.00249 30.384 4.10932C30.2192 4.27592 30.1318 4.54629 30.394 4.96324C30.6853 5.27337 30.9663 5.5838 31.237 5.89454C31.379 6.06568 31.518 6.23653 31.6539 6.40707C31.1077 6.36974 30.5615 6.34881 30.0053 6.34881C29.5191 6.34881 29.0376 6.36519 28.5596 6.39432L28.5824 6.36519L28.7808 6.12213L28.9839 5.88998C29.257 5.57925 29.5404 5.26851 29.8341 4.95778C30.1 4.54083 30.0162 4.27045 29.8514 4.10386C29.7402 3.99663 29.6046 3.91792 29.4563 3.87445C29.4436 3.05512 28.6752 3.07515 28.6752 3.07515C28.6667 2.94321 28.625 2.81558 28.5538 2.70415C28.4826 2.59271 28.3844 2.50112 28.2683 2.4379C28.1477 2.36515 28.0166 2.31142 27.8796 2.27859L27.835 2.26493L27.7794 2.0246L27.6829 2.03188C27.6829 2.03188 27.6056 2.05191 27.5919 2.03916L27.5755 2.28496L27.5346 2.30499C27.4044 2.35783 27.2836 2.4313 27.1768 2.52256C27.0728 2.60702 26.9914 2.71589 26.9398 2.83948C26.8881 2.96307 26.8679 3.09752 26.8809 3.23082C26.8809 3.23082 26.1171 3.32823 26.2382 4.14118C26.0969 4.20646 25.9756 4.30828 25.8868 4.43614C25.7539 4.63369 25.7148 4.91772 26.0434 5.27549C26.2127 5.39566 26.3811 5.53039 26.5468 5.66239C26.7125 5.7944 26.8745 5.9264 27.0348 6.05931C27.195 6.19222 27.3525 6.32423 27.5072 6.45714L27.5373 6.48354C26.5104 6.5908 25.4917 6.76505 24.4876 7.00518C24.595 6.81582 24.7033 6.62647 24.8162 6.4362C24.9291 6.24593 25.0311 6.07206 25.1449 5.89818C25.2587 5.7243 25.3743 5.5486 25.4926 5.37381C25.6829 4.91863 25.5527 4.66919 25.3624 4.52991C25.234 4.44143 25.0864 4.38465 24.9318 4.36422C24.8535 3.96275 24.626 3.79069 24.4193 3.73698C24.2907 3.70275 24.156 3.69777 24.0251 3.72242C23.9932 3.59297 23.9296 3.4735 23.8399 3.3748C23.7503 3.2761 23.6375 3.20128 23.5117 3.15708C23.3798 3.10349 23.2403 3.07063 23.0984 3.05968L23.0529 3.0533L22.9463 2.82207L22.8553 2.84847C22.8553 2.84847 22.7825 2.88398 22.7643 2.87487L22.7916 3.12067L22.7543 3.14798C22.636 3.22655 22.5304 3.32263 22.4411 3.43292C22.3528 3.5322 22.2909 3.65213 22.2611 3.78165C22.2314 3.91116 22.2347 4.04608 22.2709 4.17396C22.2327 4.18623 22.1956 4.20145 22.1598 4.21947C22.0754 4.25858 21.9991 4.31324 21.9349 4.38061C21.7838 4.53992 21.6691 4.79482 21.7984 5.18355C21.6734 5.27581 21.5723 5.3966 21.5034 5.53585C21.4051 5.74888 21.4124 6.03382 21.8038 6.33515C22.1853 6.52906 22.5522 6.7175 22.9145 6.92506C23.1057 7.03613 23.2941 7.14871 23.4798 7.26281C22.489 7.54696 21.518 7.89608 20.573 8.3079C20.573 8.29607 20.5803 8.28423 20.5849 8.2724L20.6868 7.97562L20.797 7.68704C20.9469 7.30165 21.1068 6.91262 21.2767 6.51995C21.3283 6.3405 21.3219 6.14936 21.2585 5.97374C21.208 5.8573 21.1163 5.76361 21.0009 5.71064C20.8578 5.64791 20.7017 5.62044 20.5457 5.63053C20.2535 4.86583 19.537 5.14804 19.537 5.14804C19.4842 5.02645 19.4011 4.92035 19.2959 4.83975C19.1906 4.75915 19.0665 4.70672 18.9353 4.6874C18.7969 4.65951 18.6549 4.65368 18.5147 4.6701H18.4683L18.3336 4.46345L18.2425 4.5026C18.2425 4.5026 18.1761 4.54902 18.156 4.54265L18.2252 4.77844L18.1934 4.81212C18.1613 4.84074 18.1309 4.87113 18.1023 4.90315C18.0349 4.97571 17.9774 5.05682 17.9312 5.1444C17.8626 5.25939 17.8235 5.38956 17.8175 5.52331C17.8115 5.65706 17.8386 5.79022 17.8966 5.91092C17.8966 5.91092 17.2111 6.26141 17.6034 6.98151L17.5761 7.01064C17.5518 7.03656 17.5299 7.06458 17.5106 7.09439C17.4496 7.18213 17.4044 7.27977 17.3768 7.38298C17.3194 7.61239 17.3768 7.89278 17.8128 8.11672C18.2143 8.22779 18.6212 8.37163 19.0127 8.51C19.2212 8.58556 19.4269 8.6593 19.6299 8.73759C18.7018 9.19133 17.8044 9.70526 16.9434 10.2761L16.9498 10.2388C16.9844 10.0367 17.0208 9.83366 17.059 9.62792C17.0973 9.42218 17.1392 9.21644 17.1819 9.00888C17.2247 8.80131 17.2775 8.60195 17.3276 8.3953C17.3531 7.90916 17.1455 7.71435 16.9152 7.64789C16.7638 7.60911 16.6055 7.60599 16.4527 7.63879C16.0303 6.93508 15.3831 7.35111 15.3831 7.35111C15.3085 7.23999 15.2075 7.14918 15.0891 7.08687C14.9707 7.02457 14.8386 6.99274 14.7049 6.99425C14.5634 6.9862 14.4217 7.00472 14.287 7.04887L14.2424 7.0598L14.074 6.87772L13.9948 6.93326C13.9948 6.93326 13.9383 6.99152 13.9174 6.98879L14.0275 7.21001L14.0021 7.24824C13.9172 7.36129 13.8505 7.48692 13.8045 7.62058C13.7549 7.7434 13.7372 7.87679 13.7532 8.00828C13.7691 8.13978 13.8181 8.2651 13.8955 8.37254C13.8621 8.3966 13.8316 8.42439 13.8045 8.45538C13.7416 8.52454 13.69 8.60319 13.6516 8.68843C13.5605 8.8878 13.5423 9.16546 13.7963 9.48682C13.71 9.61501 13.6556 9.76206 13.6379 9.9156C13.6179 10.1477 13.729 10.4108 14.1941 10.5629C14.619 10.6157 15.0353 10.6745 15.4432 10.7395C15.6444 10.7695 15.8537 10.8132 16.0567 10.8542L16.0913 10.8615C15.2574 11.4685 14.4638 12.129 13.7153 12.8388C13.7117 12.6215 13.7117 12.4018 13.7153 12.1797C13.7217 11.7636 13.7444 11.3494 13.7699 10.9234C13.7071 10.4354 13.4677 10.2861 13.2346 10.2588C13.079 10.2473 12.923 10.2732 12.7794 10.3344C12.5063 10.0257 12.2332 9.99571 12.0193 10.0449C11.9284 10.0656 11.8423 10.1033 11.7653 10.1559C11.7332 10.1779 11.7027 10.2022 11.6743 10.2288C11.5819 10.1324 11.4668 10.0608 11.3395 10.0207C11.2122 9.98064 11.0769 9.97328 10.946 9.99935C10.806 10.0195 10.6699 10.0612 10.5427 10.1232L10.4999 10.1414L10.316 10.0003L10.2468 10.0667C10.2468 10.0667 10.1995 10.1323 10.1776 10.1332L10.3242 10.3316L10.306 10.3744C10.2436 10.5019 10.2012 10.6382 10.1804 10.7786C10.1544 10.9091 10.1614 11.0441 10.2006 11.1712C10.2399 11.2984 10.3102 11.4137 10.4052 11.5069C10.3175 11.607 10.2534 11.7255 10.2177 11.8538C10.1846 11.9706 10.1862 12.0946 10.2222 12.2106C10.2739 12.3681 10.3685 12.5081 10.4954 12.6148C10.4342 12.7584 10.4077 12.9143 10.418 13.07C10.4407 13.304 10.5928 13.5461 11.078 13.6117C11.7152 13.5661 12.3652 13.5625 12.9897 13.5752C12.2719 14.3183 11.6029 15.1071 10.9869 15.9367L10.9788 15.8976C10.9378 15.6927 10.9087 15.4934 10.8759 15.2876C10.8122 14.8789 10.753 14.4583 10.7056 14.0341C10.5655 13.5698 10.3005 13.4587 10.0629 13.4724C9.95767 13.4796 9.85491 13.5077 9.76069 13.5552C9.71644 13.5759 9.67384 13.6 9.63324 13.6271C8.99599 13.11 8.52169 13.7182 8.52169 13.7182C8.41462 13.6387 8.28921 13.5877 8.15711 13.5697C8.02501 13.5517 7.89051 13.5674 7.76609 13.6153C7.63275 13.6606 7.5074 13.7266 7.39467 13.811L7.35643 13.8365L7.13613 13.7255L7.07968 13.8037C7.07968 13.8037 7.046 13.8766 7.02506 13.8811L7.20713 14.0514L7.1953 14.0969C7.15318 14.2309 7.13199 14.3706 7.13248 14.5111C7.13016 14.6448 7.16105 14.777 7.22238 14.8958C7.2837 15.0147 7.37356 15.1165 7.48388 15.192C7.48388 15.192 7.06967 15.8402 7.76701 16.2654C7.72723 16.4145 7.72723 16.5714 7.76701 16.7205C7.83346 16.9481 8.02555 17.1611 8.51077 17.1393C8.71196 17.0874 8.92407 17.0483 9.13072 17.0027C9.33738 16.9572 9.54403 16.9208 9.74795 16.8826C9.95187 16.8443 10.1549 16.8098 10.3561 16.7761L10.397 16.7706C9.81879 17.6266 9.29754 18.5198 8.83668 19.4443C8.76021 19.2404 8.68647 19.0347 8.61182 18.8262C8.53717 18.6177 8.47162 18.4275 8.40972 18.2272C8.34781 18.0269 8.29046 17.8275 8.2322 17.6245C8.01007 17.1894 7.73059 17.1256 7.50391 17.1821C7.35364 17.2239 7.21524 17.3003 7.09971 17.4051C6.37143 17.0009 6.0264 17.6873 6.0264 17.6873C5.9066 17.6286 5.77405 17.6005 5.6407 17.6058C5.50736 17.611 5.37742 17.6494 5.2626 17.7174C5.17448 17.7641 5.09149 17.82 5.01499 17.884C4.98233 17.9119 4.95189 17.9424 4.92395 17.975L4.89118 18.0069L4.65357 17.934L4.61352 18.0251C4.61352 18.0251 4.5944 18.1034 4.57437 18.1116L4.78011 18.249V18.2955C4.76371 18.436 4.76924 18.5782 4.7965 18.717C4.81532 18.8482 4.86688 18.9727 4.94643 19.0788C5.02598 19.1849 5.13095 19.2693 5.25168 19.3242C5.23654 19.3612 5.22407 19.3992 5.21436 19.438C5.19188 19.5287 5.18602 19.6228 5.19706 19.7156C5.22164 19.9323 5.34181 20.1845 5.72325 20.3356C5.71272 20.4914 5.73957 20.6474 5.80154 20.7908C5.90168 21.0029 6.12654 21.1777 6.60721 21.0739C6.99988 20.9076 7.38799 20.7504 7.77156 20.6023C7.98185 20.5277 8.18941 20.4567 8.39698 20.3875C7.97727 21.3288 7.62023 22.2968 7.32821 23.2851L7.30909 23.2542C7.20349 23.0767 7.09061 22.8946 6.99502 22.7143C6.79777 22.3502 6.60356 21.9782 6.41239 21.5982C6.11197 21.2068 5.82794 21.194 5.61582 21.2896C5.47769 21.3561 5.35704 21.454 5.26352 21.5755C4.8757 21.4435 4.6208 21.5564 4.4624 21.7066C4.39456 21.7709 4.3374 21.8455 4.29307 21.9278C4.27256 21.9624 4.25635 21.9994 4.24482 22.0379C4.11772 22.0007 3.98326 21.9963 3.854 22.0251C3.72473 22.0539 3.60487 22.115 3.50561 22.2027C3.39514 22.2912 3.29902 22.3962 3.22067 22.5141L3.19336 22.5514L2.94756 22.5213L2.92116 22.6124C2.92116 22.6124 2.91388 22.6925 2.89567 22.7034L3.12144 22.8027V22.8482C3.12295 22.8899 3.1266 22.9315 3.13236 22.9729C3.14547 23.0717 3.17149 23.1685 3.20974 23.2606C3.25359 23.3868 3.32798 23.5003 3.4263 23.5908C3.52462 23.6814 3.64382 23.7462 3.77326 23.7795C3.77326 23.7795 3.6012 24.5296 4.40414 24.6898C4.40414 24.6898 4.40414 24.7053 4.40414 24.7308C4.42978 24.8708 4.48401 25.0041 4.56345 25.1222C4.70273 25.3143 4.95581 25.4472 5.40553 25.2606C5.74965 25.0239 6.11743 24.8054 6.47702 24.5942C6.6591 24.4886 6.83844 24.3858 7.01505 24.2856L7.04873 24.2674C6.79993 25.2694 6.61746 26.2866 6.50251 27.3126L6.47794 27.2853C6.34502 27.1287 6.21302 26.9703 6.08011 26.8091C5.9472 26.648 5.81519 26.4832 5.6841 26.3166C5.55301 26.15 5.43375 25.9816 5.30812 25.8105C4.95126 25.4791 4.67087 25.5155 4.47059 25.6466C4.34324 25.7376 4.23883 25.857 4.16562 25.9953C3.35449 25.8669 3.25526 26.6325 3.25526 26.6325C3.12239 26.6185 2.98811 26.6377 2.86449 26.6884C2.74086 26.7391 2.63177 26.8197 2.547 26.9229C2.4798 26.9967 2.42088 27.0776 2.3713 27.1642C2.35151 27.2011 2.33388 27.2391 2.3185 27.278L2.29847 27.3189L2.05268 27.3335L2.04539 27.4291C2.04539 27.4291 2.05359 27.5092 2.03811 27.5201L2.27845 27.5784L2.29119 27.623C2.324 27.7606 2.37773 27.8923 2.4505 28.0135C2.5137 28.1301 2.60517 28.229 2.71651 28.3011C2.82785 28.3731 2.9555 28.4161 3.08776 28.4259C3.08181 28.5597 3.11067 28.6927 3.17151 28.8119C3.26892 29.0077 3.4692 29.2025 3.87795 29.2143C3.92204 29.3629 4.00065 29.4989 4.10736 29.6112C4.27395 29.776 4.54524 29.8634 4.96128 29.6012C5.27262 29.3099 5.58305 29.0289 5.89257 28.7582C6.06372 28.6162 6.23487 28.4772 6.40602 28.3413C6.36778 28.8875 6.34836 29.437 6.34775 29.9899C6.34775 30.4761 6.36414 30.9577 6.39236 31.4365L6.36323 31.4128L6.12836 31.2253L5.89622 31.0232C5.58548 30.7501 5.27474 30.4664 4.96401 30.172C4.54706 29.9062 4.27668 29.9899 4.11009 30.1547C4.00324 30.2663 3.92458 30.4017 3.88068 30.5498C3.06136 30.5626 3.08138 31.3318 3.08138 31.3318C2.94949 31.3401 2.82184 31.3816 2.71039 31.4526C2.59894 31.5237 2.50733 31.6218 2.44413 31.7378C2.37139 31.8585 2.31765 31.9896 2.28482 32.1266L2.27116 32.1712L2.03174 32.2267L2.03902 32.3232C2.03902 32.3232 2.05996 32.4015 2.0463 32.4142L2.2921 32.4306L2.31213 32.4725C2.3651 32.6023 2.43856 32.7228 2.52971 32.8294C2.61425 32.9335 2.72326 33.0151 2.84699 33.0669C2.97073 33.1186 3.10536 33.139 3.23887 33.1261C3.23887 33.1261 3.33537 33.889 4.14924 33.7634C4.21445 33.9047 4.3159 34.0263 4.44328 34.1157C4.64083 34.2477 4.92486 34.2868 5.28263 33.9582C5.4028 33.7898 5.53844 33.6205 5.66954 33.4557C5.80063 33.2909 5.93354 33.127 6.06645 32.9668C6.19937 32.8066 6.33137 32.6491 6.46519 32.4943L6.49159 32.4643C6.59811 33.4912 6.77206 34.51 7.01232 35.514C6.82387 35.4075 6.63361 35.2983 6.44334 35.1854C6.25308 35.0725 6.0792 34.9705 5.90532 34.8567C5.73144 34.7429 5.55665 34.6273 5.38095 34.509C4.92577 34.3187 4.67633 34.4498 4.53705 34.6391C4.44907 34.7682 4.39235 34.9159 4.37136 35.0707C3.97081 35.148 3.79784 35.3756 3.74412 35.5823C3.70989 35.7109 3.70491 35.8456 3.72956 35.9765C3.60011 36.0084 3.48064 36.072 3.38194 36.1617C3.28324 36.2513 3.20842 36.3641 3.16423 36.4899C3.11113 36.622 3.07829 36.7613 3.06682 36.9032L3.06045 36.9496L2.82921 37.0516L2.8547 37.1426C2.8547 37.1426 2.89021 37.2155 2.8811 37.2337L3.1269 37.2064L3.15512 37.2437C3.23304 37.3619 3.32887 37.4672 3.43916 37.5559C3.53857 37.6444 3.65866 37.7063 3.78833 37.736C3.918 37.7658 4.05308 37.7624 4.1811 37.7262C4.19282 37.7647 4.20775 37.8021 4.22571 37.8382C4.26532 37.9225 4.32027 37.9987 4.38775 38.063C4.54615 38.2132 4.80105 38.3279 5.18978 38.1987C5.28216 38.3237 5.4029 38.4252 5.54209 38.4945C5.75511 38.5919 6.04005 38.581 6.34138 38.1932C6.53529 37.8127 6.72373 37.4449 6.9313 37.0826C7.04357 36.8914 7.15615 36.7032 7.26904 36.5181C7.553 37.5089 7.90182 38.4799 8.31322 39.4249L8.27772 39.4131L7.98094 39.3111L7.69236 39.201C7.30818 39.0504 6.91916 38.8905 6.52527 38.7212C6.34576 38.6702 6.15478 38.6765 5.97906 38.7394C5.86256 38.7903 5.7689 38.8824 5.71596 38.998C5.654 39.1394 5.62684 39.2936 5.63676 39.4477C4.87115 39.7408 5.15427 40.4564 5.15427 40.4564C5.03251 40.5091 4.92622 40.5921 4.84546 40.6974C4.7647 40.8027 4.71213 40.9268 4.69272 41.0581C4.66538 41.1966 4.65955 41.3384 4.67542 41.4787V41.5251L4.46877 41.6598L4.50883 41.7509C4.50883 41.7509 4.55435 41.8173 4.54797 41.8374L4.78467 41.7682L4.81744 41.8009C4.84593 41.8331 4.87633 41.8635 4.90848 41.892C4.98097 41.9595 5.06209 42.017 5.14972 42.0631C5.26463 42.1319 5.39477 42.1711 5.52852 42.1773C5.66227 42.1835 5.79547 42.1564 5.91624 42.0986C5.91624 42.0986 6.26764 42.7832 6.98683 42.3909L7.01596 42.4191C7.04217 42.4428 7.07017 42.4644 7.09971 42.4837C7.18745 42.5447 7.28509 42.59 7.3883 42.6175C7.61862 42.6749 7.8981 42.6175 8.12205 42.1815C8.23402 41.78 8.37695 41.3731 8.51532 40.9825C8.59088 40.7732 8.66462 40.5683 8.74291 40.3644C9.19645 41.2926 9.71039 42.19 10.2814 43.0509L10.2441 43.0445C10.042 43.0105 9.83868 42.9741 9.63415 42.9353C9.42963 42.8964 9.22297 42.8555 9.0142 42.8124C8.80573 42.7696 8.60727 42.7213 8.40153 42.6667C7.91448 42.6412 7.72058 42.8488 7.65412 43.0791C7.61474 43.2304 7.61131 43.3887 7.64411 43.5416C6.9404 43.964 7.35643 44.6121 7.35643 44.6121C7.24561 44.6868 7.15502 44.7877 7.09274 44.9059C7.03047 45.0241 6.99846 45.1559 6.99957 45.2894C6.99194 45.4309 7.01046 45.5726 7.05419 45.7073L7.06512 45.7519L6.88305 45.9203L6.93858 45.9995C6.93858 45.9995 6.99684 46.056 6.99411 46.0769L7.21533 45.9668L7.25447 45.9932C7.36729 46.0776 7.49261 46.144 7.6259 46.1898C7.74875 46.2392 7.88211 46.2568 8.01357 46.2409C8.14504 46.225 8.27035 46.1761 8.37786 46.0988C8.40227 46.1319 8.43003 46.1624 8.4607 46.1898C8.53035 46.2523 8.60928 46.3036 8.69466 46.3418C8.89312 46.4329 9.17169 46.452 9.49214 46.1971C9.62045 46.2832 9.76743 46.3375 9.92092 46.3555C10.1531 46.3755 10.4171 46.2645 10.5691 45.7993C10.6207 45.3744 10.6796 44.9581 10.7457 44.5502C10.7757 44.349 10.8185 44.1406 10.8595 43.9376C10.8595 43.9248 10.865 43.9139 10.8668 43.9021C11.4739 44.736 12.1343 45.5296 12.8441 46.2781C12.6268 46.2817 12.4071 46.2817 12.185 46.2781C11.7689 46.2708 11.3547 46.2481 10.9287 46.2226C10.4407 46.2854 10.2914 46.5248 10.2641 46.7579C10.2532 46.9134 10.279 47.0694 10.3397 47.213C10.0311 47.4861 10.001 47.7593 10.0502 47.9732C10.0821 48.1026 10.1445 48.2224 10.2323 48.3228C10.1357 48.4149 10.064 48.5301 10.0239 48.6574C9.98376 48.7847 9.97653 48.9202 10.0028 49.0511C10.0235 49.1911 10.0656 49.3271 10.1276 49.4543L10.1449 49.498L9.99648 49.6956L10.0638 49.7657C10.0638 49.7657 10.1285 49.8121 10.1294 49.834L10.3278 49.6883L10.3706 49.7056C10.4984 49.7682 10.635 49.8109 10.7757 49.8321C10.9063 49.8581 11.0413 49.851 11.1685 49.8116C11.2957 49.7722 11.411 49.7016 11.504 49.6064C11.6038 49.6943 11.722 49.7587 11.85 49.7948C11.9669 49.8275 12.0909 49.8256 12.2068 49.7894C12.3644 49.7377 12.5043 49.6431 12.611 49.5163C12.7546 49.5774 12.9105 49.6039 13.0662 49.5936C13.3002 49.5709 13.5423 49.4188 13.6124 48.9336C13.5669 48.2964 13.5633 47.6464 13.5769 47.0219C14.3195 47.74 15.108 48.409 15.9375 49.0247L15.8992 49.0328C15.6935 49.0738 15.4941 49.1029 15.2884 49.1366C14.8796 49.1994 14.4591 49.2595 14.0348 49.306C13.5715 49.4462 13.4595 49.7111 13.4731 49.9487C13.4808 50.0541 13.5089 50.1571 13.556 50.2518C13.5769 50.2959 13.6012 50.3382 13.6288 50.3784C13.1117 51.0156 13.7198 51.4899 13.7198 51.4899C13.6403 51.5971 13.5892 51.7227 13.5712 51.855C13.5533 51.9872 13.569 52.1219 13.617 52.2464C13.6628 52.3793 13.7288 52.5042 13.8127 52.6169L13.8391 52.6561L13.7271 52.8755L13.8054 52.9319C13.8054 52.9319 13.8783 52.9656 13.8828 52.9865L14.054 52.8045L14.0986 52.8163C14.2326 52.8584 14.3723 52.8796 14.5128 52.8791C14.6465 52.8814 14.7787 52.8506 14.8975 52.7892C15.0164 52.7279 15.1181 52.638 15.1937 52.5277C15.1937 52.5277 15.8419 52.9428 16.2698 52.2437C16.4189 52.2835 16.5758 52.2835 16.7249 52.2437C16.9534 52.1781 17.1656 51.9851 17.1437 51.4999C17.0918 51.2987 17.0527 51.0866 17.0072 50.88C16.9616 50.6733 16.9252 50.4667 16.887 50.2627C16.8488 50.0588 16.8142 49.8558 16.7814 49.6546C16.7814 49.641 16.7814 49.6273 16.775 49.6137C17.6319 50.1881 18.5257 50.7054 19.4506 51.1622C19.2476 51.2387 19.0418 51.3124 18.8324 51.387C18.623 51.4617 18.4337 51.5272 18.2343 51.5891C18.035 51.651 17.8338 51.7093 17.6308 51.7712C17.1956 51.9933 17.1328 52.2728 17.1883 52.4995C17.2302 52.6498 17.3065 52.7882 17.4114 52.9037C17.0081 53.632 17.6945 53.977 17.6945 53.977C17.6356 54.0967 17.6074 54.2292 17.6125 54.3626C17.6175 54.4959 17.6557 54.6259 17.7236 54.7408C17.7705 54.828 17.8263 54.91 17.8902 54.9857C17.9178 55.0186 17.9483 55.0491 17.9812 55.0767L18.0131 55.1095L17.9421 55.3453L18.0331 55.3853C18.0331 55.3853 18.1114 55.4054 18.1242 55.4245L18.2607 55.2187H18.3072C18.448 55.2352 18.5905 55.2297 18.7296 55.2024C18.8607 55.1836 18.985 55.132 19.091 55.0524C19.197 54.9729 19.2812 54.8679 19.3359 54.7472C19.3727 54.7628 19.4107 54.7753 19.4497 54.7845C19.5403 54.8074 19.6345 54.8133 19.7273 54.8018C19.9449 54.7781 20.1971 54.6571 20.3473 54.2765C20.5031 54.2869 20.6592 54.2597 20.8024 54.1973C21.0137 54.0972 21.1884 53.8732 21.0856 53.3917C20.909 52.9978 20.7481 52.609 20.6031 52.2255C20.5284 52.0161 20.4574 51.8076 20.3882 51.6001C21.3295 52.0198 22.2975 52.3768 23.2859 52.6688L23.255 52.6879C23.0783 52.7935 22.8954 52.9064 22.716 53.002C22.3519 53.1993 21.9795 53.3935 21.599 53.5846C21.2076 53.8851 21.1948 54.1691 21.2913 54.3812C21.3595 54.5204 21.46 54.6412 21.5844 54.7335C21.4515 55.1204 21.5644 55.3708 21.7146 55.5337C21.7791 55.6014 21.8537 55.6585 21.9358 55.7031C21.9705 55.7236 22.0075 55.7398 22.046 55.7513C22.009 55.8786 22.0048 56.0133 22.0337 56.1427C22.0627 56.2721 22.1239 56.392 22.2117 56.4914C22.3001 56.6013 22.4048 56.6971 22.5221 56.7755L22.5594 56.8037L22.5303 57.0486L22.6213 57.075C22.6213 57.075 22.7015 57.0822 22.7124 57.1005L22.8116 56.8756H22.8571C22.8992 56.8741 22.9411 56.8704 22.9828 56.8647C23.0813 56.8514 23.1777 56.8254 23.2695 56.7873C23.3958 56.7435 23.5092 56.6691 23.5998 56.5707C23.6903 56.4724 23.7551 56.3532 23.7884 56.2238C23.7884 56.2238 24.5386 56.3967 24.6988 55.5929H24.7388C24.7643 55.5883 24.8007 55.5811 24.8426 55.5692C24.9459 55.541 25.0435 55.4951 25.1312 55.4336C25.3224 55.2943 25.4553 55.0412 25.2687 54.5915C25.0329 54.2483 24.8135 53.8796 24.6023 53.52C24.4967 53.3379 24.3941 53.1586 24.2946 52.982L24.2755 52.9483C25.2775 53.1967 26.2947 53.3791 27.3206 53.4945L27.2933 53.5182C27.1376 53.6511 26.9783 53.784 26.8172 53.916C26.6561 54.048 26.4913 54.1809 26.3247 54.3129C26.1581 54.4449 25.9906 54.5633 25.8194 54.688C25.4872 55.0449 25.5236 55.3253 25.6547 55.5255C25.7456 55.6529 25.865 55.7573 26.0033 55.8305C25.875 56.6416 26.6406 56.7409 26.6406 56.7409C26.6265 56.8737 26.6457 57.008 26.6964 57.1316C26.7471 57.2553 26.8277 57.3644 26.931 57.4491C27.005 57.5164 27.0862 57.5753 27.1731 57.6248C27.2095 57.645 27.2473 57.6626 27.286 57.6776L27.3279 57.6977L27.3416 57.9435L27.4326 57.9516C27.4326 57.9516 27.5136 57.9425 27.5282 57.9589L27.5855 57.7186L27.6301 57.7049C27.769 57.6689 27.9014 57.6115 28.0225 57.5347C28.1393 57.4718 28.2384 57.3804 28.3104 57.269C28.3825 57.1576 28.4253 57.0298 28.4349 56.8974C28.5687 56.9034 28.7016 56.8745 28.8209 56.8137C29.0166 56.7163 29.2114 56.5169 29.2233 56.1073C29.3718 56.0632 29.5078 55.9846 29.6202 55.8778C29.785 55.7113 29.8724 55.4409 29.6111 55.0239C29.3186 54.7138 29.0373 54.4034 28.7672 54.0926C28.6252 53.9215 28.4868 53.7503 28.3502 53.5801C28.8965 53.6174 29.4427 53.6384 29.9998 53.6384C30.485 53.6384 30.9666 53.622 31.4455 53.5928L31.2242 53.865L31.0212 54.0972C30.7481 54.4079 30.4644 54.7187 30.1701 55.0294C29.9042 55.4463 29.988 55.7167 30.1528 55.8833C30.2644 55.99 30.3998 56.0686 30.5478 56.1127C30.5615 56.932 31.3299 56.912 31.3299 56.912C31.3382 57.044 31.3799 57.1717 31.4511 57.2832C31.5222 57.3946 31.6206 57.4862 31.7368 57.5493C31.8574 57.622 31.9885 57.6757 32.1255 57.7086L32.1692 57.7222L32.2256 57.9626L32.3212 57.9553C32.3212 57.9553 32.3995 57.9353 32.4123 57.948L32.4277 57.7022L32.4696 57.6822C32.5997 57.6291 32.7204 57.5557 32.8274 57.4646C32.9309 57.3796 33.012 57.2705 33.0636 57.1469C33.1152 57.0232 33.1357 56.8888 33.1233 56.7554C33.1233 56.7554 33.8861 56.6589 33.7605 55.8451C33.902 55.7797 34.0236 55.6779 34.1128 55.5501C34.2448 55.3526 34.284 55.0685 33.9562 54.7108C33.7869 54.5906 33.6185 54.4559 33.4528 54.3239C33.2871 54.1919 33.1242 54.0599 32.9639 53.9269C32.8037 53.794 32.6462 53.662 32.4915 53.5291L32.4614 53.5027C33.4883 53.3955 34.507 53.2213 35.5111 52.9811C35.4046 53.1695 35.2954 53.3598 35.1825 53.5501C35.0696 53.7403 34.9686 53.9142 34.8548 54.0881C34.741 54.262 34.6254 54.4377 34.5061 54.6124C34.3158 55.0676 34.4469 55.3171 34.6372 55.4563C34.7659 55.5443 34.9133 55.6011 35.0678 55.622C35.1461 56.0235 35.3728 56.1956 35.5794 56.2493C35.7081 56.2835 35.8428 56.2885 35.9736 56.2638C36.0055 56.3934 36.0693 56.513 36.1591 56.6117C36.2489 56.7104 36.3619 56.7852 36.4879 56.8292C36.6195 56.8828 36.7587 56.9157 36.9003 56.9266L36.9468 56.933L37.0433 57.1596L37.1343 57.1332C37.1343 57.1332 37.2071 57.0977 37.2253 57.1068L37.198 56.861L37.2354 56.8337C37.3534 56.7553 37.4587 56.6592 37.5476 56.5488C37.6359 56.4495 37.6978 56.3296 37.7276 56.2001C37.7573 56.0705 37.754 55.9356 37.7178 55.8078C37.7563 55.7954 37.7937 55.7802 37.8298 55.7622C37.914 55.7227 37.9902 55.6681 38.0547 55.6011C38.2049 55.4418 38.3205 55.1869 38.1912 54.7982C38.3159 54.7056 38.417 54.5849 38.4862 54.4459C38.5836 54.2328 38.5727 53.9479 38.1849 53.6465C37.8043 53.4526 37.4365 53.2642 37.0742 53.0566C36.883 52.9447 36.6955 52.8327 36.5098 52.7189C37.5006 52.4346 38.4716 52.0855 39.4166 51.6738C39.4166 51.6856 39.4084 51.6975 39.4047 51.7093L39.3019 52.0061L39.1917 52.2947C39.0412 52.6801 38.8816 53.0691 38.7129 53.4618C38.6609 53.6412 38.6673 53.8324 38.7311 54.008C38.7813 54.1246 38.8732 54.2184 38.9887 54.2711C39.1301 54.333 39.2843 54.3602 39.4384 54.3503C39.7316 55.1159 40.4471 54.8337 40.4471 54.8337C40.5002 54.9551 40.5833 55.0611 40.6885 55.1416C40.7938 55.2222 40.9178 55.2747 41.0489 55.2943C41.1873 55.3217 41.3292 55.3275 41.4694 55.3116H41.5159L41.6515 55.5182L41.7425 55.4791C41.7425 55.4791 41.809 55.4327 41.8336 55.439L41.7635 55.2033L41.7963 55.1696C41.8284 55.1411 41.8588 55.1107 41.8873 55.0786C41.955 55.0063 42.0126 54.9251 42.0584 54.8373C42.1272 54.7224 42.1664 54.5923 42.1726 54.4585C42.1788 54.3248 42.1518 54.1916 42.0939 54.0708C42.0939 54.0708 42.7785 53.7203 42.3862 53.0002L42.4144 52.9711C42.4381 52.9449 42.4597 52.9169 42.479 52.8873C42.5403 52.7998 42.5857 52.7021 42.6129 52.5987C42.6702 52.3693 42.6128 52.0889 42.1777 51.865C41.7762 51.7539 41.3693 51.6101 40.9778 51.4717C40.7685 51.3961 40.5636 51.3224 40.3597 51.2441C41.288 50.7908 42.1854 50.2768 43.0462 49.7056L43.0407 49.7429C43.0061 49.945 42.9697 50.148 42.9306 50.3538C42.8914 50.5595 42.8514 50.7653 42.8077 50.9728C42.764 51.1804 42.7166 51.3798 42.662 51.5864C42.6374 52.0725 42.8441 52.2674 43.0744 52.3329C43.2257 52.3723 43.384 52.3757 43.5369 52.3429C43.9593 53.0466 44.6074 52.6306 44.6074 52.6306C44.6818 52.7417 44.7826 52.8325 44.9009 52.8948C45.0192 52.9571 45.1511 52.989 45.2848 52.9874C45.4262 52.9956 45.568 52.9771 45.7026 52.9328L45.7472 52.9219L45.9165 53.104L45.9948 53.0484C45.9948 53.0484 46.0513 52.9902 46.0722 52.9929L45.963 52.7717L45.9885 52.7335C46.0729 52.6202 46.1395 52.4946 46.186 52.3611C46.2356 52.2383 46.2533 52.1049 46.2374 51.9734C46.2214 51.8419 46.1725 51.7166 46.095 51.6092C46.1284 51.5851 46.1589 51.5573 46.186 51.5263C46.2483 51.4569 46.2996 51.3783 46.338 51.2933C46.4291 51.0939 46.4482 50.8162 46.1933 50.4949C46.2797 50.3666 46.3343 50.2197 46.3526 50.0661C46.3717 49.834 46.2616 49.5709 45.7955 49.4188C45.3706 49.366 44.9546 49.3072 44.5474 49.2422C44.3453 49.2122 44.1368 49.1685 43.9338 49.1275L43.8983 49.1202C44.7325 48.5149 45.5265 47.8559 46.2752 47.1475C46.2789 47.3648 46.2789 47.5845 46.2752 47.8066C46.2689 48.2226 46.2461 48.6368 46.2197 49.0629C46.2825 49.5508 46.5228 49.7001 46.7559 49.7275C46.9115 49.7391 47.0676 49.7132 47.2111 49.6519C47.4842 49.9605 47.7573 49.9906 47.9712 49.9414C48.1006 49.9095 48.2205 49.847 48.3208 49.7593C48.413 49.8559 48.5281 49.9276 48.6554 49.9677C48.7828 50.0078 48.9182 50.015 49.0491 49.9887C49.1895 49.9684 49.3259 49.9263 49.4533 49.864L49.4961 49.8467L49.6936 49.9951L49.7637 49.9286C49.7637 49.9286 49.8102 49.8631 49.832 49.8622L49.6863 49.6637L49.7046 49.6209C49.7665 49.4933 49.8089 49.357 49.8302 49.2167C49.8561 49.0862 49.849 48.9511 49.8096 48.824C49.7702 48.6968 49.6997 48.5815 49.6044 48.4885C49.6922 48.3883 49.7566 48.2698 49.7929 48.1416C49.8254 48.0247 49.8238 47.9008 49.7883 47.7847C49.7362 47.6274 49.6417 47.4876 49.5152 47.3805C49.5763 47.237 49.6028 47.0811 49.5926 46.9254C49.5698 46.6914 49.4178 46.4493 48.9326 46.3792C48.2953 46.4247 47.6462 46.4283 47.0163 46.4147C47.73 45.6742 48.3947 44.8882 49.0063 44.0614L49.0145 44.1005C49.0564 44.3053 49.0846 44.5047 49.1183 44.7105C49.1811 45.1192 49.2412 45.5398 49.2885 45.964C49.4278 46.4283 49.6927 46.5394 49.9258 46.5257C50.0313 46.5185 50.1344 46.4903 50.2289 46.4429C50.2732 46.4222 50.3158 46.3981 50.3564 46.371C50.9936 46.8871 51.467 46.2799 51.467 46.2799C51.5742 46.3594 51.6998 46.4105 51.8321 46.4285C51.9643 46.4465 52.099 46.4308 52.2235 46.3828C52.3564 46.337 52.4813 46.271 52.594 46.1871L52.6332 46.1616L52.8535 46.2726L52.909 46.1943C52.909 46.1943 52.9427 46.1215 52.9646 46.117L52.7825 45.9467L52.7934 45.9012C52.836 45.7673 52.8572 45.6275 52.8562 45.487C52.8589 45.3532 52.8282 45.2209 52.7669 45.102C52.7055 44.983 52.6154 44.8813 52.5048 44.806C52.5048 44.806 52.9199 44.1579 52.2217 43.73C52.2617 43.5809 52.2617 43.4239 52.2217 43.2748C52.1562 43.0472 51.9632 42.8342 51.4779 42.8561C51.2767 42.908 51.0646 42.9471 50.858 42.9926C50.6513 43.0381 50.4456 43.0745 50.2408 43.1128C50.0359 43.151 49.8338 43.1856 49.6326 43.2193L49.5926 43.2248C50.1705 42.3685 50.6917 41.4754 51.1529 40.551C51.2288 40.7543 51.3034 40.9604 51.3769 41.1692C51.4452 41.3667 51.5171 41.5679 51.579 41.7673C51.6409 41.9666 51.6992 42.1678 51.7565 42.3708C51.9795 42.806 52.2581 42.8697 52.4848 42.8133C52.6347 42.7713 52.7728 42.6949 52.8881 42.5902C53.6164 42.9935 53.9623 42.308 53.9623 42.308C54.0821 42.3668 54.2147 42.3948 54.348 42.3896C54.4813 42.3843 54.6113 42.346 54.7261 42.278C54.8141 42.231 54.8971 42.1752 54.9737 42.1114C55.0066 42.0837 55.037 42.0532 55.0648 42.0203L55.0984 41.9885L55.3333 42.0595L55.3734 41.9685C55.3734 41.9685 55.3934 41.8902 55.4125 41.882L55.2068 41.7445V41.6981C55.2233 41.5576 55.2181 41.4155 55.1913 41.2766C55.1724 41.1453 55.1208 41.0209 55.0413 40.9148C54.9617 40.8087 54.8568 40.7243 54.7361 40.6694C54.7518 40.6326 54.7642 40.5945 54.7734 40.5556C54.7962 40.4664 54.8023 40.3739 54.7916 40.2825C54.7671 40.0658 54.646 39.8136 54.2655 39.6625C54.2758 39.5066 54.2486 39.3506 54.1863 39.2073C54.0861 38.9961 53.8622 38.8213 53.3806 38.9242C52.9882 39.0917 52.6013 39.2492 52.2162 39.3967C52.0069 39.4713 51.7984 39.5423 51.5917 39.6115C52.011 38.6701 52.3681 37.7021 52.6605 36.7139L52.6787 36.7448C52.7843 36.9214 52.8981 37.109 52.9928 37.2847C53.1906 37.6488 53.3851 38.0208 53.5763 38.4008C53.8758 38.7922 54.1599 38.805 54.3729 38.7094C54.5115 38.6407 54.6319 38.5402 54.7243 38.4162C55.1121 38.5482 55.3615 38.4353 55.5254 38.2851C55.5929 38.2206 55.6501 38.146 55.6947 38.0639C55.7148 38.0292 55.7306 37.9922 55.7421 37.9538C55.8693 37.991 56.0039 37.9954 56.1333 37.9666C56.2627 37.9378 56.3827 37.8767 56.4822 37.789C56.5925 37.7007 56.6884 37.5956 56.7662 37.4776L56.7944 37.4403L57.0393 37.4704L57.0657 37.3793C57.0657 37.3793 57.0739 37.2983 57.0921 37.2883L56.8664 37.1891L56.8618 37.1436C56.8609 37.1018 56.8576 37.0602 56.8518 37.0188C56.8379 36.92 56.8116 36.8234 56.7735 36.7312C56.7298 36.6048 56.6554 36.4913 56.5571 36.4007C56.4588 36.3102 56.3395 36.2454 56.21 36.2123C56.21 36.2123 56.383 35.4621 55.5791 35.3019C55.5791 35.3019 55.5791 35.2864 55.5746 35.2609C55.57 35.2354 55.5627 35.199 55.5509 35.1571C55.5232 35.0541 55.4776 34.9567 55.4161 34.8695C55.2769 34.6774 55.0229 34.5445 54.5732 34.7311C54.23 34.9678 53.8613 35.1863 53.5017 35.3975C53.3196 35.5031 53.1402 35.6059 52.9636 35.7061L52.9309 35.7243C53.1792 34.7223 53.3617 33.705 53.4771 32.6791L53.5008 32.7065C53.6337 32.863 53.7663 33.0217 53.8986 33.1826C54.0309 33.3434 54.1632 33.5076 54.2955 33.6751C54.4266 33.8426 54.5458 34.0092 54.6706 34.1812C55.0274 34.5126 55.3078 34.4762 55.5081 34.3451C55.6354 34.2541 55.7399 34.1348 55.8131 33.9964C56.6242 34.1248 56.7234 33.3592 56.7234 33.3592C56.8564 33.3731 56.9908 33.3539 57.1146 33.3032C57.2383 33.2526 57.3476 33.172 57.4326 33.0688C57.499 32.9944 57.5579 32.9136 57.6083 32.8275C57.6279 32.7906 57.6455 32.7526 57.6611 32.7137L57.6811 32.6719L57.9269 32.6582L57.9342 32.5626C57.9342 32.5626 57.926 32.4816 57.9415 32.4716L57.7112 32.4088ZM50.7779 38.774C48.6011 43.9469 44.5797 48.1264 39.4945 50.501C34.4094 52.8756 28.6233 53.2759 23.2596 51.6241C17.8958 49.9724 13.3373 46.3865 10.4689 41.5626C7.60049 36.7387 6.62694 31.021 7.73725 25.5197C8.84756 20.0184 11.9625 15.1259 16.4773 11.7921C20.9921 8.45832 26.5847 6.92116 32.1692 7.47903C37.7536 8.03691 42.9316 10.65 46.6977 14.811C50.4638 18.972 52.5493 24.384 52.5494 29.9963C52.553 33.0114 51.9506 35.9964 50.7779 38.774Z" fill="#FFEA94"/>
<path d="M30 0C13.4314 0 0 13.4314 0 30C0 46.5686 13.4314 59.9973 30 59.9973C46.5685 59.9973 60 46.5658 60 29.9964C60 13.4269 46.5685 0 30 0ZM49.8613 49.8586C44.9354 54.7711 38.357 57.6736 31.4078 58.0006C24.4587 58.3276 17.6368 56.0556 12.2714 51.6273C6.90593 47.1991 3.38141 40.9318 2.38457 34.0468C1.38773 27.1618 2.99 20.1523 6.87915 14.3841C10.7683 8.61595 16.6657 4.5024 23.4222 2.84503C30.1787 1.18767 37.3103 2.10522 43.4272 5.41889C49.5441 8.73256 54.2082 14.205 56.5106 20.7697C58.813 27.3345 58.5887 34.5213 55.8815 40.9298C54.4715 44.2676 52.4269 47.2999 49.8613 49.8586Z" fill="#FFEA94"/>
<path d="M30.0001 9.32025C18.5805 9.32025 9.32397 18.5777 9.32397 29.9963C9.32397 41.415 18.5805 50.6733 30.0001 50.6733C41.4196 50.6733 50.6762 41.4159 50.6762 29.9963C50.6762 18.5768 41.4187 9.32025 30.0001 9.32025ZM29.3565 10.0604C29.5704 10.0531 29.7852 10.0485 30.0001 10.0485C30.1949 10.0485 30.3888 10.0485 30.5827 10.0576L30.5945 10.4118C30.397 10.4063 30.1985 10.4027 30.0001 10.4027C29.7816 10.4027 29.564 10.4072 29.3474 10.4145L29.3565 10.0604ZM28.9987 11.4705C29.0799 11.4437 29.1525 11.3959 29.2093 11.3319C29.266 11.268 29.3049 11.1902 29.3219 11.1064C29.5476 11.0991 29.777 11.0936 30.0001 11.0936C30.2086 11.0936 30.4161 11.0936 30.6237 11.1046C30.6383 11.1853 30.673 11.261 30.7248 11.3247C30.7765 11.3884 30.8435 11.4379 30.9195 11.4687V12.2671L29.9637 13.2221L28.9987 12.2571V11.4705ZM15.8895 15.8885C19.2255 12.5435 23.6437 10.4961 28.3523 10.1132V10.4691C18.5778 11.2803 10.8397 19.2659 10.4182 29.147H10.0705C10.2759 24.152 12.3562 19.4179 15.8968 15.8885H15.8895ZM28.3523 49.875C23.5083 49.4783 18.9762 47.3248 15.6092 43.8198C12.2421 40.3148 10.2723 35.7 10.0705 30.8439H10.4246C10.8443 40.7249 18.5823 48.7106 28.3587 49.5217L28.3523 49.875ZM30.5745 49.9332C30.3824 49.9387 30.1885 49.9423 29.9955 49.9423C29.767 49.9423 29.5403 49.9369 29.3118 49.9296L29.3173 49.5755C29.5431 49.5836 29.7725 49.5882 29.9955 49.5882C30.194 49.5882 30.3915 49.5882 30.5882 49.5791L30.5745 49.9332ZM30.915 48.5677C30.8469 48.5954 30.7859 48.6381 30.7365 48.6926C30.6872 48.7472 30.6508 48.8121 30.6301 48.8827C30.4188 48.89 30.2076 48.8945 29.9928 48.8945C29.7616 48.8945 29.5322 48.889 29.3027 48.8808C29.2804 48.8063 29.2404 48.7381 29.1862 48.6822C29.1321 48.6263 29.0652 48.5842 28.9914 48.5595V47.7793L29.9564 46.8143L30.9123 47.7693L30.915 48.5677ZM31.2791 48.5677V47.6255L30.1412 46.4875V46.2144H30.1931C30.2626 46.2144 30.3293 46.1868 30.3785 46.1376C30.4276 46.0884 30.4553 46.0218 30.4553 45.9522V45.0874C30.4553 45.0178 30.4276 44.9512 30.3785 44.902C30.3293 44.8528 30.2626 44.8252 30.1931 44.8252H29.7434C29.6738 44.8252 29.6071 44.8528 29.558 44.902C29.5088 44.9512 29.4812 45.0178 29.4812 45.0874V45.9522C29.4812 46.0218 29.5088 46.0884 29.558 46.1376C29.6071 46.1868 29.6738 46.2144 29.7434 46.2144H29.777V46.4875L28.63 47.6355V48.5877C28.5242 48.6386 28.4402 48.7258 28.3933 48.8335C23.8188 48.4473 19.5415 46.4081 16.3614 43.0972C13.1813 39.7862 11.3161 35.4303 11.1147 30.8439H11.5808C11.7903 34.9979 13.4192 38.9541 16.1954 42.0513C19.0662 45.2667 22.9653 47.3842 27.2253 48.0415L27.3163 48.0552L28.3478 47.0237C28.4064 47.0436 28.4679 47.0537 28.5299 47.0538C28.6545 47.0535 28.7755 47.0118 28.8738 46.9352C28.9721 46.8585 29.042 46.7513 29.0726 46.6304C29.1031 46.5096 29.0925 46.382 29.0425 46.2679C28.9925 46.1537 28.9058 46.0595 28.7963 46.0001C28.6867 45.9406 28.5605 45.9194 28.4375 45.9397C28.3145 45.96 28.2018 46.0207 28.1172 46.1122C28.0326 46.2037 27.9808 46.3208 27.9702 46.445C27.9595 46.5692 27.9905 46.6933 28.0583 46.7979L27.1889 47.6673C23.0466 47.007 19.259 44.9375 16.4658 41.8083C13.7494 38.7779 12.1535 34.9081 11.944 30.8439H12.1142C12.2046 30.8436 12.2912 30.8076 12.355 30.7436C12.4189 30.6796 12.4547 30.5929 12.4547 30.5025V29.4956C12.4547 29.4053 12.4189 29.3186 12.355 29.2546C12.2912 29.1906 12.2046 29.1545 12.1142 29.1543H11.9467C12.151 25.2785 13.6168 21.5758 16.1207 18.6105C18.9324 15.2511 22.863 13.0204 27.1889 12.329L28.1903 13.3304C28.1072 13.4336 28.0632 13.5628 28.0662 13.6953C28.0691 13.8278 28.1188 13.9549 28.2065 14.0543C28.2941 14.1537 28.4141 14.2188 28.5452 14.2383C28.6762 14.2578 28.81 14.2303 28.9227 14.1607C29.0355 14.0911 29.12 13.9839 29.1614 13.858C29.2027 13.7322 29.1982 13.5957 29.1487 13.4728C29.0992 13.3499 29.0078 13.2485 28.8907 13.1864C28.7737 13.1244 28.6384 13.1057 28.5089 13.1337L27.3191 11.9448L27.228 11.9585C22.7814 12.6465 18.7369 14.9283 15.8485 18.3783C13.289 21.4069 11.7911 25.1899 11.5835 29.1497H11.1147C11.3151 24.5653 13.1783 20.2108 16.3559 16.9003C19.5336 13.5897 23.8082 11.5498 28.3806 11.1619C28.4011 11.2248 28.4342 11.2829 28.4779 11.3327C28.5216 11.3824 28.5748 11.4228 28.6345 11.4514V12.4046L29.7816 13.5516V13.8247H29.7479C29.6784 13.8247 29.6117 13.8523 29.5625 13.9015C29.5133 13.9507 29.4857 14.0174 29.4857 14.0869V14.9517C29.4857 15.0213 29.5133 15.088 29.5625 15.1371C29.6117 15.1863 29.6784 15.2139 29.7479 15.2139H30.1976C30.2672 15.2139 30.3339 15.1863 30.383 15.1371C30.4322 15.088 30.4598 15.0213 30.4598 14.9517V14.0869C30.4598 14.0174 30.4322 13.9507 30.383 13.9015C30.3339 13.8523 30.2672 13.8247 30.1976 13.8247H30.1457V13.5516L31.2837 12.4146V11.4651C31.3507 11.4378 31.4108 11.3961 31.4597 11.3429C31.5087 11.2897 31.5453 11.2264 31.5668 11.1574C36.1491 11.5338 40.4365 13.5692 43.6249 16.8818C46.8133 20.1943 48.6835 24.5564 48.8846 29.1497H48.4167C48.2115 25.1884 46.7155 21.4032 44.1571 18.372C41.2689 14.9217 37.2243 12.6399 32.7776 11.9521L32.6866 11.9384L31.494 13.1274C31.3643 13.0992 31.2288 13.1178 31.1114 13.18C30.9941 13.2421 30.9025 13.3437 30.8529 13.4668C30.8032 13.5899 30.7987 13.7266 30.8401 13.8527C30.8816 13.9788 30.9662 14.0862 31.0792 14.1559C31.1922 14.2257 31.3261 14.2532 31.4574 14.2337C31.5887 14.2141 31.7089 14.1488 31.7967 14.0492C31.8845 13.9496 31.9342 13.8222 31.9371 13.6895C31.94 13.5568 31.8959 13.4273 31.8126 13.324L32.814 12.3226C37.1401 13.0143 41.0708 15.2449 43.8831 18.6041C46.3851 21.5708 47.8489 25.2741 48.0516 29.1497H47.5054C47.415 29.15 47.3284 29.186 47.2646 29.25C47.2008 29.314 47.1649 29.4007 47.1649 29.4911V30.5025C47.1649 30.5929 47.2008 30.6796 47.2646 30.7436C47.3284 30.8076 47.415 30.8436 47.5054 30.8439H48.0516C47.843 34.9083 46.247 38.7783 43.5299 41.8083C40.7367 44.9377 36.9491 47.0072 32.8067 47.6673L31.9373 46.7979C32.0054 46.6932 32.0365 46.5687 32.0259 46.4442C32.0152 46.3198 31.9634 46.2024 31.8786 46.1107C31.7938 46.019 31.6808 45.9581 31.5575 45.9378C31.4343 45.9175 31.3078 45.9389 31.198 45.9986C31.0882 46.0582 31.0015 46.1528 30.9515 46.2672C30.9015 46.3817 30.8911 46.5096 30.9219 46.6307C30.9527 46.7517 31.023 46.8591 31.1217 46.9357C31.2204 47.0123 31.3418 47.0539 31.4667 47.0538C31.5286 47.0536 31.5901 47.0435 31.6487 47.0237L32.6802 48.0552L32.7712 48.0415C37.0316 47.3845 40.9311 45.2669 43.8021 42.0513C46.5783 38.9543 48.207 34.9979 48.4158 30.8439H48.8819C48.6806 35.4397 46.8085 39.804 43.6171 43.1173C40.4257 46.4305 36.1346 48.4648 31.5495 48.8381C31.4993 48.7184 31.4037 48.6234 31.2837 48.5741L31.2791 48.5677ZM44.1007 44.096C40.7518 47.4544 36.3123 49.5044 31.5841 49.8759V49.5236C41.3841 48.737 49.1541 40.7395 49.571 30.8403H49.9242C49.7188 35.8352 47.6385 40.5693 44.0979 44.0987L44.1007 44.096ZM49.927 29.1433H49.5737C49.1541 19.2505 41.3887 11.2529 31.5887 10.4691V10.1141C36.4439 10.4973 40.9906 12.6455 44.3698 16.1528C47.7489 19.6601 49.7265 24.2836 49.9288 29.1497L49.927 29.1433Z" fill="#FFEA94"/>
<path d="M51.5739 30.2185C51.1815 30.2185 50.8556 30.3669 50.8456 30.7119C50.8416 30.7883 50.857 30.8645 50.8902 30.9334C50.9235 31.0023 50.9736 31.0617 51.0358 31.1061C51.1878 31.1979 51.3597 31.2517 51.5368 31.2629C51.714 31.2742 51.8913 31.2426 52.0536 31.1707C52.1251 31.1316 52.1845 31.0735 52.2251 31.0028C52.2657 30.9322 52.2861 30.8517 52.2839 30.7702C52.2894 30.3997 51.9753 30.224 51.5739 30.2185ZM51.5602 30.9395C51.2443 30.9249 51.0886 30.8485 51.0914 30.7292C51.0941 30.61 51.248 30.5344 51.5657 30.5471C51.8834 30.5599 52.0372 30.6382 52.0345 30.762C52.0318 30.8858 51.867 30.9522 51.5602 30.9395Z" fill="#FFEA94"/>
<path d="M51.7977 31.5849L51.9033 31.8626L51.9024 31.8671L50.8082 31.7743L50.7854 32.0774L52.1655 32.214L52.1864 31.9372L52.0453 31.5476L51.7977 31.5849Z" fill="#FFEA94"/>
<path d="M51.4473 32.366C51.0568 32.3259 50.719 32.4433 50.6735 32.7857C50.6618 32.8612 50.6696 32.9384 50.696 33.0101C50.7224 33.0817 50.7667 33.1455 50.8246 33.1953C50.9665 33.3013 51.1318 33.3717 51.3065 33.4005C51.4812 33.4294 51.6603 33.4158 51.8288 33.361C51.9021 33.3278 51.9651 33.2754 52.0112 33.2094C52.0574 33.1434 52.0849 33.0662 52.0909 32.9859C52.141 32.6172 51.847 32.4088 51.4473 32.366ZM51.3608 33.0815C51.0486 33.0369 50.9002 32.9477 50.9157 32.8257C50.9311 32.7037 51.0914 32.6436 51.4063 32.6892C51.7213 32.7347 51.8615 32.8275 51.8506 32.9495C51.8397 33.0715 51.6649 33.1252 51.3608 33.0815Z" fill="#FFEA94"/>
<path d="M51.5349 33.7479L51.6114 34.0347L51.6105 34.0392L50.5299 33.838L50.4771 34.1366L51.8371 34.4107L51.8854 34.1375L51.7843 33.7352L51.5349 33.7479Z" fill="#FFEA94"/>
<path d="M51.1075 34.4898C50.7233 34.4115 50.3728 34.4898 50.2954 34.8303C50.276 34.9043 50.2759 34.9821 50.295 35.0562C50.3141 35.1303 50.3519 35.1983 50.4047 35.2537C50.5333 35.3829 50.6969 35.4718 50.8753 35.5095C51.0425 35.561 51.2208 35.5641 51.3897 35.5186C51.4662 35.4932 51.5344 35.4475 51.587 35.3865C51.6396 35.3254 51.6746 35.2511 51.6883 35.1717C51.772 34.8094 51.5007 34.5718 51.1075 34.4898ZM51.4507 35.1107C51.4206 35.2409 51.2477 35.2673 50.95 35.1936C50.6523 35.1198 50.5048 35.0115 50.5321 34.895C50.5594 34.7784 50.7251 34.7356 51.0346 34.8085C51.3442 34.8813 51.478 34.9915 51.4507 35.1107Z" fill="#FFEA94"/>
<path d="M51.0557 35.8736L51.1039 36.1668L51.1021 36.1713L50.047 35.8627L49.9651 36.1549L51.2906 36.5637L51.3661 36.2969L51.3051 35.8864L51.0557 35.8736Z" fill="#FFEA94"/>
<path d="M50.5541 36.5691C50.1791 36.4535 49.8258 36.5 49.7121 36.8268C49.686 36.8984 49.6783 36.9755 49.6897 37.0509C49.7012 37.1263 49.7314 37.1976 49.7776 37.2583C49.8954 37.3912 50.0436 37.4938 50.2095 37.5572C50.3755 37.6205 50.5543 37.6429 50.7307 37.6224C50.8096 37.6051 50.8823 37.5666 50.941 37.5111C50.9997 37.4556 51.0422 37.3852 51.0639 37.3074C51.1859 36.9542 50.9392 36.6875 50.5541 36.5691ZM50.8336 37.2219C50.7908 37.3484 50.616 37.3575 50.3265 37.2537C50.0371 37.1499 49.9023 37.0316 49.9415 36.9151C49.9806 36.7985 50.149 36.7758 50.4494 36.8787C50.7499 36.9815 50.8755 37.1063 50.8363 37.2219H50.8336Z" fill="#FFEA94"/>
<path d="M50.3663 37.9411L50.3845 38.2378L50.3827 38.2415L49.364 37.8291L49.2529 38.1122L50.5311 38.6512L50.633 38.3926L50.613 37.9793L50.3663 37.9411Z" fill="#FFEA94"/>
<path d="M49.7996 38.5828C49.4354 38.4299 49.0795 38.4408 48.9375 38.7549C48.7954 39.069 48.983 39.3439 49.368 39.5351C49.7067 39.7035 50.079 39.7172 50.2338 39.3676C50.3876 39.0289 50.1682 38.7412 49.7996 38.5828ZM50.0135 39.2602C49.958 39.3822 49.7841 39.374 49.5064 39.242C49.2288 39.11 49.1059 38.9779 49.1568 38.866C49.2078 38.754 49.3762 38.7476 49.6648 38.8805C49.9534 39.0135 50.0635 39.1455 50.0135 39.2602Z" fill="#FFEA94"/>
<path d="M49.4616 40.2261L48.4893 39.7135C48.4429 39.8045 48.3983 39.8956 48.3491 39.9866L49.5672 40.6512C49.6127 40.5702 49.6528 40.4864 49.6955 40.4054L49.7156 39.9903L49.4743 39.9284L49.4616 40.2261Z" fill="#FFEA94"/>
<path d="M48.8445 40.511C48.5003 40.3225 48.1426 40.298 47.9705 40.602C47.9312 40.6668 47.9083 40.7403 47.9039 40.816C47.8994 40.8917 47.9136 40.9673 47.945 41.0363C48.0298 41.1979 48.1598 41.3314 48.3192 41.4204C48.4635 41.5189 48.6326 41.5747 48.8071 41.5816C48.8844 41.5814 48.9602 41.5613 49.0275 41.5233C49.0994 41.4783 49.1586 41.4156 49.1995 41.3412C49.3852 41.0126 49.195 40.7049 48.8445 40.511ZM48.9901 41.2074C48.9237 41.323 48.7516 41.2985 48.4885 41.1391C48.2254 40.9798 48.1162 40.836 48.1772 40.7295C48.2382 40.623 48.4075 40.6384 48.6815 40.7941C48.9555 40.9498 49.0511 41.1018 48.9901 41.2074Z" fill="#FFEA94"/>
<path d="M48.3455 42.1132L47.427 41.5124C47.3723 41.598 47.3195 41.6845 47.2585 41.7655L48.4047 42.5475C48.4593 42.4737 48.5094 42.3954 48.5585 42.3172L48.6195 41.9066L48.3856 41.821L48.3455 42.1132Z" fill="#FFEA94"/>
<path d="M47.7018 42.3317C47.3778 42.1105 47.0246 42.0504 46.8252 42.3317C46.7794 42.3918 46.749 42.4623 46.7368 42.5369C46.7246 42.6115 46.7309 42.688 46.7551 42.7596C46.8234 42.9289 46.9395 43.0747 47.0892 43.1792C47.2225 43.2921 47.3851 43.3647 47.558 43.3886C47.639 43.3971 47.7208 43.3829 47.7942 43.3477C47.8676 43.3125 47.9299 43.2577 47.974 43.1893C48.1871 42.887 48.0314 42.562 47.7018 42.3317ZM47.7792 43.04C47.7019 43.1492 47.5334 43.1073 47.2867 42.9216C47.04 42.7359 46.9463 42.5839 47.0136 42.4837C47.081 42.3836 47.2512 42.4109 47.5079 42.5984C47.7647 42.786 47.8502 42.9407 47.7792 43.04Z" fill="#FFEA94"/>
<path d="M47.0484 43.8793L46.1964 43.1856C46.1354 43.2658 46.0689 43.3422 46.0024 43.4187L47.0639 44.3108C47.124 44.2398 47.1868 44.1725 47.246 44.0978L47.3407 43.6973L47.1158 43.5889L47.0484 43.8793Z" fill="#FFEA94"/>
<path d="M46.3838 44.0332C46.0834 43.7801 45.7384 43.6863 45.5126 43.9421C45.2868 44.1979 45.3779 44.5138 45.6947 44.8115C45.9678 45.0719 46.3164 45.1948 46.575 44.9098C46.8153 44.6331 46.6888 44.2935 46.3838 44.0332ZM46.392 44.7469C46.3064 44.8488 46.1371 44.7851 45.9113 44.5785C45.6856 44.3718 45.6109 44.2143 45.6901 44.1169C45.7693 44.0195 45.9332 44.0678 46.1699 44.2799C46.4066 44.492 46.4721 44.654 46.392 44.7469Z" fill="#FFEA94"/>
<path d="M45.5815 45.508L44.8022 44.7323C44.7321 44.8052 44.6566 44.8725 44.5837 44.9435L45.5469 45.9395L45.7481 45.7483L45.8865 45.355L45.6744 45.2257L45.5815 45.508Z" fill="#FFEA94"/>
<path d="M44.0478 45.4269C43.791 45.6518 43.8566 45.9822 44.1388 46.3072C44.3864 46.5949 44.7169 46.7478 45.0073 46.4939C45.2804 46.238 45.1839 45.8866 44.9062 45.5972C44.6286 45.3077 44.2972 45.1857 44.0478 45.4269ZM44.8434 46.31C44.7433 46.401 44.584 46.3209 44.3791 46.0915C44.1743 45.8621 44.1151 45.6955 44.2062 45.6135C44.2972 45.5316 44.4529 45.5881 44.6677 45.822C44.8826 46.056 44.9317 46.2226 44.8434 46.3072V46.31Z" fill="#FFEA94"/>
<path d="M43.9602 46.9836L43.262 46.1343L43.0234 46.3218L43.8892 47.406L44.1068 47.2349C44.1714 47.1138 44.2269 46.9836 44.2888 46.8589L44.0913 46.7096C44.043 46.8016 43.9993 46.8944 43.9602 46.9836Z" fill="#FFEA94"/>
<path d="M42.4416 46.7469C42.163 46.9436 42.1967 47.2813 42.4416 47.6327C42.6601 47.9432 42.9724 48.1271 43.2864 47.9058C43.5823 47.6819 43.5222 47.3187 43.2755 47.0046C43.0288 46.6905 42.7156 46.5376 42.4416 46.7469ZM43.1453 47.7028C43.037 47.7802 42.8859 47.6883 42.7056 47.4397C42.5254 47.1912 42.4808 47.0182 42.5809 46.9472C42.681 46.8762 42.8285 46.9472 43.0206 47.203C43.2127 47.4589 43.2445 47.6327 43.1453 47.7028Z" fill="#FFEA94"/>
<path d="M42.1997 48.2891L41.5889 47.3788L41.334 47.5426L42.0877 48.7042L42.3217 48.554C42.3973 48.4402 42.4683 48.321 42.5375 48.2008L42.3554 48.0315C42.3026 48.1198 42.2525 48.2072 42.1997 48.2891Z" fill="#FFEA94"/>
<path d="M41.1465 47.8849C41.0803 47.8524 41.0072 47.8365 40.9334 47.8385C40.8554 47.844 40.7798 47.8673 40.7122 47.9068C40.4164 48.0761 40.4164 48.4157 40.6267 48.7898C40.8087 49.1203 41.1055 49.336 41.4396 49.1421C41.5112 49.1038 41.5712 49.0471 41.6135 48.9778C41.6557 48.9085 41.6787 48.8291 41.6799 48.7479C41.6775 48.5678 41.6214 48.3925 41.5188 48.2445C41.4296 48.0931 41.3009 47.9688 41.1465 47.8849ZM41.3176 48.9291C41.202 48.9956 41.0609 48.889 40.9061 48.6241C40.7514 48.3592 40.7241 48.1826 40.8306 48.1207C40.9371 48.0588 41.08 48.1489 41.2448 48.4211C41.4096 48.6933 41.4241 48.8654 41.3176 48.9255V48.9291Z" fill="#FFEA94"/>
<path d="M40.3181 49.4134L39.8019 48.4439L39.5288 48.5822L40.1661 49.8158L40.4128 49.6892C40.4983 49.5809 40.5848 49.4753 40.664 49.3606L40.5002 49.1785C40.4392 49.2596 40.3782 49.3351 40.3181 49.4134Z" fill="#FFEA94"/>
<path d="M39.3113 48.9045C39.2465 48.8645 39.1727 48.8414 39.0967 48.8372C39.0207 48.8331 38.9448 48.8481 38.8761 48.8808C38.5657 49.021 38.532 49.3597 38.704 49.7521C38.857 50.1007 39.1265 50.342 39.4779 50.1827C39.5524 50.152 39.6174 50.1022 39.6663 50.0382C39.7153 49.9742 39.7464 49.8984 39.7564 49.8185C39.7725 49.639 39.7341 49.4588 39.6463 49.3014C39.5734 49.1407 39.4575 49.0033 39.3113 48.9045ZM39.3768 49.9587C39.2557 50.0133 39.1265 49.8941 38.9981 49.6146C38.8697 49.3351 38.8615 49.1594 38.9735 49.1066C39.0855 49.0538 39.2193 49.1612 39.3559 49.448C39.4924 49.7348 39.4888 49.9086 39.3768 49.9587Z" fill="#FFEA94"/>
<path d="M38.3335 50.3429L37.9165 49.326L37.6343 49.437L38.1414 50.7279L38.3999 50.626C38.4909 50.5258 38.592 50.4321 38.683 50.3265L38.5374 50.1289C38.4691 50.2027 38.4008 50.2728 38.3335 50.3429Z" fill="#FFEA94"/>
<path d="M37.3839 49.7393C37.3261 49.6928 37.2575 49.6615 37.1845 49.6483C37.1069 49.6341 37.0269 49.6404 36.9524 49.6665C36.6301 49.7757 36.5628 50.1098 36.6948 50.5177C36.8113 50.8818 37.0589 51.1458 37.423 51.022C37.5028 50.9972 37.5749 50.9524 37.6324 50.8918C37.6843 50.8335 37.7206 50.7631 37.738 50.687C37.7714 50.51 37.7511 50.3271 37.6798 50.1617C37.6215 49.9966 37.5192 49.8505 37.3839 49.7393ZM37.3429 50.7981C37.2164 50.8409 37.0999 50.707 37.0006 50.4185C36.9014 50.1299 36.9096 49.9487 37.0261 49.9096C37.1427 49.8704 37.2655 49.9879 37.373 50.2874C37.4804 50.5869 37.4585 50.7544 37.3429 50.7981Z" fill="#FFEA94"/>
<path d="M36.2658 51.0712L35.9526 50.0179L35.6604 50.1007L36.0318 51.4353L36.2995 51.3598C36.4042 51.2687 36.5098 51.1831 36.6118 51.0866L36.4879 50.8709L36.2658 51.0712Z" fill="#FFEA94"/>
<path d="M35.3821 50.3756C35.3268 50.323 35.259 50.2852 35.1852 50.2657C35.1114 50.2461 35.0339 50.2454 34.9597 50.2637C34.6274 50.3401 34.5273 50.6661 34.6174 51.083C34.6975 51.4544 34.9133 51.7439 35.2893 51.6575C35.6652 51.571 35.7362 51.2114 35.6316 50.8281C35.5908 50.6575 35.5046 50.5012 35.3821 50.3756ZM35.2355 51.4198C35.1054 51.4499 35.0025 51.307 34.9324 51.0074C34.8623 50.7079 34.8905 50.5313 35.0098 50.504C35.129 50.4767 35.2401 50.606 35.3166 50.9146C35.393 51.2232 35.3512 51.3925 35.2355 51.4198Z" fill="#FFEA94"/>
<path d="M34.1357 51.5901L33.9299 50.5104L33.6313 50.5641L33.8708 51.9296L34.1438 51.8814C34.2576 51.8022 34.3705 51.7266 34.4816 51.6456L34.3796 51.418L34.1357 51.5901Z" fill="#FFEA94"/>
<path d="M33.3265 50.8081C33.2767 50.7502 33.2132 50.7058 33.1418 50.6789C33.0703 50.652 32.9933 50.6436 32.9177 50.6542C32.5791 50.697 32.4471 51.0111 32.4944 51.4372C32.5372 51.815 32.7229 52.1245 33.1053 52.0744C33.4876 52.0243 33.595 51.6757 33.5286 51.2833C33.5057 51.1095 33.4358 50.9452 33.3265 50.8081ZM33.0752 51.8323C32.9432 51.8486 32.8549 51.6966 32.8158 51.3916C32.7766 51.0867 32.8212 50.9137 32.9432 50.8982C33.0652 50.8827 33.1617 51.0229 33.2072 51.3379C33.2527 51.6529 33.1972 51.8168 33.0752 51.8323Z" fill="#FFEA94"/>
<path d="M31.9653 51.8905L31.8688 50.7981L31.5657 50.8208L31.6676 52.2046L31.9407 52.1827C32.0618 52.1163 32.182 52.0525 32.3049 51.9824L32.2266 51.7467L31.9653 51.8905Z" fill="#FFEA94"/>
<path d="M31.2371 51.0329C31.1927 50.9711 31.1338 50.9211 31.0655 50.8875C30.9973 50.8538 30.9217 50.8375 30.8457 50.8399C30.5043 50.849 30.3414 51.1476 30.3468 51.5764C30.3523 51.956 30.5061 52.2828 30.893 52.2737C30.9765 52.273 31.0585 52.2514 31.1315 52.2109C31.198 52.1701 31.2533 52.1135 31.2926 52.0462C31.3771 51.8871 31.4119 51.7063 31.3928 51.5273C31.3869 51.3514 31.3331 51.1804 31.2371 51.0329ZM30.8903 52.028C30.7574 52.028 30.6845 51.8714 30.6754 51.5637C30.6663 51.256 30.7282 51.0885 30.8511 51.0857C30.974 51.083 31.0569 51.2323 31.0705 51.55C31.0842 51.8677 31.0086 52.0252 30.8903 52.028Z" fill="#FFEA94"/>
<path d="M29.7753 51.9815L29.7862 50.8827L29.4822 50.8745L29.4448 52.2546L29.7179 52.2619C29.8445 52.2064 29.9701 52.1581 30.0957 52.0953L30.0402 51.8531C29.9555 51.9014 29.8663 51.9378 29.7753 51.9815Z" fill="#FFEA94"/>
<path d="M28.7645 50.8226C28.424 50.7962 28.2329 51.0775 28.1964 51.5045C28.1637 51.8832 28.2875 52.2237 28.6698 52.2528C28.7503 52.262 28.8319 52.2493 28.9057 52.2159C28.9796 52.1826 29.0431 52.1299 29.0895 52.0635C29.1892 51.9136 29.2418 51.7373 29.2406 51.5573C29.2524 51.3818 29.2159 51.2064 29.135 51.0502C29.0971 50.9844 29.0434 50.9291 28.9787 50.8893C28.914 50.8496 28.8403 50.8266 28.7645 50.8226ZM28.9138 51.5509C28.9001 51.8741 28.81 52.0198 28.688 52.0061C28.566 51.9925 28.4987 51.8295 28.5205 51.5227C28.5424 51.2159 28.6188 51.0557 28.7417 51.0675C28.8646 51.0794 28.9311 51.2332 28.9138 51.5491V51.5509Z" fill="#FFEA94"/>
<path d="M27.5873 51.8495L27.7066 50.7571L27.4053 50.7189L27.2341 52.0953L27.5072 52.1299C27.6383 52.0899 27.7694 52.0489 27.8996 51.9998L27.8687 51.753C27.774 51.7904 27.6811 51.8195 27.5873 51.8495Z" fill="#FFEA94"/>
<path d="M26.6963 50.5987C26.3604 50.5386 26.1419 50.799 26.0636 51.2205C25.9935 51.5937 26.0809 51.9487 26.4596 52.0134C26.5391 52.0298 26.6215 52.0248 26.6983 51.9987C26.7751 51.9726 26.8436 51.9264 26.8966 51.865C27.011 51.7263 27.0809 51.5562 27.0969 51.377C27.1267 51.2032 27.1078 51.0246 27.0422 50.8609C27.0115 50.7915 26.9636 50.731 26.9031 50.6852C26.8426 50.6393 26.7714 50.6096 26.6963 50.5987ZM26.7737 51.3352C26.7282 51.6556 26.6235 51.7949 26.5006 51.7712C26.3777 51.7476 26.3294 51.5764 26.3804 51.2733C26.4314 50.9701 26.5252 50.8181 26.6462 50.8399C26.7673 50.8618 26.8219 51.022 26.7737 51.3352Z" fill="#FFEA94"/>
<path d="M25.4281 51.5036H25.4236L25.6512 50.4284L25.3553 50.3602L25.0439 51.7084L25.3171 51.7703L25.5182 51.7293L25.7203 51.6802L25.714 51.4317C25.6147 51.4626 25.5192 51.4836 25.4281 51.5036Z" fill="#FFEA94"/>
<path d="M24.661 50.1699C24.3333 50.0789 24.0902 50.3137 23.9691 50.7252C23.8626 51.0894 23.9136 51.4481 24.285 51.5537C24.3624 51.578 24.4449 51.5812 24.524 51.563C24.6031 51.5447 24.6758 51.5057 24.7347 51.4499C24.8626 51.3217 24.9489 51.158 24.9824 50.9801C25.03 50.8107 25.03 50.6315 24.9824 50.4621C24.958 50.3902 24.9157 50.3256 24.8595 50.2744C24.8033 50.2233 24.735 50.1873 24.661 50.1699ZM24.661 50.9109C24.5836 51.2241 24.4653 51.3525 24.3478 51.317C24.2304 51.2815 24.1976 51.1058 24.2796 50.8099C24.3615 50.514 24.4689 50.3711 24.5873 50.4048C24.7056 50.4384 24.7438 50.6032 24.6646 50.9109H24.661Z" fill="#FFEA94"/>
<path d="M23.3473 49.7967L22.9058 51.1121L23.1689 51.2032C23.3054 51.1904 23.442 51.1759 23.5794 51.154L23.5976 50.9064C23.4993 50.9237 23.4019 50.9337 23.3045 50.9455H23.2999L23.635 49.8986L23.3473 49.7967Z" fill="#FFEA94"/>
<path d="M22.9699 49.8649C22.9532 49.7909 22.9182 49.7222 22.8681 49.6651C22.818 49.608 22.7544 49.5643 22.6832 49.5381C22.3664 49.4134 22.1005 49.6292 21.9385 50.0224C21.7956 50.3738 21.811 50.7362 22.1697 50.8773C22.2438 50.909 22.325 50.9205 22.4049 50.9106C22.4849 50.9007 22.5608 50.8697 22.6249 50.8208C22.7647 50.707 22.8671 50.5538 22.9189 50.3811C22.9828 50.217 23.0004 50.0384 22.9699 49.8649ZM22.6058 50.2764C22.4974 50.5814 22.3682 50.6943 22.2544 50.6488C22.1406 50.6033 22.126 50.4239 22.2371 50.1371C22.3481 49.8504 22.4692 49.7202 22.5839 49.7648C22.6986 49.8094 22.7177 49.9787 22.6058 50.2764Z" fill="#FFEA94"/>
<path d="M21.4098 49.0356L20.8381 50.3001L21.0912 50.4139C21.2296 50.4139 21.3643 50.4139 21.5045 50.4075L21.5482 50.1626C21.4481 50.1708 21.3516 50.1681 21.2523 50.1708L21.6866 49.1594L21.4098 49.0356Z" fill="#FFEA94"/>
<path d="M21.0238 49.0684C21.0156 48.9954 20.9893 48.9256 20.9474 48.8654C20.9029 48.8003 20.8424 48.7479 20.7717 48.7133C20.4685 48.5577 20.1827 48.7416 19.9824 49.1212C19.8049 49.4571 19.7839 49.8176 20.1271 49.9933C20.1973 50.0337 20.2773 50.0543 20.3583 50.0527C20.4393 50.0511 20.5183 50.0274 20.5869 49.9842C20.7375 49.8853 20.8546 49.7431 20.9228 49.5763C21.0025 49.4195 21.0375 49.2438 21.0238 49.0684ZM20.626 49.4416C20.4886 49.7329 20.3484 49.8312 20.2391 49.7757C20.1299 49.7202 20.1335 49.539 20.2728 49.265C20.4121 48.991 20.5459 48.8726 20.6561 48.9291C20.7662 48.9855 20.7662 49.1539 20.626 49.4398V49.4416Z" fill="#FFEA94"/>
<path d="M19.5572 48.0852L18.8625 49.286L19.1038 49.4234C19.2413 49.4362 19.3769 49.4526 19.5144 49.4598L19.5817 49.2213L19.2877 49.1977L19.8248 48.2381L19.5572 48.0852Z" fill="#FFEA94"/>
<path d="M18.9562 47.6974C18.6686 47.5153 18.3654 47.6682 18.1287 48.026C17.9185 48.3419 17.862 48.6988 18.1861 48.9072C18.5102 49.1157 18.8179 48.9163 19.0191 48.5731C19.2203 48.2299 19.2439 47.8849 18.9562 47.6974ZM18.7387 48.4065C18.5721 48.6796 18.4228 48.7707 18.3199 48.7015C18.217 48.6323 18.238 48.4566 18.4037 48.1972C18.5694 47.9377 18.715 47.833 18.8188 47.9004C18.9226 47.9677 18.9062 48.1371 18.7387 48.4065Z" fill="#FFEA94"/>
<path d="M17.428 48.0306L18.0571 47.1293L17.8095 46.9536L16.9993 48.0788L17.225 48.24L17.6301 48.3182L17.7221 48.0852L17.4317 48.0333L17.428 48.0306Z" fill="#FFEA94"/>
<path d="M17.2248 47.3869C17.3339 47.249 17.4029 47.0836 17.4242 46.909C17.4319 46.8327 17.4199 46.7557 17.3893 46.6854C17.3587 46.6151 17.3105 46.5538 17.2494 46.5075C16.9817 46.2963 16.664 46.422 16.3927 46.7542C16.1524 47.0474 16.0605 47.3969 16.3636 47.6345C16.4244 47.6874 16.4982 47.7232 16.5774 47.7382C16.6565 47.7533 16.7383 47.747 16.8142 47.7201C16.981 47.6521 17.1239 47.5362 17.2248 47.3869ZM16.5175 47.4434C16.4128 47.3614 16.4601 47.1921 16.6504 46.9509C16.8406 46.7096 16.9963 46.6204 17.0928 46.696C17.1893 46.7715 17.1574 46.939 16.9635 47.1912C16.7696 47.4434 16.6139 47.5208 16.5175 47.4434Z" fill="#FFEA94"/>
<path d="M15.6966 46.6878L16.4121 45.8539L16.1818 45.6545L15.2642 46.6942L15.4735 46.8762L15.8695 46.9928L15.9843 46.7706L15.6993 46.6905L15.6966 46.6878Z" fill="#FFEA94"/>
<path d="M15.5562 46.0287C15.6785 45.9023 15.7638 45.7449 15.803 45.5735C15.819 45.4985 15.8152 45.4205 15.7919 45.3474C15.7686 45.2742 15.7266 45.2085 15.67 45.1566C15.4233 44.9208 15.0938 45.0146 14.7915 45.3177C14.5184 45.5908 14.3974 45.9249 14.6768 46.1907C14.7325 46.2484 14.8023 46.2906 14.8792 46.3133C14.9561 46.336 15.0376 46.3383 15.1156 46.32C15.2888 46.2701 15.4425 46.1685 15.5562 46.0287ZM14.848 46.0132C14.7515 45.9222 14.8152 45.7583 15.0301 45.5371C15.2449 45.3159 15.4069 45.2421 15.4962 45.3268C15.5854 45.4115 15.5362 45.5744 15.3186 45.8066C15.1011 46.0387 14.9372 46.0979 14.848 46.0132Z" fill="#FFEA94"/>
<path d="M14.1061 45.1802L14.8999 44.421L14.6905 44.2016L13.6746 45.1447L13.8657 45.3459L14.2481 45.4997L14.3846 45.2904L14.1088 45.1829L14.1061 45.1802Z" fill="#FFEA94"/>
<path d="M14.2306 43.6518C14.0066 43.3942 13.6698 43.4552 13.3384 43.7273C13.0444 43.9677 12.8832 44.2918 13.139 44.5831C13.3948 44.8744 13.7335 44.7833 14.0294 44.5121C14.3252 44.2408 14.4572 43.9121 14.2306 43.6518ZM13.8154 44.2654C13.576 44.4802 13.4076 44.5175 13.3275 44.4256C13.2474 44.3336 13.3193 44.1679 13.5542 43.9704C13.789 43.7729 13.9584 43.7146 14.0394 43.8075C14.1204 43.9003 14.0549 44.056 13.8154 44.2654Z" fill="#FFEA94"/>
<path d="M12.6721 43.5225L13.5378 42.8461L13.3503 42.6075L12.2451 43.4451L12.4163 43.6636L12.7831 43.8547L12.9397 43.659L12.6748 43.5261L12.6721 43.5225Z" fill="#FFEA94"/>
<path d="M12.9482 42.014C12.9059 41.9505 12.848 41.8988 12.7802 41.8639C12.7123 41.8291 12.6366 41.8121 12.5603 41.8146C12.3781 41.8263 12.2029 41.8894 12.0551 41.9967C11.9063 42.0878 11.7864 42.2191 11.7091 42.3754C11.6782 42.45 11.6676 42.5314 11.6785 42.6114C11.6893 42.6914 11.7213 42.767 11.7711 42.8306C11.9868 43.1338 12.3437 43.0873 12.665 42.847C12.9864 42.6067 13.1484 42.2953 12.9482 42.014ZM12.4757 42.583C12.2162 42.7733 12.0451 42.7942 11.9741 42.695C11.9031 42.5957 11.9905 42.4382 12.2472 42.2644C12.5039 42.0905 12.676 42.0486 12.747 42.1487C12.818 42.2489 12.7351 42.3991 12.4757 42.583Z" fill="#FFEA94"/>
<path d="M11.4096 41.7309L12.3381 41.1437L12.1742 40.8879L10.9917 41.6125L11.141 41.8465L11.4888 42.0723L11.6626 41.8929L11.4123 41.7345L11.4096 41.7309Z" fill="#FFEA94"/>
<path d="M11.4706 41.0572C11.8065 40.8524 12.0068 40.5538 11.8347 40.2552C11.7986 40.1885 11.7463 40.132 11.6827 40.0906C11.6191 40.0493 11.5462 40.0245 11.4706 40.0185C11.2884 40.0114 11.108 40.0576 10.9517 40.1514C10.794 40.2269 10.6611 40.3456 10.5684 40.4937C10.5299 40.564 10.511 40.6433 10.5137 40.7234C10.5164 40.8035 10.5407 40.8814 10.5839 40.9489C10.7714 41.2775 11.1274 41.2666 11.4706 41.0572ZM10.7969 40.8351C10.7305 40.7195 10.8388 40.582 11.1073 40.4336C11.3759 40.2852 11.5552 40.2625 11.6171 40.369C11.6791 40.4755 11.5844 40.6166 11.3085 40.7741C11.0327 40.9316 10.8625 40.9443 10.7969 40.8378V40.8351Z" fill="#FFEA94"/>
<path d="M10.3334 39.8264L10.3316 39.8228L11.3139 39.3312L11.1755 39.0608L9.92651 39.6635L10.0531 39.9111L10.3771 40.1696L10.5683 40.0085L10.3334 39.8264Z" fill="#FFEA94"/>
<path d="M10.461 39.16C10.8151 38.9898 11.0436 38.714 10.9016 38.3999C10.7596 38.0858 10.43 38.0439 10.0313 38.2069C9.68171 38.3498 9.42226 38.6184 9.5843 38.9679C9.74635 39.3175 10.0987 39.3321 10.461 39.16ZM9.81099 38.8724C9.75636 38.7513 9.87744 38.6256 10.1597 38.5082C10.4419 38.3908 10.623 38.3826 10.6731 38.4946C10.7232 38.6065 10.6167 38.7367 10.3262 38.866C10.0358 38.9953 9.86106 38.9843 9.81099 38.8724Z" fill="#FFEA94"/>
<path d="M9.45045 37.8209V37.8163L10.4782 37.4258C10.4418 37.3348 10.4018 37.2383 10.3681 37.1427L9.06445 37.617C9.09541 37.708 9.13182 37.7899 9.16459 37.8764L9.46228 38.165L9.66802 38.0248L9.45045 37.8209Z" fill="#FFEA94"/>
<path d="M9.64515 37.1691C10.0148 37.0362 10.2697 36.784 10.1595 36.4572C10.0493 36.1304 9.72799 36.0557 9.31378 36.1777C9.14446 36.2206 8.99075 36.3105 8.87043 36.4372C8.81608 36.4981 8.77992 36.5731 8.76608 36.6535C8.75223 36.734 8.76127 36.8167 8.79214 36.8923C8.9114 37.2428 9.26735 37.3038 9.64515 37.1691ZM9.02702 36.8186C8.98423 36.6921 9.11805 36.5801 9.41028 36.4872C9.7025 36.3944 9.88366 36.4089 9.92281 36.5255C9.96195 36.642 9.8427 36.7603 9.54137 36.8605C9.24004 36.9606 9.06616 36.9351 9.02702 36.8186Z" fill="#FFEA94"/>
<path d="M8.77419 35.7352L9.83567 35.4494C9.80927 35.3511 9.77649 35.2555 9.75556 35.1562L8.41187 35.4976C8.43007 35.5887 8.46012 35.6797 8.48378 35.7653L8.75143 36.083L8.97083 35.9646L8.77419 35.7352Z" fill="#FFEA94"/>
<path d="M9.03433 35.1071C9.41486 35.0161 9.69343 34.7857 9.61605 34.4498C9.60103 34.376 9.56833 34.307 9.52076 34.2487C9.47319 34.1903 9.41217 34.1444 9.34294 34.1148C9.17067 34.0537 8.98432 34.0443 8.80674 34.0875C8.63404 34.1129 8.4721 34.1868 8.33972 34.3005C8.28299 34.3533 8.24069 34.4198 8.21683 34.4935C8.1953 34.5756 8.1953 34.6618 8.21683 34.7439C8.29603 35.1062 8.64469 35.2027 9.03433 35.1071ZM8.45261 34.6965C8.42257 34.5663 8.5664 34.4671 8.86773 34.4052C9.16906 34.3433 9.34658 34.3743 9.37389 34.4962C9.4012 34.6182 9.27102 34.722 8.96059 34.7912C8.65016 34.8604 8.48083 34.8158 8.45261 34.6965Z" fill="#FFEA94"/>
<path d="M8.48081 33.8363L8.31331 33.5923L9.39755 33.4102C9.38207 33.3101 9.3584 33.2109 9.34748 33.1107L7.97192 33.3192C7.98103 33.4102 8.00197 33.5013 8.01653 33.5923L8.2514 33.9346L8.48081 33.8363Z" fill="#FFEA94"/>
<path d="M8.63204 32.9941C9.01985 32.9368 9.32027 32.7402 9.27657 32.3979C9.23287 32.0556 8.93427 31.919 8.50367 31.9563C8.3293 31.9649 8.16083 32.0223 8.01754 32.122C7.95257 32.1709 7.90254 32.2369 7.87311 32.3127C7.84367 32.3884 7.836 32.4709 7.85095 32.5508C7.89738 32.9195 8.23421 33.0506 8.63204 32.9941ZM8.53645 32.2786C8.85052 32.2467 9.01621 32.2959 9.03168 32.4179C9.04716 32.5399 8.90605 32.6327 8.59016 32.6701C8.27427 32.7074 8.1104 32.6482 8.09492 32.5271C8.07945 32.4061 8.23057 32.3105 8.53645 32.2786Z" fill="#FFEA94"/>
<path d="M8.20884 31.675L8.06318 31.4156V31.4074L9.16017 31.3382C9.15288 31.2372 9.14287 31.1361 9.13832 31.0351L7.75366 31.1033C7.75366 31.1944 7.76641 31.2854 7.77278 31.3764L7.97124 31.7406L8.20884 31.675Z" fill="#FFEA94"/>
<path d="M8.4416 30.8512C8.83306 30.8329 9.15169 30.6691 9.14258 30.3222C9.13348 29.9754 8.84489 29.8106 8.41429 29.8061C8.03558 29.8015 7.69328 29.9481 7.70694 30.3332C7.71786 30.7046 8.04013 30.8685 8.4416 30.8512ZM8.41884 30.1302C8.73474 30.1302 8.89406 30.1948 8.8977 30.3177C8.90134 30.4406 8.75113 30.5189 8.43341 30.5252C8.11569 30.5316 7.95729 30.4561 7.95456 30.3341C7.95183 30.2121 8.11114 30.1329 8.41884 30.1329V30.1302Z" fill="#FFEA94"/>
<path d="M8.15138 29.4965L8.03212 29.2243V29.2198L9.13093 29.258L9.13821 28.9549L7.75264 28.8866L7.74536 29.1633L7.90649 29.5457L8.15138 29.4965Z" fill="#FFEA94"/>
<path d="M8.4619 28.7C8.85427 28.72 9.19019 28.5862 9.21386 28.2448C9.2214 28.1688 9.20968 28.092 9.17977 28.0217C9.14986 27.9514 9.10272 27.8897 9.04271 27.8424C8.89629 27.7339 8.72128 27.6706 8.53928 27.6604C8.3664 27.6339 8.18956 27.6573 8.02948 27.7277C7.95761 27.7643 7.89698 27.8197 7.85403 27.888C7.81107 27.9563 7.7874 28.0349 7.78551 28.1155C7.75729 28.4833 8.06135 28.6763 8.4619 28.7ZM8.51288 27.9808C8.82696 28.0099 8.97899 28.091 8.96806 28.2139C8.95714 28.3368 8.80238 28.3959 8.48466 28.375C8.16695 28.354 8.01856 28.2594 8.02948 28.1374C8.04041 28.0154 8.207 27.948 8.51288 27.9808Z" fill="#FFEA94"/>
<path d="M8.30711 27.3235L8.21607 27.0404L8.21698 27.0367L9.30577 27.1833L9.34401 26.882L7.97209 26.6772L7.9375 26.9521L8.05858 27.3481L8.30711 27.3235Z" fill="#FFEA94"/>
<path d="M8.6948 26.5615C9.08352 26.6198 9.42855 26.5206 9.48954 26.181C9.5047 26.106 9.50072 26.0284 9.47797 25.9554C9.45522 25.8824 9.41442 25.8163 9.35936 25.7632C9.22406 25.6408 9.05611 25.5605 8.87596 25.5319C8.70648 25.4885 8.52818 25.4939 8.36161 25.5474C8.28645 25.5773 8.22074 25.6269 8.17139 25.691C8.12205 25.755 8.0909 25.8312 8.08122 25.9115C8.01568 26.2757 8.2988 26.4996 8.6948 26.5615ZM8.32156 25.9589C8.34523 25.8269 8.51637 25.7914 8.8177 25.8505C9.11903 25.9097 9.27288 26.0071 9.24921 26.1282C9.22554 26.2493 9.06714 26.2966 8.75216 26.2402C8.43717 26.1837 8.29971 26.0791 8.32156 25.9589Z" fill="#FFEA94"/>
<path d="M8.67854 25.176L8.61663 24.8856L8.61755 24.8819L9.68631 25.1359L9.75458 24.84L8.40998 24.4996L8.34717 24.77L8.4291 25.176H8.67854Z" fill="#FFEA94"/>
<path d="M9.14072 24.4568C9.52126 24.5542 9.87448 24.4896 9.96916 24.1582C9.9913 24.0849 9.99456 24.0071 9.97865 23.9321C9.96273 23.8572 9.92816 23.7875 9.87812 23.7294C9.75644 23.5946 9.59836 23.4979 9.42294 23.4509C9.25867 23.3903 9.08053 23.378 8.90949 23.4154C8.83164 23.4368 8.76106 23.4789 8.70526 23.5372C8.64947 23.5956 8.61056 23.668 8.59269 23.7467C8.49528 24.1045 8.75291 24.3558 9.14072 24.4568ZM8.82938 23.8196C8.8658 23.6912 9.03967 23.673 9.33372 23.7622C9.62777 23.8514 9.76888 23.9634 9.73519 24.0808C9.70151 24.1983 9.53582 24.2301 9.22994 24.1427C8.92406 24.0554 8.7957 23.937 8.82938 23.8196Z" fill="#FFEA94"/>
<path d="M9.26295 23.0767L9.23018 22.7817L9.232 22.7772L10.2698 23.1386L10.3663 22.8509L9.06358 22.3757L8.97437 22.6388L9.01533 23.0512L9.26295 23.0767Z" fill="#FFEA94"/>
<path d="M9.79635 22.4076C10.1605 22.5423 10.5246 22.5141 10.6494 22.1927C10.6792 22.1225 10.6909 22.046 10.6834 21.9701C10.6759 21.8943 10.6495 21.8215 10.6066 21.7585C10.4987 21.6115 10.3503 21.4992 10.1796 21.4353C9.83186 21.2833 9.46134 21.286 9.32296 21.6456C9.18459 22.0052 9.42037 22.2674 9.79635 22.4076ZM9.54964 21.7421C9.59789 21.6183 9.77268 21.6174 10.0567 21.7348C10.3407 21.8522 10.47 21.9788 10.4209 22.0935C10.3717 22.2082 10.2069 22.2219 9.91197 22.1044C9.61701 21.987 9.50413 21.8559 9.54964 21.7421Z" fill="#FFEA94"/>
<path d="M10.0523 20.7498L10.0541 20.7453L11.05 21.2086L11.1757 20.9319L9.92665 20.3292L9.81195 20.5823L9.81104 20.9965L10.0559 21.0466L10.0523 20.7498Z" fill="#FFEA94"/>
<path d="M10.6529 20.4348C11.007 20.606 11.3657 20.6169 11.5223 20.3056C11.6789 19.9942 11.5087 19.7165 11.1327 19.5053C10.804 19.3233 10.4299 19.2841 10.2578 19.6291C10.0885 19.9605 10.2933 20.2582 10.6529 20.4348ZM10.4708 19.7475C10.5318 19.6282 10.7048 19.6455 10.9752 19.7912C11.2456 19.9369 11.3621 20.0752 11.3066 20.1845C11.251 20.2937 11.0817 20.291 10.7995 20.1444C10.5173 19.9978 10.4171 19.8558 10.4736 19.7475H10.4708Z" fill="#FFEA94"/>
<path d="M11.0717 18.8098L12.0167 19.3697C12.0686 19.2787 12.115 19.1876 12.1714 19.1084L10.988 18.3847C10.937 18.4612 10.8969 18.5431 10.8469 18.6232L10.8059 19.0356L11.0444 19.1103L11.0717 18.8098Z" fill="#FFEA94"/>
<path d="M11.7036 18.5577C12.0386 18.7634 12.3945 18.8053 12.5803 18.5149C12.6236 18.4498 12.6502 18.3751 12.6576 18.2973C12.6658 18.2246 12.6554 18.151 12.6276 18.0834C12.5515 17.9175 12.4284 17.7775 12.2735 17.681C12.1341 17.576 11.9677 17.5128 11.7937 17.4989C11.7124 17.494 11.6314 17.512 11.5599 17.551C11.4884 17.5899 11.4294 17.6482 11.3895 17.7192C11.1883 18.0251 11.3631 18.3455 11.7036 18.5577ZM11.5907 17.8549C11.6626 17.742 11.8338 17.7757 12.0887 17.9459C12.3436 18.1161 12.4455 18.2673 12.3791 18.371C12.3126 18.4748 12.1451 18.4548 11.8793 18.28C11.6135 18.1052 11.5261 17.9577 11.5907 17.8549Z" fill="#FFEA94"/>
<path d="M12.2808 16.9818L13.1657 17.6327L13.2567 17.5089L13.3477 17.3897L12.2426 16.5512C12.1852 16.6232 12.1288 16.6969 12.076 16.7734L11.9958 17.1812L12.2253 17.2777L12.2808 16.9818Z" fill="#FFEA94"/>
<path d="M12.9363 16.7943C13.2486 17.0319 13.5973 17.1093 13.8103 16.838C13.8591 16.7802 13.893 16.7112 13.9089 16.6372C13.9248 16.5633 13.9222 16.4865 13.9013 16.4137C13.8407 16.2412 13.7317 16.0898 13.5872 15.9777C13.4603 15.8593 13.3025 15.7792 13.1321 15.7464C13.0516 15.7342 12.9693 15.7442 12.8942 15.7755C12.8191 15.8068 12.754 15.8582 12.706 15.924C12.4757 16.2162 12.6177 16.5494 12.9363 16.7943ZM12.8926 16.0824C12.9746 15.9768 13.1439 16.0296 13.3806 16.2262C13.6173 16.4228 13.7001 16.5785 13.6255 16.6759C13.5508 16.7733 13.3851 16.7369 13.1375 16.5375C12.8899 16.3382 12.8171 16.1789 12.8926 16.0824Z" fill="#FFEA94"/>
<path d="M13.6644 15.2822L14.4838 16.0178C14.5475 15.9395 14.6212 15.8694 14.6904 15.7956L13.6735 14.8479C13.6107 14.9162 13.5443 14.9808 13.4842 15.0509L13.364 15.4488L13.5825 15.5689L13.6644 15.2822Z" fill="#FFEA94"/>
<path d="M14.3365 15.1611C14.6242 15.4288 14.9638 15.5398 15.2014 15.2904C15.439 15.041 15.3643 14.726 15.0676 14.4137C14.8063 14.1406 14.4667 14.0013 14.1918 14.2717C13.9351 14.5403 14.0489 14.8862 14.3365 15.1611ZM14.363 14.4474C14.454 14.3518 14.6206 14.4228 14.8354 14.6413C15.0503 14.8598 15.1176 15.0227 15.033 15.111C14.9483 15.1994 14.7881 15.1484 14.5614 14.929C14.3347 14.7096 14.2783 14.5357 14.363 14.4474Z" fill="#FFEA94"/>
<path d="M15.2093 13.7273L15.9485 14.5403L16.1779 14.3409L15.2594 13.3013L15.05 13.4833C14.9945 13.6099 14.9435 13.7401 14.8916 13.8675L15.0964 14.0077L15.2093 13.7273Z" fill="#FFEA94"/>
<path d="M16.7379 13.8875C17.0065 13.6772 16.9564 13.3413 16.6924 13.0035C16.4594 12.704 16.138 12.5365 15.8349 12.7741C15.5518 13.0163 15.6282 13.3731 15.8913 13.6754C16.1544 13.9776 16.4767 14.1105 16.7379 13.8875ZM15.9878 12.9662C16.0925 12.8843 16.2473 12.9662 16.443 13.2075C16.6387 13.4487 16.6879 13.6171 16.5914 13.6936C16.4949 13.7701 16.3447 13.7063 16.1408 13.4615C15.9368 13.2166 15.894 13.0454 15.9878 12.9662Z" fill="#FFEA94"/>
<path d="M16.9036 12.3353L17.5581 13.2184L17.8057 13.0418L16.9955 11.9166L16.7688 12.0777C16.6987 12.1942 16.6359 12.3199 16.5713 12.4418L16.7616 12.6012C16.8107 12.5119 16.8535 12.42 16.9036 12.3353Z" fill="#FFEA94"/>
<path d="M18.4084 12.6476C18.6952 12.4655 18.6815 12.1241 18.4503 11.7618C18.2473 11.4405 17.9441 11.242 17.62 11.4496C17.3114 11.6571 17.3551 12.0249 17.5855 12.3499C17.8158 12.6749 18.1226 12.8406 18.4084 12.6476ZM17.753 11.6526C17.8649 11.5806 18.0106 11.6799 18.179 11.9366C18.3474 12.1933 18.3829 12.369 18.2792 12.4355C18.1754 12.5019 18.0306 12.4218 17.8522 12.1569C17.6738 11.892 17.6483 11.7208 17.753 11.6526Z" fill="#FFEA94"/>
<path d="M18.7268 11.1191L19.2903 12.0622L19.5534 11.9111L18.8588 10.7104L18.6185 10.8487L18.5029 11.0153L18.3882 11.1892L18.5621 11.3713C18.614 11.2802 18.6695 11.1974 18.7268 11.1191Z" fill="#FFEA94"/>
<path d="M19.7572 11.578C19.824 11.6143 19.8988 11.6333 19.9748 11.6333C20.0508 11.6333 20.1256 11.6143 20.1924 11.578C20.4964 11.4232 20.5128 11.0836 20.3216 10.6995C20.1523 10.3599 19.8665 10.1323 19.5278 10.308C19.4545 10.3425 19.3917 10.396 19.3459 10.4629C19.3001 10.5298 19.273 10.6077 19.2675 10.6885C19.2608 10.8685 19.3081 11.0463 19.4031 11.1992C19.4844 11.3554 19.6069 11.4864 19.7572 11.578ZM19.6389 10.5274C19.7581 10.4664 19.8929 10.5793 20.0349 10.8524C20.1769 11.1255 20.1942 11.3076 20.085 11.3586C19.9757 11.4095 19.8364 11.3158 19.6862 11.0372C19.536 10.7586 19.5296 10.5829 19.6389 10.5274Z" fill="#FFEA94"/>
<path d="M20.6615 10.0895H20.666L21.133 11.0846L21.4062 10.9589L20.8344 9.69534L20.5823 9.81005C20.4912 9.91474 20.4002 10.0131 20.3137 10.1241L20.4685 10.318C20.5331 10.237 20.6032 10.166 20.6615 10.0895Z" fill="#FFEA94"/>
<path d="M21.6411 10.6512C21.7016 10.6932 21.7717 10.7195 21.845 10.7276C21.9231 10.7374 22.0023 10.727 22.0753 10.6976C22.3921 10.5729 22.4394 10.2361 22.2901 9.83458C22.1554 9.47954 21.8987 9.22555 21.54 9.36666C21.4617 9.39612 21.3919 9.44461 21.337 9.50776C21.2901 9.56946 21.2588 9.64162 21.246 9.71806C21.2206 9.8964 21.2498 10.0783 21.3297 10.2397C21.3937 10.4029 21.5014 10.5452 21.6411 10.6512ZM21.6292 9.59607C21.753 9.54691 21.8768 9.67254 21.9934 9.96021C22.1099 10.2479 22.1063 10.4254 21.9934 10.47C21.8805 10.5146 21.7503 10.4026 21.6292 10.1059C21.5081 9.80909 21.5136 9.63703 21.6292 9.59243V9.59607Z" fill="#FFEA94"/>
<path d="M22.6905 9.25836L23.0547 10.2944L23.3423 10.1979L22.9008 8.88239L22.6377 8.97342C22.5376 9.06446 22.4365 9.15549 22.3391 9.25836L22.4784 9.46775L22.6905 9.25836Z" fill="#FFEA94"/>
<path d="M23.6074 9.91107C23.6639 9.95821 23.7306 9.99156 23.8023 10.0085C23.8789 10.0264 23.959 10.0239 24.0344 10.0012C24.363 9.91016 24.4468 9.57879 24.3357 9.16367C24.2374 8.79952 24.0071 8.51913 23.6357 8.62383C23.5571 8.64275 23.485 8.68224 23.4268 8.73823C23.3686 8.79423 23.3263 8.86471 23.3043 8.94245C23.2624 9.11668 23.2728 9.29941 23.3343 9.46773C23.3828 9.63786 23.4773 9.79129 23.6074 9.91107ZM23.6985 8.86052C23.8268 8.8241 23.9361 8.96157 24.0208 9.25652C24.1054 9.55148 24.0872 9.73082 23.9689 9.76359C23.8505 9.79636 23.734 9.67256 23.642 9.3685C23.5501 9.06444 23.5847 8.8942 23.703 8.86052H23.6985Z" fill="#FFEA94"/>
<path d="M24.791 8.63567H24.7956L25.055 9.70444L25.35 9.63616L25.0441 8.28427L24.771 8.34618C24.6608 8.43084 24.5516 8.51277 24.4451 8.59835L24.558 8.82048L24.791 8.63567Z" fill="#FFEA94"/>
<path d="M26.0563 9.50872C26.3913 9.44954 26.5114 9.1291 26.4386 8.70578C26.3776 8.33071 26.1764 8.0312 25.8014 8.09857C25.4263 8.16593 25.3316 8.52097 25.4172 8.9097C25.5028 9.29842 25.7158 9.56516 26.0563 9.50872ZM25.8387 8.34072C25.9707 8.31705 26.0654 8.46453 26.12 8.76677C26.1746 9.06901 26.1391 9.24471 26.018 9.26656C25.8969 9.28841 25.7932 9.15276 25.7322 8.84051C25.6712 8.52826 25.7185 8.36166 25.8387 8.34072Z" fill="#FFEA94"/>
<path d="M26.9449 8.2251L27.096 9.31298L27.3974 9.27475L27.2262 7.89828L26.9531 7.93379C26.8357 8.00662 26.7191 8.07672 26.6035 8.15137L26.6946 8.38351L26.9449 8.2251Z" fill="#FFEA94"/>
<path d="M27.7151 9.04716C27.7611 9.10433 27.8197 9.15013 27.8863 9.18098C27.9579 9.21428 28.037 9.2281 28.1157 9.22104C28.4562 9.19464 28.6036 8.88784 28.5772 8.45997C28.5536 8.08126 28.3833 7.76264 27.9992 7.79177C27.9183 7.79383 27.8396 7.81778 27.7713 7.86107C27.703 7.90435 27.6477 7.96535 27.6113 8.03757C27.5345 8.20062 27.5085 8.383 27.5367 8.56102C27.5504 8.73638 27.6121 8.90457 27.7151 9.04716ZM28.0164 8.03666C28.1494 8.02573 28.2295 8.18231 28.2541 8.49184C28.2786 8.80136 28.2249 8.96886 28.102 8.97797C27.9791 8.98707 27.8899 8.84232 27.8608 8.52279C27.8316 8.20325 27.8945 8.04576 28.0164 8.03666Z" fill="#FFEA94"/>
<path d="M29.1279 8.03121H29.1325L29.1752 9.1291L29.4784 9.12182L29.4447 7.73807L29.1716 7.74444C29.0469 7.80635 28.924 7.86188 28.802 7.92651L28.8694 8.16503L29.1279 8.03121Z" fill="#FFEA94"/>
<path d="M30.1947 9.13638C30.5361 9.14548 30.7127 8.85508 30.7281 8.42721C30.7418 8.04759 30.6043 7.71258 30.2193 7.70347C30.1355 7.69946 30.0521 7.71701 29.9771 7.75445C29.909 7.79251 29.8512 7.84656 29.8087 7.91195C29.7167 8.06647 29.673 8.24494 29.6831 8.42448C29.6795 8.60047 29.7245 8.77404 29.8132 8.92608C29.8542 8.99022 29.9105 9.04308 29.9772 9.07982C30.0438 9.11655 30.1186 9.136 30.1947 9.13638ZM30.212 7.94836C30.3458 7.94836 30.4104 8.11586 30.4041 8.42266C30.3977 8.72945 30.3285 8.89513 30.2056 8.89149C30.0827 8.88785 30.0072 8.73491 30.009 8.41719C30.0108 8.09948 30.09 7.94563 30.212 7.94836Z" fill="#FFEA94"/>
<path d="M31.3189 8.0521L31.2543 9.14908L31.5575 9.17275L31.6594 7.78901L31.3863 7.76807C31.257 7.81632 31.1287 7.8591 31.0012 7.91737L31.044 8.16134C31.136 8.11947 31.227 8.08852 31.3189 8.0521Z" fill="#FFEA94"/>
<path d="M32.2722 9.25744C32.6099 9.30023 32.8184 9.02985 32.873 8.60471C32.924 8.22782 32.8193 7.88097 32.4379 7.83273C32.3577 7.82005 32.2755 7.82907 32.2 7.85884C32.1244 7.88862 32.0582 7.93806 32.0082 8.00205C31.9012 8.14678 31.84 8.32021 31.8325 8.50002C31.8125 8.67466 31.8402 8.85147 31.9126 9.01164C31.9472 9.0794 31.9983 9.1374 32.0611 9.18034C32.1239 9.22328 32.1965 9.24979 32.2722 9.25744ZM32.1584 8.5246C32.1875 8.20233 32.2849 8.0594 32.4069 8.0767C32.5289 8.094 32.589 8.25877 32.5508 8.56738C32.5125 8.876 32.4288 9.02985 32.3068 9.01437C32.1848 8.99889 32.1256 8.83958 32.1584 8.5246Z" fill="#FFEA94"/>
<path d="M33.4987 8.28974L33.3284 9.37671L33.6279 9.42951L33.8674 8.06397L33.5942 8.01572L33.394 8.0667L33.1946 8.12678L33.2137 8.3744C33.3084 8.34071 33.4031 8.31432 33.4987 8.28974Z" fill="#FFEA94"/>
<path d="M34.1176 9.4823C34.1785 9.53143 34.2498 9.56599 34.3261 9.58335C34.6584 9.66073 34.8896 9.41129 34.9897 8.99435C35.0808 8.62475 35.0089 8.26607 34.6329 8.18322C34.5545 8.16282 34.4721 8.16371 34.3941 8.18579C34.3162 8.20788 34.2456 8.25036 34.1895 8.30885C34.0682 8.44188 33.9898 8.60847 33.9647 8.78679C33.9268 8.95886 33.9368 9.13805 33.9938 9.30478C34.0198 9.37328 34.0623 9.43427 34.1176 9.4823ZM34.286 8.84505C34.347 8.52825 34.459 8.39442 34.5783 8.42265C34.6975 8.45087 34.7385 8.62656 34.6693 8.92607C34.6001 9.22558 34.5018 9.37397 34.3825 9.34666C34.2633 9.31935 34.2214 9.15639 34.286 8.84505Z" fill="#FFEA94"/>
<path d="M35.6472 8.7449L35.3659 9.80729L35.6572 9.89013L36.0323 8.55737L35.7655 8.48181L35.5616 8.51276C35.4942 8.5246 35.426 8.53916 35.3577 8.55191L35.3513 8.80044C35.4496 8.77859 35.5461 8.7622 35.6426 8.74672L35.6472 8.7449Z" fill="#FFEA94"/>
<path d="M36.0339 9.80276C36.0543 9.87599 36.0928 9.94292 36.1457 9.99747C36.1987 10.052 36.2645 10.0924 36.3371 10.115C36.6593 10.2243 36.9142 9.9994 37.0562 9.59429C37.181 9.23561 37.1473 8.8751 36.7831 8.75221C36.7071 8.72358 36.6248 8.71583 36.5448 8.72976C36.4647 8.74369 36.3899 8.77878 36.328 8.83141C36.193 8.95206 36.0978 9.11075 36.0548 9.28659C36.0009 9.45352 35.9937 9.63201 36.0339 9.80276ZM36.3717 9.37398C36.4627 9.06446 36.5883 8.94338 36.7039 8.98435C36.8196 9.02531 36.8432 9.20284 36.7476 9.49415C36.6521 9.78547 36.5355 9.92293 36.419 9.88379C36.3025 9.84464 36.2761 9.67622 36.3717 9.37671V9.37398Z" fill="#FFEA94"/>
<path d="M37.6267 10.5529L38.1338 9.26199L37.8752 9.16003C37.7378 9.16732 37.6021 9.17278 37.4628 9.18826L37.4319 9.43497C37.5311 9.42222 37.6285 9.41767 37.7268 9.41129H37.7314L37.3445 10.4391L37.6267 10.5529Z" fill="#FFEA94"/>
<path d="M38.0136 10.5028C38.0267 10.5782 38.0586 10.6491 38.1063 10.7089C38.1541 10.7688 38.2161 10.8156 38.2868 10.8451C38.5972 10.9853 38.873 10.7868 39.0542 10.3981C39.2153 10.054 39.218 9.69258 38.8666 9.53326C38.794 9.49745 38.713 9.48168 38.6322 9.48761C38.5514 9.49353 38.4736 9.52092 38.4069 9.56695C38.2619 9.67331 38.1521 9.82079 38.0919 9.99026C38.0194 10.1507 37.9924 10.328 38.0136 10.5028ZM38.3924 10.1104C38.5162 9.81183 38.6509 9.70714 38.762 9.75721C38.873 9.80728 38.8794 9.98753 38.7547 10.2688C38.63 10.5501 38.5007 10.6739 38.3905 10.623C38.2804 10.572 38.264 10.4017 38.3924 10.1104Z" fill="#FFEA94"/>
<path d="M39.5277 11.4095L40.165 10.176L39.9182 10.0494C39.779 10.0449 39.6451 10.033 39.5049 10.0349L39.4494 10.277C39.5486 10.277 39.6461 10.2825 39.7453 10.2843L39.2573 11.2684L39.5277 11.4095Z" fill="#FFEA94"/>
<path d="M39.9147 11.3986C39.9198 11.4718 39.9426 11.5427 39.9811 11.6053C40.0214 11.6728 40.0789 11.7284 40.1477 11.7664C40.4436 11.9366 40.7386 11.7664 40.958 11.3977C41.1519 11.0718 41.1901 10.7122 40.856 10.5201C40.7847 10.4768 40.7036 10.4524 40.6202 10.4491C40.5423 10.4488 40.4656 10.4682 40.3972 10.5055C40.2418 10.5971 40.1175 10.7331 40.0403 10.8961C39.9532 11.0489 39.9097 11.2228 39.9147 11.3986ZM40.3298 11.0463C40.4818 10.7632 40.6266 10.6712 40.7331 10.7322C40.8396 10.7932 40.8241 10.9735 40.6739 11.2402C40.5237 11.5069 40.3817 11.618 40.2752 11.557C40.1687 11.496 40.176 11.3249 40.3298 11.0463Z" fill="#FFEA94"/>
<path d="M41.6582 11.3576L41.0747 12.2898L41.3305 12.4537L42.0879 11.2884L41.8549 11.1391C41.7174 11.1191 41.5818 11.0982 41.4461 11.0818L41.3669 11.3176L41.6592 11.3558L41.6582 11.3576Z" fill="#FFEA94"/>
<path d="M41.8919 11.9912C41.6771 12.3217 41.6325 12.6667 41.911 12.8697C42.1896 13.0728 42.5 12.9271 42.7549 12.5821C42.9798 12.2762 43.0544 11.923 42.7403 11.6999C42.4263 11.4769 42.1113 11.6571 41.8919 11.9912ZM42.5965 11.9002C42.7048 11.9776 42.6657 12.1487 42.4873 12.3991C42.3088 12.6494 42.1586 12.7468 42.0585 12.6722C41.9584 12.5975 41.9829 12.4319 42.1632 12.1706C42.3434 11.9093 42.4964 11.8274 42.5965 11.8984V11.9002Z" fill="#FFEA94"/>
<path d="M43.4551 12.6121L42.7815 13.4806L43.02 13.6681L43.8857 12.5848L43.6682 12.4127L43.2676 12.3153L43.1638 12.5438L43.4515 12.6094L43.4551 12.6121Z" fill="#FFEA94"/>
<path d="M43.6253 13.2649C43.5099 13.3973 43.4331 13.5588 43.4032 13.7319C43.3909 13.8078 43.3985 13.8857 43.4253 13.9578C43.4521 14.03 43.4972 14.0939 43.5561 14.1434C43.8138 14.3664 44.1378 14.2572 44.4255 13.9385C44.6804 13.6572 44.7897 13.3131 44.4974 13.0609C44.4389 13.0059 44.3672 12.967 44.2892 12.948C44.2111 12.9291 44.1295 12.9306 44.0523 12.9526C43.8822 13.0121 43.7336 13.1208 43.6253 13.2649ZM44.3345 13.2448C44.4346 13.3313 44.3791 13.4979 44.177 13.7291C43.9749 13.9604 43.8129 14.0423 43.7218 13.9622C43.6308 13.8821 43.669 13.7164 43.8748 13.4742C44.0805 13.2321 44.2416 13.1647 44.3345 13.2448Z" fill="#FFEA94"/>
<path d="M45.1186 14.0395L44.3621 14.837L44.5824 15.0464L45.551 14.0532L45.3498 13.862L44.9602 13.7264L44.8346 13.943L45.115 14.0359L45.1186 14.0395Z" fill="#FFEA94"/>
<path d="M45.0672 15.5726C45.303 15.8193 45.6362 15.7419 45.9539 15.4543C46.2352 15.1985 46.3763 14.868 46.1105 14.5885C45.8447 14.309 45.5087 14.4174 45.2247 14.705C44.9407 14.9927 44.8296 15.3232 45.0672 15.5726ZM45.9302 14.7533C46.0213 14.8498 45.9512 15.01 45.7263 15.2203C45.5015 15.4306 45.3349 15.4934 45.2502 15.4069C45.1655 15.3204 45.222 15.1584 45.4514 14.9372C45.6808 14.716 45.8456 14.6668 45.9302 14.7551V14.7533Z" fill="#FFEA94"/>
<path d="M46.6324 15.6236L45.8013 16.3428L45.9997 16.5722L47.0621 15.68L46.88 15.4706L46.505 15.2977L46.3584 15.5007L46.6297 15.6208L46.6324 15.6236Z" fill="#FFEA94"/>
<path d="M46.4304 17.1448C46.6407 17.4124 46.9766 17.3678 47.3234 17.1138C47.6311 16.8862 47.8041 16.5721 47.5656 16.269C47.3271 15.9658 46.9811 16.0405 46.6725 16.2963C46.3639 16.5521 46.2173 16.8735 46.4304 17.1448ZM46.8746 16.553C47.125 16.35 47.2943 16.3209 47.3699 16.4165C47.4454 16.5121 47.3699 16.6732 47.1213 16.8607C46.8728 17.0483 46.7044 17.0965 46.6288 17C46.5533 16.9035 46.6243 16.7506 46.8746 16.553Z" fill="#FFEA94"/>
<path d="M47.9815 17.3505L47.083 17.9832L47.2596 18.2308L48.4049 17.4479L48.2446 17.2222L47.8869 17.0137L47.7212 17.2012L47.9788 17.3469L47.9815 17.3505Z" fill="#FFEA94"/>
<path d="M47.6301 18.8444C47.6698 18.9097 47.7253 18.9639 47.7915 19.0021C47.8577 19.0403 47.9324 19.0612 48.0088 19.0629C48.1912 19.0603 48.3689 19.005 48.5204 18.9036C48.674 18.8194 48.8004 18.693 48.8846 18.5395C48.9187 18.4669 48.9331 18.3865 48.9262 18.3066C48.9194 18.2267 48.8915 18.15 48.8454 18.0843C48.6442 17.7711 48.2846 17.7993 47.9524 18.0233C47.6201 18.2472 47.4435 18.5531 47.6301 18.8444ZM48.637 18.2135C48.7089 18.3255 48.6078 18.4684 48.3465 18.6305C48.0853 18.7925 47.9077 18.8235 47.8413 18.7215C47.7748 18.6196 47.8622 18.473 48.1299 18.3019C48.3975 18.1307 48.5714 18.1107 48.637 18.2135Z" fill="#FFEA94"/>
<path d="M49.1513 19.1986L49.1531 19.2022L48.1963 19.743L48.3483 20.0061L49.5655 19.3415L49.4271 19.1012L49.0912 18.8581L48.9082 19.0283L49.1513 19.1986Z" fill="#FFEA94"/>
<path d="M49.0577 19.8713C48.7127 20.0589 48.4978 20.3465 48.6553 20.6533C48.6882 20.722 48.7377 20.7813 48.7994 20.8258C48.8611 20.8703 48.933 20.8987 49.0085 20.9082C49.1903 20.9248 49.3728 20.8877 49.5338 20.8017C49.877 20.6415 50.121 20.3611 49.9416 20.0197C49.7623 19.6783 49.4109 19.6811 49.0577 19.8713ZM49.7204 20.1262C49.7805 20.2446 49.6658 20.3766 49.39 20.5113C49.1141 20.6461 48.9348 20.6597 48.8783 20.5505C48.8219 20.4412 48.923 20.3056 49.2061 20.1617C49.4892 20.0179 49.664 20.017 49.7204 20.1262Z" fill="#FFEA94"/>
<path d="M50.1335 21.1586L50.1353 21.1622L49.1284 21.6037L49.2531 21.8814L50.5313 21.3416L50.4175 21.0885L50.1061 20.8145L49.9077 20.9647L50.1335 21.1586Z" fill="#FFEA94"/>
<path d="M49.9715 21.8186C49.6074 21.9706 49.367 22.2355 49.4936 22.556C49.6201 22.8764 49.9487 22.9347 50.352 22.7927C50.708 22.6679 50.9829 22.4112 50.8372 22.0544C50.6916 21.6975 50.342 21.6665 49.9715 21.8186ZM50.2401 22.4877C49.9433 22.5978 49.7712 22.5906 49.7257 22.4758C49.6802 22.3611 49.794 22.2364 50.0899 22.1226C50.3857 22.0088 50.5605 22.0243 50.6051 22.1381C50.6497 22.2519 50.5277 22.3812 50.2401 22.4859V22.4877Z" fill="#FFEA94"/>
<path d="M50.9184 23.2069L49.8733 23.5464C49.9042 23.642 49.9407 23.7367 49.9643 23.8341L51.2898 23.4263C51.2661 23.3352 51.2325 23.2506 51.2042 23.1623L50.9184 22.8618L50.7054 22.992L50.9184 23.2069Z" fill="#FFEA94"/>
<path d="M50.6849 23.8514C50.3099 23.9661 50.0422 24.2046 50.1387 24.5369C50.1579 24.6102 50.1946 24.6778 50.2457 24.7337C50.2967 24.7897 50.3606 24.8325 50.4318 24.8583C50.6068 24.9101 50.7931 24.9101 50.968 24.8583C51.139 24.8238 51.2968 24.7418 51.4232 24.6216C51.4771 24.5661 51.5159 24.4978 51.5361 24.4231C51.5536 24.3401 51.5498 24.254 51.5252 24.1728C51.4223 23.8114 51.0691 23.7322 50.6849 23.8514ZM51.2858 24.2329C51.3222 24.3612 51.1838 24.4668 50.8861 24.5442C50.5884 24.6216 50.41 24.5988 50.3763 24.4805C50.3426 24.3621 50.4674 24.2492 50.7741 24.1655C51.0809 24.0817 51.2521 24.1109 51.2821 24.2292L51.2858 24.2329Z" fill="#FFEA94"/>
<path d="M51.3016 25.0886L51.4837 25.3235L50.4094 25.5565C50.4313 25.6548 50.4586 25.7522 50.475 25.8524L51.8341 25.5793C51.8205 25.4882 51.795 25.3972 51.7759 25.3062L51.5246 24.9757L51.3016 25.0886Z" fill="#FFEA94"/>
<path d="M51.1915 25.9379C50.8064 26.0144 50.5169 26.2256 50.577 26.5652C50.5886 26.6401 50.6184 26.7111 50.6638 26.7719C50.7092 26.8327 50.7688 26.8814 50.8374 26.9138C51.0061 26.9834 51.1916 27.0021 51.3708 26.9676C51.5446 26.9509 51.71 26.8852 51.8478 26.7782C51.9064 26.7295 51.9518 26.6669 51.9798 26.5961C52.0059 26.5156 52.0106 26.4296 51.9935 26.3467C51.9307 25.9753 51.5866 25.8615 51.1915 25.9379ZM51.7514 26.3776C51.7741 26.5087 51.6257 26.5998 51.3226 26.6507C51.0194 26.7017 50.8428 26.658 50.821 26.537C50.7991 26.4159 50.9348 26.3157 51.2488 26.2638C51.5629 26.212 51.7313 26.2566 51.7532 26.3776H51.7514Z" fill="#FFEA94"/>
<path d="M51.6809 27.2343L51.8402 27.4865L50.7478 27.6103C50.7596 27.7113 50.776 27.8115 50.7833 27.9125L52.1634 27.776C52.1579 27.6849 52.1425 27.5939 52.1315 27.5029L51.9194 27.1497L51.6809 27.2343Z" fill="#FFEA94"/>
<path d="M51.489 28.0682C51.0984 28.1064 50.7889 28.2876 50.8153 28.6317C50.8417 28.9758 51.1348 29.1278 51.5654 29.1115C51.9423 29.0969 52.281 28.9339 52.2473 28.5498C52.2136 28.1656 51.8886 28.0318 51.489 28.0682ZM51.5481 28.7874C51.2331 28.8047 51.0702 28.7464 51.0611 28.6244C51.052 28.5024 51.1967 28.4159 51.5163 28.3941C51.8358 28.3722 51.9942 28.4396 52.0033 28.5616C52.0124 28.6836 51.8549 28.7673 51.5481 28.7874Z" fill="#FFEA94"/>
<path d="M51.8468 29.4064L51.9797 29.6732V29.6768L50.8809 29.6932L50.8891 29.9963H52.2755L52.2692 29.7196L52.0889 29.3454L51.8468 29.4064Z" fill="#FFEA94"/>
</svg>
