<svg width="40" height="40" viewBox="0 0 40 40" fill="none" xmlns="http://www.w3.org/2000/svg">
<path d="M20 40C31.0457 40 40 31.0457 40 20C40 8.9543 31.0457 0 20 0C8.9543 0 0 8.9543 0 20C0 31.0457 8.9543 40 20 40Z" fill="#4DB0DA"/>
<path d="M8.32362 19.8265L21.7918 14.2774C23.1213 13.6993 27.63 11.8496 27.63 11.8496C27.63 11.8496 29.7109 11.0404 29.5375 13.0057C29.4797 13.8149 29.0173 16.6473 28.5548 19.7109L27.1097 28.786C27.1097 28.786 26.9941 30.1155 26.0115 30.3467C25.0288 30.5779 23.4103 29.5375 23.1213 29.3063C22.8901 29.1329 18.786 26.5317 17.2832 25.26C16.8785 24.9132 16.4161 24.2196 17.341 23.4103C19.4219 21.5028 21.9074 19.1329 23.4103 17.63C24.104 16.9363 24.7976 15.3178 21.9074 17.2831L13.7571 22.7745C13.7571 22.7745 12.8323 23.3525 11.0982 22.8323C9.36408 22.312 7.34096 21.6184 7.34096 21.6184C7.34096 21.6184 5.95368 20.7514 8.32362 19.8265Z" fill="white"/>
</svg>
