<svg width="34" height="37" viewBox="0 0 34 37" fill="none" xmlns="http://www.w3.org/2000/svg">
<path d="M26.1274 35.1114C29.6287 33.3879 32.1486 30.2813 33.3715 26.158C34.0783 23.8419 34.2055 19.9331 33.6683 17.3578C32.2052 10.261 25.893 4.99856 17.9751 4.28111L16.4931 4.15152L16.4 2.98404C16.2893 1.48317 15.7332 0.908264 14.4362 0.908264H13.6209V2.57643C13.6209 3.92886 13.5656 4.24341 13.3429 4.24341C13.1203 4.24341 13.0649 3.92886 13.0649 2.57643C13.0649 0.927114 13.0649 0.908264 12.6019 0.908264C12.1389 0.908264 12.1389 0.908266 12.1389 2.66949V4.4107L11.3602 4.6145C8.43266 5.35552 5.57935 6.91176 3.7816 8.72836C0.910614 11.6547 0.0576864 16.3435 1.80007 19.8082C3.89352 23.9397 9.63666 23.6617 11.842 19.3075C12.5489 17.8997 12.7503 16.9172 12.8611 14.435C12.9541 12.4322 13.0095 12.1189 13.3052 12.0635C13.6009 12.0081 13.6209 12.2991 13.6209 16.1762V20.3631H14.4362C15.0476 20.3631 15.3998 20.2523 15.7886 19.9189L16.307 19.4748L16.4 15.7874L16.4931 12.1189L17.5121 12.1931C19.0684 12.285 22.4954 13.2121 24.3674 14.0274C26.6057 15.0275 28.9442 16.6026 30.2036 18.0104C34.7251 23.0137 32.7789 30.7337 26.8496 31.2403C25.701 31.3322 25.3311 31.2579 23.1634 30.5546C21.8475 30.1282 19.2899 29.2022 17.4933 28.4977C15.6955 27.8121 13.5832 27.0522 12.768 26.8295C7.43248 25.3298 2.55875 27.8309 0.836395 32.945C0.169601 34.9477 0.706807 35.3164 1.55856 33.4256C2.26541 31.8694 2.911 31.4229 4.39302 31.5407C5.32017 31.5961 6.00582 31.8741 9.50707 33.653C14.5104 36.1917 15.7886 36.5617 19.5502 36.5617C22.5143 36.5558 23.6817 36.2966 26.1274 35.1114ZM10.0443 20.4927C9.00757 21.5671 8.02505 21.9193 6.44995 21.8074C4.94908 21.6967 3.93004 21.2337 3.00407 20.1958C1.09558 18.0835 1.98503 15.2478 5.061 13.7163C6.56187 12.9565 10.6746 11.9751 11.7678 12.0859C11.9905 12.1236 12.0647 12.5123 12.1012 14.0686C12.1766 17.101 11.6005 18.8987 10.0443 20.4927Z" fill="#0F2732"/>
</svg>
