<svg width="172" height="129" viewBox="0 0 172 129" fill="none" xmlns="http://www.w3.org/2000/svg">
<rect width="142" height="129" fill="#081D26"/>
<path d="M166.989 63.37L166.768 62.8329C166.768 62.8329 163.883 53.4805 155.441 53.4805C155.441 53.4805 155.441 43.7163 144.59 43.7163C144.59 43.7163 140.969 31.5233 130.118 38.8358L106 63.2448L106 66.7511L130.118 91.1602C140.969 98.4825 144.59 86.2797 144.59 86.2797C155.441 86.2797 155.441 76.5154 155.441 76.5154C163.883 76.5154 166.768 67.1631 166.768 67.1631L166.989 66.6259L171.707 65.3802C171.791 65.3578 171.865 65.3078 171.918 65.2381C171.971 65.1683 172 65.0827 172 64.9947C172 64.9066 171.971 64.8211 171.918 64.7513C171.865 64.6816 171.791 64.6316 171.707 64.6091L166.989 63.37Z" fill="#081D26"/>
</svg>
