<svg width="130" height="129" viewBox="0 0 130 129" fill="none" xmlns="http://www.w3.org/2000/svg">
<rect x="30" width="100" height="129" fill="#081D26"/>
<path d="M5.01099 63.37L5.23238 62.8329C5.23238 62.8329 8.11693 53.4805 16.559 53.4805C16.559 53.4805 16.559 43.7163 27.4102 43.7163C27.4102 43.7163 31.0305 31.5233 41.8818 38.8358L66 63.2448L66 66.7511L41.8818 91.1602C31.0305 98.4825 27.4102 86.2797 27.4102 86.2797C16.559 86.2797 16.559 76.5154 16.559 76.5154C8.11693 76.5154 5.23238 67.1631 5.23238 67.1631L5.01099 66.6259L0.293489 65.3802C0.209378 65.3578 0.134971 65.3078 0.0818806 65.2381C0.0287902 65.1683 1.24939e-06 65.0827 1.24554e-06 64.9947C1.24169e-06 64.9066 0.0287902 64.8211 0.0818805 64.7513C0.134971 64.6816 0.209378 64.6316 0.293489 64.6091L5.01099 63.37Z" fill="#081D26"/>
</svg>
