<svg width="49" height="16" viewBox="0 0 49 16" fill="none" xmlns="http://www.w3.org/2000/svg">
<path d="M15.4002 5.06878V10.3312C15.4002 11.6755 14.8662 12.9648 13.9156 13.9154C12.965 14.866 11.6757 15.4 10.3314 15.4H4.2002C3.27194 15.4 2.3817 15.0313 1.72532 14.3749C1.06894 13.7185 0.700195 12.8283 0.700195 11.9H0.879084C1.33007 12.5486 1.93137 13.0784 2.63161 13.4441C3.33185 13.8098 4.11021 14.0005 4.9002 14H9.50542C10.6975 14 11.8408 13.5264 12.6837 12.6835C13.5266 11.8406 14.0002 10.6973 14.0002 9.50522V5.89478C14.0002 4.70269 13.5266 3.55942 12.6837 2.71649C11.8408 1.87356 10.6975 1.4 9.50542 1.4H4.04464C3.46423 1.40074 2.89052 1.27602 2.36281 1.03438C1.83509 0.792739 1.36584 0.43989 0.987195 0H10.3314C11.6757 0 12.965 0.534031 13.9156 1.48461C14.8662 2.43519 15.4002 3.72446 15.4002 5.06878Z" fill="white"/>
<path d="M14 5.89478V9.50522C14 10.6973 13.5264 11.8406 12.6835 12.6835C11.8406 13.5264 10.6973 14 9.50522 14H4.9C4.11002 14.0005 3.33166 13.8098 2.63142 13.4441C1.93118 13.0784 1.32988 12.5486 0.878889 11.9H10.2231C10.8535 11.9 11.4581 11.6496 11.9038 11.2038C12.3496 10.7581 12.6 10.1535 12.6 9.52311V5.87689C12.6 5.2465 12.3496 4.64193 11.9038 4.19617C11.4581 3.75042 10.8535 3.5 10.2231 3.5H3.5C2.57174 3.5 1.6815 3.13125 1.02513 2.47487C0.368749 1.8185 0 0.928258 0 0H0.983111C1.36218 0.440388 1.83206 0.793532 2.36049 1.03519C2.88892 1.27685 3.46338 1.4013 4.04444 1.4H9.50911C10.7005 1.40103 11.8428 1.87504 12.6849 2.71786C13.527 3.56069 14 4.70336 14 5.89478Z" fill="url(#paint0_linear_377:197)"/>
<path d="M24.4998 0C22.9769 0 21.4882 0.451597 20.2219 1.29768C18.9557 2.14377 17.9687 3.34635 17.3859 4.75334C16.8031 6.16033 16.6507 7.70854 16.9478 9.2022C17.2449 10.6959 17.9782 12.0679 19.0551 13.1447C20.132 14.2216 21.504 14.9549 22.9976 15.252C24.4913 15.5491 26.0395 15.3967 27.4465 14.8139C28.8535 14.2311 30.056 13.2441 30.9021 11.9779C31.7482 10.7116 32.1998 9.22292 32.1998 7.7C32.1998 5.65783 31.3886 3.69931 29.9445 2.25528C28.5005 0.811248 26.542 0 24.4998 0ZM24.4998 14C23.2538 14 22.0357 13.6305 20.9997 12.9383C19.9637 12.246 19.1562 11.2621 18.6794 10.1109C18.2025 8.95973 18.0778 7.69301 18.3209 6.47093C18.5639 5.24885 19.164 4.1263 20.045 3.24523C20.9261 2.36416 22.0487 1.76414 23.2707 1.52105C24.4928 1.27797 25.7595 1.40273 26.9107 1.87956C28.0619 2.35639 29.0458 3.16388 29.7381 4.19991C30.4303 5.23594 30.7998 6.45398 30.7998 7.7C30.7998 9.37086 30.1361 10.9733 28.9546 12.1548C27.7731 13.3363 26.1707 14 24.4998 14Z" fill="white"/>
<path d="M49.0001 0C49.0006 0.481801 48.9013 0.958483 48.7084 1.4H39.414C38.2434 1.4 37.1207 1.86503 36.2929 2.6928C35.4651 3.52056 35.0001 4.64325 35.0001 5.81389V15.1083C34.5586 15.3012 34.0819 15.4005 33.6001 15.4V5.23444C33.6001 3.84618 34.1516 2.51478 35.1332 1.53313C36.1149 0.551484 37.4463 0 38.8345 0H49.0001Z" fill="white"/>
<path d="M21.7 9.0999C21.7 9.0999 20.2137 4.8999 23.1 4.8999C25.2 4.8999 21.7 6.2999 21.7 9.0999Z" fill="url(#paint1_linear_377:197)"/>
<path d="M24.5002 1.3999C23.2542 1.3999 22.0361 1.76939 21.0001 2.46164C19.9641 3.1539 19.1566 4.13782 18.6798 5.289C18.2029 6.44017 18.0782 7.70689 18.3213 8.92897C18.5643 10.1511 19.1644 11.2736 20.0454 12.1547C20.9265 13.0357 22.049 13.6358 23.2711 13.8788C24.4932 14.1219 25.7599 13.9972 26.9111 13.5203C28.0623 13.0435 29.0462 12.236 29.7385 11.2C30.4307 10.164 30.8002 8.94592 30.8002 7.6999C30.8002 6.02904 30.1364 4.42661 28.955 3.24513C27.7735 2.06365 26.1711 1.3999 24.5002 1.3999ZM24.5002 12.5999C23.5311 12.5999 22.5837 12.3125 21.7779 11.7741C20.9721 11.2357 20.3441 10.4704 19.9732 9.57505C19.6023 8.67969 19.5053 7.69447 19.6944 6.74396C19.8834 5.79345 20.3501 4.92036 21.0354 4.23508C21.7207 3.5498 22.5937 3.08312 23.5443 2.89406C24.4948 2.70499 25.48 2.80202 26.3753 3.17289C27.2707 3.54376 28.036 4.17181 28.5744 4.97761C29.1128 5.78341 29.4002 6.73077 29.4002 7.6999C29.4002 8.99946 28.8839 10.2458 27.965 11.1647C27.0461 12.0837 25.7998 12.5999 24.5002 12.5999Z" fill="url(#paint2_linear_377:197)"/>
<path d="M48.7083 1.3999C48.4359 2.02415 47.9872 2.55534 47.4173 2.92836C46.8475 3.30137 46.1811 3.50001 45.5 3.4999H38.7333C38.3001 3.4999 37.8847 3.67199 37.5784 3.97829C37.2721 4.2846 37.1 4.70005 37.1 5.13324V11.8999C37.1001 12.581 36.9015 13.2474 36.5285 13.8172C36.1554 14.3871 35.6242 14.8358 35 15.1082V5.81379C35 4.64316 35.465 3.52047 36.2928 2.6927C37.1206 1.86494 38.2433 1.3999 39.4139 1.3999H48.7083Z" fill="url(#paint3_linear_377:197)"/>
<defs>
<linearGradient id="paint0_linear_377:197" x1="0" y1="7" x2="14" y2="7" gradientUnits="userSpaceOnUse">
<stop stop-color="#D2D2D2"/>
<stop offset="1" stop-color="white"/>
</linearGradient>
<linearGradient id="paint1_linear_377:197" x1="1245.87" y1="4.8999" x2="1323.28" y2="4.8999" gradientUnits="userSpaceOnUse">
<stop stop-color="#D2D2D2"/>
<stop offset="1" stop-color="white"/>
</linearGradient>
<linearGradient id="paint2_linear_377:197" x1="28.1682" y1="12.764" x2="20.7762" y2="2.55801" gradientUnits="userSpaceOnUse">
<stop stop-color="white"/>
<stop offset="1" stop-color="#D2D2D2"/>
</linearGradient>
<linearGradient id="paint3_linear_377:197" x1="9288.13" y1="7501.64" x2="11704.2" y2="7501.64" gradientUnits="userSpaceOnUse">
<stop stop-color="#D2D2D2"/>
<stop offset="1" stop-color="white"/>
</linearGradient>
</defs>
</svg>
