<svg width="71" height="70" viewBox="0 0 71 70" fill="none" xmlns="http://www.w3.org/2000/svg">
<path d="M43.8402 49.3404C46.9969 47.7865 49.2688 44.9856 50.3713 41.2681C51.0085 39.18 51.1233 35.6558 50.6389 33.334C49.3197 26.9357 43.6288 22.1911 36.4902 21.5443L35.1541 21.4275L35.0701 20.3749C34.9703 19.0217 34.469 18.5034 33.2996 18.5034H32.5646V20.0074C32.5646 21.2267 32.5147 21.5103 32.3139 21.5103C32.1132 21.5103 32.0632 21.2267 32.0632 20.0074C32.0632 18.5204 32.0632 18.5034 31.6458 18.5034C31.2284 18.5034 31.2284 18.5034 31.2284 20.0913V21.6611L30.5263 21.8449C27.8869 22.513 25.3144 23.916 23.6936 25.5539C21.1052 28.1922 20.3362 32.4195 21.9071 35.5432C23.7945 39.2682 28.9724 39.0175 30.9607 35.0918C31.598 33.8226 31.7797 32.9368 31.8795 30.6988C31.9634 28.8932 32.0133 28.6107 32.2799 28.5608C32.5465 28.5108 32.5646 28.7732 32.5646 32.2687V36.0435H33.2996C33.8508 36.0435 34.1684 35.9437 34.5189 35.6431L34.9862 35.2427L35.1541 28.6107L36.0728 28.6776C37.4759 28.7605 40.5656 29.5963 42.2534 30.3313C44.2714 31.2331 46.3798 32.6532 47.5152 33.9224C51.5917 38.4333 49.837 45.3935 44.4913 45.8502C43.4557 45.933 43.1222 45.8661 41.1679 45.232C39.9815 44.8475 37.6756 44.0127 36.0558 43.3776C34.435 42.7594 32.5306 42.0743 31.7956 41.8736C26.9852 40.5215 22.5911 42.7764 21.0383 47.3871C20.4371 49.1927 20.9215 49.5252 21.6894 47.8205C22.3267 46.4174 22.9087 46.0148 24.2449 46.121C25.0808 46.171 25.6989 46.4216 28.8556 48.0254C33.3665 50.3144 34.5189 50.6479 37.9103 50.6479C40.5826 50.6426 41.6352 50.4089 43.8402 49.3404ZM29.3399 36.1603C28.4053 37.129 27.5194 37.4466 26.0994 37.3457C24.7462 37.2458 23.8275 36.8284 22.9926 35.8927C21.272 33.9883 22.0739 31.4317 24.8471 30.0509C26.2003 29.3659 29.9082 28.4811 30.8938 28.5809C31.0946 28.6149 31.1615 28.9654 31.1944 30.3685C31.2624 33.1025 30.743 34.7233 29.3399 36.1603Z" fill="#09232E"/>
<path d="M67.3328 37.812L67.3168 37.7599C67.2791 37.5992 67.2164 37.4455 67.1309 37.3042C67.0574 37.168 66.9508 37.0525 66.8208 36.9684C66.6909 36.8843 66.5418 36.8344 66.3875 36.8231C66.3944 36.6671 66.3607 36.5119 66.2897 36.3728C66.1761 36.1444 65.9435 35.9171 65.4655 35.9033C65.4141 35.73 65.3224 35.5713 65.1979 35.4402C65.0035 35.248 64.688 35.146 64.2016 35.4519C63.8397 35.7918 63.4776 36.1196 63.115 36.4354C62.9153 36.6011 62.7167 36.7636 62.517 36.9219C62.5606 36.2846 62.585 35.6473 62.585 34.9973C62.585 34.4312 62.5659 33.8693 62.5319 33.3106L62.5659 33.3382L62.8495 33.5698L63.1214 33.8056C63.4825 34.1242 63.8451 34.4553 64.209 34.7987C64.6944 35.1088 65.0109 35.0111 65.2053 34.8189C65.3299 34.6888 65.4213 34.5307 65.4719 34.3579C66.4278 34.343 66.4044 33.4455 66.4044 33.4455C66.5585 33.436 66.7076 33.3874 66.8376 33.3043C66.9677 33.2213 67.0745 33.1065 67.1479 32.9707C67.2335 32.8306 67.2965 32.6779 67.3349 32.5183L67.3497 32.4662L67.6301 32.4004L67.6217 32.2888C67.6217 32.2888 67.5983 32.1975 67.6132 32.1826L67.3264 32.1635L67.303 32.1147C67.2411 31.9629 67.1554 31.822 67.0492 31.6972C66.9504 31.5762 66.8234 31.4813 66.6792 31.4211C66.5351 31.3609 66.3783 31.3372 66.2228 31.352C66.2228 31.352 66.1092 30.462 65.1607 30.6032C65.0844 30.4382 64.9656 30.2963 64.8166 30.1922C64.5871 30.0382 64.2547 29.9925 63.8383 30.3759C63.6971 30.5724 63.5399 30.77 63.3859 30.9622C63.2319 31.1545 63.0778 31.3457 62.9228 31.5326C62.7677 31.7195 62.6137 31.9033 62.4586 32.0839L62.4278 32.1189C62.3027 30.9209 62.0994 29.7323 61.8192 28.5608C62.0401 28.6847 62.2614 28.8125 62.4831 28.9442C62.6955 29.0685 62.9079 29.1948 63.1118 29.3276C63.3158 29.4604 63.5186 29.5942 63.7226 29.7334C64.2483 29.9553 64.5447 29.8024 64.7072 29.5815C64.8103 29.4312 64.8766 29.2587 64.9005 29.078C65.3689 28.9877 65.5696 28.7222 65.6323 28.4811C65.6722 28.331 65.678 28.1738 65.6493 28.0212C65.8005 27.9843 65.94 27.9102 66.0552 27.8055C66.1704 27.7009 66.2576 27.5691 66.3089 27.4221C66.3714 27.2682 66.4101 27.1056 66.4236 26.9399L66.4299 26.8858L66.6944 26.7732L66.6636 26.667C66.6636 26.667 66.6222 26.582 66.6339 26.5608L66.3471 26.5926L66.3142 26.5491C66.2226 26.4114 66.1105 26.2885 65.9817 26.1848C65.8659 26.0817 65.726 26.0095 65.5749 25.9748C65.4238 25.9401 65.2663 25.944 65.1171 25.9861C65.1027 25.9413 65.085 25.8976 65.064 25.8555C65.0179 25.7573 64.9542 25.6684 64.876 25.5931C64.6902 25.4179 64.3928 25.2841 63.9392 25.4349C63.8314 25.2889 63.6906 25.1706 63.5282 25.0897C63.2796 24.976 62.9472 24.9888 62.5967 25.4413C62.3705 25.8852 62.1495 26.3143 61.9084 26.7371C61.7774 26.9601 61.6457 27.1796 61.5133 27.3956C61.1821 26.2398 60.7748 25.1072 60.294 24.0053L60.3365 24.0191L60.6817 24.138L61.0184 24.2665C61.468 24.4422 61.9219 24.6287 62.38 24.8263C62.5895 24.8858 62.8123 24.8784 63.0173 24.805C63.1535 24.746 63.2628 24.6385 63.3243 24.5034C63.3966 24.3384 63.4287 24.1585 63.4177 23.9787C64.3099 23.6367 63.9807 22.8019 63.9807 22.8019C64.1226 22.7401 64.2465 22.6433 64.3407 22.5205C64.4349 22.3977 64.4963 22.2529 64.5192 22.0998C64.5511 21.9382 64.5575 21.7726 64.5383 21.6091V21.5549L64.7804 21.3967L64.7337 21.2904C64.7337 21.2904 64.6795 21.2129 64.688 21.1895L64.4119 21.2703L64.3736 21.232C64.3405 21.1944 64.3051 21.1589 64.2674 21.1258C64.1833 21.0465 64.0886 20.9793 63.986 20.9261C63.8519 20.8459 63.7001 20.8001 63.544 20.7928C63.388 20.7856 63.2325 20.8172 63.0916 20.8847C63.0916 20.8847 62.6827 20.086 61.8436 20.5438L61.8086 20.5108C61.778 20.4832 61.7453 20.458 61.7109 20.4354C61.6085 20.3643 61.4946 20.3115 61.3742 20.2793C61.1065 20.2124 60.7794 20.2793 60.5181 20.7881C60.3885 21.2565 60.2207 21.7302 60.0593 22.1869C59.9711 22.4312 59.8851 22.6702 59.7937 22.9081C59.265 21.8249 58.6653 20.7779 57.9987 19.7737L58.0423 19.7811C58.2781 19.8208 58.5156 19.8633 58.755 19.9086C58.9943 19.9539 59.2354 20.0017 59.4783 20.052C59.7204 20.1019 59.952 20.1582 60.1931 20.2219C60.7613 20.2506 60.9876 20.0095 61.0651 19.7408C61.1103 19.5642 61.114 19.3795 61.0757 19.2012C61.8968 18.7084 61.4124 17.9522 61.4124 17.9522C61.5417 17.8651 61.6474 17.7474 61.7201 17.6094C61.7927 17.4715 61.8301 17.3178 61.8288 17.1619C61.8377 16.9968 61.8157 16.8315 61.764 16.6744L61.7512 16.6224L61.9637 16.4248L61.8989 16.3335C61.8989 16.3335 61.8309 16.2676 61.8341 16.2432L61.576 16.3717L61.5314 16.3409C61.3993 16.2424 61.2528 16.165 61.097 16.1115C60.9536 16.0538 60.798 16.0333 60.6447 16.0519C60.4913 16.0704 60.3451 16.1275 60.2196 16.2177C60.1916 16.1787 60.1591 16.1431 60.123 16.1115C60.042 16.0388 59.9503 15.9789 59.8511 15.9341C59.6185 15.8279 59.2945 15.8056 58.9196 16.103C58.77 16.0022 58.5985 15.9389 58.4193 15.9182C58.1485 15.8948 57.8415 16.0191 57.6641 16.5671C57.6025 17.0628 57.5339 17.5485 57.4581 18.0244C57.423 18.2591 57.3721 18.5023 57.3243 18.7392C57.3243 18.753 57.3243 18.7668 57.3158 18.7806C56.6082 17.8074 55.8379 16.8814 55.0099 16.0084C55.2634 16.0042 55.5193 16.0042 55.7778 16.0084C56.2632 16.0169 56.7465 16.0424 57.2435 16.0732C57.8128 15.9999 57.987 15.7195 58.02 15.4476C58.0329 15.266 58.0023 15.084 57.9307 14.9166C58.2908 14.5979 58.3259 14.2793 58.2685 14.0297C58.2445 13.9236 58.2005 13.823 58.1389 13.7334C58.1136 13.694 58.0852 13.6567 58.0539 13.6218C58.1666 13.5143 58.2503 13.38 58.2971 13.2314C58.3439 13.0828 58.3523 12.9248 58.3216 12.7721C58.2981 12.6087 58.2494 12.45 58.1772 12.3016L58.1559 12.2506L58.329 12.0201L58.2515 11.9383C58.2515 11.9383 58.175 11.8842 58.175 11.8587L57.9435 12.0286L57.8925 12.0084C57.7438 11.9353 57.5848 11.8855 57.4209 11.8608C57.2685 11.8306 57.111 11.8388 56.9627 11.8848C56.8143 11.9308 56.6797 12.0131 56.5712 12.1242C56.4543 12.0218 56.3161 11.9466 56.1665 11.9044C56.0304 11.8662 55.8861 11.8684 55.7512 11.9107C55.567 11.9706 55.4032 12.081 55.2786 12.2294C55.1111 12.1581 54.9292 12.1271 54.7475 12.1391C54.4745 12.1656 54.192 12.343 54.1155 12.9091C54.1687 13.6526 54.1729 14.411 54.158 15.1449C53.2913 14.3071 52.3709 13.5266 51.4029 12.8082L51.4485 12.7987C51.6875 12.7509 51.9201 12.7169 52.1602 12.6776C52.6381 12.6043 53.1288 12.5342 53.6227 12.48C54.1644 12.3165 54.294 12.0074 54.2781 11.7302C54.2696 11.607 54.2368 11.4868 54.1814 11.3765C54.1571 11.3253 54.1291 11.2759 54.0975 11.2288C54.7008 10.4853 53.9913 9.93197 53.9913 9.93197C54.084 9.80688 54.1437 9.66038 54.1647 9.50607C54.1856 9.35176 54.1673 9.19466 54.1113 9.04934C54.0583 8.89417 53.9812 8.74829 53.8829 8.61705L53.8532 8.57138L53.9838 8.3154L53.8914 8.24955C53.8914 8.24955 53.8065 8.21025 53.8012 8.18582L53.6025 8.39294L53.5505 8.38019C53.3939 8.33054 53.2304 8.3058 53.0662 8.3069C52.9101 8.30381 52.7557 8.33969 52.617 8.41127C52.4783 8.48286 52.3596 8.5879 52.2717 8.71689C52.2717 8.71689 51.5165 8.23256 51.0173 9.04828C50.8434 9.00152 50.6602 9.00152 50.4862 9.04828C50.2207 9.12475 49.9722 9.34992 49.9976 9.91604C50.0582 10.1508 50.1039 10.3983 50.158 10.6394C50.2122 10.8805 50.2536 11.1216 50.2972 11.3595C50.3407 11.5974 50.3821 11.8343 50.4214 12.069L50.4278 12.1168C49.4293 11.4417 48.3872 10.8336 47.3083 10.2963C47.5462 10.2071 47.7863 10.121 48.0306 10.0339C48.2749 9.94684 48.4947 9.87037 48.7284 9.79814C48.9621 9.72592 49.1947 9.65794 49.4326 9.59103C49.9403 9.33186 50.0136 9.00579 49.9477 8.74132C49.8989 8.566 49.8098 8.40451 49.6875 8.26973C50.1591 7.42002 49.3582 7.01748 49.3582 7.01748C49.4268 6.87751 49.4595 6.72269 49.4534 6.56695C49.4473 6.41121 49.4025 6.25943 49.3232 6.12528C49.2688 6.02271 49.2036 5.92622 49.1288 5.83744C49.0968 5.79884 49.0612 5.76329 49.0226 5.73123L48.9844 5.69299L49.0683 5.4179L48.9621 5.37117C48.9621 5.37117 48.8707 5.3478 48.8559 5.32549L48.6955 5.56554H48.6413C48.4774 5.5464 48.3115 5.55285 48.1495 5.58465C47.9963 5.60642 47.8511 5.66651 47.7272 5.75934C47.6034 5.85217 47.505 5.97475 47.4411 6.11572C47.3982 6.09747 47.3537 6.0829 47.3083 6.07217C47.2025 6.04541 47.0927 6.03856 46.9844 6.05199C46.7316 6.07961 46.4374 6.22087 46.2611 6.66484C46.0792 6.65261 45.897 6.6843 45.73 6.75725C45.4825 6.87408 45.2786 7.13537 45.3997 7.69724C45.5944 8.15467 45.7778 8.60749 45.9499 9.05571C46.0369 9.3 46.1209 9.54323 46.2016 9.7854C45.1088 9.29868 43.9851 8.88461 42.8378 8.54589L42.8739 8.52358C43.081 8.40037 43.2935 8.26867 43.5038 8.15714C43.9286 7.92631 44.3627 7.69936 44.8059 7.47632C45.2627 7.12687 45.2775 6.79549 45.166 6.54695C45.0862 6.38502 44.969 6.24447 44.824 6.13696C44.9791 5.68556 44.8463 5.38816 44.6721 5.20335C44.5968 5.12415 44.5093 5.05746 44.4129 5.00579C44.3726 4.98186 44.3294 4.96295 44.2844 4.9495C44.3279 4.80103 44.333 4.644 44.2994 4.49301C44.2658 4.34203 44.1945 4.202 44.0922 4.08598C43.9891 3.95725 43.8666 3.84543 43.7289 3.7546L43.6875 3.71742L43.7215 3.43171L43.6153 3.40091C43.6153 3.40091 43.5218 3.39241 43.5091 3.3701L43.3944 3.63351L43.3402 3.63882C43.2915 3.63992 43.2429 3.64418 43.1947 3.65157C43.0797 3.66675 42.9672 3.6971 42.8601 3.74185C42.7125 3.7926 42.5797 3.87925 42.4739 3.99402C42.368 4.10878 42.2923 4.24805 42.2536 4.39931C42.2536 4.39931 41.3784 4.19751 41.1915 5.13537L41.1437 5.14068C41.114 5.14599 41.0715 5.15449 41.0226 5.1683C40.9024 5.20109 40.7888 5.25465 40.687 5.32655C40.4629 5.488 40.3078 5.78433 40.5266 6.30903C40.8017 6.70945 41.0577 7.13962 41.3041 7.55916C41.4259 7.77159 41.5455 7.98083 41.6631 8.18688L41.6843 8.22512C40.5151 7.93576 39.3283 7.72288 38.1315 7.58784L38.1633 7.56022C38.346 7.40515 38.5308 7.25008 38.7199 7.09607C38.909 6.94206 39.0991 6.78699 39.2945 6.63298C39.49 6.47897 39.6843 6.34089 39.884 6.19538C40.2706 5.77902 40.2281 5.45189 40.0752 5.21822C39.9691 5.06963 39.8298 4.94781 39.6684 4.8624C39.8192 3.91604 38.9249 3.80027 38.9249 3.80027C38.9413 3.64524 38.9189 3.48858 38.8598 3.34434C38.8006 3.20011 38.7066 3.07282 38.5861 2.97393C38.5 2.89552 38.4056 2.82678 38.3046 2.76894C38.2617 2.74528 38.2174 2.72435 38.1718 2.70627L38.124 2.68396L38.1081 2.39612L37.9955 2.38763C37.9955 2.38763 37.9021 2.39719 37.8893 2.37913L37.8213 2.65953L37.7693 2.67547C37.6089 2.71395 37.4552 2.77663 37.3136 2.86134C37.1775 2.935 37.0621 3.04169 36.9781 3.17161C36.894 3.30153 36.8439 3.45051 36.8325 3.60484C36.6765 3.5979 36.5213 3.63157 36.3821 3.70255C36.1538 3.8162 35.9265 4.04881 35.9137 4.52677C35.7401 4.57806 35.581 4.66979 35.4496 4.79443C35.2573 4.9888 35.1554 5.30425 35.4613 5.79071C35.8012 6.15254 36.129 6.51473 36.4448 6.87727C36.6105 7.07695 36.7727 7.27628 36.9313 7.47525C36.294 7.43171 35.6567 7.40728 35.0077 7.40728C34.4406 7.40728 33.8787 7.4264 33.3211 7.46038L33.3476 7.4264L33.5792 7.14281L33.816 6.87196C34.1347 6.50942 34.4654 6.14688 34.8081 5.78434C35.1182 5.29788 35.0205 4.98242 34.8282 4.78805C34.6984 4.66295 34.5403 4.57112 34.3673 4.52039C34.3524 3.56447 33.456 3.58784 33.456 3.58784C33.446 3.43391 33.3973 3.28499 33.3143 3.15498C33.2313 3.02497 33.1167 2.9181 32.9812 2.84435C32.8405 2.75947 32.6875 2.69678 32.5277 2.65847L32.4756 2.64254L32.4108 2.36214L32.2982 2.37063C32.2982 2.37063 32.208 2.394 32.192 2.37913L32.1729 2.66591L32.1251 2.68928C31.9732 2.75093 31.8323 2.83664 31.7077 2.94313C31.5864 3.04166 31.4914 3.16869 31.4312 3.31288C31.3709 3.45707 31.3473 3.61394 31.3625 3.76947C31.3625 3.76947 30.4714 3.88311 30.6126 4.8316C30.4478 4.90775 30.3062 5.02656 30.2026 5.17573C30.0476 5.40622 30.0019 5.7376 30.3853 6.15502C30.5829 6.29522 30.7794 6.45242 30.9727 6.60643C31.166 6.76044 31.3551 6.91445 31.542 7.06952C31.7289 7.22459 31.9127 7.3786 32.0933 7.53367L32.1283 7.56447C30.9303 7.68962 29.7417 7.89292 28.5701 8.17308C28.6955 7.95215 28.8219 7.73123 28.9536 7.50924C29.0853 7.28726 29.2042 7.08439 29.337 6.88152C29.4698 6.67865 29.6047 6.47366 29.7427 6.26973C29.9647 5.73866 29.8128 5.44764 29.5909 5.28513C29.441 5.1819 29.2689 5.11566 29.0885 5.09182C28.9971 4.62342 28.7316 4.42268 28.4905 4.36001C28.3404 4.32007 28.1832 4.31426 28.0306 4.34302C27.9933 4.19198 27.9191 4.0526 27.8145 3.93745C27.7099 3.82229 27.5783 3.73499 27.4315 3.68343C27.2776 3.6209 27.115 3.58256 26.9493 3.56978L26.8962 3.56235L26.772 3.29257L26.6657 3.32337C26.6657 3.32337 26.5808 3.36479 26.5595 3.35417L26.5914 3.64095L26.5478 3.67281C26.4099 3.76448 26.2867 3.87658 26.1825 4.00526C26.0794 4.12109 26.0072 4.26102 25.9725 4.41212C25.9378 4.56323 25.9417 4.72064 25.9838 4.86984C25.9393 4.88415 25.896 4.90191 25.8543 4.92294C25.7558 4.96857 25.6668 5.03234 25.5919 5.11094C25.4156 5.29682 25.2818 5.59421 25.4326 6.04775C25.2868 6.15539 25.1688 6.29632 25.0885 6.45879C24.9738 6.70733 24.9823 7.03978 25.439 7.39135C25.884 7.61758 26.312 7.83744 26.7348 8.07961C26.9578 8.20919 27.1777 8.34054 27.3944 8.47366C26.2383 8.80519 25.1054 9.21251 24.003 9.69299C24.003 9.67918 24.0115 9.66538 24.0168 9.65157L24.1357 9.30531L24.2643 8.96862C24.4391 8.51898 24.6257 8.06509 24.824 7.60696C24.8841 7.39758 24.8767 7.17458 24.8028 6.96968C24.7438 6.83383 24.6368 6.72452 24.5022 6.66272C24.3352 6.58953 24.1531 6.55748 23.9711 6.56925C23.6302 5.67706 22.7943 6.00632 22.7943 6.00632C22.7325 5.86446 22.6357 5.74067 22.5129 5.64663C22.39 5.5526 22.2452 5.49142 22.0922 5.46888C21.9307 5.43635 21.7651 5.42953 21.6015 5.4487H21.5473L21.3901 5.2076L21.2839 5.25327C21.2839 5.25327 21.2064 5.30744 21.183 5.3L21.2637 5.5751L21.2265 5.61439C21.1892 5.64779 21.1537 5.68325 21.1203 5.72061C21.0417 5.80526 20.9746 5.89989 20.9207 6.00207C20.8406 6.13623 20.7951 6.28811 20.788 6.44416C20.781 6.60021 20.8127 6.75557 20.8803 6.89639C20.8803 6.89639 20.0805 7.30531 20.5383 8.14546L20.5064 8.17945C20.4781 8.20969 20.4525 8.24239 20.4299 8.27717C20.3588 8.37953 20.306 8.49345 20.2738 8.61386C20.2069 8.88152 20.2738 9.20866 20.7826 9.46994C21.251 9.59952 21.7257 9.76734 22.1825 9.92879C22.4257 10.0169 22.6657 10.103 22.9026 10.1943C21.8198 10.7237 20.7728 11.3233 19.7682 11.9893L19.7757 11.9458C19.816 11.71 19.8585 11.4731 19.9031 11.2331C19.9477 10.993 19.9966 10.753 20.0465 10.5108C20.0964 10.2687 20.158 10.0361 20.2165 9.79496C20.2462 9.22778 20.004 9.00048 19.7353 8.92295C19.5587 8.8777 19.374 8.87406 19.1957 8.91232C18.7029 8.09129 17.9477 8.57669 17.9477 8.57669C17.8608 8.44704 17.7429 8.34109 17.6048 8.2684C17.4666 8.19571 17.3125 8.15857 17.1564 8.16033C16.9914 8.15093 16.826 8.17255 16.6689 8.22406L16.6169 8.2368L16.4204 8.02438L16.328 8.08917C16.328 8.08917 16.2621 8.15714 16.2377 8.15396L16.3662 8.41206L16.3365 8.45667C16.2375 8.58857 16.1597 8.73514 16.106 8.89108C16.0481 9.03438 16.0275 9.19 16.0461 9.34342C16.0647 9.49684 16.1218 9.64305 16.2122 9.7684C16.1732 9.79647 16.1376 9.8289 16.106 9.86506C16.0326 9.94575 15.9724 10.0375 15.9276 10.137C15.8213 10.3696 15.8001 10.6935 16.0964 11.0685C15.9957 11.218 15.9323 11.3896 15.9116 11.5687C15.8883 11.8396 16.0178 12.1465 16.5606 12.3239C17.0563 12.3855 17.542 12.4542 18.0178 12.53C18.2526 12.565 18.4969 12.616 18.7337 12.6638L18.7741 12.6723C17.8011 13.3806 16.8751 14.1512 16.0019 14.9792C15.9977 14.7257 15.9977 14.4694 16.0019 14.2103C16.0093 13.7249 16.0359 13.2416 16.0656 12.7445C15.9923 12.1752 15.713 12.001 15.4411 11.9691C15.2596 11.9557 15.0775 11.986 14.91 12.0573C14.5914 11.6972 14.2728 11.6622 14.0231 11.7195C13.9171 11.7438 13.8166 11.7877 13.7268 11.8491C13.6893 11.8747 13.6538 11.9031 13.6206 11.9341C13.5129 11.8216 13.3786 11.7382 13.23 11.6914C13.0815 11.6446 12.9236 11.636 12.7709 11.6664C12.6075 11.6899 12.4488 11.7387 12.3004 11.8109L12.2504 11.8321L12.0359 11.6675L11.9552 11.745C11.9552 11.745 11.8999 11.8215 11.8745 11.8226L12.0455 12.0541L12.0242 12.104C11.9514 12.2527 11.9019 12.4118 11.8776 12.5756C11.8474 12.7279 11.8555 12.8853 11.9013 13.0337C11.9471 13.182 12.0291 13.3166 12.14 13.4253C12.0376 13.5421 11.9629 13.6804 11.9212 13.83C11.8826 13.9664 11.8844 14.111 11.9265 14.2464C11.9867 14.4302 12.0971 14.5935 12.2451 14.718C12.1738 14.8854 12.1429 15.0674 12.1549 15.249C12.1814 15.522 12.3588 15.8045 12.9249 15.881C13.6684 15.8279 14.4268 15.8236 15.1554 15.8385C14.3178 16.7055 13.5373 17.6258 12.8187 18.5937L12.8091 18.548C12.7613 18.309 12.7273 18.0764 12.6891 17.8364C12.6148 17.3595 12.5457 16.8688 12.4905 16.3738C12.3269 15.8321 12.0178 15.7025 11.7406 15.7185C11.6178 15.7269 11.4979 15.7597 11.388 15.8151C11.3364 15.8393 11.2867 15.8673 11.2393 15.899C10.4958 15.2958 9.94243 16.0053 9.94243 16.0053C9.8175 15.9126 9.67118 15.853 9.51706 15.832C9.36293 15.811 9.20601 15.8293 9.06085 15.8852C8.90528 15.9381 8.75903 16.0151 8.62751 16.1136L8.58289 16.1433L8.32586 16.0138L8.26001 16.1051C8.26001 16.1051 8.22071 16.1901 8.19628 16.1954L8.40871 16.394L8.3949 16.4471C8.34576 16.6035 8.32104 16.7665 8.32161 16.9304C8.3189 17.0864 8.35494 17.2406 8.42649 17.3793C8.49804 17.5179 8.60288 17.6367 8.7316 17.7249C8.7316 17.7249 8.24832 18.4811 9.06192 18.9771C9.01551 19.1511 9.01551 19.3342 9.06192 19.5082C9.13945 19.7737 9.36357 20.0223 9.92968 19.9968C10.1644 19.9362 10.4119 19.8905 10.653 19.8374C10.8941 19.7843 11.1352 19.7419 11.3731 19.6972C11.611 19.6526 11.8479 19.6123 12.0826 19.573L12.1304 19.5666C11.4558 20.5653 10.8476 21.6074 10.3099 22.6861C10.2207 22.4482 10.1347 22.2081 10.0476 21.9649C9.96048 21.7217 9.88401 21.4997 9.81178 21.266C9.73956 21.0323 9.67264 20.7997 9.60467 20.5629C9.34551 20.0552 9.01943 19.9808 8.75496 20.0467C8.57964 20.0955 8.41816 20.1846 8.28337 20.3069C7.43367 19.8353 7.03112 20.6362 7.03112 20.6362C6.89134 20.5676 6.73669 20.5349 6.58112 20.541C6.42555 20.5471 6.27394 20.5919 6.13998 20.6712C6.03717 20.7258 5.94034 20.7909 5.85108 20.8656C5.81298 20.8982 5.77747 20.9337 5.74487 20.9718L5.70663 21.009L5.42942 20.924L5.38268 21.0302C5.38268 21.0302 5.36038 21.1216 5.33701 21.1311L5.57705 21.2915V21.3457C5.55792 21.5096 5.56437 21.6755 5.59617 21.8374C5.61813 21.9906 5.67829 22.1358 5.7711 22.2596C5.8639 22.3834 5.98638 22.4818 6.12724 22.5459C6.10957 22.589 6.09502 22.6334 6.08369 22.6787C6.05747 22.7845 6.05064 22.8943 6.06351 23.0026C6.09219 23.2554 6.23239 23.5496 6.67742 23.7259C6.66515 23.9077 6.69647 24.0898 6.76877 24.257C6.8856 24.5045 7.14795 24.7084 7.70876 24.5873C8.16689 24.3933 8.61971 24.2099 9.06723 24.0371C9.31258 23.95 9.55475 23.8672 9.79692 23.7865C9.30723 24.8847 8.89067 26.0141 8.54997 27.1672L8.52766 27.1311C8.40446 26.924 8.27275 26.7116 8.16123 26.5013C7.9311 26.0764 7.70451 25.6424 7.48146 25.1991C7.13096 24.7424 6.79957 24.7275 6.55209 24.839C6.39093 24.9166 6.25016 25.0308 6.14105 25.1725C5.68858 25.0185 5.39118 25.1502 5.20637 25.3255C5.12722 25.4005 5.06053 25.4876 5.00881 25.5836C4.98488 25.624 4.96597 25.6671 4.95252 25.7121C4.80423 25.6687 4.64735 25.6635 4.49653 25.6972C4.34571 25.7308 4.20587 25.8021 4.09007 25.9044C3.96118 26.0076 3.84903 26.1301 3.75762 26.2676L3.72575 26.3112L3.43898 26.2761L3.40817 26.3823C3.40817 26.3823 3.39968 26.4758 3.37844 26.4885L3.64184 26.6043V26.6574C3.64361 26.7061 3.64786 26.7547 3.65459 26.8029C3.66988 26.9183 3.70024 27.0311 3.74487 27.1386C3.79602 27.2859 3.88282 27.4182 3.99753 27.5239C4.11225 27.6295 4.25131 27.7051 4.40233 27.744C4.40233 27.744 4.20159 28.6192 5.13839 28.8061C5.13839 28.8061 5.13839 28.8242 5.13839 28.8539C5.16831 29.0173 5.23158 29.1728 5.32427 29.3106C5.48677 29.5347 5.78205 29.6898 6.30674 29.4721C6.70823 29.1959 7.13733 28.941 7.55687 28.6946C7.7693 28.5714 7.97854 28.4514 8.18459 28.3345L8.22389 28.3133C7.93361 29.4823 7.72073 30.6691 7.58661 31.8661L7.55793 31.8343C7.40286 31.6516 7.24885 31.4668 7.09378 31.2788C6.93871 31.0908 6.7847 30.8985 6.63175 30.7041C6.47881 30.5098 6.33967 30.3133 6.19309 30.1136C5.77673 29.727 5.4496 29.7695 5.21593 29.9224C5.06735 30.0285 4.94552 30.1678 4.86011 30.3292C3.91375 30.1794 3.79798 31.0727 3.79798 31.0727C3.64295 31.0563 3.48629 31.0787 3.34205 31.1378C3.19782 31.197 3.07054 31.291 2.97164 31.4115C2.89323 31.4976 2.82449 31.592 2.76664 31.693C2.74356 31.736 2.72299 31.7803 2.70504 31.8258L2.68167 31.8736L2.3949 31.8905L2.3864 32.0021C2.3864 32.0021 2.39596 32.0955 2.3779 32.1083L2.65831 32.1763L2.67318 32.2283C2.71146 32.3888 2.77414 32.5425 2.85905 32.684C2.93279 32.82 3.0395 32.9353 3.1694 33.0194C3.29931 33.1035 3.44824 33.1536 3.60255 33.1651C3.59561 33.3212 3.62928 33.4763 3.70026 33.6155C3.81391 33.8438 4.04758 34.0711 4.52448 34.0849C4.57592 34.2582 4.66764 34.4169 4.79213 34.548C4.98651 34.7403 5.30302 34.8422 5.78842 34.5363C6.15167 34.1964 6.51386 33.8686 6.87498 33.5528C7.07466 33.3871 7.27434 33.2249 7.47403 33.0663C7.42942 33.7036 7.40676 34.3448 7.40605 34.9899C7.40605 35.557 7.42517 36.1189 7.45809 36.6776L7.4241 36.65L7.15007 36.4312L6.87923 36.1954C6.51669 35.8767 6.15415 35.5457 5.7916 35.2023C5.30515 34.8921 4.98969 34.9899 4.79532 35.1821C4.67066 35.3122 4.57889 35.4703 4.52766 35.6431C3.57174 35.6579 3.59511 36.5554 3.59511 36.5554C3.44123 36.5651 3.2923 36.6136 3.16227 36.6964C3.03224 36.7793 2.92535 36.8937 2.85162 37.0292C2.76674 37.1699 2.70405 37.3229 2.66574 37.4827L2.64981 37.5347L2.37047 37.5995L2.37897 37.7121C2.37897 37.7121 2.4034 37.8035 2.38746 37.8183L2.67424 37.8374L2.69761 37.8863C2.75941 38.0378 2.84512 38.1783 2.95146 38.3027C3.0501 38.4242 3.17728 38.5194 3.32164 38.5798C3.46601 38.6402 3.62308 38.6639 3.77886 38.6489C3.77886 38.6489 3.89145 39.539 4.841 39.3924C4.91709 39.5573 5.03545 39.6991 5.18406 39.8035C5.41455 39.9575 5.74593 40.0031 6.16335 39.6197C6.30355 39.4232 6.46181 39.2257 6.61476 39.0334C6.76771 38.8412 6.92278 38.65 7.07785 38.463C7.23292 38.2761 7.38693 38.0924 7.54307 37.9118L7.57387 37.8767C7.69814 39.0748 7.90109 40.2634 8.18141 41.4349C7.96155 41.3106 7.73956 41.1832 7.51757 41.0515C7.29559 40.9198 7.09272 40.8008 6.88985 40.668C6.68698 40.5353 6.48306 40.4004 6.27806 40.2623C5.747 40.0403 5.45597 40.1933 5.29346 40.4142C5.19082 40.5647 5.12464 40.7371 5.10016 40.9176C4.63282 41.0079 4.43101 41.2734 4.36834 41.5146C4.3284 41.6647 4.32259 41.8218 4.35135 41.9745C4.20032 42.0117 4.06093 42.086 3.94578 42.1905C3.83063 42.2951 3.74333 42.4267 3.69176 42.5735C3.62982 42.7276 3.59151 42.8902 3.57812 43.0557L3.57068 43.1099L3.3009 43.2288L3.33064 43.3351C3.33064 43.3351 3.37206 43.42 3.36144 43.4413L3.64822 43.4094L3.68114 43.4529C3.77205 43.5908 3.88385 43.7137 4.01253 43.8173C4.12852 43.9204 4.26863 43.9927 4.41992 44.0274C4.57121 44.0621 4.72881 44.0581 4.87817 44.0159C4.89185 44.0608 4.90926 44.1045 4.93021 44.1465C4.97643 44.2449 5.04054 44.3339 5.11927 44.4089C5.30409 44.5841 5.60148 44.7179 6.05501 44.5671C6.1628 44.7131 6.30367 44.8314 6.46606 44.9123C6.7146 45.026 7.04705 45.0132 7.39861 44.5608C7.62485 44.1168 7.84471 43.6877 8.08688 43.265C8.21788 43.0419 8.34923 42.8224 8.48093 42.6064C8.81224 43.7624 9.2192 44.8953 9.6992 45.9978L9.65777 45.984L9.31152 45.8651L8.97482 45.7365C8.5266 45.5609 8.07271 45.3744 7.61316 45.1768C7.40372 45.1173 7.1809 45.1247 6.97588 45.198C6.83996 45.2574 6.73069 45.3648 6.66893 45.4997C6.59663 45.6647 6.56495 45.8446 6.57652 46.0244C5.68327 46.3664 6.01359 47.2012 6.01359 47.2012C5.87153 47.2628 5.74752 47.3596 5.65329 47.4824C5.55907 47.6053 5.49773 47.7501 5.47509 47.9033C5.44319 48.0649 5.43639 48.2304 5.45491 48.394V48.4482L5.2138 48.6054L5.26054 48.7116C5.26054 48.7116 5.31365 48.7891 5.30621 48.8125L5.58236 48.7318L5.6206 48.77C5.65384 48.8075 5.68931 48.843 5.72682 48.8762C5.81139 48.9549 5.90604 49.0221 6.00828 49.0759C6.14235 49.1561 6.29418 49.2018 6.45023 49.209C6.60628 49.2163 6.76169 49.1848 6.9026 49.1173C6.9026 49.1173 7.31258 49.916 8.15167 49.4583L8.18566 49.4912C8.21624 49.5188 8.24891 49.544 8.28337 49.5666C8.38574 49.6377 8.49965 49.6905 8.62007 49.7227C8.88879 49.7896 9.21486 49.7227 9.47615 49.214C9.60679 48.7456 9.77355 48.2708 9.93499 47.8151C10.0231 47.5708 10.1092 47.3319 10.2005 47.0939C10.7297 48.1769 11.3293 49.2239 11.9955 50.2283L11.952 50.2209C11.7162 50.1812 11.479 50.1387 11.2404 50.0934C11.0017 50.0481 10.7606 50.0003 10.517 49.95C10.2738 49.9001 10.0423 49.8438 9.80223 49.7801C9.23398 49.7503 9.00775 49.9925 8.93021 50.2612C8.88426 50.4377 8.88026 50.6225 8.91853 50.8008C8.0975 51.2936 8.58289 52.0499 8.58289 52.0499C8.4536 52.1369 8.3479 52.2547 8.27524 52.3926C8.20258 52.5305 8.16524 52.6842 8.16654 52.8401C8.15764 53.0051 8.17924 53.1704 8.23027 53.3276L8.24301 53.3797L8.03059 53.5762L8.09537 53.6686C8.09537 53.6686 8.16335 53.7344 8.16017 53.7588L8.41826 53.6303L8.46394 53.6611C8.59556 53.7597 8.74178 53.8371 8.89729 53.8905C9.04062 53.9482 9.19621 53.9687 9.34959 53.9502C9.50298 53.9316 9.64918 53.8745 9.77461 53.7843C9.80309 53.823 9.83548 53.8586 9.87126 53.8905C9.95253 53.9634 10.0446 54.0233 10.1442 54.0679C10.3758 54.1741 10.7008 54.1964 11.0747 53.899C11.2244 53.9995 11.3959 54.0629 11.5749 54.0839C11.8458 54.1072 12.1538 53.9776 12.3312 53.4349C12.3914 52.9392 12.46 52.4535 12.5372 51.9776C12.5723 51.7429 12.6222 51.4997 12.67 51.2628C12.67 51.248 12.6764 51.2352 12.6785 51.2214C13.3868 52.1943 14.1574 53.1203 14.9854 53.9936C14.7319 53.9978 14.4756 53.9978 14.2165 53.9936C13.7311 53.9851 13.2478 53.9585 12.7507 53.9288C12.1814 54.0021 12.0072 54.2814 11.9754 54.5533C11.9626 54.7348 11.9928 54.9168 12.0635 55.0844C11.7034 55.403 11.6684 55.7217 11.7257 55.9713C11.763 56.1222 11.8358 56.2621 11.9382 56.3791C11.8255 56.4867 11.7418 56.621 11.695 56.7696C11.6482 56.9181 11.6398 57.0761 11.6705 57.2288C11.6946 57.3922 11.7437 57.5509 11.816 57.6994L11.8362 57.7503L11.6631 57.9808L11.7417 58.0626C11.7417 58.0626 11.8171 58.1168 11.8182 58.1423L12.0497 57.9723L12.0996 57.9925C12.2487 58.0655 12.4081 58.1153 12.5723 58.1402C12.7246 58.1704 12.8821 58.1622 13.0305 58.1162C13.1789 58.0702 13.3134 57.9879 13.422 57.8767C13.5384 57.9793 13.6763 58.0545 13.8256 58.0966C13.9621 58.1348 14.1067 58.1326 14.2419 58.0902C14.4257 58.03 14.5891 57.9196 14.7135 57.7716C14.881 57.8429 15.063 57.8738 15.2446 57.8619C15.5176 57.8353 15.8001 57.6579 15.8819 57.0918C15.8288 56.3483 15.8245 55.59 15.8405 54.8613C16.7069 55.6992 17.6268 56.4797 18.5946 57.198L18.55 57.2076C18.3099 57.2554 18.0773 57.2894 17.8373 57.3287C17.3604 57.402 16.8697 57.4721 16.3747 57.5262C15.8341 57.6898 15.7034 57.9989 15.7194 58.2761C15.7283 58.3992 15.7611 58.5193 15.816 58.6298C15.8404 58.6812 15.8688 58.7306 15.901 58.7774C15.2977 59.5209 16.0072 60.0743 16.0072 60.0743C15.9145 60.1994 15.8548 60.3459 15.8338 60.5002C15.8129 60.6545 15.8312 60.8116 15.8872 60.9569C15.9406 61.1119 16.0176 61.2577 16.1156 61.3892L16.1464 61.4349L16.0157 61.6909L16.1071 61.7567C16.1071 61.7567 16.192 61.796 16.1973 61.8204L16.397 61.608L16.4491 61.6218C16.6054 61.671 16.7684 61.6957 16.9323 61.6951C17.0883 61.6978 17.2426 61.6618 17.3812 61.5902C17.5199 61.5187 17.6386 61.4139 17.7268 61.2851C17.7268 61.2851 18.4831 61.7695 18.9823 60.9537C19.1562 61.0002 19.3393 61.0002 19.5133 60.9537C19.7799 60.8773 20.0274 60.6521 20.0019 60.086C19.9414 59.8513 19.8957 59.6038 19.8426 59.3627C19.7895 59.1216 19.747 58.8805 19.7024 58.6425C19.6578 58.4046 19.6174 58.1678 19.5792 57.933C19.5792 57.9171 19.5792 57.9012 19.5717 57.8852C20.5715 58.5554 21.6142 59.1589 22.6934 59.6919C22.4565 59.7812 22.2165 59.8672 21.9722 59.9543C21.7279 60.0414 21.507 60.1178 21.2743 60.1901C21.0417 60.2623 20.807 60.3303 20.5701 60.4025C20.0624 60.6617 19.9892 60.9877 20.0539 61.2522C20.1028 61.4275 20.1919 61.589 20.3142 61.7238C19.8436 62.5735 20.6445 62.976 20.6445 62.976C20.5758 63.1157 20.5429 63.2703 20.5488 63.4259C20.5547 63.5815 20.5993 63.7331 20.6785 63.8672C20.7332 63.9689 20.7984 64.0646 20.8729 64.1529C20.9051 64.1913 20.9406 64.2269 20.9791 64.2591L21.0162 64.2973L20.9334 64.5724L21.0396 64.6192C21.0396 64.6192 21.131 64.6425 21.1458 64.6648L21.3051 64.4248H21.3593C21.5236 64.444 21.6899 64.4376 21.8521 64.4057C22.0052 64.3837 22.1502 64.3236 22.2739 64.2308C22.3975 64.1379 22.4957 64.0154 22.5595 63.8746C22.6025 63.8929 22.6469 63.9074 22.6923 63.9182C22.7981 63.9449 22.9079 63.9518 23.0162 63.9383C23.2701 63.9107 23.5643 63.7695 23.7396 63.3255C23.9214 63.3376 24.1035 63.3059 24.2706 63.2331C24.517 63.1163 24.721 62.855 24.6009 62.2931C24.3949 61.8335 24.2073 61.38 24.038 60.9325C23.9509 60.6882 23.8681 60.445 23.7874 60.2028C24.8856 60.6925 26.015 61.1091 27.1681 61.4498L27.132 61.4721C26.926 61.5953 26.7125 61.727 26.5032 61.8385C26.0784 62.0686 25.644 62.2952 25.2 62.5183C24.7433 62.8688 24.7284 63.2002 24.841 63.4476C24.9205 63.61 25.0378 63.7509 25.183 63.8587C25.0279 64.3101 25.1596 64.6022 25.3349 64.7923C25.4101 64.8712 25.4972 64.9379 25.593 64.9899C25.6334 65.0138 25.6765 65.0327 25.7215 65.0461C25.6783 65.1947 25.6734 65.3518 25.7072 65.5027C25.741 65.6537 25.8124 65.7937 25.9148 65.9097C26.018 66.0379 26.1401 66.1496 26.277 66.2411L26.3205 66.274L26.2866 66.5597L26.3928 66.5905C26.3928 66.5905 26.4862 66.599 26.499 66.6202L26.6148 66.3579H26.6679C26.7169 66.3561 26.7658 66.3519 26.8144 66.3451C26.9294 66.3297 27.0419 66.2993 27.149 66.2549C27.2963 66.2037 27.4287 66.1169 27.5343 66.0022C27.64 65.8875 27.7156 65.7484 27.7544 65.5974C27.7544 65.5974 28.6296 65.7992 28.8166 64.8613H28.8633C28.893 64.856 28.9355 64.8475 28.9844 64.8337C29.1049 64.8008 29.2188 64.7472 29.3211 64.6755C29.5441 64.513 29.6992 64.2177 29.4815 63.693C29.2064 63.2926 28.9504 62.8624 28.704 62.4429C28.5808 62.2304 28.4611 62.0212 28.345 61.8151L28.3227 61.7758C29.4918 62.0656 30.6786 62.2785 31.8755 62.4131L31.8436 62.4407C31.662 62.5958 31.4761 62.7509 31.2882 62.9049C31.1002 63.0589 30.9079 63.214 30.7135 63.368C30.5192 63.522 30.3237 63.6601 30.1241 63.8056C29.7364 64.2219 29.7789 64.5491 29.9318 64.7827C30.0379 64.9313 30.1772 65.0532 30.3386 65.1386C30.1888 66.0849 31.0821 66.2007 31.0821 66.2007C31.0657 66.3557 31.0881 66.5124 31.1472 66.6566C31.2064 66.8008 31.3004 66.9281 31.4209 67.027C31.5073 67.1055 31.602 67.1742 31.7034 67.232C31.7459 67.2555 31.7899 67.2761 31.8351 67.2936L31.884 67.317L31.8999 67.6038L32.0062 67.6133C32.0062 67.6133 32.1007 67.6027 32.1177 67.6218L32.1846 67.3414L32.2366 67.3255C32.3986 67.2834 32.5531 67.2164 32.6944 67.1269C32.8307 67.0534 32.9463 66.9468 33.0304 66.8168C33.1145 66.6869 33.1644 66.5378 33.1756 66.3834C33.3316 66.3903 33.4868 66.3566 33.6259 66.2857C33.8543 66.172 34.0816 65.9394 34.0954 65.4614C34.2687 65.41 34.4274 65.3183 34.5585 65.1938C34.7507 64.9994 34.8527 64.684 34.5478 64.1975C34.2065 63.8357 33.8783 63.4735 33.5632 63.1109C33.3975 62.9113 33.2361 62.7116 33.0768 62.513C33.7141 62.5565 34.3513 62.5809 35.0014 62.5809C35.5675 62.5809 36.1294 62.5618 36.688 62.5278L36.4299 62.8454L36.1931 63.1162C35.8744 63.4788 35.5434 63.8413 35.2 64.2039C34.8899 64.6903 34.9876 65.0058 35.1798 65.2002C35.3101 65.3246 35.4681 65.4164 35.6408 65.4678C35.6567 66.4237 36.5532 66.4004 36.5532 66.4004C36.5629 66.5544 36.6115 66.7034 36.6946 66.8334C36.7776 66.9634 36.8923 67.0703 37.0279 67.1439C37.1687 67.2287 37.3216 67.2914 37.4815 67.3297L37.5324 67.3457L37.5983 67.6261L37.7098 67.6176C37.7098 67.6176 37.8012 67.5942 37.816 67.6091L37.8341 67.3223L37.8829 67.2989C38.0347 67.237 38.1756 67.1513 38.3004 67.0451C38.4212 66.9459 38.5158 66.8186 38.576 66.6744C38.6362 66.5301 38.66 66.3733 38.6456 66.2177C38.6456 66.2177 39.5356 66.1051 39.3891 65.1556C39.5541 65.0793 39.696 64.9605 39.8001 64.8114C39.9541 64.5809 39.9998 64.2495 39.6174 63.8321C39.4199 63.6919 39.2234 63.5347 39.0301 63.3807C38.8367 63.2267 38.6466 63.0727 38.4597 62.9176C38.2728 62.7626 38.089 62.6086 37.9084 62.4535L37.8734 62.4227C39.0714 62.2976 40.26 62.0943 41.4315 61.8141C41.3073 62.0339 41.1798 62.2559 41.0481 62.4779C40.9164 62.6999 40.7985 62.9028 40.6657 63.1056C40.533 63.3085 40.3981 63.5135 40.2589 63.7174C40.0369 64.2485 40.1899 64.5395 40.4119 64.702C40.562 64.8047 40.7341 64.8709 40.9143 64.8953C41.0056 65.3637 41.2701 65.5645 41.5112 65.6271C41.6613 65.6671 41.8185 65.6729 41.9711 65.6441C42.0084 65.7953 42.0827 65.9348 42.1875 66.05C42.2923 66.1652 42.4242 66.2524 42.5712 66.3037C42.7247 66.3663 42.8871 66.4046 43.0524 66.4174L43.1065 66.4248L43.2191 66.6893L43.3253 66.6585C43.3253 66.6585 43.4103 66.6171 43.4315 66.6277L43.3997 66.3409L43.4432 66.309C43.5809 66.2175 43.7038 66.1054 43.8075 65.9766C43.9106 65.8607 43.9828 65.7208 44.0175 65.5697C44.0522 65.4186 44.0483 65.2612 44.0062 65.112C44.051 65.0976 44.0946 65.0799 44.1368 65.0589C44.235 65.0127 44.3239 64.949 44.3991 64.8709C44.5744 64.685 44.7093 64.3876 44.5585 63.9341C44.704 63.8261 44.8219 63.6853 44.9026 63.5231C45.0162 63.2745 45.0035 62.9421 44.551 62.5905C44.1071 62.3643 43.678 62.1444 43.2552 61.9022C43.0322 61.7716 42.8134 61.6409 42.5967 61.5082C43.7527 61.1765 44.8856 60.7692 45.9881 60.2888C45.9881 60.3027 45.9785 60.3165 45.9743 60.3303L45.8543 60.6765L45.7257 61.0132C45.5501 61.4629 45.3639 61.9167 45.1671 62.3749C45.1064 62.5842 45.1139 62.8074 45.1883 63.0122C45.2469 63.1482 45.3541 63.2577 45.4889 63.3191C45.6539 63.3914 45.8338 63.4231 46.0136 63.4115C46.3556 64.3048 47.1904 63.9755 47.1904 63.9755C47.2524 64.1172 47.3493 64.2408 47.4721 64.3348C47.5949 64.4288 47.7396 64.4901 47.8925 64.513C48.0541 64.5449 48.2196 64.5517 48.3832 64.5331H48.4374L48.5956 64.7742L48.7019 64.7286C48.7019 64.7286 48.7794 64.6744 48.8081 64.6818L48.7263 64.4067L48.7645 64.3674C48.802 64.3342 48.8375 64.2987 48.8707 64.2612C48.9497 64.1769 49.0169 64.0822 49.0704 63.9798C49.1506 63.8457 49.1963 63.6939 49.2036 63.5378C49.2108 63.3818 49.1793 63.2264 49.1118 63.0855C49.1118 63.0855 49.9106 62.6765 49.4528 61.8364L49.4857 61.8024C49.5133 61.7718 49.5385 61.7391 49.5611 61.7047C49.6327 61.6026 49.6855 61.4886 49.7173 61.368C49.7842 61.1003 49.7172 60.7732 49.2095 60.5119C48.7411 60.3823 48.2664 60.2145 47.8097 60.0531C47.5654 59.9649 47.3264 59.8789 47.0885 59.7875C48.1715 59.2586 49.2186 58.659 50.2228 57.9925L50.2164 58.0361C50.1761 58.2719 50.1336 58.5087 50.0879 58.7488C50.0423 58.9888 49.9955 59.2288 49.9445 59.471C49.8936 59.7132 49.8383 59.9458 49.7746 60.1869C49.7459 60.7541 49.987 60.9814 50.2558 61.0578C50.4322 61.1038 50.617 61.1078 50.7953 61.0695C51.2881 61.8905 52.0444 61.4052 52.0444 61.4052C52.1311 61.5348 52.2488 61.6407 52.3868 61.7134C52.5247 61.7861 52.6787 61.8233 52.8346 61.8215C52.9997 61.831 53.1651 61.8094 53.3221 61.7578L53.3742 61.745L53.5717 61.9575L53.6631 61.8927C53.6631 61.8927 53.7289 61.8247 53.7534 61.8279L53.6259 61.5698L53.6556 61.5252C53.7542 61.393 53.8319 61.2465 53.8861 61.0908C53.944 60.9475 53.9646 60.7918 53.946 60.6384C53.9275 60.485 53.8703 60.3388 53.7799 60.2134C53.8189 60.1854 53.8545 60.1529 53.8861 60.1168C53.9588 60.0358 54.0187 59.9441 54.0635 59.8449C54.1697 59.6123 54.192 59.2883 53.8946 58.9134C53.9954 58.7637 54.0591 58.5923 54.0805 58.4131C54.1028 58.1423 53.9743 57.8353 53.4305 57.6579C52.9348 57.5963 52.4494 57.5276 51.9743 57.4519C51.7385 57.4168 51.4953 57.3659 51.2584 57.3181L51.217 57.3096C52.1903 56.6033 53.1167 55.8345 53.9902 55.0079C53.9945 55.2614 53.9945 55.5177 53.9902 55.7769C53.9828 56.2623 53.9562 56.7456 53.9254 57.2426C53.9987 57.812 54.2791 57.9861 54.551 58.018C54.7326 58.0316 54.9147 58.0014 55.0821 57.9298C55.4007 58.2899 55.7194 58.325 55.969 58.2676C56.1199 58.2304 56.2598 58.1575 56.3768 58.0552C56.4844 58.1679 56.6187 58.2515 56.7673 58.2983C56.9158 58.3451 57.0738 58.3535 57.2265 58.3228C57.3903 58.2991 57.5494 58.25 57.6981 58.1773L57.748 58.1571L57.9785 58.3303L58.0603 58.2527C58.0603 58.2527 58.1145 58.1763 58.14 58.1752L57.97 57.9437L57.9913 57.8937C58.0636 57.7448 58.113 57.5858 58.1379 57.4221C58.1681 57.2698 58.1599 57.1123 58.1139 56.9639C58.0679 56.8155 57.9856 56.681 57.8744 56.5724C57.9769 56.4556 58.052 56.3173 58.0943 56.1678C58.1322 56.0313 58.1304 55.8869 58.089 55.7514C58.0282 55.5679 57.9179 55.4047 57.7704 55.2798C57.8417 55.1123 57.8726 54.9304 57.8606 54.7488C57.8341 54.4758 57.6567 54.1933 57.0906 54.1115C56.3471 54.1646 55.5898 54.1688 54.8548 54.1529C55.6875 53.2891 56.4631 52.3719 57.1766 51.4073L57.1862 51.4529C57.235 51.6919 57.268 51.9245 57.3073 52.1646C57.3806 52.6415 57.4507 53.1322 57.5059 53.6271C57.6684 54.1688 57.9775 54.2984 58.2494 54.2825C58.3725 54.2741 58.4928 54.2412 58.6031 54.1858C58.6547 54.1617 58.7044 54.1336 58.7518 54.1019C59.4953 54.7041 60.0476 53.9957 60.0476 53.9957C60.1727 54.0885 60.3192 54.1481 60.4735 54.1691C60.6278 54.1901 60.7849 54.1717 60.9302 54.1157C61.0852 54.0623 61.231 53.9853 61.3625 53.8874L61.4082 53.8576L61.6652 53.9872L61.73 53.8959C61.73 53.8959 61.7693 53.8109 61.7948 53.8056L61.5824 53.607L61.5951 53.5539C61.6448 53.3976 61.6696 53.2345 61.6684 53.0706C61.6716 52.9145 61.6357 52.7601 61.5642 52.6213C61.4926 52.4826 61.3875 52.3639 61.2584 52.2761C61.2584 52.2761 61.7427 51.5199 60.9281 51.0207C60.9748 50.8467 60.9748 50.6635 60.9281 50.4896C60.8516 50.2241 60.6264 49.9755 60.0603 50.001C59.8256 50.0616 59.5781 50.1072 59.337 50.1603C59.0959 50.2134 58.8559 50.2559 58.6169 50.3005C58.3779 50.3451 58.1421 50.3855 57.9074 50.4248L57.8606 50.4312C58.5349 49.4322 59.143 48.3901 59.6811 47.3117C59.7696 47.5489 59.8567 47.7893 59.9424 48.0329C60.0221 48.2634 60.106 48.4981 60.1782 48.7307C60.2504 48.9633 60.3184 49.198 60.3853 49.4349C60.6456 49.9426 60.9706 50.0169 61.235 49.9511C61.41 49.9021 61.5711 49.813 61.7056 49.6909C62.5553 50.1614 62.9589 49.3616 62.9589 49.3616C63.0987 49.4302 63.2533 49.4629 63.4089 49.4568C63.5645 49.4507 63.7161 49.4059 63.85 49.3266C63.9527 49.2718 64.0495 49.2066 64.1389 49.1322C64.1773 49.0998 64.2128 49.0643 64.2451 49.026L64.2844 48.9888L64.5585 49.0716L64.6052 48.9654C64.6052 48.9654 64.6286 48.8741 64.6509 48.8645L64.4108 48.7041V48.65C64.4301 48.4861 64.424 48.3202 64.3928 48.1582C64.3707 48.0051 64.3105 47.8599 64.2177 47.7361C64.1249 47.6124 64.0025 47.5139 63.8617 47.4498C63.88 47.4068 63.8945 47.3624 63.9052 47.317C63.9318 47.213 63.939 47.105 63.9265 46.9984C63.8978 46.7456 63.7565 46.4514 63.3126 46.275C63.3246 46.0932 63.2929 45.9111 63.2202 45.744C63.1033 45.4976 62.842 45.2936 62.2802 45.4137C61.8224 45.6091 61.371 45.7928 60.9217 45.9649C60.6774 46.052 60.4342 46.1348 60.1931 46.2156C60.6823 45.1172 61.0989 43.9878 61.44 42.8348L61.4613 42.8709C61.5845 43.077 61.7172 43.2958 61.8277 43.5007C62.0585 43.9256 62.2855 44.3597 62.5085 44.8029C62.858 45.2596 63.1894 45.2745 63.4379 45.163C63.5996 45.0829 63.7401 44.9657 63.8479 44.821C64.3004 44.975 64.5914 44.8433 64.7826 44.668C64.8614 44.5927 64.928 44.5057 64.9801 44.4099C65.0035 44.3694 65.022 44.3263 65.0354 44.2814C65.1838 44.3248 65.3409 44.33 65.4918 44.2964C65.6428 44.2627 65.7829 44.1915 65.8989 44.0892C66.0276 43.9861 66.1394 43.8635 66.2303 43.7259L66.2632 43.6824L66.5489 43.7174L66.5797 43.6112C66.5797 43.6112 66.5893 43.5167 66.6105 43.505L66.3471 43.3892L66.3418 43.3361C66.3408 43.2874 66.3369 43.2388 66.3301 43.1906C66.3139 43.0753 66.2832 42.9626 66.2388 42.855C66.1878 42.7076 66.101 42.5751 65.9863 42.4694C65.8715 42.3638 65.7324 42.2882 65.5813 42.2496C65.5813 42.2496 65.7831 41.3744 64.8452 41.1874C64.8452 41.1874 64.8452 41.1694 64.8399 41.1396C64.8346 41.1099 64.8261 41.0674 64.8123 41.0185C64.78 40.8983 64.7268 40.7847 64.6551 40.6829C64.4926 40.4588 64.1963 40.3037 63.6716 40.5215C63.2712 40.7976 62.841 41.0525 62.4214 41.2989C62.209 41.4221 61.9998 41.5422 61.7937 41.659L61.7555 41.6802C62.0453 40.5112 62.2581 39.3243 62.3928 38.1274L62.4204 38.1593C62.5755 38.342 62.7302 38.5271 62.8845 38.7148C63.0389 38.9024 63.1933 39.0939 63.3476 39.2894C63.5006 39.4848 63.6397 39.6792 63.7852 39.8799C64.2016 40.2665 64.5287 40.2241 64.7624 40.0711C64.911 39.965 65.0328 39.8257 65.1182 39.6643C66.0646 39.8141 66.1803 38.9208 66.1803 38.9208C66.3355 38.9371 66.4923 38.9147 66.6367 38.8555C66.7811 38.7964 66.9086 38.7024 67.0077 38.582C67.0853 38.4952 67.1539 38.4009 67.2127 38.3005C67.2356 38.2574 67.2561 38.2131 67.2743 38.1678L67.2977 38.1189L67.5845 38.103L67.593 37.9915C67.593 37.9915 67.5834 37.8969 67.6015 37.8852L67.3328 37.812ZM59.2435 45.2384C56.7038 51.2737 52.012 56.15 46.079 58.9205C40.1461 61.691 33.3953 62.158 27.1374 60.2309C20.8794 58.3038 15.5609 54.12 12.2143 48.4919C8.86764 42.8638 7.73178 36.1929 9.0272 29.7743C10.3226 23.3558 13.9569 17.6476 19.2244 13.7581C24.4919 9.86849 31.0169 8.07505 37.5324 8.72593C44.0479 9.37682 50.0891 12.4256 54.4831 17.2803C58.8771 22.135 61.3103 28.4493 61.3105 34.9973C61.3146 38.515 60.6117 41.9977 59.2435 45.2384Z" fill="#09232E"/>
<path d="M35.0016 0C15.6707 0 0 15.6707 0 35.0016C0 54.3324 15.6707 70 35.0016 70C54.3324 70 70.0032 54.3293 70.0032 34.9973C70.0032 15.6654 54.3324 0 35.0016 0ZM58.1742 58.171C52.427 63.9025 44.7518 67.2889 36.6441 67.6704C28.5365 68.0519 20.5772 65.4012 14.3172 60.2346C8.05729 55.0681 3.94515 47.756 2.78212 39.7231C1.61909 31.6902 3.48849 23.512 8.02604 16.7822C12.5636 10.0524 19.4442 5.25304 27.3272 3.31936C35.2101 1.38568 43.5306 2.4562 50.6674 6.32233C57.8041 10.1885 63.2458 16.5732 65.932 24.2325C68.6182 31.8917 68.3566 40.2767 65.1981 47.7536C63.5529 51.6478 61.1675 55.1858 58.1742 58.171Z" fill="#09232E"/>
<path d="M35.0017 10.8741C21.6783 10.8741 10.8785 21.675 10.8785 34.9973C10.8785 48.3197 21.6783 59.1216 35.0017 59.1216C48.3251 59.1216 59.1249 48.3207 59.1249 34.9973C59.1249 21.6739 48.3241 10.8741 35.0017 10.8741ZM34.2508 11.7376C34.5004 11.7291 34.751 11.7238 35.0017 11.7238C35.229 11.7238 35.4552 11.7238 35.6815 11.7345L35.6953 12.1476C35.4648 12.1412 35.2332 12.137 35.0017 12.137C34.7468 12.137 34.4929 12.1423 34.2401 12.1508L34.2508 11.7376ZM33.8333 13.3829C33.928 13.3516 34.0128 13.2958 34.079 13.2212C34.1452 13.1466 34.1905 13.0558 34.2104 12.958C34.4738 12.9495 34.7415 12.9432 35.0017 12.9432C35.2449 12.9432 35.4871 12.9432 35.7293 12.9559C35.7463 13.0501 35.7868 13.1384 35.8472 13.2127C35.9076 13.287 35.9857 13.3448 36.0744 13.3808V14.3123L34.9592 15.4264L33.8333 14.3006V13.3829ZM18.5386 18.5374C22.4307 14.6348 27.5856 12.246 33.0792 11.7992V12.2145C21.6751 13.1609 12.6469 22.4779 12.1552 34.0064H11.7494C11.9891 28.1786 14.4163 22.6553 18.5471 18.5374H18.5386ZM33.0792 58.1901C27.4276 57.7274 22.1399 55.2148 18.2115 51.1255C14.2832 47.0361 11.9849 41.6518 11.7494 35.9862H12.1626C12.6522 47.5146 21.6804 56.8316 33.0867 57.778L33.0792 58.1901ZM35.6719 58.2581C35.4478 58.2645 35.2215 58.2687 34.9964 58.2687C34.7298 58.2687 34.4653 58.2623 34.1987 58.2538L34.2051 57.8407C34.4685 57.8502 34.7362 57.8555 34.9964 57.8555C35.2279 57.8555 35.4584 57.8555 35.6878 57.8449L35.6719 58.2581ZM36.0691 56.6649C35.9896 56.6972 35.9185 56.747 35.8609 56.8106C35.8033 56.8743 35.7609 56.9501 35.7367 57.0324C35.4903 57.0409 35.2439 57.0462 34.9932 57.0462C34.7234 57.0462 34.4557 57.0398 34.1881 57.0303C34.162 56.9432 34.1154 56.8638 34.0522 56.7985C33.989 56.7333 33.911 56.6842 33.8248 56.6553V55.7451L34.9507 54.6192L36.0659 55.7334L36.0691 56.6649ZM36.494 56.6649V55.5656L35.1663 54.2379V53.9193H35.2269C35.308 53.9193 35.3858 53.887 35.4432 53.8297C35.5005 53.7723 35.5327 53.6945 35.5327 53.6134V52.6043C35.5327 52.5232 35.5005 52.4454 35.4432 52.388C35.3858 52.3307 35.308 52.2984 35.2269 52.2984H34.7022C34.621 52.2984 34.5432 52.3307 34.4859 52.388C34.4285 52.4454 34.3963 52.5232 34.3963 52.6043V53.6134C34.3963 53.6945 34.4285 53.7723 34.4859 53.8297C34.5432 53.887 34.621 53.9193 34.7022 53.9193H34.7415V54.2379L33.4032 55.5773V56.6882C33.2797 56.7476 33.1817 56.8494 33.127 56.975C27.7898 56.5245 22.7995 54.1453 19.0892 50.2823C15.3789 46.4194 13.2028 41.3372 12.9677 35.9862H13.5115C13.7559 40.8327 15.6565 45.4486 18.8955 49.0621C22.2449 52.8135 26.794 55.2841 31.7643 56.051L31.8705 56.0669L33.0739 54.8635C33.1423 54.8866 33.2141 54.8985 33.2863 54.8985C33.4318 54.8983 33.573 54.8496 33.6876 54.7602C33.8023 54.6707 33.8839 54.5457 33.9195 54.4047C33.9552 54.2637 33.9428 54.1148 33.8845 53.9816C33.8261 53.8485 33.725 53.7385 33.5972 53.6692C33.4694 53.5998 33.3221 53.575 33.1786 53.5987C33.0351 53.6224 32.9036 53.6933 32.8049 53.8C32.7062 53.9068 32.6458 54.0434 32.6333 54.1883C32.6209 54.3332 32.6571 54.4781 32.7362 54.6001L31.7218 55.6144C26.8889 54.844 22.4699 52.4295 19.2109 48.7785C16.0417 45.2429 14.1797 40.728 13.9353 35.9862H14.1339C14.2394 35.9859 14.3404 35.9438 14.4149 35.8691C14.4893 35.7945 14.5311 35.6933 14.5311 35.5879V34.4132C14.5311 34.3077 14.4893 34.2066 14.4149 34.1319C14.3404 34.0572 14.2394 34.0151 14.1339 34.0149H13.9385C14.1768 29.493 15.887 25.173 18.8084 21.7132C22.0889 17.7937 26.6747 15.1911 31.7218 14.3845L32.8902 15.5528C32.7932 15.6732 32.7419 15.824 32.7454 15.9786C32.7488 16.1331 32.8068 16.2815 32.9091 16.3974C33.0113 16.5134 33.1513 16.5894 33.3042 16.6121C33.4571 16.6349 33.6131 16.6028 33.7447 16.5216C33.8763 16.4404 33.9749 16.3153 34.0231 16.1685C34.0714 16.0216 34.0662 15.8624 34.0084 15.719C33.9506 15.5756 33.844 15.4573 33.7074 15.3849C33.5708 15.3125 33.413 15.2907 33.2619 15.3234L31.8737 13.9363L31.7675 13.9522C26.5796 14.7549 21.8607 17.4171 18.4908 21.4424C15.5045 24.9758 13.7569 29.3896 13.5147 34.0095H12.9677C13.2015 28.6608 15.3753 23.5803 19.0828 19.7179C22.7902 15.8554 27.7775 13.4754 33.1121 13.0228C33.1362 13.0962 33.1748 13.164 33.2257 13.222C33.2767 13.2801 33.3388 13.3272 33.4085 13.3606V14.4726L34.7468 15.8109V16.1296H34.7075C34.6263 16.1296 34.5485 16.1618 34.4912 16.2192C34.4338 16.2765 34.4016 16.3543 34.4016 16.4355V17.4445C34.4016 17.5256 34.4338 17.6034 34.4912 17.6608C34.5485 17.7182 34.6263 17.7504 34.7075 17.7504H35.2322C35.3133 17.7504 35.3911 17.7182 35.4485 17.6608C35.5058 17.6034 35.5381 17.5256 35.5381 17.4445V16.4355C35.5381 16.3543 35.5058 16.2765 35.4485 16.2192C35.3911 16.1618 35.3133 16.1296 35.2322 16.1296H35.1716V15.8109L36.4993 14.4843V13.3765C36.5774 13.3448 36.6476 13.2961 36.7047 13.234C36.7618 13.172 36.8045 13.098 36.8296 13.0175C42.1758 13.4567 47.1781 15.8315 50.898 19.6963C54.618 23.5611 56.7999 28.6505 57.0346 34.0095H56.4887C56.2493 29.3879 54.5039 24.9715 51.519 21.4349C48.1493 17.4094 43.4303 14.7472 38.2423 13.9448L38.136 13.9288L36.7447 15.316C36.5933 15.2831 36.4352 15.3049 36.2983 15.3773C36.1614 15.4498 36.0546 15.5683 35.9967 15.7119C35.9388 15.8556 35.9335 16.0151 35.9818 16.1622C36.0301 16.3094 36.1289 16.4347 36.2607 16.516C36.3925 16.5974 36.5488 16.6295 36.702 16.6067C36.8552 16.5839 36.9954 16.5077 37.0978 16.3915C37.2002 16.2753 37.2583 16.1267 37.2617 15.9718C37.2651 15.817 37.2136 15.6659 37.1164 15.5454L38.2847 14.377C43.332 15.184 47.9181 17.7865 51.1992 21.7058C54.1184 25.1671 55.8263 29.4877 56.0628 34.0095H55.4255C55.32 34.0098 55.219 34.0519 55.1445 34.1266C55.0701 34.2012 55.0283 34.3024 55.0283 34.4078V35.5879C55.0283 35.6933 55.0701 35.7945 55.1445 35.8691C55.219 35.9438 55.32 35.9859 55.4255 35.9862H56.0628C55.8194 40.7282 53.9573 45.2435 50.7871 48.7785C47.5283 52.4297 43.1092 54.8443 38.2762 55.6144L37.2619 54.6001C37.3413 54.4778 37.3776 54.3326 37.3652 54.1874C37.3528 54.0422 37.2923 53.9052 37.1934 53.7982C37.0944 53.6912 36.9626 53.6203 36.8188 53.5966C36.675 53.5729 36.5274 53.5978 36.3993 53.6674C36.2713 53.737 36.1701 53.8473 36.1117 53.9809C36.0534 54.1145 36.0412 54.2637 36.0772 54.4049C36.1132 54.5462 36.1952 54.6714 36.3103 54.7608C36.4254 54.8502 36.567 54.8987 36.7128 54.8985C36.785 54.8984 36.8568 54.8866 36.9252 54.8635L38.1286 56.0669L38.2348 56.051C43.2055 55.2844 47.7551 52.8138 51.1047 49.0621C54.3439 45.4487 56.2441 40.8327 56.4876 35.9862H57.0314C56.7966 41.3482 54.6124 46.4402 50.8889 50.3058C47.1655 54.1714 42.159 56.5448 36.8094 56.9803C36.7509 56.8407 36.6394 56.7299 36.4993 56.6723L36.494 56.6649ZM51.4531 51.4477C47.5459 55.366 42.3663 57.7578 36.8498 58.1912V57.7801C48.2837 56.8624 57.349 47.5316 57.8355 35.9819H58.2476C58.0079 41.8097 55.5807 47.333 51.4499 51.4509L51.4531 51.4477ZM58.2508 34.0021H57.8387C57.349 22.4599 48.289 13.129 36.8551 12.2145V11.8003C42.5198 12.2474 47.8245 14.7537 51.7671 18.8458C55.7096 22.9378 58.0169 28.3322 58.2529 34.0095L58.2508 34.0021Z" fill="#09232E"/>
<path d="M60.1722 35.2565C59.7145 35.2565 59.3342 35.4297 59.3225 35.8322C59.3179 35.9213 59.3358 36.0102 59.3746 36.0906C59.4134 36.171 59.4719 36.2403 59.5445 36.2921C59.7218 36.3992 59.9223 36.462 60.129 36.4751C60.3357 36.4882 60.5426 36.4513 60.732 36.3675C60.8154 36.3218 60.8846 36.2541 60.932 36.1716C60.9794 36.0892 61.0032 35.9952 61.0007 35.9002C61.0071 35.4679 60.6406 35.2629 60.1722 35.2565ZM60.1563 36.0977C59.7878 36.0807 59.6061 35.9915 59.6093 35.8524C59.6125 35.7132 59.792 35.6251 60.1627 35.6399C60.5334 35.6548 60.7129 35.7462 60.7097 35.8906C60.7065 36.0351 60.5142 36.1126 60.1563 36.0977Z" fill="#09232E"/>
<path d="M60.4334 36.8507L60.5566 37.1747L60.5556 37.18L59.2789 37.0717L59.2523 37.4253L60.8625 37.5847L60.887 37.2618L60.7223 36.8072L60.4334 36.8507Z" fill="#09232E"/>
<path d="M60.0246 37.762C59.5689 37.7153 59.1749 37.8523 59.1218 38.2517C59.1081 38.3398 59.1172 38.4299 59.148 38.5135C59.1789 38.5971 59.2305 38.6715 59.2981 38.7296C59.4636 38.8533 59.6564 38.9354 59.8603 38.9691C60.0642 39.0027 60.2731 38.9869 60.4696 38.923C60.5552 38.8842 60.6287 38.8231 60.6825 38.7461C60.7364 38.6691 60.7685 38.579 60.7755 38.4854C60.834 38.0552 60.4909 37.8119 60.0246 37.762ZM59.9237 38.5969C59.5594 38.5448 59.3862 38.4407 59.4043 38.2984C59.4224 38.1561 59.6093 38.086 59.9768 38.1391C60.3443 38.1922 60.5079 38.3005 60.4951 38.4429C60.4824 38.5852 60.2784 38.6479 59.9237 38.5969Z" fill="#09232E"/>
<path d="M60.1268 39.3744L60.216 39.7089L60.2149 39.7142L58.9542 39.4795L58.8926 39.8279L60.4794 40.1476L60.5357 39.829L60.4178 39.3595L60.1268 39.3744Z" fill="#09232E"/>
<path d="M59.6281 40.24C59.1799 40.1486 58.7709 40.24 58.6806 40.6372C58.658 40.7236 58.6579 40.8143 58.6802 40.9007C58.7025 40.9872 58.7465 41.0665 58.8081 41.1311C58.9582 41.2819 59.1491 41.3856 59.3572 41.4296C59.5523 41.4897 59.7603 41.4934 59.9573 41.4402C60.0466 41.4106 60.1262 41.3574 60.1875 41.2861C60.2489 41.2148 60.2897 41.1282 60.3057 41.0355C60.4035 40.6128 60.0869 40.3356 59.6281 40.24ZM60.0285 40.9644C59.9935 41.1163 59.7917 41.1471 59.4443 41.061C59.097 40.975 58.9249 40.8486 58.9568 40.7126C58.9887 40.5767 59.182 40.5268 59.5431 40.6117C59.9042 40.6967 60.0604 40.8252 60.0285 40.9644Z" fill="#09232E"/>
<path d="M59.5677 41.8545L59.624 42.1965L59.6219 42.2018L58.3908 41.8417L58.2952 42.1827L59.8417 42.6596L59.9299 42.3484L59.8587 41.8693L59.5677 41.8545Z" fill="#09232E"/>
<path d="M58.9825 42.6659C58.5449 42.5311 58.1328 42.5852 58 42.9665C57.9696 43.0501 57.9606 43.14 57.974 43.228C57.9874 43.316 58.0226 43.3992 58.0765 43.47C58.214 43.6251 58.3869 43.7447 58.5805 43.8187C58.7741 43.8926 58.9827 43.9188 59.1886 43.8948C59.2806 43.8746 59.3654 43.8297 59.4339 43.765C59.5024 43.7002 59.5519 43.6181 59.5773 43.5273C59.7196 43.1152 59.4318 42.804 58.9825 42.6659ZM59.3086 43.4275C59.2587 43.5751 59.0547 43.5857 58.717 43.4647C58.3792 43.3436 58.222 43.2055 58.2677 43.0695C58.3134 42.9336 58.5098 42.907 58.8604 43.0271C59.2109 43.1471 59.3574 43.2926 59.3118 43.4275H59.3086Z" fill="#09232E"/>
<path d="M58.7633 44.2666L58.7846 44.6128L58.7825 44.6171L57.5939 44.1359L57.4644 44.4663L58.9556 45.0951L59.0746 44.7934L59.0512 44.3112L58.7633 44.2666Z" fill="#09232E"/>
<path d="M58.1021 45.0154C57.6773 44.8369 57.262 44.8497 57.0963 45.2161C56.9306 45.5826 57.1494 45.9033 57.5987 46.1264C57.9938 46.3229 58.4282 46.3388 58.6087 45.931C58.7882 45.5358 58.5323 45.2002 58.1021 45.0154ZM58.3517 45.8056C58.2869 45.9479 58.0841 45.9384 57.7601 45.7844C57.4362 45.6304 57.2928 45.4763 57.3523 45.3457C57.4117 45.215 57.6082 45.2076 57.9449 45.3627C58.2816 45.5178 58.4101 45.6718 58.3517 45.8056Z" fill="#09232E"/>
<path d="M57.7078 46.9325L56.5734 46.3345C56.5193 46.4407 56.4672 46.547 56.4099 46.6532L57.831 47.4286C57.8841 47.334 57.9308 47.2363 57.9808 47.1418L58.0041 46.6574L57.7227 46.5852L57.7078 46.9325Z" fill="#09232E"/>
<path d="M56.9878 47.265C56.5863 47.0451 56.1689 47.0164 55.9681 47.3712C55.9223 47.4468 55.8956 47.5325 55.8904 47.6208C55.8852 47.7091 55.9017 47.7973 55.9384 47.8778C56.0373 48.0664 56.189 48.2222 56.3749 48.326C56.5433 48.4409 56.7406 48.5061 56.9443 48.514C57.0344 48.5138 57.1229 48.4904 57.2013 48.4461C57.2852 48.3935 57.3543 48.3204 57.4021 48.2336C57.6187 47.8502 57.3967 47.4912 56.9878 47.265ZM57.1578 48.0775C57.0802 48.2124 56.8795 48.1837 56.5725 47.9978C56.2655 47.812 56.1381 47.6442 56.2092 47.5199C56.2804 47.3956 56.478 47.4137 56.7977 47.5953C57.1174 47.7769 57.2289 47.9543 57.1578 48.0775Z" fill="#09232E"/>
<path d="M56.4057 49.1343L55.334 48.4333C55.2702 48.5332 55.2086 48.6341 55.1375 48.7286L56.4747 49.641C56.5384 49.5549 56.5968 49.4636 56.6542 49.3723L56.7254 48.8932L56.4524 48.7934L56.4057 49.1343Z" fill="#09232E"/>
<path d="M55.6547 49.3893C55.2766 49.1312 54.8645 49.0611 54.6319 49.3893C54.5784 49.4594 54.543 49.5416 54.5287 49.6286C54.5145 49.7157 54.5218 49.8049 54.5501 49.8884C54.6298 50.086 54.7652 50.2561 54.9399 50.3781C55.0954 50.5097 55.2851 50.5944 55.4869 50.6224C55.5814 50.6322 55.6768 50.6157 55.7624 50.5747C55.8481 50.5336 55.9207 50.4696 55.9723 50.3898C56.2208 50.0371 56.0392 49.658 55.6547 49.3893ZM55.745 50.2156C55.6547 50.343 55.4582 50.2942 55.1704 50.0775C54.8825 49.8608 54.7731 49.6835 54.8517 49.5666C54.9303 49.4498 55.1289 49.4817 55.4285 49.7005C55.728 49.9192 55.8278 50.0998 55.745 50.2156Z" fill="#09232E"/>
<path d="M54.8923 51.1949L53.8982 50.3855C53.827 50.479 53.7495 50.5682 53.672 50.6574L54.9104 51.6983C54.9805 51.6155 55.0538 51.5369 55.1228 51.4498L55.2333 50.9825L54.9709 50.8561L54.8923 51.1949Z" fill="#09232E"/>
<path d="M54.1169 51.3744C53.7664 51.0791 53.3638 50.9697 53.1004 51.2681C52.837 51.5666 52.9432 51.9352 53.3129 52.2825C53.6315 52.5862 54.0383 52.7296 54.34 52.3972C54.6204 52.0743 54.4727 51.6781 54.1169 51.3744ZM54.1265 52.2071C54.0266 52.326 53.8291 52.2517 53.5657 52.0106C53.3022 51.7695 53.2152 51.5857 53.3076 51.4721C53.4 51.3584 53.5912 51.4147 53.8673 51.6622C54.1435 51.9097 54.2199 52.0987 54.1265 52.2071Z" fill="#09232E"/>
<path d="M53.1808 53.095L52.2716 52.1901C52.1899 52.2751 52.1017 52.3537 52.0167 52.4365L53.1405 53.5985L53.3752 53.3754L53.5366 52.9166L53.2892 52.7658L53.1808 53.095Z" fill="#09232E"/>
<path d="M51.3914 53.0005C51.0919 53.2628 51.1684 53.6484 51.4976 54.0276C51.7865 54.3632 52.1721 54.5416 52.5109 54.2453C52.8295 53.9468 52.7169 53.5369 52.393 53.1991C52.069 52.8613 51.6824 52.719 51.3914 53.0005ZM52.3197 54.0308C52.2029 54.137 52.017 54.0435 51.778 53.7758C51.539 53.5082 51.47 53.3138 51.5762 53.2182C51.6824 53.1226 51.864 53.1885 52.1147 53.4615C52.3654 53.7344 52.4227 53.9288 52.3197 54.0276V54.0308Z" fill="#09232E"/>
<path d="M51.2892 54.8167L50.4746 53.8258L50.1963 54.0446L51.2064 55.3095L51.4602 55.1099C51.5356 54.9686 51.6004 54.8167 51.6727 54.6712L51.4422 54.497C51.3859 54.6043 51.3349 54.7126 51.2892 54.8167Z" fill="#09232E"/>
<path d="M49.5175 54.5406C49.1925 54.77 49.2318 55.1641 49.5175 55.5741C49.7724 55.9362 50.1367 56.1508 50.5031 55.8927C50.8483 55.6314 50.7782 55.2076 50.4904 54.8412C50.2025 54.4747 49.8372 54.2963 49.5175 54.5406ZM50.3385 55.6558C50.2121 55.7461 50.0358 55.6388 49.8255 55.3489C49.6152 55.0589 49.5631 54.8571 49.68 54.7743C49.7968 54.6914 49.9689 54.7743 50.193 55.0727C50.4171 55.3712 50.4543 55.5741 50.3385 55.6558Z" fill="#09232E"/>
<path d="M49.2352 56.3399L48.5226 55.2777L48.2252 55.4689L49.1046 56.8242L49.3776 56.6489C49.4657 56.5162 49.5486 56.377 49.6293 56.2368L49.4169 56.0393C49.3553 56.1423 49.2968 56.2443 49.2352 56.3399Z" fill="#09232E"/>
<path d="M48.0064 55.8683C47.9292 55.8304 47.8439 55.8118 47.7579 55.8141C47.6669 55.8205 47.5785 55.8478 47.4998 55.8938C47.1546 56.0913 47.1546 56.4875 47.3999 56.924C47.6123 57.3096 47.9586 57.5613 48.3484 57.3351C48.4319 57.2904 48.5019 57.2242 48.5512 57.1433C48.6005 57.0625 48.6273 56.9699 48.6288 56.8752C48.626 56.6651 48.5605 56.4605 48.4408 56.2878C48.3367 56.1112 48.1866 55.9661 48.0064 55.8683ZM48.2061 57.0865C48.0712 57.1641 47.9066 57.0398 47.726 56.7307C47.5454 56.4217 47.5136 56.2156 47.6378 56.1434C47.7621 56.0711 47.9289 56.1763 48.1211 56.4939C48.3133 56.8115 48.3303 57.0122 48.2061 57.0823V57.0865Z" fill="#09232E"/>
<path d="M47.0399 57.6516L46.4377 56.5204L46.119 56.6819L46.8625 58.1211L47.1504 57.9734C47.2502 57.847 47.3511 57.7238 47.4435 57.59L47.2523 57.3776C47.1812 57.4721 47.11 57.5603 47.0399 57.6516Z" fill="#09232E"/>
<path d="M45.8652 57.0579C45.7897 57.0112 45.7036 56.9842 45.6149 56.9794C45.5262 56.9745 45.4377 56.992 45.3575 57.0303C44.9953 57.1938 44.956 57.5889 45.1568 58.0467C45.3352 58.4535 45.6496 58.735 46.0596 58.5491C46.1465 58.5134 46.2224 58.4552 46.2795 58.3806C46.3366 58.3059 46.3729 58.2175 46.3846 58.1242C46.4034 57.9148 46.3586 57.7046 46.2561 57.521C46.1711 57.3334 46.0358 57.1732 45.8652 57.0579ZM45.9417 58.2878C45.8004 58.3515 45.6496 58.2124 45.4998 57.8863C45.3501 57.5603 45.3405 57.3553 45.4712 57.2937C45.6018 57.2321 45.7579 57.3574 45.9173 57.692C46.0766 58.0265 46.0723 58.2294 45.9417 58.2878Z" fill="#09232E"/>
<path d="M44.7244 58.736L44.2379 57.5496L43.9087 57.6792L44.5003 59.1853L44.8019 59.0663C44.9081 58.9495 45.026 58.8401 45.1323 58.7169L44.9623 58.4864C44.8827 58.5724 44.803 58.6542 44.7244 58.736Z" fill="#09232E"/>
<path d="M43.6165 58.0319C43.5491 57.9776 43.4691 57.9411 43.3839 57.9256C43.2933 57.9091 43.2 57.9164 43.1131 57.9469C42.7371 58.0743 42.6585 58.4641 42.8125 58.94C42.9485 59.3648 43.2373 59.6729 43.6622 59.5284C43.7552 59.4994 43.8393 59.4472 43.9065 59.3765C43.967 59.3085 44.0093 59.2263 44.0297 59.1375C44.0686 58.931 44.0449 58.7176 43.9617 58.5247C43.8937 58.332 43.7744 58.1616 43.6165 58.0319ZM43.5687 59.2671C43.4211 59.317 43.2851 59.1609 43.1694 58.8242C43.0536 58.4875 43.0632 58.2761 43.1991 58.2305C43.3351 58.1848 43.4785 58.3218 43.6038 58.6713C43.7291 59.0207 43.7036 59.2161 43.5687 59.2671Z" fill="#09232E"/>
<path d="M42.312 59.5857L41.9466 58.3569L41.6057 58.4535L42.0391 60.0106L42.3513 59.9224C42.4735 59.8162 42.5967 59.7164 42.7157 59.6038L42.5712 59.3521L42.312 59.5857Z" fill="#09232E"/>
<path d="M41.281 58.7743C41.2164 58.7129 41.1374 58.6688 41.0513 58.6459C40.9652 58.6231 40.8747 58.6223 40.7882 58.6436C40.4005 58.7328 40.2837 59.1131 40.3888 59.5996C40.4823 60.0329 40.734 60.3707 41.1727 60.2698C41.6113 60.1689 41.6942 59.7493 41.572 59.3022C41.5245 59.1031 41.4239 58.9207 41.281 58.7743ZM41.11 59.9926C40.9581 60.0276 40.8381 59.8608 40.7563 59.5114C40.6745 59.1619 40.7075 58.9559 40.8466 58.924C40.9857 58.8922 41.1153 59.043 41.2045 59.4031C41.2938 59.7631 41.2449 59.9607 41.11 59.9926Z" fill="#09232E"/>
<path d="M39.8267 60.1911L39.5867 58.9315L39.2384 58.9941L39.5177 60.5873L39.8363 60.531C39.9691 60.4386 40.1007 60.3505 40.2303 60.2559L40.1114 59.9904L39.8267 60.1911Z" fill="#09232E"/>
<path d="M38.8826 59.2788C38.8246 59.2113 38.7505 59.1595 38.6671 59.1281C38.5838 59.0967 38.4939 59.0868 38.4058 59.0993C38.0107 59.1492 37.8566 59.5157 37.9119 60.0127C37.9618 60.4535 38.1785 60.8147 38.6246 60.7563C39.0706 60.6978 39.196 60.291 39.1184 59.8332C39.0917 59.6304 39.0102 59.4387 38.8826 59.2788ZM38.5895 60.4737C38.4355 60.4928 38.3325 60.3155 38.2868 59.9596C38.2411 59.6038 38.2932 59.402 38.4355 59.3839C38.5778 59.3659 38.6904 59.5295 38.7435 59.897C38.7966 60.2645 38.7318 60.4557 38.5895 60.4737Z" fill="#09232E"/>
<path d="M37.2946 60.5417L37.182 59.2671L36.8283 59.2937L36.9472 60.9081L37.2659 60.8826C37.4071 60.8051 37.5473 60.7307 37.6907 60.6489L37.5994 60.3738L37.2946 60.5417Z" fill="#09232E"/>
<path d="M36.445 59.5411C36.3932 59.469 36.3244 59.4107 36.2448 59.3714C36.1651 59.3321 36.077 59.3131 35.9883 59.316C35.59 59.3266 35.3999 59.675 35.4062 60.1752C35.4126 60.6181 35.5921 60.9994 36.0435 60.9888C36.1409 60.988 36.2366 60.9628 36.3218 60.9155C36.3993 60.8679 36.4639 60.8019 36.5097 60.7233C36.6082 60.5377 36.6489 60.3268 36.6266 60.1179C36.6197 59.9127 36.5569 59.7132 36.445 59.5411ZM36.0403 60.702C35.8852 60.702 35.8003 60.5193 35.7896 60.1603C35.779 59.8013 35.8512 59.6059 35.9946 59.6027C36.138 59.5995 36.2347 59.7737 36.2506 60.1444C36.2665 60.5151 36.1784 60.6989 36.0403 60.702Z" fill="#09232E"/>
<path d="M34.7394 60.6479L34.7522 59.3659L34.3974 59.3563L34.3539 60.9665L34.6725 60.975C34.8201 60.9102 34.9667 60.8539 35.1133 60.7806L35.0485 60.4981C34.9497 60.5544 34.8456 60.5969 34.7394 60.6479Z" fill="#09232E"/>
<path d="M33.5601 59.2958C33.1629 59.265 32.9398 59.5932 32.8973 60.0913C32.8591 60.5332 33.0036 60.9304 33.4496 60.9644C33.5436 60.9751 33.6387 60.9603 33.7249 60.9214C33.8111 60.8825 33.8852 60.821 33.9393 60.7435C34.0556 60.5686 34.117 60.363 34.1156 60.1529C34.1294 59.9482 34.0868 59.7435 33.9924 59.5613C33.9482 59.4845 33.8855 59.42 33.81 59.3736C33.7345 59.3272 33.6486 59.3005 33.5601 59.2958ZM33.7343 60.1455C33.7184 60.5226 33.6132 60.6925 33.4709 60.6766C33.3286 60.6606 33.25 60.4705 33.2755 60.1126C33.3009 59.7546 33.3902 59.5677 33.5336 59.5815C33.6769 59.5953 33.7545 59.7748 33.7343 60.1434V60.1455Z" fill="#09232E"/>
<path d="M32.1867 60.4939L32.3258 59.2193L31.9743 59.1747L31.7746 60.7807L32.0932 60.821C32.2462 60.7743 32.3991 60.7265 32.551 60.6691L32.5149 60.3813C32.4044 60.4248 32.2961 60.4588 32.1867 60.4939Z" fill="#09232E"/>
<path d="M31.1471 59.0345C30.7552 58.9644 30.5003 59.2681 30.4089 59.7599C30.3271 60.1954 30.4291 60.6096 30.8709 60.685C30.9636 60.7042 31.0598 60.6983 31.1494 60.6679C31.2391 60.6374 31.3189 60.5836 31.3808 60.5119C31.5143 60.3501 31.5958 60.1516 31.6144 59.9426C31.6492 59.7398 31.6272 59.5314 31.5507 59.3404C31.5148 59.2594 31.4589 59.1889 31.3884 59.1354C31.3178 59.0819 31.2348 59.0472 31.1471 59.0345ZM31.2374 59.8937C31.1843 60.2676 31.0621 60.4301 30.9187 60.4025C30.7754 60.3749 30.7191 60.1752 30.7785 59.8215C30.838 59.4678 30.9474 59.2905 31.0887 59.3159C31.23 59.3414 31.2937 59.5284 31.2374 59.8937Z" fill="#09232E"/>
<path d="M29.6675 60.0902H29.6622L29.9277 58.8359L29.5825 58.7562L29.2193 60.3292L29.5379 60.4015L29.7726 60.3537L30.0084 60.2963L30.001 60.0063C29.8852 60.0425 29.7737 60.0669 29.6675 60.0902Z" fill="#09232E"/>
<path d="M28.7725 58.5342C28.3901 58.428 28.1065 58.702 27.9653 59.1821C27.841 59.607 27.9005 60.0255 28.3338 60.1487C28.4241 60.1771 28.5204 60.1808 28.6126 60.1596C28.7049 60.1383 28.7898 60.0927 28.8585 60.0276C29.0077 59.8781 29.1084 59.6871 29.1474 59.4795C29.203 59.2819 29.203 59.0728 29.1474 58.8752C29.119 58.7912 29.0696 58.7158 29.004 58.6562C28.9384 58.5965 28.8588 58.5546 28.7725 58.5342ZM28.7725 59.3988C28.6822 59.7642 28.5441 59.9139 28.4071 59.8725C28.2701 59.8311 28.2318 59.6261 28.3274 59.2809C28.423 58.9357 28.5484 58.7689 28.6864 58.8082C28.8245 58.8475 28.8691 59.0398 28.7767 59.3988H28.7725Z" fill="#09232E"/>
<path d="M27.2397 58.0988L26.7246 59.6335L27.0316 59.7398C27.1909 59.7249 27.3502 59.7079 27.5106 59.6824L27.5318 59.3935C27.4171 59.4137 27.3035 59.4254 27.1898 59.4392H27.1845L27.5754 58.2177L27.2397 58.0988Z" fill="#09232E"/>
<path d="M26.7995 58.1784C26.7799 58.092 26.7391 58.0118 26.6806 57.9452C26.6222 57.8786 26.548 57.8277 26.4649 57.7971C26.0953 57.6516 25.7851 57.9033 25.5961 58.3622C25.4293 58.7722 25.4474 59.1949 25.8658 59.3595C25.9523 59.3966 26.047 59.41 26.1403 59.3984C26.2336 59.3868 26.3221 59.3507 26.3969 59.2937C26.56 59.1608 26.6795 58.9821 26.74 58.7807C26.8145 58.5891 26.8351 58.3808 26.7995 58.1784ZM26.3746 58.6585C26.2482 59.0143 26.0974 59.146 25.9646 59.0929C25.8319 59.0398 25.8149 58.8306 25.9444 58.496C26.074 58.1614 26.2153 58.0095 26.3491 58.0616C26.4829 58.1136 26.5052 58.3112 26.3746 58.6585Z" fill="#09232E"/>
<path d="M24.9793 57.2108L24.3123 58.6861L24.6075 58.8189C24.769 58.8189 24.9262 58.8189 25.0897 58.8114L25.1407 58.5257C25.0239 58.5353 24.9113 58.5321 24.7955 58.5353L25.3022 57.3552L24.9793 57.2108Z" fill="#09232E"/>
<path d="M24.5289 57.249C24.5193 57.1639 24.4886 57.0825 24.4397 57.0122C24.3879 56.9363 24.3173 56.8752 24.2347 56.8348C23.881 56.6532 23.5475 56.8677 23.3139 57.3106C23.1067 57.7026 23.0823 58.1231 23.4827 58.3281C23.5646 58.3753 23.6579 58.3993 23.7524 58.3974C23.8469 58.3956 23.9391 58.3679 24.0191 58.3175C24.1948 58.2021 24.3314 58.0362 24.411 57.8417C24.504 57.6587 24.5448 57.4537 24.5289 57.249ZM24.0648 57.6845C23.9044 58.0244 23.7408 58.1391 23.6134 58.0743C23.4859 58.0095 23.4902 57.7981 23.6527 57.4784C23.8152 57.1587 23.9713 57.0207 24.0998 57.0865C24.2284 57.1524 24.2284 57.3489 24.0648 57.6824V57.6845Z" fill="#09232E"/>
<path d="M22.8177 56.102L22.0073 57.5029L22.2888 57.6633C22.4492 57.6782 22.6074 57.6973 22.7678 57.7058L22.8464 57.4275L22.5033 57.3999L23.13 56.2804L22.8177 56.102Z" fill="#09232E"/>
<path d="M22.1166 55.6495C21.781 55.437 21.4273 55.6155 21.1512 56.0329C20.9058 56.4015 20.84 56.8178 21.2181 57.061C21.5962 57.3043 21.9552 57.0717 22.1899 56.6712C22.4246 56.2708 22.4523 55.8683 22.1166 55.6495ZM21.8628 56.4769C21.6684 56.7955 21.4942 56.9017 21.3742 56.821C21.2542 56.7403 21.2786 56.5353 21.4719 56.2326C21.6652 55.9299 21.8352 55.8077 21.9562 55.8863C22.0773 55.9649 22.0582 56.1625 21.8628 56.4769Z" fill="#09232E"/>
<path d="M20.3336 56.0382L21.0676 54.9867L20.7787 54.7817L19.8334 56.0945L20.0968 56.2825L20.5694 56.3739L20.6767 56.1019L20.3379 56.0414L20.3336 56.0382Z" fill="#09232E"/>
<path d="M20.0965 55.2873C20.2238 55.1263 20.3043 54.9334 20.3291 54.7297C20.3382 54.6406 20.3242 54.5508 20.2884 54.4688C20.2527 54.3867 20.1965 54.3153 20.1252 54.2613C19.8129 54.0148 19.4422 54.1614 19.1257 54.5491C18.8453 54.8911 18.738 55.299 19.0917 55.5762C19.1627 55.6379 19.2488 55.6796 19.3411 55.6972C19.4335 55.7147 19.5289 55.7074 19.6175 55.676C19.8121 55.5967 19.9788 55.4614 20.0965 55.2873ZM19.2712 55.3531C19.1491 55.2575 19.2043 55.06 19.4263 54.7785C19.6483 54.497 19.8299 54.393 19.9425 54.4811C20.0551 54.5693 20.0179 54.7647 19.7917 55.0589C19.5654 55.3531 19.3838 55.4434 19.2712 55.3531Z" fill="#09232E"/>
<path d="M18.3135 54.4716L19.1483 53.4987L18.8796 53.2661L17.809 54.479L18.0533 54.6914L18.5153 54.8274L18.6491 54.5682L18.3167 54.4748L18.3135 54.4716Z" fill="#09232E"/>
<path d="M18.1498 53.7026C18.2924 53.5552 18.3919 53.3715 18.4376 53.1715C18.4564 53.084 18.4519 52.993 18.4247 52.9077C18.3975 52.8224 18.3485 52.7456 18.2825 52.6851C17.9947 52.41 17.6102 52.5194 17.2576 52.8731C16.9389 53.1917 16.7977 53.5815 17.1238 53.8917C17.1887 53.9589 17.2701 54.0082 17.3598 54.0346C17.4496 54.0611 17.5446 54.0638 17.6357 54.0425C17.8377 53.9843 18.0171 53.8657 18.1498 53.7026ZM17.3234 53.6845C17.2109 53.5783 17.2852 53.3871 17.5359 53.129C17.7865 52.8709 17.9756 52.7849 18.0797 52.8837C18.1838 52.9825 18.1264 53.1726 17.8726 53.4434C17.6187 53.7143 17.4275 53.7833 17.3234 53.6845Z" fill="#09232E"/>
<path d="M16.4578 52.7127L17.384 51.8268L17.1397 51.5709L15.9544 52.6712L16.1774 52.906L16.6235 53.0855L16.7828 52.8412L16.461 52.7158L16.4578 52.7127Z" fill="#09232E"/>
<path d="M16.6031 50.9294C16.3418 50.6288 15.9488 50.7 15.5622 51.0176C15.2191 51.298 15.0311 51.6761 15.3296 52.0159C15.628 52.3558 16.0231 52.2496 16.3683 51.9331C16.7135 51.6166 16.8675 51.2332 16.6031 50.9294ZM16.1187 51.6453C15.8394 51.8959 15.6429 51.9395 15.5494 51.8322C15.456 51.7249 15.5399 51.5316 15.8139 51.3011C16.0879 51.0707 16.2855 51.0027 16.38 51.111C16.4745 51.2194 16.3981 51.401 16.1187 51.6453Z" fill="#09232E"/>
<path d="M14.7848 50.7785L15.7949 49.9893L15.5761 49.7111L14.2866 50.6882L14.4863 50.9431L14.9143 51.1662L15.097 50.9378L14.7879 50.7828L14.7848 50.7785Z" fill="#09232E"/>
<path d="M15.1069 49.0186C15.0575 48.9445 14.99 48.8842 14.9109 48.8435C14.8317 48.8028 14.7434 48.783 14.6544 48.786C14.4417 48.7995 14.2373 48.8732 14.0649 48.9984C13.8914 49.1046 13.7514 49.2578 13.6613 49.4402C13.6252 49.5272 13.6128 49.6222 13.6255 49.7156C13.6382 49.8089 13.6755 49.8971 13.7335 49.9713C13.9852 50.325 14.4016 50.2708 14.7765 49.9904C15.1515 49.71 15.3405 49.3468 15.1069 49.0186ZM14.5556 49.6824C14.2529 49.9044 14.0532 49.9288 13.9704 49.8131C13.8875 49.6973 13.9895 49.5135 14.289 49.3107C14.5885 49.1078 14.7893 49.0589 14.8721 49.1758C14.955 49.2926 14.8583 49.4679 14.5556 49.6824Z" fill="#09232E"/>
<path d="M13.3117 48.6882L14.3951 48.0032L14.2039 47.7047L12.8242 48.5502L12.9984 48.8231L13.4042 49.0865L13.607 48.8773L13.3149 48.6925L13.3117 48.6882Z" fill="#09232E"/>
<path d="M13.383 47.9023C13.7749 47.6633 14.0085 47.3149 13.8078 46.9665C13.7656 46.8888 13.7046 46.8228 13.6304 46.7745C13.5562 46.7263 13.4712 46.6974 13.383 46.6904C13.1704 46.6821 12.9599 46.7359 12.7775 46.8455C12.5936 46.9335 12.4385 47.072 12.3304 47.2448C12.2854 47.3268 12.2633 47.4194 12.2665 47.5128C12.2697 47.6063 12.298 47.6971 12.3484 47.7759C12.5672 48.1593 12.9825 48.1465 13.383 47.9023ZM12.597 47.6431C12.5194 47.5082 12.6458 47.3478 12.9592 47.1747C13.2725 47.0016 13.4817 46.975 13.554 47.0993C13.6262 47.2236 13.5157 47.3882 13.1939 47.5719C12.8721 47.7557 12.6734 47.7706 12.597 47.6463V47.6431Z" fill="#09232E"/>
<path d="M12.0562 46.4663L12.0541 46.462L13.2002 45.8885L13.0387 45.573L11.5815 46.2761L11.7291 46.565L12.1072 46.8667L12.3303 46.6787L12.0562 46.4663Z" fill="#09232E"/>
<path d="M12.205 45.6888C12.6182 45.4902 12.8848 45.1683 12.7191 44.8019C12.5534 44.4355 12.1689 44.3866 11.7037 44.5767C11.2958 44.7435 10.9931 45.0568 11.1822 45.4647C11.3713 45.8725 11.7823 45.8895 12.205 45.6888ZM11.4467 45.3531C11.3829 45.2119 11.5242 45.0653 11.8535 44.9283C12.1827 44.7913 12.3941 44.7817 12.4525 44.9124C12.5109 45.043 12.3867 45.1949 12.0478 45.3457C11.709 45.4965 11.5051 45.4838 11.4467 45.3531Z" fill="#09232E"/>
<path d="M11.026 44.1264V44.1211L12.2252 43.6654C12.1827 43.5592 12.136 43.4466 12.0967 43.3351L10.5757 43.8885C10.6118 43.9947 10.6543 44.0903 10.6925 44.1912L11.0398 44.5279L11.2799 44.3643L11.026 44.1264Z" fill="#09232E"/>
<path d="M11.2532 43.3659C11.6844 43.2108 11.9818 42.9166 11.8533 42.5353C11.7248 42.154 11.3498 42.0669 10.8666 42.2092C10.669 42.2593 10.4897 42.3642 10.3493 42.5119C10.2859 42.583 10.2437 42.6705 10.2276 42.7644C10.2114 42.8583 10.2219 42.9548 10.258 43.043C10.3971 43.4519 10.8124 43.5231 11.2532 43.3659ZM10.532 42.957C10.4821 42.8093 10.6382 42.6787 10.9792 42.5704C11.3201 42.462 11.5315 42.479 11.5771 42.615C11.6228 42.7509 11.4837 42.889 11.1321 43.0058C10.7805 43.1227 10.5777 43.0929 10.532 42.957Z" fill="#09232E"/>
<path d="M10.237 41.693L11.4755 41.3595C11.4447 41.2448 11.4064 41.1333 11.382 41.0175L9.81429 41.4158C9.83553 41.522 9.87058 41.6282 9.8982 41.7281L10.2105 42.0987L10.4664 41.9607L10.237 41.693Z" fill="#09232E"/>
<path d="M10.5405 40.9601C10.9845 40.8539 11.3095 40.5852 11.2192 40.1933C11.2017 40.1072 11.1636 40.0267 11.1081 39.9586C11.0526 39.8905 10.9814 39.8369 10.9006 39.8024C10.6996 39.7312 10.4822 39.7201 10.275 39.7706C10.0735 39.8002 9.88456 39.8864 9.73012 40.0191C9.66393 40.0807 9.61458 40.1582 9.58673 40.2443C9.56162 40.34 9.56162 40.4406 9.58673 40.5364C9.67914 40.9591 10.0859 41.0717 10.5405 40.9601ZM9.86182 40.4811C9.82677 40.3292 9.99459 40.2135 10.3462 40.1412C10.6977 40.069 10.9048 40.1051 10.9367 40.2475C10.9686 40.3898 10.8167 40.5109 10.4545 40.5916C10.0923 40.6723 9.89475 40.6203 9.86182 40.4811Z" fill="#09232E"/>
<path d="M9.89473 39.4775L9.6993 39.1928L10.9643 38.9804C10.9462 38.8635 10.9186 38.7478 10.9059 38.6309L9.301 38.8742C9.31162 38.9804 9.33605 39.0866 9.35304 39.1928L9.62708 39.5922L9.89473 39.4775Z" fill="#09232E"/>
<path d="M10.0712 38.4949C10.5236 38.428 10.8741 38.1986 10.8232 37.7992C10.7722 37.3999 10.4238 37.2406 9.9214 37.2841C9.71795 37.294 9.5214 37.361 9.35423 37.4774C9.27842 37.5344 9.22005 37.6114 9.18571 37.6998C9.15136 37.7882 9.14241 37.8844 9.15986 37.9777C9.21402 38.4078 9.60701 38.5608 10.0712 38.4949ZM9.95964 37.6601C10.3261 37.6229 10.5194 37.6803 10.5374 37.8226C10.5555 37.9649 10.3909 38.0733 10.0223 38.1168C9.65375 38.1603 9.46256 38.0913 9.44451 37.95C9.42645 37.8088 9.60277 37.6973 9.95964 37.6601Z" fill="#09232E"/>
<path d="M9.57742 36.9559L9.40748 36.6532V36.6436L10.6873 36.5629C10.6788 36.445 10.6672 36.3271 10.6619 36.2092L9.04635 36.2889C9.04635 36.3951 9.06122 36.5013 9.06865 36.6075L9.3002 37.0324L9.57742 36.9559Z" fill="#09232E"/>
<path d="M9.84898 35.9947C10.3057 35.9734 10.6775 35.7822 10.6668 35.3776C10.6562 34.9729 10.3195 34.7806 9.81712 34.7753C9.37527 34.77 8.9759 34.941 8.99184 35.3903C9.00458 35.8237 9.38058 36.0148 9.84898 35.9947ZM9.82243 35.1534C10.191 35.1534 10.3769 35.2289 10.3811 35.3722C10.3854 35.5156 10.2101 35.607 9.83943 35.6144C9.46874 35.6218 9.28393 35.5337 9.28074 35.3914C9.27755 35.249 9.46343 35.1566 9.82243 35.1566V35.1534Z" fill="#09232E"/>
<path d="M9.51038 34.4142L9.37124 34.0966V34.0913L10.6532 34.1359L10.6617 33.7822L9.04516 33.7026L9.03667 34.0255L9.22466 34.4715L9.51038 34.4142Z" fill="#09232E"/>
<path d="M9.87267 33.4848C10.3304 33.5082 10.7224 33.3521 10.75 32.9538C10.7588 32.8651 10.7451 32.7755 10.7102 32.6935C10.6753 32.6115 10.6203 32.5395 10.5503 32.4843C10.3795 32.3577 10.1753 32.2838 9.96295 32.2719C9.76125 32.241 9.55493 32.2683 9.36816 32.3505C9.2843 32.3932 9.21356 32.4578 9.16345 32.5375C9.11333 32.6171 9.08571 32.7089 9.0835 32.8029C9.05058 33.232 9.40533 33.4572 9.87267 33.4848ZM9.93215 32.6458C10.2986 32.6797 10.476 32.7743 10.4632 32.9177C10.4505 33.0611 10.2699 33.1301 9.89922 33.1057C9.52854 33.0812 9.35541 32.9708 9.36816 32.8284C9.3809 32.6861 9.57527 32.6075 9.93215 32.6458Z" fill="#09232E"/>
<path d="M9.69206 31.8789L9.58585 31.5486L9.58691 31.5443L10.8572 31.7153L10.9018 31.3637L9.3012 31.1248L9.26084 31.4455L9.4021 31.9076L9.69206 31.8789Z" fill="#09232E"/>
<path d="M10.1444 30.9899C10.5979 31.0579 11.0005 30.9421 11.0716 30.5459C11.0893 30.4584 11.0847 30.3679 11.0581 30.2827C11.0316 30.1975 10.984 30.1203 10.9198 30.0584C10.7619 29.9157 10.5659 29.8219 10.3558 29.7886C10.158 29.738 9.95 29.7442 9.75566 29.8067C9.66796 29.8415 9.59129 29.8994 9.53372 29.9741C9.47615 30.0489 9.43981 30.1378 9.42852 30.2315C9.35205 30.6564 9.68237 30.9177 10.1444 30.9899ZM9.70892 30.2867C9.73654 30.1327 9.93622 30.0913 10.2878 30.1603C10.6393 30.2294 10.8188 30.343 10.7912 30.4843C10.7636 30.6256 10.5788 30.6808 10.2113 30.6149C9.84382 30.5491 9.68343 30.4269 9.70892 30.2867Z" fill="#09232E"/>
<path d="M10.1254 29.3733L10.0532 29.0345L10.0543 29.0302L11.3012 29.3266L11.3809 28.9814L9.81209 28.5841L9.7388 28.8996L9.8344 29.3733H10.1254Z" fill="#09232E"/>
<path d="M10.6647 28.5343C11.1086 28.6479 11.5207 28.5725 11.6312 28.1859C11.657 28.1003 11.6609 28.0096 11.6423 27.9221C11.6237 27.8347 11.5834 27.7533 11.525 27.6856C11.383 27.5283 11.1986 27.4154 10.9939 27.3606C10.8023 27.29 10.5944 27.2756 10.3949 27.3192C10.304 27.3441 10.2217 27.3933 10.1566 27.4614C10.0915 27.5294 10.0461 27.6139 10.0253 27.7058C9.91161 28.1232 10.2122 28.4164 10.6647 28.5343ZM10.3014 27.7908C10.3439 27.641 10.5468 27.6198 10.8898 27.7238C11.2329 27.8279 11.3975 27.9586 11.3582 28.0956C11.3189 28.2326 11.1256 28.2698 10.7688 28.1678C10.4119 28.0659 10.2621 27.9278 10.3014 27.7908Z" fill="#09232E"/>
<path d="M10.8073 26.924L10.769 26.5799L10.7712 26.5746L11.982 26.9963L12.0946 26.6606L10.5747 26.1062L10.4706 26.4132L10.5184 26.8943L10.8073 26.924Z" fill="#09232E"/>
<path d="M11.4296 26.1434C11.8545 26.3006 12.2793 26.2676 12.4248 25.8927C12.4596 25.8108 12.4732 25.7215 12.4645 25.633C12.4558 25.5445 12.425 25.4596 12.3749 25.386C12.2491 25.2146 12.076 25.0835 11.8768 25.009C11.471 24.8316 11.0387 24.8348 10.8773 25.2543C10.7158 25.6739 10.9909 25.9798 11.4296 26.1434ZM11.1418 25.3669C11.1981 25.2225 11.402 25.2214 11.7334 25.3584C12.0648 25.4954 12.2156 25.6431 12.1582 25.7769C12.1009 25.9107 11.9086 25.9267 11.5645 25.7897C11.2204 25.6526 11.0887 25.4997 11.1418 25.3669Z" fill="#09232E"/>
<path d="M11.7282 24.2092L11.7303 24.2039L12.8923 24.7445L13.0389 24.4216L11.5816 23.7185L11.4478 24.0138L11.4467 24.4971L11.7324 24.5555L11.7282 24.2092Z" fill="#09232E"/>
<path d="M12.429 23.8417C12.8421 24.0414 13.2606 24.0541 13.4433 23.6909C13.626 23.3276 13.4274 23.0037 12.9887 22.7573C12.6053 22.5448 12.1687 22.4992 11.968 22.9017C11.7704 23.2883 12.0094 23.6357 12.429 23.8417ZM12.2165 23.0398C12.2877 22.9007 12.4895 22.9208 12.805 23.0908C13.1204 23.2607 13.2564 23.4222 13.1916 23.5496C13.1268 23.6771 12.9292 23.6739 12.6 23.5029C12.2707 23.3319 12.1539 23.1662 12.2197 23.0398H12.2165Z" fill="#09232E"/>
<path d="M12.9176 21.9458L14.0201 22.599C14.0806 22.4928 14.1348 22.3866 14.2007 22.2942L12.8199 21.4498C12.7604 21.539 12.7137 21.6346 12.6553 21.7281L12.6075 22.2092L12.8857 22.2963L12.9176 21.9458Z" fill="#09232E"/>
<path d="M13.6548 21.6516C14.0457 21.8916 14.461 21.9405 14.6776 21.6017C14.7282 21.5258 14.7592 21.4386 14.7679 21.3478C14.7774 21.263 14.7654 21.1771 14.7329 21.0982C14.6441 20.9047 14.5004 20.7414 14.3197 20.6288C14.1571 20.5063 13.9629 20.4326 13.76 20.4163C13.6651 20.4105 13.5706 20.4316 13.4872 20.477C13.4038 20.5225 13.3349 20.5905 13.2884 20.6734C13.0536 21.0302 13.2576 21.4041 13.6548 21.6516ZM13.5231 20.8316C13.607 20.6999 13.8067 20.7392 14.1041 20.9378C14.4015 21.1365 14.5204 21.3128 14.4429 21.4338C14.3654 21.5549 14.1699 21.5316 13.8598 21.3276C13.5496 21.1237 13.4477 20.9516 13.5231 20.8316Z" fill="#09232E"/>
<path d="M14.3282 19.813L15.3606 20.5725L15.4668 20.428L15.5731 20.2889L14.2836 19.3107C14.2167 19.3946 14.1509 19.4806 14.0893 19.5698L13.9958 20.0457L14.2634 20.1582L14.3282 19.813Z" fill="#09232E"/>
<path d="M15.0931 19.5942C15.4574 19.8714 15.8642 19.9617 16.1127 19.6452C16.1697 19.5778 16.2092 19.4973 16.2278 19.411C16.2463 19.3247 16.2433 19.2351 16.2189 19.1502C16.1482 18.949 16.021 18.7723 15.8525 18.6415C15.7044 18.5034 15.5203 18.4099 15.3214 18.3717C15.2276 18.3574 15.1316 18.3691 15.0439 18.4056C14.9562 18.4422 14.8803 18.5021 14.8244 18.5788C14.5556 18.9198 14.7213 19.3085 15.0931 19.5942ZM15.0421 18.7636C15.1377 18.6404 15.3353 18.702 15.6114 18.9314C15.8876 19.1609 15.9842 19.3425 15.8971 19.4561C15.81 19.5698 15.6167 19.5273 15.3278 19.2947C15.0389 19.0621 14.9539 18.8762 15.0421 18.7636Z" fill="#09232E"/>
<path d="M15.9426 17.83L16.8985 18.6882C16.9728 18.5969 17.0589 18.5151 17.1396 18.4291L15.9532 17.3234C15.8799 17.403 15.8024 17.4784 15.7323 17.5602L15.5921 18.0244L15.847 18.1646L15.9426 17.83Z" fill="#09232E"/>
<path d="M16.7267 17.6888C17.0624 18.001 17.4585 18.1306 17.7358 17.8396C18.013 17.5486 17.9259 17.1811 17.5796 16.8168C17.2748 16.4981 16.8786 16.3356 16.5579 16.6511C16.2583 16.9644 16.3911 17.368 16.7267 17.6888ZM16.7575 16.8561C16.8638 16.7445 17.0581 16.8274 17.3088 17.0823C17.5594 17.3372 17.638 17.5273 17.5393 17.6304C17.4405 17.7334 17.2536 17.6739 16.9891 17.4179C16.7246 17.162 16.6588 16.9591 16.7575 16.8561Z" fill="#09232E"/>
<path d="M17.745 16.0159L18.6074 16.9644L18.8751 16.7318L17.8034 15.5189L17.5591 15.7313C17.4943 15.8789 17.4349 16.0308 17.3743 16.1795L17.6133 16.3431L17.745 16.0159Z" fill="#09232E"/>
<path d="M19.5285 16.2028C19.8418 15.9575 19.7834 15.5655 19.4754 15.1715C19.2035 14.822 18.8285 14.6266 18.4749 14.9038C18.1445 15.1864 18.2338 15.6027 18.5407 15.9553C18.8477 16.308 19.2237 16.463 19.5285 16.2028ZM18.6533 15.1279C18.7754 15.0323 18.956 15.1279 19.1844 15.4094C19.4127 15.6909 19.4701 15.8874 19.3575 15.9766C19.2449 16.0658 19.0697 15.9915 18.8317 15.7057C18.5938 15.42 18.5439 15.2203 18.6533 15.1279Z" fill="#09232E"/>
<path d="M19.7217 14.3919L20.4854 15.4221L20.7743 15.2161L19.829 13.9033L19.5645 14.0913C19.4827 14.2272 19.4095 14.3738 19.334 14.5161L19.556 14.702C19.6134 14.5979 19.6633 14.4907 19.7217 14.3919Z" fill="#09232E"/>
<path d="M21.4775 14.7562C21.812 14.5438 21.7961 14.1455 21.5263 13.7227C21.2895 13.3478 20.9358 13.1163 20.5577 13.3584C20.1976 13.6006 20.2486 14.0297 20.5173 14.4089C20.786 14.7881 21.144 14.9814 21.4775 14.7562ZM20.7127 13.5953C20.8434 13.5114 21.0133 13.6271 21.2098 13.9267C21.4063 14.2262 21.4477 14.4312 21.3266 14.5087C21.2056 14.5862 21.0367 14.4928 20.8285 14.1837C20.6203 13.8746 20.5906 13.6749 20.7127 13.5953Z" fill="#09232E"/>
<path d="M21.849 12.9729L22.5064 14.0733L22.8134 13.8969L22.003 12.496L21.7226 12.6574L21.5877 12.8518L21.4539 13.0547L21.6567 13.2671C21.7173 13.1609 21.7821 13.0642 21.849 12.9729Z" fill="#09232E"/>
<path d="M23.0511 13.5082C23.129 13.5506 23.2163 13.5728 23.305 13.5728C23.3937 13.5728 23.4809 13.5506 23.5588 13.5082C23.9136 13.3277 23.9327 12.9315 23.7097 12.4833C23.5121 12.0871 23.1786 11.8216 22.7835 12.0266C22.6979 12.0668 22.6246 12.1292 22.5712 12.2072C22.5178 12.2853 22.4862 12.3762 22.4797 12.4705C22.472 12.6805 22.5271 12.8879 22.638 13.0664C22.7329 13.2486 22.8757 13.4014 23.0511 13.5082ZM22.9131 12.2825C23.0522 12.2114 23.2094 12.3431 23.3751 12.6617C23.5408 12.9803 23.561 13.1928 23.4335 13.2523C23.3061 13.3117 23.1436 13.2023 22.9683 12.8773C22.793 12.5523 22.7856 12.3473 22.9131 12.2825Z" fill="#09232E"/>
<path d="M24.1062 11.7717H24.1115L24.6563 12.9326L24.975 12.786L24.308 11.3117L24.0137 11.4456C23.9075 11.5677 23.8013 11.6824 23.7004 11.812L23.881 12.0382C23.9564 11.9437 24.0382 11.8609 24.1062 11.7717Z" fill="#09232E"/>
<path d="M25.2491 12.4269C25.3197 12.476 25.4015 12.5066 25.487 12.5162C25.5781 12.5275 25.6706 12.5155 25.7557 12.4811C26.1253 12.3356 26.1805 11.9426 26.0064 11.4742C25.8492 11.06 25.5496 10.7636 25.1312 10.9283C25.0398 10.9626 24.9584 11.0192 24.8943 11.0929C24.8396 11.1649 24.8031 11.2491 24.7881 11.3382C24.7585 11.5463 24.7925 11.7585 24.8858 11.9469C24.9604 12.1372 25.0861 12.3034 25.2491 12.4269ZM25.2352 11.1959C25.3797 11.1386 25.5241 11.2851 25.6601 11.6208C25.7961 11.9564 25.7918 12.1635 25.6601 12.2156C25.5284 12.2676 25.3765 12.137 25.2352 11.7907C25.094 11.4445 25.1004 11.2437 25.2352 11.1917V11.1959Z" fill="#09232E"/>
<path d="M26.4735 10.8019L26.8983 12.0106L27.234 11.898L26.7188 10.3633L26.4119 10.4695C26.295 10.5757 26.1771 10.6819 26.0635 10.8019L26.226 11.0462L26.4735 10.8019Z" fill="#09232E"/>
<path d="M27.5433 11.5634C27.6092 11.6184 27.687 11.6574 27.7706 11.6771C27.86 11.698 27.9534 11.6951 28.0414 11.6686C28.4248 11.5624 28.5226 11.1758 28.393 10.6914C28.2783 10.2666 28.0095 9.93944 27.5762 10.0616C27.4846 10.0837 27.4004 10.1297 27.3325 10.1951C27.2646 10.2604 27.2152 10.3426 27.1896 10.4333C27.1407 10.6366 27.1529 10.8498 27.2246 11.0462C27.2811 11.2447 27.3914 11.4237 27.5433 11.5634ZM27.6495 10.3377C27.7992 10.2953 27.9267 10.4556 28.0255 10.7998C28.1243 11.1439 28.103 11.3531 27.9649 11.3914C27.8269 11.4296 27.6909 11.2852 27.5836 10.9304C27.4764 10.5757 27.5167 10.377 27.6548 10.3377H27.6495Z" fill="#09232E"/>
<path d="M28.9242 10.0754H28.9295L29.2322 11.3224L29.5763 11.2427L29.2194 9.66542L28.9008 9.73765C28.7723 9.83643 28.6448 9.93202 28.5205 10.0319L28.6522 10.291L28.9242 10.0754Z" fill="#09232E"/>
<path d="M30.4003 11.094C30.7912 11.025 30.9314 10.6511 30.8464 10.1572C30.7753 9.7196 30.5405 9.37016 30.1029 9.44876C29.6654 9.52736 29.5549 9.94159 29.6547 10.3951C29.7546 10.8487 30.0031 11.1599 30.4003 11.094ZM30.1465 9.73129C30.3005 9.70367 30.411 9.87574 30.4747 10.2284C30.5384 10.581 30.497 10.786 30.3557 10.8115C30.2145 10.837 30.0934 10.6787 30.0222 10.3144C29.9511 9.95008 30.0063 9.75572 30.1465 9.73129Z" fill="#09232E"/>
<path d="M31.4371 9.59639L31.6135 10.8656L31.965 10.821L31.7653 9.21509L31.4467 9.25651C31.3097 9.34148 31.1737 9.42326 31.0388 9.51036L31.1451 9.7812L31.4371 9.59639Z" fill="#09232E"/>
<path d="M32.3358 10.5555C32.3894 10.6222 32.4578 10.6756 32.5355 10.7116C32.619 10.7505 32.7113 10.7666 32.8031 10.7584C33.2004 10.7276 33.3724 10.3696 33.3416 9.87042C33.314 9.42857 33.1154 9.05682 32.6672 9.09081C32.5729 9.09322 32.481 9.12116 32.4013 9.17166C32.3216 9.22217 32.2571 9.29333 32.2147 9.37759C32.1251 9.56782 32.0947 9.78061 32.1276 9.98832C32.1436 10.1929 32.2156 10.3891 32.3358 10.5555ZM32.6873 9.37653C32.8424 9.36378 32.9359 9.54647 32.9646 9.90759C32.9932 10.2687 32.9306 10.4642 32.7872 10.4748C32.6438 10.4854 32.5397 10.3165 32.5057 9.94371C32.4717 9.5709 32.545 9.38715 32.6873 9.37653Z" fill="#09232E"/>
<path d="M33.9841 9.37017H33.9894L34.0393 10.6511L34.393 10.6426L34.3537 9.02816L34.0351 9.03559C33.8896 9.10782 33.7462 9.17261 33.6039 9.24802L33.6825 9.5263L33.9841 9.37017Z" fill="#09232E"/>
<path d="M35.2287 10.6596C35.627 10.6702 35.8331 10.3314 35.8511 9.83219C35.8671 9.38928 35.7067 8.99842 35.2574 8.98779C35.1597 8.98311 35.0624 9.00359 34.9749 9.04727C34.8954 9.09167 34.828 9.15474 34.7784 9.23102C34.6711 9.41131 34.62 9.61953 34.6318 9.829C34.6276 10.0343 34.6802 10.2368 34.7837 10.4142C34.8315 10.4891 34.8972 10.5507 34.975 10.5936C35.0527 10.6365 35.14 10.6592 35.2287 10.6596ZM35.2489 9.27351C35.405 9.27351 35.4805 9.46894 35.473 9.82688C35.4656 10.1848 35.3849 10.3781 35.2415 10.3739C35.0981 10.3696 35.0099 10.1912 35.0121 9.82051C35.0142 9.44982 35.1066 9.27032 35.2489 9.27351Z" fill="#09232E"/>
<path d="M36.5404 9.39455L36.465 10.6744L36.8187 10.702L36.9377 9.08759L36.619 9.06316C36.4682 9.11945 36.3184 9.16937 36.1697 9.23735L36.2197 9.522C36.3269 9.47314 36.4331 9.43703 36.5404 9.39455Z" fill="#09232E"/>
<path d="M37.6526 10.8008C38.0467 10.8508 38.2899 10.5353 38.3536 10.0393C38.4131 9.59956 38.291 9.19489 37.8459 9.1386C37.7523 9.12381 37.6565 9.13433 37.5683 9.16907C37.4802 9.20381 37.4029 9.26149 37.3446 9.33615C37.2198 9.505 37.1484 9.70735 37.1396 9.91714C37.1163 10.1209 37.1486 10.3272 37.2331 10.5141C37.2734 10.5931 37.333 10.6608 37.4063 10.7109C37.4796 10.761 37.5643 10.7919 37.6526 10.8008ZM37.5198 9.94582C37.5538 9.56982 37.6675 9.40307 37.8098 9.42325C37.9521 9.44343 38.0222 9.63567 37.9776 9.99574C37.933 10.3558 37.8353 10.5353 37.693 10.5172C37.5506 10.4992 37.4816 10.3133 37.5198 9.94582Z" fill="#09232E"/>
<path d="M39.0835 9.6718L38.8849 10.94L39.2344 11.0016L39.5137 9.40839L39.1951 9.3521L38.9614 9.41157L38.7288 9.48168L38.7511 9.77058C38.8615 9.73128 38.972 9.70048 39.0835 9.6718Z" fill="#09232E"/>
<path d="M39.8057 11.0632C39.8767 11.1205 39.9599 11.1608 40.0489 11.1811C40.4366 11.2714 40.7064 10.9803 40.8232 10.4939C40.9294 10.0627 40.8455 9.64418 40.4069 9.54753C40.3154 9.52372 40.2193 9.52476 40.1283 9.55052C40.0374 9.57629 39.955 9.62585 39.8896 9.6941C39.748 9.84931 39.6566 10.0437 39.6273 10.2517C39.583 10.4525 39.5948 10.6615 39.6613 10.8561C39.6916 10.936 39.7412 11.0071 39.8057 11.0632ZM40.0022 10.3197C40.0734 9.95008 40.204 9.79394 40.3431 9.82687C40.4823 9.85979 40.5301 10.0648 40.4494 10.4142C40.3686 10.7637 40.2539 10.9368 40.1148 10.9049C39.9757 10.8731 39.9268 10.6829 40.0022 10.3197Z" fill="#09232E"/>
<path d="M41.5903 10.2029L41.2621 11.4424L41.602 11.539L42.0396 9.98405L41.7284 9.8959L41.4904 9.93201C41.4118 9.94582 41.3322 9.96281 41.2525 9.97768L41.2451 10.2676C41.3598 10.2422 41.4724 10.223 41.585 10.205L41.5903 10.2029Z" fill="#09232E"/>
<path d="M42.0415 11.4371C42.0653 11.5225 42.1102 11.6006 42.172 11.6642C42.2337 11.7279 42.3105 11.775 42.3952 11.8014C42.7712 11.9288 43.0686 11.6665 43.2342 11.1939C43.3798 10.7754 43.3405 10.3548 42.9156 10.2114C42.8269 10.178 42.7309 10.1689 42.6375 10.1852C42.5441 10.2014 42.4568 10.2424 42.3845 10.3038C42.2271 10.4445 42.116 10.6297 42.0659 10.8348C42.003 11.0296 41.9946 11.2379 42.0415 11.4371ZM42.4355 10.9368C42.5417 10.5757 42.6883 10.4344 42.8232 10.4822C42.9581 10.53 42.9857 10.7371 42.8742 11.077C42.7627 11.4169 42.6267 11.5773 42.4908 11.5316C42.3548 11.4859 42.324 11.2894 42.4355 10.94V10.9368Z" fill="#09232E"/>
<path d="M43.8998 12.3123L44.4914 10.8062L44.1898 10.6872C44.0294 10.6957 43.8711 10.7021 43.7086 10.7201L43.6725 11.008C43.7883 10.9931 43.9019 10.9878 44.0167 10.9803H44.022L43.5705 12.1795L43.8998 12.3123Z" fill="#09232E"/>
<path d="M44.3513 12.2538C44.3665 12.3418 44.4037 12.4245 44.4594 12.4943C44.5151 12.5641 44.5875 12.6188 44.6699 12.6532C45.0321 12.8168 45.3539 12.5852 45.5653 12.1317C45.7533 11.7302 45.7565 11.3085 45.3465 11.1226C45.2617 11.0809 45.1672 11.0625 45.0729 11.0694C44.9787 11.0763 44.8879 11.1082 44.8101 11.1619C44.6409 11.286 44.5129 11.4581 44.4426 11.6558C44.358 11.8431 44.3264 12.0499 44.3513 12.2538ZM44.7931 11.796C44.9376 11.4477 45.0948 11.3255 45.2243 11.3839C45.3539 11.4423 45.3614 11.6527 45.2158 11.9809C45.0703 12.3091 44.9195 12.4535 44.791 12.394C44.6625 12.3345 44.6434 12.1359 44.7931 11.796Z" fill="#09232E"/>
<path d="M46.1177 13.3117L46.8612 11.8725L46.5734 11.7249C46.4109 11.7196 46.2548 11.7057 46.0912 11.7079L46.0264 11.9904C46.1422 11.9904 46.2558 11.9968 46.3716 11.9989L45.8023 13.1471L46.1177 13.3117Z" fill="#09232E"/>
<path d="M46.5692 13.299C46.5753 13.3844 46.6019 13.4671 46.6468 13.5401C46.6938 13.6189 46.7608 13.6838 46.8412 13.7281C47.1864 13.9267 47.5305 13.7281 47.7865 13.2979C48.0127 12.9177 48.0573 12.4981 47.6675 12.274C47.5843 12.2235 47.4897 12.195 47.3924 12.1912C47.3015 12.1908 47.212 12.2135 47.1322 12.257C46.9509 12.3638 46.8059 12.5225 46.7158 12.7127C46.6142 12.891 46.5635 13.0938 46.5692 13.299ZM47.0536 12.8879C47.231 12.5576 47.3998 12.4503 47.5241 12.5215C47.6484 12.5927 47.6303 12.803 47.4551 13.1142C47.2798 13.4254 47.1141 13.555 46.9899 13.4838C46.8656 13.4126 46.8741 13.2129 47.0536 12.8879Z" fill="#09232E"/>
<path d="M48.6035 13.2512L47.9227 14.3388L48.2211 14.53L49.1048 13.1704L48.8329 12.9963C48.6725 12.9729 48.5143 12.9485 48.356 12.9293L48.2636 13.2044L48.6046 13.249L48.6035 13.2512Z" fill="#09232E"/>
<path d="M48.8761 13.9904C48.6254 14.376 48.5734 14.7785 48.8984 15.0154C49.2234 15.2522 49.5856 15.0823 49.883 14.6797C50.1453 14.3229 50.2324 13.9108 49.866 13.6505C49.4996 13.3903 49.1321 13.6006 48.8761 13.9904ZM49.6982 13.8842C49.8246 13.9745 49.7789 14.1742 49.5707 14.4663C49.3626 14.7583 49.1873 14.872 49.0705 14.7849C48.9536 14.6978 48.9823 14.5045 49.1926 14.1997C49.4029 13.8948 49.5814 13.7992 49.6982 13.8821V13.8842Z" fill="#09232E"/>
<path d="M50.7 14.7148L49.914 15.7281L50.1923 15.9469L51.2024 14.6829L50.9485 14.4822L50.4812 14.3685L50.3601 14.6351L50.6957 14.7116L50.7 14.7148Z" fill="#09232E"/>
<path d="M50.8985 15.4764C50.7639 15.6309 50.6743 15.8193 50.6394 16.0213C50.625 16.1099 50.6339 16.2007 50.6651 16.2849C50.6964 16.369 50.749 16.4436 50.8178 16.5013C51.1184 16.7616 51.4965 16.6341 51.8321 16.2624C52.1295 15.9342 52.257 15.5327 51.916 15.2385C51.8478 15.1743 51.7641 15.1289 51.673 15.1067C51.582 15.0846 51.4868 15.0864 51.3967 15.1121C51.1982 15.1815 51.0249 15.3083 50.8985 15.4764ZM51.7259 15.453C51.8427 15.5539 51.778 15.7483 51.5422 16.0181C51.3064 16.2878 51.1173 16.3834 51.0111 16.29C50.9049 16.1965 50.9495 16.0032 51.1895 15.7207C51.4296 15.4381 51.6176 15.3595 51.7259 15.453Z" fill="#09232E"/>
<path d="M52.6408 16.3802L51.7581 17.3106L52.0151 17.5549L53.1453 16.3961L52.9106 16.1731L52.4559 16.0148L52.3094 16.2676L52.6365 16.376L52.6408 16.3802Z" fill="#09232E"/>
<path d="M52.5808 18.1689C52.8559 18.4567 53.2446 18.3664 53.6153 18.0308C53.9435 17.7323 54.1082 17.3468 53.798 17.0207C53.4879 16.6946 53.096 16.821 52.7646 17.1567C52.4332 17.4923 52.3036 17.8779 52.5808 18.1689ZM53.5877 17.213C53.6939 17.3255 53.6121 17.5125 53.3498 17.7578C53.0874 18.0032 52.8931 18.0765 52.7943 17.9756C52.6955 17.8747 52.7614 17.6856 53.029 17.4275C53.2967 17.1694 53.4889 17.1121 53.5877 17.2151V17.213Z" fill="#09232E"/>
<path d="M54.407 18.2283L53.4372 19.0674L53.6688 19.3351L54.9083 18.2942L54.6959 18.0499L54.2583 17.8481L54.0873 18.0849L54.4038 18.2252L54.407 18.2283Z" fill="#09232E"/>
<path d="M54.1712 20.0031C54.4166 20.3154 54.8085 20.2634 55.2132 19.967C55.5722 19.7015 55.774 19.3351 55.4957 18.9814C55.2174 18.6277 54.8138 18.7148 54.4537 19.0132C54.0937 19.3117 53.9227 19.6866 54.1712 20.0031ZM54.6895 19.3127C54.9816 19.0759 55.1792 19.0419 55.2673 19.1534C55.3555 19.2649 55.2673 19.4529 54.9774 19.6717C54.6874 19.8905 54.4909 19.9468 54.4028 19.8343C54.3146 19.7217 54.3975 19.5432 54.6895 19.3127Z" fill="#09232E"/>
<path d="M55.981 20.2432L54.9327 20.9814L55.1387 21.2703L56.4749 20.3569L56.288 20.0935L55.8705 19.8502L55.6772 20.069L55.9778 20.239L55.981 20.2432Z" fill="#09232E"/>
<path d="M55.571 21.9862C55.6173 22.0623 55.6821 22.1256 55.7593 22.1701C55.8365 22.2147 55.9237 22.2391 56.0128 22.2411C56.2256 22.2381 56.4329 22.1735 56.6097 22.0552C56.7889 21.9569 56.9363 21.8095 57.0346 21.6303C57.0745 21.5457 57.0912 21.4519 57.0832 21.3587C57.0752 21.2654 57.0427 21.1759 56.9889 21.0993C56.7542 20.7339 56.3346 20.7668 55.947 21.0281C55.5593 21.2894 55.3532 21.6463 55.571 21.9862ZM56.7457 21.2501C56.8296 21.3807 56.7117 21.5475 56.4069 21.7366C56.102 21.9256 55.8949 21.9617 55.8174 21.8428C55.7398 21.7238 55.8418 21.5528 56.1541 21.3531C56.4663 21.1535 56.6692 21.1301 56.7457 21.2501Z" fill="#09232E"/>
<path d="M57.3457 22.3993L57.3479 22.4036L56.2316 23.0345L56.4089 23.3415L57.829 22.5661L57.6676 22.2857L57.2756 22.0021L57.0621 22.2007L57.3457 22.3993Z" fill="#09232E"/>
<path d="M57.2366 23.1843C56.834 23.4031 56.5834 23.7387 56.7671 24.0967C56.8055 24.1767 56.8633 24.2459 56.9353 24.2979C57.0073 24.3498 57.0911 24.3829 57.1792 24.3941C57.3912 24.4133 57.6043 24.3701 57.792 24.2698C58.1925 24.0829 58.4771 23.7557 58.2679 23.3574C58.0586 22.9591 57.6487 22.9623 57.2366 23.1843ZM58.0098 23.4817C58.0799 23.6198 57.9461 23.7738 57.6242 23.931C57.3024 24.0882 57.0932 24.1041 57.0273 23.9766C56.9615 23.8492 57.0794 23.6909 57.4097 23.5231C57.74 23.3553 57.9439 23.3542 58.0098 23.4817Z" fill="#09232E"/>
<path d="M58.4917 24.6861L58.4938 24.6904L57.3191 25.2055L57.4646 25.5295L58.9558 24.8996L58.8231 24.6043L58.4598 24.2846L58.2283 24.4599L58.4917 24.6861Z" fill="#09232E"/>
<path d="M58.3027 25.4562C57.8779 25.6335 57.5975 25.9426 57.7451 26.3165C57.8928 26.6904 58.2762 26.7583 58.7467 26.5926C59.162 26.4471 59.4827 26.1476 59.3128 25.7312C59.1429 25.3149 58.735 25.2788 58.3027 25.4562ZM58.6161 26.2368C58.2698 26.3653 58.0691 26.3568 58.016 26.223C57.9629 26.0892 58.0956 25.9437 58.4408 25.8109C58.786 25.6781 58.9899 25.6962 59.042 25.829C59.094 25.9617 58.9517 26.1126 58.6161 26.2347V26.2368Z" fill="#09232E"/>
<path d="M59.4075 27.0759L58.1881 27.4721C58.2243 27.5836 58.2668 27.6941 58.2944 27.8077L59.8408 27.3319C59.8132 27.2257 59.7739 27.1269 59.741 27.0239L59.4075 26.6734L59.1589 26.8253L59.4075 27.0759Z" fill="#09232E"/>
<path d="M59.1351 27.8279C58.6975 27.9617 58.3852 28.24 58.4978 28.6277C58.5202 28.7132 58.563 28.792 58.6226 28.8573C58.6822 28.9227 58.7567 28.9725 58.8398 29.0027C59.044 29.0631 59.2613 29.0631 59.4654 29.0027C59.6649 28.9625 59.849 28.8667 59.9965 28.7265C60.0593 28.6618 60.1047 28.5821 60.1282 28.4949C60.1486 28.3981 60.1442 28.2976 60.1154 28.2029C59.9954 27.7812 59.5833 27.6888 59.1351 27.8279ZM59.8361 28.273C59.8786 28.4227 59.7171 28.5459 59.3698 28.6362C59.0225 28.7265 58.8143 28.6999 58.775 28.5619C58.7357 28.4238 58.8813 28.2921 59.2392 28.1944C59.5971 28.0966 59.7968 28.1306 59.8319 28.2687L59.8361 28.273Z" fill="#09232E"/>
<path d="M59.8546 29.2714L60.067 29.5454L58.8137 29.8173C58.8392 29.932 58.871 30.0457 58.8901 30.1625L60.4759 29.8438C60.46 29.7376 60.4302 29.6314 60.4079 29.5252L60.1148 29.1397L59.8546 29.2714Z" fill="#09232E"/>
<path d="M59.7261 30.2623C59.2768 30.3515 58.9391 30.5979 59.0092 30.9941C59.0227 31.0816 59.0575 31.1644 59.1105 31.2353C59.1634 31.3062 59.2329 31.3631 59.313 31.4009C59.5099 31.4821 59.7262 31.5038 59.9353 31.4636C60.138 31.4441 60.3311 31.3675 60.4919 31.2427C60.5602 31.1858 60.6131 31.1128 60.6459 31.0302C60.6763 30.9362 60.6818 30.836 60.6618 30.7392C60.5886 30.3059 60.1871 30.1731 59.7261 30.2623ZM60.3793 30.7753C60.4059 30.9283 60.2327 31.0345 59.8791 31.094C59.5254 31.1534 59.3193 31.1025 59.2938 30.9612C59.2683 30.8199 59.4266 30.7031 59.793 30.6425C60.1595 30.582 60.3559 30.6341 60.3814 30.7753H60.3793Z" fill="#09232E"/>
<path d="M60.2971 31.7748L60.483 32.069L59.2085 32.2135C59.2223 32.3314 59.2414 32.4482 59.2499 32.5661L60.8601 32.4068C60.8537 32.3006 60.8357 32.1944 60.8229 32.0882L60.5754 31.676L60.2971 31.7748Z" fill="#09232E"/>
<path d="M60.0732 32.7477C59.6175 32.7923 59.2564 33.0037 59.2872 33.4052C59.318 33.8067 59.66 33.984 60.1624 33.9649C60.6021 33.9479 60.9972 33.7578 60.9579 33.3096C60.9186 32.8614 60.5395 32.7052 60.0732 32.7477ZM60.1422 33.5868C59.7747 33.607 59.5846 33.539 59.574 33.3967C59.5634 33.2543 59.7322 33.1534 60.105 33.128C60.4779 33.1025 60.6627 33.1811 60.6733 33.3234C60.6839 33.4657 60.5002 33.5634 60.1422 33.5868Z" fill="#09232E"/>
<path d="M60.4906 34.3091L60.6457 34.6203V34.6245L59.3637 34.6436L59.3733 34.9973H60.9909L60.9835 34.6744L60.7732 34.2379L60.4906 34.3091Z" fill="#09232E"/>
</svg>
