<svg width="302" height="282" viewBox="0 0 302 282" fill="none" xmlns="http://www.w3.org/2000/svg">
<mask id="path-1-inside-1_277:232" fill="white">
<path d="M203.994 -10H221.482L224.852 14.4551L228.859 16.1889C228.859 16.1889 298.627 37.9978 298.627 101.873C298.627 101.873 371.492 101.873 371.492 183.998C371.492 183.998 462.572 211.374 407.924 293.499L225.763 476H199.623L17.4616 293.499C-37.1867 211.374 53.8938 183.998 53.8938 183.998C53.8938 101.873 126.758 101.873 126.758 101.873C126.758 37.9978 196.617 16.1889 196.617 16.1889L200.533 14.4551L203.994 -10C205.452 -8.53999 212.647 -10 212.647 -10Z"/>
</mask>
<path d="M221.482 -10L229.407 -11.0921L228.455 -18H221.482V-10ZM224.852 14.4551L216.927 15.5472L217.542 20.0091L221.675 21.7975L224.852 14.4551ZM228.859 16.1889L225.683 23.5312L226.07 23.6987L226.473 23.8245L228.859 16.1889ZM298.627 101.873H290.627V109.873H298.627V101.873ZM371.492 183.998H363.492V189.948L369.189 191.66L371.492 183.998ZM407.924 293.499L413.586 299.151L414.145 298.59L414.584 297.931L407.924 293.499ZM225.763 476V484H229.081L231.425 481.652L225.763 476ZM199.623 476L193.96 481.652L196.305 484H199.623V476ZM17.4616 293.499L10.8014 297.931L11.2401 298.59L11.7995 299.151L17.4616 293.499ZM53.8938 183.998L56.1965 191.66L61.8938 189.948V183.998H53.8938ZM126.758 101.873V109.873H134.758V101.873H126.758ZM196.617 16.1889L199.001 23.8254L199.437 23.6892L199.855 23.5042L196.617 16.1889ZM200.533 14.4551L203.772 21.7704L207.832 19.9729L208.455 15.5761L200.533 14.4551ZM203.994 -10L209.656 -15.6516L198.321 -27.0077L196.073 -11.121L203.994 -10ZM203.994 -2H221.482V-18H203.994V-2ZM213.557 -8.90791L216.927 15.5472L232.777 13.363L229.407 -11.0921L213.557 -8.90791ZM221.675 21.7975L225.683 23.5312L232.036 8.84657L228.028 7.11279L221.675 21.7975ZM228.859 16.1889C226.473 23.8245 226.47 23.8237 226.467 23.8228C226.467 23.8227 226.464 23.822 226.463 23.8216C226.461 23.821 226.46 23.8207 226.46 23.8207C226.46 23.8207 226.464 23.822 226.473 23.8247C226.489 23.8299 226.522 23.8405 226.571 23.8564C226.668 23.8882 226.828 23.9413 227.047 24.0164C227.484 24.1666 228.156 24.4042 229.029 24.734C230.775 25.3942 233.316 26.42 236.386 27.8482C242.547 30.714 250.726 35.1481 258.861 41.4153C275.131 53.9489 290.627 73.2717 290.627 101.873H306.627C306.627 66.5991 287.239 43.0798 268.625 28.7402C259.319 21.5708 250.056 16.5604 243.135 13.341C239.664 11.7265 236.755 10.5496 234.686 9.76751C233.651 9.3762 232.823 9.08292 232.239 8.88245C231.947 8.78219 231.715 8.70506 231.548 8.65043C231.465 8.62312 231.398 8.60142 231.347 8.58525C231.322 8.57717 231.301 8.57047 231.284 8.56514C231.276 8.56248 231.268 8.56016 231.262 8.55818C231.259 8.55719 231.255 8.55596 231.253 8.55547C231.25 8.55433 231.246 8.55327 228.859 16.1889ZM298.627 101.873C298.627 109.873 298.623 109.873 298.619 109.873C298.618 109.873 298.615 109.873 298.613 109.873C298.609 109.873 298.606 109.873 298.605 109.873C298.602 109.873 298.603 109.873 298.608 109.873C298.619 109.873 298.647 109.873 298.691 109.874C298.779 109.876 298.931 109.879 299.145 109.887C299.572 109.904 300.241 109.937 301.116 110.008C302.869 110.149 305.433 110.436 308.535 111.019C314.772 112.19 322.991 114.52 331.132 119.108C346.89 127.989 363.492 145.889 363.492 183.998H379.492C379.492 139.982 359.661 116.82 338.987 105.169C328.912 99.4914 318.914 96.6887 311.489 95.2938C307.76 94.5933 304.632 94.239 302.4 94.0593C301.283 93.9693 300.386 93.9228 299.746 93.8988C299.426 93.8867 299.169 93.8803 298.982 93.8769C298.888 93.8752 298.811 93.8742 298.751 93.8737C298.722 93.8735 298.697 93.8733 298.676 93.8732C298.665 93.8732 298.656 93.8731 298.648 93.8731C298.644 93.8731 298.639 93.8731 298.637 93.8731C298.632 93.8731 298.627 93.8731 298.627 101.873ZM371.492 183.998C369.189 191.66 369.185 191.659 369.182 191.658C369.182 191.658 369.179 191.657 369.178 191.657C369.176 191.656 369.175 191.656 369.175 191.656C369.176 191.656 369.183 191.658 369.194 191.662C369.217 191.669 369.261 191.683 369.325 191.703C369.454 191.744 369.662 191.811 369.944 191.906C370.507 192.096 371.361 192.396 372.448 192.81C374.627 193.641 377.721 194.926 381.286 196.712C388.483 200.317 397.256 205.793 404.347 213.405C411.364 220.937 416.584 230.377 417.301 242.226C418.021 254.133 414.258 269.539 401.263 289.067L414.584 297.931C428.914 276.396 434.259 257.583 433.271 241.26C432.28 224.879 424.977 212.076 416.054 202.499C407.206 193.001 396.625 186.501 388.452 182.406C384.332 180.342 380.737 178.847 378.149 177.86C376.852 177.366 375.803 176.997 375.058 176.746C374.686 176.62 374.39 176.524 374.177 176.456C374.07 176.422 373.984 176.395 373.92 176.376C373.888 176.366 373.862 176.358 373.841 176.351C373.83 176.348 373.821 176.345 373.813 176.343C373.809 176.342 373.805 176.34 373.803 176.34C373.798 176.338 373.794 176.337 371.492 183.998ZM402.262 287.847L220.101 470.348L231.425 481.652L413.586 299.151L402.262 287.847ZM225.763 468H199.623V484H225.763V468ZM205.285 470.348L23.1237 287.847L11.7995 299.151L193.96 481.652L205.285 470.348ZM24.1218 289.067C11.1274 269.539 7.36445 254.133 8.08477 242.226C8.80158 230.377 14.0214 220.937 21.0381 213.405C28.129 205.793 36.9028 200.317 44.0994 196.712C47.6639 194.926 50.7583 193.641 52.9372 192.81C54.0246 192.396 54.8783 192.096 55.4416 191.906C55.723 191.811 55.9315 191.744 56.0598 191.703C56.124 191.683 56.168 191.669 56.1911 191.662C56.2027 191.658 56.209 191.656 56.2099 191.656C56.2104 191.656 56.2095 191.656 56.2073 191.657C56.2062 191.657 56.2035 191.658 56.2029 191.658C56.1999 191.659 56.1965 191.66 53.8938 183.998C51.5911 176.337 51.587 176.338 51.5826 176.34C51.5807 176.34 51.5759 176.342 51.572 176.343C51.5643 176.345 51.5551 176.348 51.5446 176.351C51.5235 176.358 51.4969 176.366 51.4649 176.376C51.4008 176.395 51.3151 176.422 51.2085 176.456C50.9955 176.524 50.6992 176.62 50.327 176.746C49.5828 176.997 48.5329 177.366 47.2366 177.86C44.648 178.847 41.0537 180.342 36.9333 182.406C28.7601 186.501 18.1792 193.001 9.33106 202.499C0.408683 212.076 -6.89509 224.879 -7.88604 241.26C-8.87347 257.583 -3.52836 276.396 10.8014 297.931L24.1218 289.067ZM61.8938 183.998C61.8938 145.889 78.4958 127.989 94.2536 119.108C102.395 114.52 110.613 112.19 116.85 111.019C119.952 110.436 122.516 110.149 124.269 110.008C125.144 109.937 125.813 109.904 126.24 109.887C126.454 109.879 126.607 109.876 126.695 109.874C126.739 109.873 126.766 109.873 126.777 109.873C126.782 109.873 126.784 109.873 126.78 109.873C126.779 109.873 126.776 109.873 126.773 109.873C126.771 109.873 126.767 109.873 126.766 109.873C126.762 109.873 126.758 109.873 126.758 101.873C126.758 93.8731 126.754 93.8731 126.749 93.8731C126.747 93.8731 126.741 93.8731 126.737 93.8731C126.729 93.8731 126.72 93.8732 126.709 93.8732C126.689 93.8733 126.663 93.8735 126.634 93.8737C126.575 93.8742 126.498 93.8752 126.404 93.8769C126.216 93.8803 125.96 93.8867 125.64 93.8988C125 93.9228 124.103 93.9693 122.985 94.0593C120.753 94.239 117.625 94.5933 113.896 95.2938C106.471 96.6887 96.4735 99.4914 86.3984 105.169C65.724 116.82 45.8938 139.982 45.8938 183.998H61.8938ZM134.758 101.873C134.758 73.2763 150.272 53.9539 166.566 41.4183C174.712 35.1506 182.903 30.7161 189.072 27.8499C192.146 26.4215 194.691 25.3955 196.44 24.7352C197.314 24.4054 197.987 24.1677 198.426 24.0174C198.645 23.9423 198.805 23.8892 198.902 23.8574C198.951 23.8414 198.984 23.8309 199.001 23.8256C199.009 23.8229 199.013 23.8216 199.013 23.8216C199.013 23.8216 199.012 23.8219 199.01 23.8225C199.009 23.8228 199.007 23.8236 199.006 23.8237C199.004 23.8245 199.001 23.8254 196.617 16.1889C194.233 8.55238 194.229 8.55344 194.226 8.55458C194.224 8.55507 194.22 8.5563 194.217 8.55729C194.211 8.55926 194.203 8.56158 194.195 8.56424C194.178 8.56956 194.157 8.57625 194.132 8.58433C194.081 8.60048 194.014 8.62217 193.93 8.64948C193.763 8.70408 193.531 8.78118 193.239 8.88141C192.654 9.08183 191.826 9.37505 190.79 9.76629C188.718 10.5482 185.806 11.725 182.331 13.3393C175.402 16.5584 166.127 21.5683 156.809 28.7372C138.173 43.0749 118.758 66.5946 118.758 101.873H134.758ZM199.855 23.5042L203.772 21.7704L197.295 7.13981L193.379 8.8736L199.855 23.5042ZM208.455 15.5761L211.915 -8.87903L196.073 -11.121L192.612 13.3342L208.455 15.5761ZM198.332 -4.34842C199.839 -2.83904 201.537 -2.19987 202.508 -1.91158C203.57 -1.5962 204.574 -1.4678 205.34 -1.40817C206.874 -1.28885 208.423 -1.37767 209.601 -1.48623C210.837 -1.60013 211.979 -1.76673 212.791 -1.8996C213.204 -1.96713 213.548 -2.02859 213.796 -2.07462C213.92 -2.0977 214.021 -2.11707 214.096 -2.1316C214.133 -2.13887 214.164 -2.14494 214.188 -2.14968C214.2 -2.15205 214.21 -2.15409 214.218 -2.15577C214.222 -2.15662 214.226 -2.15737 214.229 -2.15804C214.231 -2.15837 214.233 -2.15868 214.234 -2.15897C214.235 -2.15911 214.236 -2.15931 214.236 -2.15939C214.237 -2.15958 214.238 -2.15977 212.647 -10C211.056 -17.8402 211.057 -17.8404 211.058 -17.8406C211.058 -17.8406 211.059 -17.8408 211.06 -17.8409C211.06 -17.8411 211.061 -17.8413 211.062 -17.8414C211.064 -17.8417 211.065 -17.842 211.066 -17.8421C211.067 -17.8424 211.067 -17.8424 211.065 -17.842C211.062 -17.8413 211.052 -17.8394 211.036 -17.8363C211.005 -17.8302 210.95 -17.8196 210.874 -17.8056C210.723 -17.7775 210.493 -17.7363 210.209 -17.6898C209.626 -17.5945 208.878 -17.4874 208.133 -17.4188C207.331 -17.3448 206.807 -17.3424 206.582 -17.3599C206.469 -17.3688 206.671 -17.3658 207.061 -17.2501C207.36 -17.1614 208.514 -16.796 209.656 -15.6516L198.332 -4.34842Z" fill="url(#paint0_linear_277:232)" mask="url(#path-1-inside-1_277:232)"/>
<defs>
<linearGradient id="paint0_linear_277:232" x1="-27.356" y1="-10.0001" x2="447.588" y2="-1.38418" gradientUnits="userSpaceOnUse">
<stop stop-color="#FFE98E" stop-opacity="0.06"/>
<stop offset="0.272302" stop-color="#FFEFAF" stop-opacity="0.94"/>
<stop offset="0.438417" stop-color="#FFF6D0" stop-opacity="0.39"/>
<stop offset="0.768367" stop-color="#FFEFAD" stop-opacity="0.99"/>
<stop offset="1" stop-color="#FFE98E" stop-opacity="0.29"/>
</linearGradient>
</defs>
</svg>
